M48
; DRILL file {KiCad (5.1.4)-1} date 2020/04/17 11:09:59
; FORMAT={3:3/ absolute / metric / suppress trailing zeros}
; #@! TF.CreationDate,2020-04-17T11:09:59+09:00
; #@! TF.GenerationSoftware,Kicad,Pcbnew,(5.1.4)-1
; #@! TF.FileFunction,Plated,1,2,PTH
FMAT,2
METRIC,LZ
T1C0.400
T2C0.800
T3C1.000
%
G90
G05
T1
X105016Y-096424
X105016Y-114458
X105016Y-116998
X105016Y-1203
X105016Y-125888
X10527Y-08855
X11516Y-101012
X115176Y-104552
X115176Y-108459
X116543Y-106648
X1167Y-08982
X1167Y-0949
X1167Y-13046
X117208Y-107854
X118542Y-112236
X119685Y-104679
X119685Y-106584
X119685Y-111156
X119697Y-11395
X120891Y-100996
X120891Y-10506
X120907Y-107854
X120907Y-113539
X12178Y-08474
X12178Y-08982
X12178Y-0949
X12178Y-118268
X12178Y-12538
X12178Y-13046
X122034Y-101313
X122034Y-104044
X122131Y-108616
X122557Y-113046
X123368Y-099472
X123368Y-105695
X124193Y-104171
X124193Y-111791
X124193Y-118268
X12686Y-08474
X12686Y-08982
X12686Y-098956
X12686Y-11522
X12686Y-1203
X12686Y-12538
X12686Y-13046
X127622Y-094392
X1294Y-09744
X13194Y-08474
X13194Y-11014
X13194Y-11522
X13194Y-1203
X13194Y-13046
X13448Y-09744
X13448Y-10252
X13702Y-08474
X13702Y-11014
X13702Y-11522
X13702Y-1203
X13702Y-12538
X13702Y-13046
X13956Y-09744
X139687Y-104044
X139687Y-108997
X140068Y-0949
X140576Y-093376
X1421Y-08474
X1421Y-11522
X1421Y-13046
X145402Y-104044
X14718Y-11522
X148958Y-104298
X15226Y-09236
X15226Y-0949
X15226Y-09998
X15226Y-10506
X15226Y-11522
X15226Y-1203
X15226Y-12538
X106825Y-09022
X106825Y-09276
X106825Y-0953
X106825Y-09784
X106825Y-10038
X106825Y-10292
X106825Y-10546
X106825Y-108
X106825Y-11054
X106825Y-11308
X106825Y-11562
X106825Y-11816
X106825Y-1207
X106825Y-12324
X106825Y-12578
X113175Y-09022
X113175Y-09276
X113175Y-0953
X113175Y-09784
X113175Y-10038
X113175Y-10292
X113175Y-10546
X113175Y-108
X113175Y-11054
X113175Y-11308
X113175Y-11562
X113175Y-11816
X113175Y-1207
X113175Y-12324
X113175Y-12578
T2
X14718Y-11811
X14718Y-12011
X14718Y-12211
X14718Y-12411
T3
X1421Y-10506
X1421Y-1076
X1421Y-11014
X1421Y-11268
X14845Y-11014
X14845Y-11268
X12686Y-10252
X12686Y-10506
X12686Y-1076
X12686Y-11014
X12686Y-11268
X10873Y-09022
X10873Y-09276
X10873Y-0953
X10873Y-09784
X10873Y-10038
X10873Y-10292
X10873Y-10546
X10873Y-108
X10873Y-11054
X10873Y-11308
X10873Y-11562
X10873Y-11816
X10873Y-1207
X10873Y-12324
X10873Y-12578
X11127Y-09022
X11127Y-09276
X11127Y-0953
X11127Y-09784
X11127Y-10038
X11127Y-10292
X11127Y-10546
X11127Y-108
X11127Y-11054
X11127Y-11308
X11127Y-11562
X11127Y-11816
X11127Y-1207
X11127Y-12324
X11127Y-12578
T0
M30
