G04 #@! TF.GenerationSoftware,KiCad,Pcbnew,(5.1.4)-1*
G04 #@! TF.CreationDate,2020-04-17T11:09:56+09:00*
G04 #@! TF.ProjectId,M5_Atom2Mbus,4d355f41-746f-46d3-924d-6275732e6b69,v0.1*
G04 #@! TF.SameCoordinates,Original*
G04 #@! TF.FileFunction,Profile,NP*
%FSLAX46Y46*%
G04 Gerber Fmt 4.6, Leading zero omitted, Abs format (unit mm)*
G04 Created by KiCad (PCBNEW (5.1.4)-1) date 2020-04-17 11:09:56*
%MOMM*%
%LPD*%
G04 APERTURE LIST*
%ADD10C,0.150000*%
G04 APERTURE END LIST*
D10*
X107100000Y-132700000D02*
X107000000Y-132700000D01*
X153700000Y-126000000D02*
X153700000Y-130000000D01*
X154000000Y-90300000D02*
X154000000Y-125700000D01*
X153700000Y-85900000D02*
X153700000Y-90000000D01*
X104300000Y-86000000D02*
X104300000Y-90000000D01*
X104000000Y-125700000D02*
X104000000Y-90300000D01*
X104300000Y-126000000D02*
X104000000Y-125700000D01*
X104300000Y-130000000D02*
X104300000Y-126000000D01*
X107100000Y-132700000D02*
X114000000Y-132700000D01*
X104300000Y-130000000D02*
G75*
G03X107000000Y-132700000I2700000J0D01*
G01*
X151000000Y-132700000D02*
X144000000Y-132700000D01*
X151000000Y-132700000D02*
G75*
G03X153700000Y-130000000I0J2700000D01*
G01*
X150900000Y-83300000D02*
X144000000Y-83300000D01*
X153700000Y-85900000D02*
G75*
G03X150900000Y-83300000I-2700000J-100000D01*
G01*
X107000000Y-83300000D02*
X112300000Y-83300000D01*
X107000000Y-83300000D02*
G75*
G03X104300000Y-86000000I0J-2700000D01*
G01*
X143700000Y-133000000D02*
X114300000Y-133000000D01*
X144000000Y-132700000D02*
X143700000Y-133000000D01*
X153700000Y-126000000D02*
X154000000Y-125700000D01*
X114000000Y-132700000D02*
X114300000Y-133000000D01*
X143700000Y-83000000D02*
X117000000Y-83000000D01*
X153700000Y-90000000D02*
X154000000Y-90300000D01*
X144000000Y-83300000D02*
X143700000Y-83000000D01*
X104300000Y-90000000D02*
X104000000Y-90300000D01*
X112300000Y-83300000D02*
X112500000Y-83500000D01*
X105666666Y-133000000D02*
G75*
G03X105666666Y-133000000I-1666666J0D01*
G01*
X101500000Y-133000000D02*
X106500000Y-133000000D01*
X104000000Y-130500000D02*
X104000000Y-135500000D01*
X116000000Y-85500000D02*
X116500000Y-85000000D01*
X112500000Y-85000000D02*
X113000000Y-85500000D01*
X116500000Y-85000000D02*
X116500000Y-83500000D01*
X113000000Y-85500000D02*
X116000000Y-85500000D01*
X112500000Y-83500000D02*
X112500000Y-85000000D01*
X116500000Y-83500000D02*
X117000000Y-83000000D01*
M02*
