G04 #@! TF.GenerationSoftware,KiCad,Pcbnew,(5.1.4)-1*
G04 #@! TF.CreationDate,2020-04-17T11:09:56+09:00*
G04 #@! TF.ProjectId,M5_Atom2Mbus,4d355f41-746f-46d3-924d-6275732e6b69,v0.1*
G04 #@! TF.SameCoordinates,Original*
G04 #@! TF.FileFunction,Copper,L1,Top*
G04 #@! TF.FilePolarity,Positive*
%FSLAX46Y46*%
G04 Gerber Fmt 4.6, Leading zero omitted, Abs format (unit mm)*
G04 Created by KiCad (PCBNEW (5.1.4)-1) date 2020-04-17 11:09:56*
%MOMM*%
%LPD*%
G04 APERTURE LIST*
%ADD10R,1.600200X1.168400*%
%ADD11R,3.150000X1.000000*%
%ADD12C,0.800000*%
%ADD13C,1.700000*%
%ADD14C,0.100000*%
%ADD15C,0.875000*%
%ADD16R,1.700000X1.700000*%
%ADD17O,1.700000X1.700000*%
%ADD18R,1.350000X1.350000*%
%ADD19C,1.350000*%
%ADD20R,0.900000X0.800000*%
%ADD21R,1.800000X2.500000*%
%ADD22R,2.000000X3.800000*%
%ADD23R,2.000000X1.500000*%
%ADD24C,0.600000*%
%ADD25C,0.250000*%
%ADD26C,1.000000*%
%ADD27C,2.000000*%
%ADD28C,0.254000*%
G04 APERTURE END LIST*
D10*
X148450000Y-100488000D03*
X148450000Y-98964000D03*
D11*
X107475000Y-90220000D03*
X107475000Y-102920000D03*
X107475000Y-100380000D03*
X107475000Y-97840000D03*
X107475000Y-95300000D03*
X107475000Y-92760000D03*
D12*
X106825000Y-90220000D03*
D11*
X112525000Y-90220000D03*
X112525000Y-92760000D03*
X112525000Y-95300000D03*
X112525000Y-97840000D03*
X112525000Y-100380000D03*
X112525000Y-102920000D03*
X107475000Y-105460000D03*
X112525000Y-105460000D03*
X107475000Y-108000000D03*
X112525000Y-108000000D03*
X107475000Y-110540000D03*
X112525000Y-110540000D03*
X107475000Y-113080000D03*
X112525000Y-113080000D03*
X107475000Y-115620000D03*
X112525000Y-115620000D03*
X107475000Y-118160000D03*
X112525000Y-118160000D03*
X107475000Y-120700000D03*
X112525000Y-120700000D03*
X107475000Y-123240000D03*
X112525000Y-123240000D03*
X107475000Y-125780000D03*
X112525000Y-125780000D03*
D12*
X106825000Y-92760000D03*
X106825000Y-95300000D03*
X106825000Y-97840000D03*
X106825000Y-100380000D03*
X106825000Y-102920000D03*
X106825000Y-105460000D03*
X106825000Y-108000000D03*
X106825000Y-110540000D03*
X106825000Y-113080000D03*
X106825000Y-115620000D03*
X106825000Y-118160000D03*
X106825000Y-120700000D03*
X106825000Y-123240000D03*
X106825000Y-125780000D03*
X113175000Y-90220000D03*
X113175000Y-92760000D03*
X113175000Y-95300000D03*
X113175000Y-97840000D03*
X113175000Y-100380000D03*
X113175000Y-102920000D03*
X113175000Y-105460000D03*
X113175000Y-108000000D03*
X113175000Y-110540000D03*
X113175000Y-113080000D03*
X113175000Y-115620000D03*
X113175000Y-118160000D03*
X113175000Y-120700000D03*
X113175000Y-123240000D03*
X113175000Y-125780000D03*
D13*
X108730000Y-90220000D03*
X111270000Y-90220000D03*
X108730000Y-92760000D03*
X111270000Y-92760000D03*
X108730000Y-95300000D03*
X111270000Y-95300000D03*
X108730000Y-97840000D03*
X111270000Y-97840000D03*
X108730000Y-100380000D03*
X111270000Y-100380000D03*
X108730000Y-102920000D03*
X111270000Y-102920000D03*
X108730000Y-105460000D03*
X111270000Y-105460000D03*
X108730000Y-108000000D03*
X111270000Y-108000000D03*
X108730000Y-110540000D03*
X111270000Y-110540000D03*
X108730000Y-113080000D03*
X111270000Y-113080000D03*
X108730000Y-115620000D03*
X111270000Y-115620000D03*
X108730000Y-118160000D03*
X111270000Y-118160000D03*
X108730000Y-120700000D03*
X111270000Y-120700000D03*
X108730000Y-123240000D03*
X111270000Y-123240000D03*
X108730000Y-125780000D03*
X111270000Y-125780000D03*
D14*
G36*
X122311691Y-97549553D02*
G01*
X122332926Y-97552703D01*
X122353750Y-97557919D01*
X122373962Y-97565151D01*
X122393368Y-97574330D01*
X122411781Y-97585366D01*
X122429024Y-97598154D01*
X122444930Y-97612570D01*
X122459346Y-97628476D01*
X122472134Y-97645719D01*
X122483170Y-97664132D01*
X122492349Y-97683538D01*
X122499581Y-97703750D01*
X122504797Y-97724574D01*
X122507947Y-97745809D01*
X122509000Y-97767250D01*
X122509000Y-98204750D01*
X122507947Y-98226191D01*
X122504797Y-98247426D01*
X122499581Y-98268250D01*
X122492349Y-98288462D01*
X122483170Y-98307868D01*
X122472134Y-98326281D01*
X122459346Y-98343524D01*
X122444930Y-98359430D01*
X122429024Y-98373846D01*
X122411781Y-98386634D01*
X122393368Y-98397670D01*
X122373962Y-98406849D01*
X122353750Y-98414081D01*
X122332926Y-98419297D01*
X122311691Y-98422447D01*
X122290250Y-98423500D01*
X121777750Y-98423500D01*
X121756309Y-98422447D01*
X121735074Y-98419297D01*
X121714250Y-98414081D01*
X121694038Y-98406849D01*
X121674632Y-98397670D01*
X121656219Y-98386634D01*
X121638976Y-98373846D01*
X121623070Y-98359430D01*
X121608654Y-98343524D01*
X121595866Y-98326281D01*
X121584830Y-98307868D01*
X121575651Y-98288462D01*
X121568419Y-98268250D01*
X121563203Y-98247426D01*
X121560053Y-98226191D01*
X121559000Y-98204750D01*
X121559000Y-97767250D01*
X121560053Y-97745809D01*
X121563203Y-97724574D01*
X121568419Y-97703750D01*
X121575651Y-97683538D01*
X121584830Y-97664132D01*
X121595866Y-97645719D01*
X121608654Y-97628476D01*
X121623070Y-97612570D01*
X121638976Y-97598154D01*
X121656219Y-97585366D01*
X121674632Y-97574330D01*
X121694038Y-97565151D01*
X121714250Y-97557919D01*
X121735074Y-97552703D01*
X121756309Y-97549553D01*
X121777750Y-97548500D01*
X122290250Y-97548500D01*
X122311691Y-97549553D01*
X122311691Y-97549553D01*
G37*
D15*
X122034000Y-97986000D03*
D14*
G36*
X122311691Y-99124553D02*
G01*
X122332926Y-99127703D01*
X122353750Y-99132919D01*
X122373962Y-99140151D01*
X122393368Y-99149330D01*
X122411781Y-99160366D01*
X122429024Y-99173154D01*
X122444930Y-99187570D01*
X122459346Y-99203476D01*
X122472134Y-99220719D01*
X122483170Y-99239132D01*
X122492349Y-99258538D01*
X122499581Y-99278750D01*
X122504797Y-99299574D01*
X122507947Y-99320809D01*
X122509000Y-99342250D01*
X122509000Y-99779750D01*
X122507947Y-99801191D01*
X122504797Y-99822426D01*
X122499581Y-99843250D01*
X122492349Y-99863462D01*
X122483170Y-99882868D01*
X122472134Y-99901281D01*
X122459346Y-99918524D01*
X122444930Y-99934430D01*
X122429024Y-99948846D01*
X122411781Y-99961634D01*
X122393368Y-99972670D01*
X122373962Y-99981849D01*
X122353750Y-99989081D01*
X122332926Y-99994297D01*
X122311691Y-99997447D01*
X122290250Y-99998500D01*
X121777750Y-99998500D01*
X121756309Y-99997447D01*
X121735074Y-99994297D01*
X121714250Y-99989081D01*
X121694038Y-99981849D01*
X121674632Y-99972670D01*
X121656219Y-99961634D01*
X121638976Y-99948846D01*
X121623070Y-99934430D01*
X121608654Y-99918524D01*
X121595866Y-99901281D01*
X121584830Y-99882868D01*
X121575651Y-99863462D01*
X121568419Y-99843250D01*
X121563203Y-99822426D01*
X121560053Y-99801191D01*
X121559000Y-99779750D01*
X121559000Y-99342250D01*
X121560053Y-99320809D01*
X121563203Y-99299574D01*
X121568419Y-99278750D01*
X121575651Y-99258538D01*
X121584830Y-99239132D01*
X121595866Y-99220719D01*
X121608654Y-99203476D01*
X121623070Y-99187570D01*
X121638976Y-99173154D01*
X121656219Y-99160366D01*
X121674632Y-99149330D01*
X121694038Y-99140151D01*
X121714250Y-99132919D01*
X121735074Y-99127703D01*
X121756309Y-99124553D01*
X121777750Y-99123500D01*
X122290250Y-99123500D01*
X122311691Y-99124553D01*
X122311691Y-99124553D01*
G37*
D15*
X122034000Y-99561000D03*
D14*
G36*
X118743691Y-116016053D02*
G01*
X118764926Y-116019203D01*
X118785750Y-116024419D01*
X118805962Y-116031651D01*
X118825368Y-116040830D01*
X118843781Y-116051866D01*
X118861024Y-116064654D01*
X118876930Y-116079070D01*
X118891346Y-116094976D01*
X118904134Y-116112219D01*
X118915170Y-116130632D01*
X118924349Y-116150038D01*
X118931581Y-116170250D01*
X118936797Y-116191074D01*
X118939947Y-116212309D01*
X118941000Y-116233750D01*
X118941000Y-116746250D01*
X118939947Y-116767691D01*
X118936797Y-116788926D01*
X118931581Y-116809750D01*
X118924349Y-116829962D01*
X118915170Y-116849368D01*
X118904134Y-116867781D01*
X118891346Y-116885024D01*
X118876930Y-116900930D01*
X118861024Y-116915346D01*
X118843781Y-116928134D01*
X118825368Y-116939170D01*
X118805962Y-116948349D01*
X118785750Y-116955581D01*
X118764926Y-116960797D01*
X118743691Y-116963947D01*
X118722250Y-116965000D01*
X118284750Y-116965000D01*
X118263309Y-116963947D01*
X118242074Y-116960797D01*
X118221250Y-116955581D01*
X118201038Y-116948349D01*
X118181632Y-116939170D01*
X118163219Y-116928134D01*
X118145976Y-116915346D01*
X118130070Y-116900930D01*
X118115654Y-116885024D01*
X118102866Y-116867781D01*
X118091830Y-116849368D01*
X118082651Y-116829962D01*
X118075419Y-116809750D01*
X118070203Y-116788926D01*
X118067053Y-116767691D01*
X118066000Y-116746250D01*
X118066000Y-116233750D01*
X118067053Y-116212309D01*
X118070203Y-116191074D01*
X118075419Y-116170250D01*
X118082651Y-116150038D01*
X118091830Y-116130632D01*
X118102866Y-116112219D01*
X118115654Y-116094976D01*
X118130070Y-116079070D01*
X118145976Y-116064654D01*
X118163219Y-116051866D01*
X118181632Y-116040830D01*
X118201038Y-116031651D01*
X118221250Y-116024419D01*
X118242074Y-116019203D01*
X118263309Y-116016053D01*
X118284750Y-116015000D01*
X118722250Y-116015000D01*
X118743691Y-116016053D01*
X118743691Y-116016053D01*
G37*
D15*
X118503500Y-116490000D03*
D14*
G36*
X117168691Y-116016053D02*
G01*
X117189926Y-116019203D01*
X117210750Y-116024419D01*
X117230962Y-116031651D01*
X117250368Y-116040830D01*
X117268781Y-116051866D01*
X117286024Y-116064654D01*
X117301930Y-116079070D01*
X117316346Y-116094976D01*
X117329134Y-116112219D01*
X117340170Y-116130632D01*
X117349349Y-116150038D01*
X117356581Y-116170250D01*
X117361797Y-116191074D01*
X117364947Y-116212309D01*
X117366000Y-116233750D01*
X117366000Y-116746250D01*
X117364947Y-116767691D01*
X117361797Y-116788926D01*
X117356581Y-116809750D01*
X117349349Y-116829962D01*
X117340170Y-116849368D01*
X117329134Y-116867781D01*
X117316346Y-116885024D01*
X117301930Y-116900930D01*
X117286024Y-116915346D01*
X117268781Y-116928134D01*
X117250368Y-116939170D01*
X117230962Y-116948349D01*
X117210750Y-116955581D01*
X117189926Y-116960797D01*
X117168691Y-116963947D01*
X117147250Y-116965000D01*
X116709750Y-116965000D01*
X116688309Y-116963947D01*
X116667074Y-116960797D01*
X116646250Y-116955581D01*
X116626038Y-116948349D01*
X116606632Y-116939170D01*
X116588219Y-116928134D01*
X116570976Y-116915346D01*
X116555070Y-116900930D01*
X116540654Y-116885024D01*
X116527866Y-116867781D01*
X116516830Y-116849368D01*
X116507651Y-116829962D01*
X116500419Y-116809750D01*
X116495203Y-116788926D01*
X116492053Y-116767691D01*
X116491000Y-116746250D01*
X116491000Y-116233750D01*
X116492053Y-116212309D01*
X116495203Y-116191074D01*
X116500419Y-116170250D01*
X116507651Y-116150038D01*
X116516830Y-116130632D01*
X116527866Y-116112219D01*
X116540654Y-116094976D01*
X116555070Y-116079070D01*
X116570976Y-116064654D01*
X116588219Y-116051866D01*
X116606632Y-116040830D01*
X116626038Y-116031651D01*
X116646250Y-116024419D01*
X116667074Y-116019203D01*
X116688309Y-116016053D01*
X116709750Y-116015000D01*
X117147250Y-116015000D01*
X117168691Y-116016053D01*
X117168691Y-116016053D01*
G37*
D15*
X116928500Y-116490000D03*
D16*
X126860000Y-112680000D03*
D17*
X126860000Y-110140000D03*
X126860000Y-107600000D03*
X126860000Y-105060000D03*
X126860000Y-102520000D03*
D16*
X142100000Y-112680000D03*
D17*
X142100000Y-110140000D03*
X142100000Y-107600000D03*
X142100000Y-105060000D03*
D14*
G36*
X118743691Y-100522053D02*
G01*
X118764926Y-100525203D01*
X118785750Y-100530419D01*
X118805962Y-100537651D01*
X118825368Y-100546830D01*
X118843781Y-100557866D01*
X118861024Y-100570654D01*
X118876930Y-100585070D01*
X118891346Y-100600976D01*
X118904134Y-100618219D01*
X118915170Y-100636632D01*
X118924349Y-100656038D01*
X118931581Y-100676250D01*
X118936797Y-100697074D01*
X118939947Y-100718309D01*
X118941000Y-100739750D01*
X118941000Y-101252250D01*
X118939947Y-101273691D01*
X118936797Y-101294926D01*
X118931581Y-101315750D01*
X118924349Y-101335962D01*
X118915170Y-101355368D01*
X118904134Y-101373781D01*
X118891346Y-101391024D01*
X118876930Y-101406930D01*
X118861024Y-101421346D01*
X118843781Y-101434134D01*
X118825368Y-101445170D01*
X118805962Y-101454349D01*
X118785750Y-101461581D01*
X118764926Y-101466797D01*
X118743691Y-101469947D01*
X118722250Y-101471000D01*
X118284750Y-101471000D01*
X118263309Y-101469947D01*
X118242074Y-101466797D01*
X118221250Y-101461581D01*
X118201038Y-101454349D01*
X118181632Y-101445170D01*
X118163219Y-101434134D01*
X118145976Y-101421346D01*
X118130070Y-101406930D01*
X118115654Y-101391024D01*
X118102866Y-101373781D01*
X118091830Y-101355368D01*
X118082651Y-101335962D01*
X118075419Y-101315750D01*
X118070203Y-101294926D01*
X118067053Y-101273691D01*
X118066000Y-101252250D01*
X118066000Y-100739750D01*
X118067053Y-100718309D01*
X118070203Y-100697074D01*
X118075419Y-100676250D01*
X118082651Y-100656038D01*
X118091830Y-100636632D01*
X118102866Y-100618219D01*
X118115654Y-100600976D01*
X118130070Y-100585070D01*
X118145976Y-100570654D01*
X118163219Y-100557866D01*
X118181632Y-100546830D01*
X118201038Y-100537651D01*
X118221250Y-100530419D01*
X118242074Y-100525203D01*
X118263309Y-100522053D01*
X118284750Y-100521000D01*
X118722250Y-100521000D01*
X118743691Y-100522053D01*
X118743691Y-100522053D01*
G37*
D15*
X118503500Y-100996000D03*
D14*
G36*
X117168691Y-100522053D02*
G01*
X117189926Y-100525203D01*
X117210750Y-100530419D01*
X117230962Y-100537651D01*
X117250368Y-100546830D01*
X117268781Y-100557866D01*
X117286024Y-100570654D01*
X117301930Y-100585070D01*
X117316346Y-100600976D01*
X117329134Y-100618219D01*
X117340170Y-100636632D01*
X117349349Y-100656038D01*
X117356581Y-100676250D01*
X117361797Y-100697074D01*
X117364947Y-100718309D01*
X117366000Y-100739750D01*
X117366000Y-101252250D01*
X117364947Y-101273691D01*
X117361797Y-101294926D01*
X117356581Y-101315750D01*
X117349349Y-101335962D01*
X117340170Y-101355368D01*
X117329134Y-101373781D01*
X117316346Y-101391024D01*
X117301930Y-101406930D01*
X117286024Y-101421346D01*
X117268781Y-101434134D01*
X117250368Y-101445170D01*
X117230962Y-101454349D01*
X117210750Y-101461581D01*
X117189926Y-101466797D01*
X117168691Y-101469947D01*
X117147250Y-101471000D01*
X116709750Y-101471000D01*
X116688309Y-101469947D01*
X116667074Y-101466797D01*
X116646250Y-101461581D01*
X116626038Y-101454349D01*
X116606632Y-101445170D01*
X116588219Y-101434134D01*
X116570976Y-101421346D01*
X116555070Y-101406930D01*
X116540654Y-101391024D01*
X116527866Y-101373781D01*
X116516830Y-101355368D01*
X116507651Y-101335962D01*
X116500419Y-101315750D01*
X116495203Y-101294926D01*
X116492053Y-101273691D01*
X116491000Y-101252250D01*
X116491000Y-100739750D01*
X116492053Y-100718309D01*
X116495203Y-100697074D01*
X116500419Y-100676250D01*
X116507651Y-100656038D01*
X116516830Y-100636632D01*
X116527866Y-100618219D01*
X116540654Y-100600976D01*
X116555070Y-100585070D01*
X116570976Y-100570654D01*
X116588219Y-100557866D01*
X116606632Y-100546830D01*
X116626038Y-100537651D01*
X116646250Y-100530419D01*
X116667074Y-100525203D01*
X116688309Y-100522053D01*
X116709750Y-100521000D01*
X117147250Y-100521000D01*
X117168691Y-100522053D01*
X117168691Y-100522053D01*
G37*
D15*
X116928500Y-100996000D03*
D14*
G36*
X117168691Y-110682053D02*
G01*
X117189926Y-110685203D01*
X117210750Y-110690419D01*
X117230962Y-110697651D01*
X117250368Y-110706830D01*
X117268781Y-110717866D01*
X117286024Y-110730654D01*
X117301930Y-110745070D01*
X117316346Y-110760976D01*
X117329134Y-110778219D01*
X117340170Y-110796632D01*
X117349349Y-110816038D01*
X117356581Y-110836250D01*
X117361797Y-110857074D01*
X117364947Y-110878309D01*
X117366000Y-110899750D01*
X117366000Y-111412250D01*
X117364947Y-111433691D01*
X117361797Y-111454926D01*
X117356581Y-111475750D01*
X117349349Y-111495962D01*
X117340170Y-111515368D01*
X117329134Y-111533781D01*
X117316346Y-111551024D01*
X117301930Y-111566930D01*
X117286024Y-111581346D01*
X117268781Y-111594134D01*
X117250368Y-111605170D01*
X117230962Y-111614349D01*
X117210750Y-111621581D01*
X117189926Y-111626797D01*
X117168691Y-111629947D01*
X117147250Y-111631000D01*
X116709750Y-111631000D01*
X116688309Y-111629947D01*
X116667074Y-111626797D01*
X116646250Y-111621581D01*
X116626038Y-111614349D01*
X116606632Y-111605170D01*
X116588219Y-111594134D01*
X116570976Y-111581346D01*
X116555070Y-111566930D01*
X116540654Y-111551024D01*
X116527866Y-111533781D01*
X116516830Y-111515368D01*
X116507651Y-111495962D01*
X116500419Y-111475750D01*
X116495203Y-111454926D01*
X116492053Y-111433691D01*
X116491000Y-111412250D01*
X116491000Y-110899750D01*
X116492053Y-110878309D01*
X116495203Y-110857074D01*
X116500419Y-110836250D01*
X116507651Y-110816038D01*
X116516830Y-110796632D01*
X116527866Y-110778219D01*
X116540654Y-110760976D01*
X116555070Y-110745070D01*
X116570976Y-110730654D01*
X116588219Y-110717866D01*
X116606632Y-110706830D01*
X116626038Y-110697651D01*
X116646250Y-110690419D01*
X116667074Y-110685203D01*
X116688309Y-110682053D01*
X116709750Y-110681000D01*
X117147250Y-110681000D01*
X117168691Y-110682053D01*
X117168691Y-110682053D01*
G37*
D15*
X116928500Y-111156000D03*
D14*
G36*
X118743691Y-110682053D02*
G01*
X118764926Y-110685203D01*
X118785750Y-110690419D01*
X118805962Y-110697651D01*
X118825368Y-110706830D01*
X118843781Y-110717866D01*
X118861024Y-110730654D01*
X118876930Y-110745070D01*
X118891346Y-110760976D01*
X118904134Y-110778219D01*
X118915170Y-110796632D01*
X118924349Y-110816038D01*
X118931581Y-110836250D01*
X118936797Y-110857074D01*
X118939947Y-110878309D01*
X118941000Y-110899750D01*
X118941000Y-111412250D01*
X118939947Y-111433691D01*
X118936797Y-111454926D01*
X118931581Y-111475750D01*
X118924349Y-111495962D01*
X118915170Y-111515368D01*
X118904134Y-111533781D01*
X118891346Y-111551024D01*
X118876930Y-111566930D01*
X118861024Y-111581346D01*
X118843781Y-111594134D01*
X118825368Y-111605170D01*
X118805962Y-111614349D01*
X118785750Y-111621581D01*
X118764926Y-111626797D01*
X118743691Y-111629947D01*
X118722250Y-111631000D01*
X118284750Y-111631000D01*
X118263309Y-111629947D01*
X118242074Y-111626797D01*
X118221250Y-111621581D01*
X118201038Y-111614349D01*
X118181632Y-111605170D01*
X118163219Y-111594134D01*
X118145976Y-111581346D01*
X118130070Y-111566930D01*
X118115654Y-111551024D01*
X118102866Y-111533781D01*
X118091830Y-111515368D01*
X118082651Y-111495962D01*
X118075419Y-111475750D01*
X118070203Y-111454926D01*
X118067053Y-111433691D01*
X118066000Y-111412250D01*
X118066000Y-110899750D01*
X118067053Y-110878309D01*
X118070203Y-110857074D01*
X118075419Y-110836250D01*
X118082651Y-110816038D01*
X118091830Y-110796632D01*
X118102866Y-110778219D01*
X118115654Y-110760976D01*
X118130070Y-110745070D01*
X118145976Y-110730654D01*
X118163219Y-110717866D01*
X118181632Y-110706830D01*
X118201038Y-110697651D01*
X118221250Y-110690419D01*
X118242074Y-110685203D01*
X118263309Y-110682053D01*
X118284750Y-110681000D01*
X118722250Y-110681000D01*
X118743691Y-110682053D01*
X118743691Y-110682053D01*
G37*
D15*
X118503500Y-111156000D03*
D14*
G36*
X118743691Y-114238053D02*
G01*
X118764926Y-114241203D01*
X118785750Y-114246419D01*
X118805962Y-114253651D01*
X118825368Y-114262830D01*
X118843781Y-114273866D01*
X118861024Y-114286654D01*
X118876930Y-114301070D01*
X118891346Y-114316976D01*
X118904134Y-114334219D01*
X118915170Y-114352632D01*
X118924349Y-114372038D01*
X118931581Y-114392250D01*
X118936797Y-114413074D01*
X118939947Y-114434309D01*
X118941000Y-114455750D01*
X118941000Y-114968250D01*
X118939947Y-114989691D01*
X118936797Y-115010926D01*
X118931581Y-115031750D01*
X118924349Y-115051962D01*
X118915170Y-115071368D01*
X118904134Y-115089781D01*
X118891346Y-115107024D01*
X118876930Y-115122930D01*
X118861024Y-115137346D01*
X118843781Y-115150134D01*
X118825368Y-115161170D01*
X118805962Y-115170349D01*
X118785750Y-115177581D01*
X118764926Y-115182797D01*
X118743691Y-115185947D01*
X118722250Y-115187000D01*
X118284750Y-115187000D01*
X118263309Y-115185947D01*
X118242074Y-115182797D01*
X118221250Y-115177581D01*
X118201038Y-115170349D01*
X118181632Y-115161170D01*
X118163219Y-115150134D01*
X118145976Y-115137346D01*
X118130070Y-115122930D01*
X118115654Y-115107024D01*
X118102866Y-115089781D01*
X118091830Y-115071368D01*
X118082651Y-115051962D01*
X118075419Y-115031750D01*
X118070203Y-115010926D01*
X118067053Y-114989691D01*
X118066000Y-114968250D01*
X118066000Y-114455750D01*
X118067053Y-114434309D01*
X118070203Y-114413074D01*
X118075419Y-114392250D01*
X118082651Y-114372038D01*
X118091830Y-114352632D01*
X118102866Y-114334219D01*
X118115654Y-114316976D01*
X118130070Y-114301070D01*
X118145976Y-114286654D01*
X118163219Y-114273866D01*
X118181632Y-114262830D01*
X118201038Y-114253651D01*
X118221250Y-114246419D01*
X118242074Y-114241203D01*
X118263309Y-114238053D01*
X118284750Y-114237000D01*
X118722250Y-114237000D01*
X118743691Y-114238053D01*
X118743691Y-114238053D01*
G37*
D15*
X118503500Y-114712000D03*
D14*
G36*
X117168691Y-114238053D02*
G01*
X117189926Y-114241203D01*
X117210750Y-114246419D01*
X117230962Y-114253651D01*
X117250368Y-114262830D01*
X117268781Y-114273866D01*
X117286024Y-114286654D01*
X117301930Y-114301070D01*
X117316346Y-114316976D01*
X117329134Y-114334219D01*
X117340170Y-114352632D01*
X117349349Y-114372038D01*
X117356581Y-114392250D01*
X117361797Y-114413074D01*
X117364947Y-114434309D01*
X117366000Y-114455750D01*
X117366000Y-114968250D01*
X117364947Y-114989691D01*
X117361797Y-115010926D01*
X117356581Y-115031750D01*
X117349349Y-115051962D01*
X117340170Y-115071368D01*
X117329134Y-115089781D01*
X117316346Y-115107024D01*
X117301930Y-115122930D01*
X117286024Y-115137346D01*
X117268781Y-115150134D01*
X117250368Y-115161170D01*
X117230962Y-115170349D01*
X117210750Y-115177581D01*
X117189926Y-115182797D01*
X117168691Y-115185947D01*
X117147250Y-115187000D01*
X116709750Y-115187000D01*
X116688309Y-115185947D01*
X116667074Y-115182797D01*
X116646250Y-115177581D01*
X116626038Y-115170349D01*
X116606632Y-115161170D01*
X116588219Y-115150134D01*
X116570976Y-115137346D01*
X116555070Y-115122930D01*
X116540654Y-115107024D01*
X116527866Y-115089781D01*
X116516830Y-115071368D01*
X116507651Y-115051962D01*
X116500419Y-115031750D01*
X116495203Y-115010926D01*
X116492053Y-114989691D01*
X116491000Y-114968250D01*
X116491000Y-114455750D01*
X116492053Y-114434309D01*
X116495203Y-114413074D01*
X116500419Y-114392250D01*
X116507651Y-114372038D01*
X116516830Y-114352632D01*
X116527866Y-114334219D01*
X116540654Y-114316976D01*
X116555070Y-114301070D01*
X116570976Y-114286654D01*
X116588219Y-114273866D01*
X116606632Y-114262830D01*
X116626038Y-114253651D01*
X116646250Y-114246419D01*
X116667074Y-114241203D01*
X116688309Y-114238053D01*
X116709750Y-114237000D01*
X117147250Y-114237000D01*
X117168691Y-114238053D01*
X117168691Y-114238053D01*
G37*
D15*
X116928500Y-114712000D03*
D14*
G36*
X117168691Y-119572053D02*
G01*
X117189926Y-119575203D01*
X117210750Y-119580419D01*
X117230962Y-119587651D01*
X117250368Y-119596830D01*
X117268781Y-119607866D01*
X117286024Y-119620654D01*
X117301930Y-119635070D01*
X117316346Y-119650976D01*
X117329134Y-119668219D01*
X117340170Y-119686632D01*
X117349349Y-119706038D01*
X117356581Y-119726250D01*
X117361797Y-119747074D01*
X117364947Y-119768309D01*
X117366000Y-119789750D01*
X117366000Y-120302250D01*
X117364947Y-120323691D01*
X117361797Y-120344926D01*
X117356581Y-120365750D01*
X117349349Y-120385962D01*
X117340170Y-120405368D01*
X117329134Y-120423781D01*
X117316346Y-120441024D01*
X117301930Y-120456930D01*
X117286024Y-120471346D01*
X117268781Y-120484134D01*
X117250368Y-120495170D01*
X117230962Y-120504349D01*
X117210750Y-120511581D01*
X117189926Y-120516797D01*
X117168691Y-120519947D01*
X117147250Y-120521000D01*
X116709750Y-120521000D01*
X116688309Y-120519947D01*
X116667074Y-120516797D01*
X116646250Y-120511581D01*
X116626038Y-120504349D01*
X116606632Y-120495170D01*
X116588219Y-120484134D01*
X116570976Y-120471346D01*
X116555070Y-120456930D01*
X116540654Y-120441024D01*
X116527866Y-120423781D01*
X116516830Y-120405368D01*
X116507651Y-120385962D01*
X116500419Y-120365750D01*
X116495203Y-120344926D01*
X116492053Y-120323691D01*
X116491000Y-120302250D01*
X116491000Y-119789750D01*
X116492053Y-119768309D01*
X116495203Y-119747074D01*
X116500419Y-119726250D01*
X116507651Y-119706038D01*
X116516830Y-119686632D01*
X116527866Y-119668219D01*
X116540654Y-119650976D01*
X116555070Y-119635070D01*
X116570976Y-119620654D01*
X116588219Y-119607866D01*
X116606632Y-119596830D01*
X116626038Y-119587651D01*
X116646250Y-119580419D01*
X116667074Y-119575203D01*
X116688309Y-119572053D01*
X116709750Y-119571000D01*
X117147250Y-119571000D01*
X117168691Y-119572053D01*
X117168691Y-119572053D01*
G37*
D15*
X116928500Y-120046000D03*
D14*
G36*
X118743691Y-119572053D02*
G01*
X118764926Y-119575203D01*
X118785750Y-119580419D01*
X118805962Y-119587651D01*
X118825368Y-119596830D01*
X118843781Y-119607866D01*
X118861024Y-119620654D01*
X118876930Y-119635070D01*
X118891346Y-119650976D01*
X118904134Y-119668219D01*
X118915170Y-119686632D01*
X118924349Y-119706038D01*
X118931581Y-119726250D01*
X118936797Y-119747074D01*
X118939947Y-119768309D01*
X118941000Y-119789750D01*
X118941000Y-120302250D01*
X118939947Y-120323691D01*
X118936797Y-120344926D01*
X118931581Y-120365750D01*
X118924349Y-120385962D01*
X118915170Y-120405368D01*
X118904134Y-120423781D01*
X118891346Y-120441024D01*
X118876930Y-120456930D01*
X118861024Y-120471346D01*
X118843781Y-120484134D01*
X118825368Y-120495170D01*
X118805962Y-120504349D01*
X118785750Y-120511581D01*
X118764926Y-120516797D01*
X118743691Y-120519947D01*
X118722250Y-120521000D01*
X118284750Y-120521000D01*
X118263309Y-120519947D01*
X118242074Y-120516797D01*
X118221250Y-120511581D01*
X118201038Y-120504349D01*
X118181632Y-120495170D01*
X118163219Y-120484134D01*
X118145976Y-120471346D01*
X118130070Y-120456930D01*
X118115654Y-120441024D01*
X118102866Y-120423781D01*
X118091830Y-120405368D01*
X118082651Y-120385962D01*
X118075419Y-120365750D01*
X118070203Y-120344926D01*
X118067053Y-120323691D01*
X118066000Y-120302250D01*
X118066000Y-119789750D01*
X118067053Y-119768309D01*
X118070203Y-119747074D01*
X118075419Y-119726250D01*
X118082651Y-119706038D01*
X118091830Y-119686632D01*
X118102866Y-119668219D01*
X118115654Y-119650976D01*
X118130070Y-119635070D01*
X118145976Y-119620654D01*
X118163219Y-119607866D01*
X118181632Y-119596830D01*
X118201038Y-119587651D01*
X118221250Y-119580419D01*
X118242074Y-119575203D01*
X118263309Y-119572053D01*
X118284750Y-119571000D01*
X118722250Y-119571000D01*
X118743691Y-119572053D01*
X118743691Y-119572053D01*
G37*
D15*
X118503500Y-120046000D03*
D14*
G36*
X117295191Y-97918053D02*
G01*
X117316426Y-97921203D01*
X117337250Y-97926419D01*
X117357462Y-97933651D01*
X117376868Y-97942830D01*
X117395281Y-97953866D01*
X117412524Y-97966654D01*
X117428430Y-97981070D01*
X117442846Y-97996976D01*
X117455634Y-98014219D01*
X117466670Y-98032632D01*
X117475849Y-98052038D01*
X117483081Y-98072250D01*
X117488297Y-98093074D01*
X117491447Y-98114309D01*
X117492500Y-98135750D01*
X117492500Y-98573250D01*
X117491447Y-98594691D01*
X117488297Y-98615926D01*
X117483081Y-98636750D01*
X117475849Y-98656962D01*
X117466670Y-98676368D01*
X117455634Y-98694781D01*
X117442846Y-98712024D01*
X117428430Y-98727930D01*
X117412524Y-98742346D01*
X117395281Y-98755134D01*
X117376868Y-98766170D01*
X117357462Y-98775349D01*
X117337250Y-98782581D01*
X117316426Y-98787797D01*
X117295191Y-98790947D01*
X117273750Y-98792000D01*
X116761250Y-98792000D01*
X116739809Y-98790947D01*
X116718574Y-98787797D01*
X116697750Y-98782581D01*
X116677538Y-98775349D01*
X116658132Y-98766170D01*
X116639719Y-98755134D01*
X116622476Y-98742346D01*
X116606570Y-98727930D01*
X116592154Y-98712024D01*
X116579366Y-98694781D01*
X116568330Y-98676368D01*
X116559151Y-98656962D01*
X116551919Y-98636750D01*
X116546703Y-98615926D01*
X116543553Y-98594691D01*
X116542500Y-98573250D01*
X116542500Y-98135750D01*
X116543553Y-98114309D01*
X116546703Y-98093074D01*
X116551919Y-98072250D01*
X116559151Y-98052038D01*
X116568330Y-98032632D01*
X116579366Y-98014219D01*
X116592154Y-97996976D01*
X116606570Y-97981070D01*
X116622476Y-97966654D01*
X116639719Y-97953866D01*
X116658132Y-97942830D01*
X116677538Y-97933651D01*
X116697750Y-97926419D01*
X116718574Y-97921203D01*
X116739809Y-97918053D01*
X116761250Y-97917000D01*
X117273750Y-97917000D01*
X117295191Y-97918053D01*
X117295191Y-97918053D01*
G37*
D15*
X117017500Y-98354500D03*
D14*
G36*
X117295191Y-96343053D02*
G01*
X117316426Y-96346203D01*
X117337250Y-96351419D01*
X117357462Y-96358651D01*
X117376868Y-96367830D01*
X117395281Y-96378866D01*
X117412524Y-96391654D01*
X117428430Y-96406070D01*
X117442846Y-96421976D01*
X117455634Y-96439219D01*
X117466670Y-96457632D01*
X117475849Y-96477038D01*
X117483081Y-96497250D01*
X117488297Y-96518074D01*
X117491447Y-96539309D01*
X117492500Y-96560750D01*
X117492500Y-96998250D01*
X117491447Y-97019691D01*
X117488297Y-97040926D01*
X117483081Y-97061750D01*
X117475849Y-97081962D01*
X117466670Y-97101368D01*
X117455634Y-97119781D01*
X117442846Y-97137024D01*
X117428430Y-97152930D01*
X117412524Y-97167346D01*
X117395281Y-97180134D01*
X117376868Y-97191170D01*
X117357462Y-97200349D01*
X117337250Y-97207581D01*
X117316426Y-97212797D01*
X117295191Y-97215947D01*
X117273750Y-97217000D01*
X116761250Y-97217000D01*
X116739809Y-97215947D01*
X116718574Y-97212797D01*
X116697750Y-97207581D01*
X116677538Y-97200349D01*
X116658132Y-97191170D01*
X116639719Y-97180134D01*
X116622476Y-97167346D01*
X116606570Y-97152930D01*
X116592154Y-97137024D01*
X116579366Y-97119781D01*
X116568330Y-97101368D01*
X116559151Y-97081962D01*
X116551919Y-97061750D01*
X116546703Y-97040926D01*
X116543553Y-97019691D01*
X116542500Y-96998250D01*
X116542500Y-96560750D01*
X116543553Y-96539309D01*
X116546703Y-96518074D01*
X116551919Y-96497250D01*
X116559151Y-96477038D01*
X116568330Y-96457632D01*
X116579366Y-96439219D01*
X116592154Y-96421976D01*
X116606570Y-96406070D01*
X116622476Y-96391654D01*
X116639719Y-96378866D01*
X116658132Y-96367830D01*
X116677538Y-96358651D01*
X116697750Y-96351419D01*
X116718574Y-96346203D01*
X116739809Y-96343053D01*
X116761250Y-96342000D01*
X117273750Y-96342000D01*
X117295191Y-96343053D01*
X117295191Y-96343053D01*
G37*
D15*
X117017500Y-96779500D03*
D14*
G36*
X118743691Y-117794053D02*
G01*
X118764926Y-117797203D01*
X118785750Y-117802419D01*
X118805962Y-117809651D01*
X118825368Y-117818830D01*
X118843781Y-117829866D01*
X118861024Y-117842654D01*
X118876930Y-117857070D01*
X118891346Y-117872976D01*
X118904134Y-117890219D01*
X118915170Y-117908632D01*
X118924349Y-117928038D01*
X118931581Y-117948250D01*
X118936797Y-117969074D01*
X118939947Y-117990309D01*
X118941000Y-118011750D01*
X118941000Y-118524250D01*
X118939947Y-118545691D01*
X118936797Y-118566926D01*
X118931581Y-118587750D01*
X118924349Y-118607962D01*
X118915170Y-118627368D01*
X118904134Y-118645781D01*
X118891346Y-118663024D01*
X118876930Y-118678930D01*
X118861024Y-118693346D01*
X118843781Y-118706134D01*
X118825368Y-118717170D01*
X118805962Y-118726349D01*
X118785750Y-118733581D01*
X118764926Y-118738797D01*
X118743691Y-118741947D01*
X118722250Y-118743000D01*
X118284750Y-118743000D01*
X118263309Y-118741947D01*
X118242074Y-118738797D01*
X118221250Y-118733581D01*
X118201038Y-118726349D01*
X118181632Y-118717170D01*
X118163219Y-118706134D01*
X118145976Y-118693346D01*
X118130070Y-118678930D01*
X118115654Y-118663024D01*
X118102866Y-118645781D01*
X118091830Y-118627368D01*
X118082651Y-118607962D01*
X118075419Y-118587750D01*
X118070203Y-118566926D01*
X118067053Y-118545691D01*
X118066000Y-118524250D01*
X118066000Y-118011750D01*
X118067053Y-117990309D01*
X118070203Y-117969074D01*
X118075419Y-117948250D01*
X118082651Y-117928038D01*
X118091830Y-117908632D01*
X118102866Y-117890219D01*
X118115654Y-117872976D01*
X118130070Y-117857070D01*
X118145976Y-117842654D01*
X118163219Y-117829866D01*
X118181632Y-117818830D01*
X118201038Y-117809651D01*
X118221250Y-117802419D01*
X118242074Y-117797203D01*
X118263309Y-117794053D01*
X118284750Y-117793000D01*
X118722250Y-117793000D01*
X118743691Y-117794053D01*
X118743691Y-117794053D01*
G37*
D15*
X118503500Y-118268000D03*
D14*
G36*
X117168691Y-117794053D02*
G01*
X117189926Y-117797203D01*
X117210750Y-117802419D01*
X117230962Y-117809651D01*
X117250368Y-117818830D01*
X117268781Y-117829866D01*
X117286024Y-117842654D01*
X117301930Y-117857070D01*
X117316346Y-117872976D01*
X117329134Y-117890219D01*
X117340170Y-117908632D01*
X117349349Y-117928038D01*
X117356581Y-117948250D01*
X117361797Y-117969074D01*
X117364947Y-117990309D01*
X117366000Y-118011750D01*
X117366000Y-118524250D01*
X117364947Y-118545691D01*
X117361797Y-118566926D01*
X117356581Y-118587750D01*
X117349349Y-118607962D01*
X117340170Y-118627368D01*
X117329134Y-118645781D01*
X117316346Y-118663024D01*
X117301930Y-118678930D01*
X117286024Y-118693346D01*
X117268781Y-118706134D01*
X117250368Y-118717170D01*
X117230962Y-118726349D01*
X117210750Y-118733581D01*
X117189926Y-118738797D01*
X117168691Y-118741947D01*
X117147250Y-118743000D01*
X116709750Y-118743000D01*
X116688309Y-118741947D01*
X116667074Y-118738797D01*
X116646250Y-118733581D01*
X116626038Y-118726349D01*
X116606632Y-118717170D01*
X116588219Y-118706134D01*
X116570976Y-118693346D01*
X116555070Y-118678930D01*
X116540654Y-118663024D01*
X116527866Y-118645781D01*
X116516830Y-118627368D01*
X116507651Y-118607962D01*
X116500419Y-118587750D01*
X116495203Y-118566926D01*
X116492053Y-118545691D01*
X116491000Y-118524250D01*
X116491000Y-118011750D01*
X116492053Y-117990309D01*
X116495203Y-117969074D01*
X116500419Y-117948250D01*
X116507651Y-117928038D01*
X116516830Y-117908632D01*
X116527866Y-117890219D01*
X116540654Y-117872976D01*
X116555070Y-117857070D01*
X116570976Y-117842654D01*
X116588219Y-117829866D01*
X116606632Y-117818830D01*
X116626038Y-117809651D01*
X116646250Y-117802419D01*
X116667074Y-117797203D01*
X116688309Y-117794053D01*
X116709750Y-117793000D01*
X117147250Y-117793000D01*
X117168691Y-117794053D01*
X117168691Y-117794053D01*
G37*
D15*
X116928500Y-118268000D03*
D14*
G36*
X125169191Y-97549553D02*
G01*
X125190426Y-97552703D01*
X125211250Y-97557919D01*
X125231462Y-97565151D01*
X125250868Y-97574330D01*
X125269281Y-97585366D01*
X125286524Y-97598154D01*
X125302430Y-97612570D01*
X125316846Y-97628476D01*
X125329634Y-97645719D01*
X125340670Y-97664132D01*
X125349849Y-97683538D01*
X125357081Y-97703750D01*
X125362297Y-97724574D01*
X125365447Y-97745809D01*
X125366500Y-97767250D01*
X125366500Y-98204750D01*
X125365447Y-98226191D01*
X125362297Y-98247426D01*
X125357081Y-98268250D01*
X125349849Y-98288462D01*
X125340670Y-98307868D01*
X125329634Y-98326281D01*
X125316846Y-98343524D01*
X125302430Y-98359430D01*
X125286524Y-98373846D01*
X125269281Y-98386634D01*
X125250868Y-98397670D01*
X125231462Y-98406849D01*
X125211250Y-98414081D01*
X125190426Y-98419297D01*
X125169191Y-98422447D01*
X125147750Y-98423500D01*
X124635250Y-98423500D01*
X124613809Y-98422447D01*
X124592574Y-98419297D01*
X124571750Y-98414081D01*
X124551538Y-98406849D01*
X124532132Y-98397670D01*
X124513719Y-98386634D01*
X124496476Y-98373846D01*
X124480570Y-98359430D01*
X124466154Y-98343524D01*
X124453366Y-98326281D01*
X124442330Y-98307868D01*
X124433151Y-98288462D01*
X124425919Y-98268250D01*
X124420703Y-98247426D01*
X124417553Y-98226191D01*
X124416500Y-98204750D01*
X124416500Y-97767250D01*
X124417553Y-97745809D01*
X124420703Y-97724574D01*
X124425919Y-97703750D01*
X124433151Y-97683538D01*
X124442330Y-97664132D01*
X124453366Y-97645719D01*
X124466154Y-97628476D01*
X124480570Y-97612570D01*
X124496476Y-97598154D01*
X124513719Y-97585366D01*
X124532132Y-97574330D01*
X124551538Y-97565151D01*
X124571750Y-97557919D01*
X124592574Y-97552703D01*
X124613809Y-97549553D01*
X124635250Y-97548500D01*
X125147750Y-97548500D01*
X125169191Y-97549553D01*
X125169191Y-97549553D01*
G37*
D15*
X124891500Y-97986000D03*
D14*
G36*
X125169191Y-99124553D02*
G01*
X125190426Y-99127703D01*
X125211250Y-99132919D01*
X125231462Y-99140151D01*
X125250868Y-99149330D01*
X125269281Y-99160366D01*
X125286524Y-99173154D01*
X125302430Y-99187570D01*
X125316846Y-99203476D01*
X125329634Y-99220719D01*
X125340670Y-99239132D01*
X125349849Y-99258538D01*
X125357081Y-99278750D01*
X125362297Y-99299574D01*
X125365447Y-99320809D01*
X125366500Y-99342250D01*
X125366500Y-99779750D01*
X125365447Y-99801191D01*
X125362297Y-99822426D01*
X125357081Y-99843250D01*
X125349849Y-99863462D01*
X125340670Y-99882868D01*
X125329634Y-99901281D01*
X125316846Y-99918524D01*
X125302430Y-99934430D01*
X125286524Y-99948846D01*
X125269281Y-99961634D01*
X125250868Y-99972670D01*
X125231462Y-99981849D01*
X125211250Y-99989081D01*
X125190426Y-99994297D01*
X125169191Y-99997447D01*
X125147750Y-99998500D01*
X124635250Y-99998500D01*
X124613809Y-99997447D01*
X124592574Y-99994297D01*
X124571750Y-99989081D01*
X124551538Y-99981849D01*
X124532132Y-99972670D01*
X124513719Y-99961634D01*
X124496476Y-99948846D01*
X124480570Y-99934430D01*
X124466154Y-99918524D01*
X124453366Y-99901281D01*
X124442330Y-99882868D01*
X124433151Y-99863462D01*
X124425919Y-99843250D01*
X124420703Y-99822426D01*
X124417553Y-99801191D01*
X124416500Y-99779750D01*
X124416500Y-99342250D01*
X124417553Y-99320809D01*
X124420703Y-99299574D01*
X124425919Y-99278750D01*
X124433151Y-99258538D01*
X124442330Y-99239132D01*
X124453366Y-99220719D01*
X124466154Y-99203476D01*
X124480570Y-99187570D01*
X124496476Y-99173154D01*
X124513719Y-99160366D01*
X124532132Y-99149330D01*
X124551538Y-99140151D01*
X124571750Y-99132919D01*
X124592574Y-99127703D01*
X124613809Y-99124553D01*
X124635250Y-99123500D01*
X125147750Y-99123500D01*
X125169191Y-99124553D01*
X125169191Y-99124553D01*
G37*
D15*
X124891500Y-99561000D03*
D18*
X147180000Y-124110000D03*
D19*
X147180000Y-122110000D03*
X147180000Y-120110000D03*
X147180000Y-118110000D03*
D14*
G36*
X145679691Y-106935053D02*
G01*
X145700926Y-106938203D01*
X145721750Y-106943419D01*
X145741962Y-106950651D01*
X145761368Y-106959830D01*
X145779781Y-106970866D01*
X145797024Y-106983654D01*
X145812930Y-106998070D01*
X145827346Y-107013976D01*
X145840134Y-107031219D01*
X145851170Y-107049632D01*
X145860349Y-107069038D01*
X145867581Y-107089250D01*
X145872797Y-107110074D01*
X145875947Y-107131309D01*
X145877000Y-107152750D01*
X145877000Y-107590250D01*
X145875947Y-107611691D01*
X145872797Y-107632926D01*
X145867581Y-107653750D01*
X145860349Y-107673962D01*
X145851170Y-107693368D01*
X145840134Y-107711781D01*
X145827346Y-107729024D01*
X145812930Y-107744930D01*
X145797024Y-107759346D01*
X145779781Y-107772134D01*
X145761368Y-107783170D01*
X145741962Y-107792349D01*
X145721750Y-107799581D01*
X145700926Y-107804797D01*
X145679691Y-107807947D01*
X145658250Y-107809000D01*
X145145750Y-107809000D01*
X145124309Y-107807947D01*
X145103074Y-107804797D01*
X145082250Y-107799581D01*
X145062038Y-107792349D01*
X145042632Y-107783170D01*
X145024219Y-107772134D01*
X145006976Y-107759346D01*
X144991070Y-107744930D01*
X144976654Y-107729024D01*
X144963866Y-107711781D01*
X144952830Y-107693368D01*
X144943651Y-107673962D01*
X144936419Y-107653750D01*
X144931203Y-107632926D01*
X144928053Y-107611691D01*
X144927000Y-107590250D01*
X144927000Y-107152750D01*
X144928053Y-107131309D01*
X144931203Y-107110074D01*
X144936419Y-107089250D01*
X144943651Y-107069038D01*
X144952830Y-107049632D01*
X144963866Y-107031219D01*
X144976654Y-107013976D01*
X144991070Y-106998070D01*
X145006976Y-106983654D01*
X145024219Y-106970866D01*
X145042632Y-106959830D01*
X145062038Y-106950651D01*
X145082250Y-106943419D01*
X145103074Y-106938203D01*
X145124309Y-106935053D01*
X145145750Y-106934000D01*
X145658250Y-106934000D01*
X145679691Y-106935053D01*
X145679691Y-106935053D01*
G37*
D15*
X145402000Y-107371500D03*
D14*
G36*
X145679691Y-105360053D02*
G01*
X145700926Y-105363203D01*
X145721750Y-105368419D01*
X145741962Y-105375651D01*
X145761368Y-105384830D01*
X145779781Y-105395866D01*
X145797024Y-105408654D01*
X145812930Y-105423070D01*
X145827346Y-105438976D01*
X145840134Y-105456219D01*
X145851170Y-105474632D01*
X145860349Y-105494038D01*
X145867581Y-105514250D01*
X145872797Y-105535074D01*
X145875947Y-105556309D01*
X145877000Y-105577750D01*
X145877000Y-106015250D01*
X145875947Y-106036691D01*
X145872797Y-106057926D01*
X145867581Y-106078750D01*
X145860349Y-106098962D01*
X145851170Y-106118368D01*
X145840134Y-106136781D01*
X145827346Y-106154024D01*
X145812930Y-106169930D01*
X145797024Y-106184346D01*
X145779781Y-106197134D01*
X145761368Y-106208170D01*
X145741962Y-106217349D01*
X145721750Y-106224581D01*
X145700926Y-106229797D01*
X145679691Y-106232947D01*
X145658250Y-106234000D01*
X145145750Y-106234000D01*
X145124309Y-106232947D01*
X145103074Y-106229797D01*
X145082250Y-106224581D01*
X145062038Y-106217349D01*
X145042632Y-106208170D01*
X145024219Y-106197134D01*
X145006976Y-106184346D01*
X144991070Y-106169930D01*
X144976654Y-106154024D01*
X144963866Y-106136781D01*
X144952830Y-106118368D01*
X144943651Y-106098962D01*
X144936419Y-106078750D01*
X144931203Y-106057926D01*
X144928053Y-106036691D01*
X144927000Y-106015250D01*
X144927000Y-105577750D01*
X144928053Y-105556309D01*
X144931203Y-105535074D01*
X144936419Y-105514250D01*
X144943651Y-105494038D01*
X144952830Y-105474632D01*
X144963866Y-105456219D01*
X144976654Y-105438976D01*
X144991070Y-105423070D01*
X145006976Y-105408654D01*
X145024219Y-105395866D01*
X145042632Y-105384830D01*
X145062038Y-105375651D01*
X145082250Y-105368419D01*
X145103074Y-105363203D01*
X145124309Y-105360053D01*
X145145750Y-105359000D01*
X145658250Y-105359000D01*
X145679691Y-105360053D01*
X145679691Y-105360053D01*
G37*
D15*
X145402000Y-105796500D03*
D16*
X148450000Y-112680000D03*
D17*
X148450000Y-110140000D03*
D20*
X147196000Y-105380000D03*
X147196000Y-107280000D03*
X149196000Y-106330000D03*
D14*
G36*
X146187691Y-111253053D02*
G01*
X146208926Y-111256203D01*
X146229750Y-111261419D01*
X146249962Y-111268651D01*
X146269368Y-111277830D01*
X146287781Y-111288866D01*
X146305024Y-111301654D01*
X146320930Y-111316070D01*
X146335346Y-111331976D01*
X146348134Y-111349219D01*
X146359170Y-111367632D01*
X146368349Y-111387038D01*
X146375581Y-111407250D01*
X146380797Y-111428074D01*
X146383947Y-111449309D01*
X146385000Y-111470750D01*
X146385000Y-111908250D01*
X146383947Y-111929691D01*
X146380797Y-111950926D01*
X146375581Y-111971750D01*
X146368349Y-111991962D01*
X146359170Y-112011368D01*
X146348134Y-112029781D01*
X146335346Y-112047024D01*
X146320930Y-112062930D01*
X146305024Y-112077346D01*
X146287781Y-112090134D01*
X146269368Y-112101170D01*
X146249962Y-112110349D01*
X146229750Y-112117581D01*
X146208926Y-112122797D01*
X146187691Y-112125947D01*
X146166250Y-112127000D01*
X145653750Y-112127000D01*
X145632309Y-112125947D01*
X145611074Y-112122797D01*
X145590250Y-112117581D01*
X145570038Y-112110349D01*
X145550632Y-112101170D01*
X145532219Y-112090134D01*
X145514976Y-112077346D01*
X145499070Y-112062930D01*
X145484654Y-112047024D01*
X145471866Y-112029781D01*
X145460830Y-112011368D01*
X145451651Y-111991962D01*
X145444419Y-111971750D01*
X145439203Y-111950926D01*
X145436053Y-111929691D01*
X145435000Y-111908250D01*
X145435000Y-111470750D01*
X145436053Y-111449309D01*
X145439203Y-111428074D01*
X145444419Y-111407250D01*
X145451651Y-111387038D01*
X145460830Y-111367632D01*
X145471866Y-111349219D01*
X145484654Y-111331976D01*
X145499070Y-111316070D01*
X145514976Y-111301654D01*
X145532219Y-111288866D01*
X145550632Y-111277830D01*
X145570038Y-111268651D01*
X145590250Y-111261419D01*
X145611074Y-111256203D01*
X145632309Y-111253053D01*
X145653750Y-111252000D01*
X146166250Y-111252000D01*
X146187691Y-111253053D01*
X146187691Y-111253053D01*
G37*
D15*
X145910000Y-111689500D03*
D14*
G36*
X146187691Y-109678053D02*
G01*
X146208926Y-109681203D01*
X146229750Y-109686419D01*
X146249962Y-109693651D01*
X146269368Y-109702830D01*
X146287781Y-109713866D01*
X146305024Y-109726654D01*
X146320930Y-109741070D01*
X146335346Y-109756976D01*
X146348134Y-109774219D01*
X146359170Y-109792632D01*
X146368349Y-109812038D01*
X146375581Y-109832250D01*
X146380797Y-109853074D01*
X146383947Y-109874309D01*
X146385000Y-109895750D01*
X146385000Y-110333250D01*
X146383947Y-110354691D01*
X146380797Y-110375926D01*
X146375581Y-110396750D01*
X146368349Y-110416962D01*
X146359170Y-110436368D01*
X146348134Y-110454781D01*
X146335346Y-110472024D01*
X146320930Y-110487930D01*
X146305024Y-110502346D01*
X146287781Y-110515134D01*
X146269368Y-110526170D01*
X146249962Y-110535349D01*
X146229750Y-110542581D01*
X146208926Y-110547797D01*
X146187691Y-110550947D01*
X146166250Y-110552000D01*
X145653750Y-110552000D01*
X145632309Y-110550947D01*
X145611074Y-110547797D01*
X145590250Y-110542581D01*
X145570038Y-110535349D01*
X145550632Y-110526170D01*
X145532219Y-110515134D01*
X145514976Y-110502346D01*
X145499070Y-110487930D01*
X145484654Y-110472024D01*
X145471866Y-110454781D01*
X145460830Y-110436368D01*
X145451651Y-110416962D01*
X145444419Y-110396750D01*
X145439203Y-110375926D01*
X145436053Y-110354691D01*
X145435000Y-110333250D01*
X145435000Y-109895750D01*
X145436053Y-109874309D01*
X145439203Y-109853074D01*
X145444419Y-109832250D01*
X145451651Y-109812038D01*
X145460830Y-109792632D01*
X145471866Y-109774219D01*
X145484654Y-109756976D01*
X145499070Y-109741070D01*
X145514976Y-109726654D01*
X145532219Y-109713866D01*
X145550632Y-109702830D01*
X145570038Y-109693651D01*
X145590250Y-109686419D01*
X145611074Y-109681203D01*
X145632309Y-109678053D01*
X145653750Y-109677000D01*
X146166250Y-109677000D01*
X146187691Y-109678053D01*
X146187691Y-109678053D01*
G37*
D15*
X145910000Y-110114500D03*
D14*
G36*
X140853691Y-89993053D02*
G01*
X140874926Y-89996203D01*
X140895750Y-90001419D01*
X140915962Y-90008651D01*
X140935368Y-90017830D01*
X140953781Y-90028866D01*
X140971024Y-90041654D01*
X140986930Y-90056070D01*
X141001346Y-90071976D01*
X141014134Y-90089219D01*
X141025170Y-90107632D01*
X141034349Y-90127038D01*
X141041581Y-90147250D01*
X141046797Y-90168074D01*
X141049947Y-90189309D01*
X141051000Y-90210750D01*
X141051000Y-90648250D01*
X141049947Y-90669691D01*
X141046797Y-90690926D01*
X141041581Y-90711750D01*
X141034349Y-90731962D01*
X141025170Y-90751368D01*
X141014134Y-90769781D01*
X141001346Y-90787024D01*
X140986930Y-90802930D01*
X140971024Y-90817346D01*
X140953781Y-90830134D01*
X140935368Y-90841170D01*
X140915962Y-90850349D01*
X140895750Y-90857581D01*
X140874926Y-90862797D01*
X140853691Y-90865947D01*
X140832250Y-90867000D01*
X140319750Y-90867000D01*
X140298309Y-90865947D01*
X140277074Y-90862797D01*
X140256250Y-90857581D01*
X140236038Y-90850349D01*
X140216632Y-90841170D01*
X140198219Y-90830134D01*
X140180976Y-90817346D01*
X140165070Y-90802930D01*
X140150654Y-90787024D01*
X140137866Y-90769781D01*
X140126830Y-90751368D01*
X140117651Y-90731962D01*
X140110419Y-90711750D01*
X140105203Y-90690926D01*
X140102053Y-90669691D01*
X140101000Y-90648250D01*
X140101000Y-90210750D01*
X140102053Y-90189309D01*
X140105203Y-90168074D01*
X140110419Y-90147250D01*
X140117651Y-90127038D01*
X140126830Y-90107632D01*
X140137866Y-90089219D01*
X140150654Y-90071976D01*
X140165070Y-90056070D01*
X140180976Y-90041654D01*
X140198219Y-90028866D01*
X140216632Y-90017830D01*
X140236038Y-90008651D01*
X140256250Y-90001419D01*
X140277074Y-89996203D01*
X140298309Y-89993053D01*
X140319750Y-89992000D01*
X140832250Y-89992000D01*
X140853691Y-89993053D01*
X140853691Y-89993053D01*
G37*
D15*
X140576000Y-90429500D03*
D14*
G36*
X140853691Y-91568053D02*
G01*
X140874926Y-91571203D01*
X140895750Y-91576419D01*
X140915962Y-91583651D01*
X140935368Y-91592830D01*
X140953781Y-91603866D01*
X140971024Y-91616654D01*
X140986930Y-91631070D01*
X141001346Y-91646976D01*
X141014134Y-91664219D01*
X141025170Y-91682632D01*
X141034349Y-91702038D01*
X141041581Y-91722250D01*
X141046797Y-91743074D01*
X141049947Y-91764309D01*
X141051000Y-91785750D01*
X141051000Y-92223250D01*
X141049947Y-92244691D01*
X141046797Y-92265926D01*
X141041581Y-92286750D01*
X141034349Y-92306962D01*
X141025170Y-92326368D01*
X141014134Y-92344781D01*
X141001346Y-92362024D01*
X140986930Y-92377930D01*
X140971024Y-92392346D01*
X140953781Y-92405134D01*
X140935368Y-92416170D01*
X140915962Y-92425349D01*
X140895750Y-92432581D01*
X140874926Y-92437797D01*
X140853691Y-92440947D01*
X140832250Y-92442000D01*
X140319750Y-92442000D01*
X140298309Y-92440947D01*
X140277074Y-92437797D01*
X140256250Y-92432581D01*
X140236038Y-92425349D01*
X140216632Y-92416170D01*
X140198219Y-92405134D01*
X140180976Y-92392346D01*
X140165070Y-92377930D01*
X140150654Y-92362024D01*
X140137866Y-92344781D01*
X140126830Y-92326368D01*
X140117651Y-92306962D01*
X140110419Y-92286750D01*
X140105203Y-92265926D01*
X140102053Y-92244691D01*
X140101000Y-92223250D01*
X140101000Y-91785750D01*
X140102053Y-91764309D01*
X140105203Y-91743074D01*
X140110419Y-91722250D01*
X140117651Y-91702038D01*
X140126830Y-91682632D01*
X140137866Y-91664219D01*
X140150654Y-91646976D01*
X140165070Y-91631070D01*
X140180976Y-91616654D01*
X140198219Y-91603866D01*
X140216632Y-91592830D01*
X140236038Y-91583651D01*
X140256250Y-91576419D01*
X140277074Y-91571203D01*
X140298309Y-91568053D01*
X140319750Y-91567000D01*
X140832250Y-91567000D01*
X140853691Y-91568053D01*
X140853691Y-91568053D01*
G37*
D15*
X140576000Y-92004500D03*
D14*
G36*
X129677691Y-93727053D02*
G01*
X129698926Y-93730203D01*
X129719750Y-93735419D01*
X129739962Y-93742651D01*
X129759368Y-93751830D01*
X129777781Y-93762866D01*
X129795024Y-93775654D01*
X129810930Y-93790070D01*
X129825346Y-93805976D01*
X129838134Y-93823219D01*
X129849170Y-93841632D01*
X129858349Y-93861038D01*
X129865581Y-93881250D01*
X129870797Y-93902074D01*
X129873947Y-93923309D01*
X129875000Y-93944750D01*
X129875000Y-94382250D01*
X129873947Y-94403691D01*
X129870797Y-94424926D01*
X129865581Y-94445750D01*
X129858349Y-94465962D01*
X129849170Y-94485368D01*
X129838134Y-94503781D01*
X129825346Y-94521024D01*
X129810930Y-94536930D01*
X129795024Y-94551346D01*
X129777781Y-94564134D01*
X129759368Y-94575170D01*
X129739962Y-94584349D01*
X129719750Y-94591581D01*
X129698926Y-94596797D01*
X129677691Y-94599947D01*
X129656250Y-94601000D01*
X129143750Y-94601000D01*
X129122309Y-94599947D01*
X129101074Y-94596797D01*
X129080250Y-94591581D01*
X129060038Y-94584349D01*
X129040632Y-94575170D01*
X129022219Y-94564134D01*
X129004976Y-94551346D01*
X128989070Y-94536930D01*
X128974654Y-94521024D01*
X128961866Y-94503781D01*
X128950830Y-94485368D01*
X128941651Y-94465962D01*
X128934419Y-94445750D01*
X128929203Y-94424926D01*
X128926053Y-94403691D01*
X128925000Y-94382250D01*
X128925000Y-93944750D01*
X128926053Y-93923309D01*
X128929203Y-93902074D01*
X128934419Y-93881250D01*
X128941651Y-93861038D01*
X128950830Y-93841632D01*
X128961866Y-93823219D01*
X128974654Y-93805976D01*
X128989070Y-93790070D01*
X129004976Y-93775654D01*
X129022219Y-93762866D01*
X129040632Y-93751830D01*
X129060038Y-93742651D01*
X129080250Y-93735419D01*
X129101074Y-93730203D01*
X129122309Y-93727053D01*
X129143750Y-93726000D01*
X129656250Y-93726000D01*
X129677691Y-93727053D01*
X129677691Y-93727053D01*
G37*
D15*
X129400000Y-94163500D03*
D14*
G36*
X129677691Y-92152053D02*
G01*
X129698926Y-92155203D01*
X129719750Y-92160419D01*
X129739962Y-92167651D01*
X129759368Y-92176830D01*
X129777781Y-92187866D01*
X129795024Y-92200654D01*
X129810930Y-92215070D01*
X129825346Y-92230976D01*
X129838134Y-92248219D01*
X129849170Y-92266632D01*
X129858349Y-92286038D01*
X129865581Y-92306250D01*
X129870797Y-92327074D01*
X129873947Y-92348309D01*
X129875000Y-92369750D01*
X129875000Y-92807250D01*
X129873947Y-92828691D01*
X129870797Y-92849926D01*
X129865581Y-92870750D01*
X129858349Y-92890962D01*
X129849170Y-92910368D01*
X129838134Y-92928781D01*
X129825346Y-92946024D01*
X129810930Y-92961930D01*
X129795024Y-92976346D01*
X129777781Y-92989134D01*
X129759368Y-93000170D01*
X129739962Y-93009349D01*
X129719750Y-93016581D01*
X129698926Y-93021797D01*
X129677691Y-93024947D01*
X129656250Y-93026000D01*
X129143750Y-93026000D01*
X129122309Y-93024947D01*
X129101074Y-93021797D01*
X129080250Y-93016581D01*
X129060038Y-93009349D01*
X129040632Y-93000170D01*
X129022219Y-92989134D01*
X129004976Y-92976346D01*
X128989070Y-92961930D01*
X128974654Y-92946024D01*
X128961866Y-92928781D01*
X128950830Y-92910368D01*
X128941651Y-92890962D01*
X128934419Y-92870750D01*
X128929203Y-92849926D01*
X128926053Y-92828691D01*
X128925000Y-92807250D01*
X128925000Y-92369750D01*
X128926053Y-92348309D01*
X128929203Y-92327074D01*
X128934419Y-92306250D01*
X128941651Y-92286038D01*
X128950830Y-92266632D01*
X128961866Y-92248219D01*
X128974654Y-92230976D01*
X128989070Y-92215070D01*
X129004976Y-92200654D01*
X129022219Y-92187866D01*
X129040632Y-92176830D01*
X129060038Y-92167651D01*
X129080250Y-92160419D01*
X129101074Y-92155203D01*
X129122309Y-92152053D01*
X129143750Y-92151000D01*
X129656250Y-92151000D01*
X129677691Y-92152053D01*
X129677691Y-92152053D01*
G37*
D15*
X129400000Y-92588500D03*
D21*
X145402000Y-97726000D03*
X145402000Y-101726000D03*
X145402000Y-94360000D03*
X145402000Y-90360000D03*
D10*
X148450000Y-91725000D03*
X148450000Y-93249000D03*
D14*
G36*
X124966691Y-102046053D02*
G01*
X124987926Y-102049203D01*
X125008750Y-102054419D01*
X125028962Y-102061651D01*
X125048368Y-102070830D01*
X125066781Y-102081866D01*
X125084024Y-102094654D01*
X125099930Y-102109070D01*
X125114346Y-102124976D01*
X125127134Y-102142219D01*
X125138170Y-102160632D01*
X125147349Y-102180038D01*
X125154581Y-102200250D01*
X125159797Y-102221074D01*
X125162947Y-102242309D01*
X125164000Y-102263750D01*
X125164000Y-102776250D01*
X125162947Y-102797691D01*
X125159797Y-102818926D01*
X125154581Y-102839750D01*
X125147349Y-102859962D01*
X125138170Y-102879368D01*
X125127134Y-102897781D01*
X125114346Y-102915024D01*
X125099930Y-102930930D01*
X125084024Y-102945346D01*
X125066781Y-102958134D01*
X125048368Y-102969170D01*
X125028962Y-102978349D01*
X125008750Y-102985581D01*
X124987926Y-102990797D01*
X124966691Y-102993947D01*
X124945250Y-102995000D01*
X124507750Y-102995000D01*
X124486309Y-102993947D01*
X124465074Y-102990797D01*
X124444250Y-102985581D01*
X124424038Y-102978349D01*
X124404632Y-102969170D01*
X124386219Y-102958134D01*
X124368976Y-102945346D01*
X124353070Y-102930930D01*
X124338654Y-102915024D01*
X124325866Y-102897781D01*
X124314830Y-102879368D01*
X124305651Y-102859962D01*
X124298419Y-102839750D01*
X124293203Y-102818926D01*
X124290053Y-102797691D01*
X124289000Y-102776250D01*
X124289000Y-102263750D01*
X124290053Y-102242309D01*
X124293203Y-102221074D01*
X124298419Y-102200250D01*
X124305651Y-102180038D01*
X124314830Y-102160632D01*
X124325866Y-102142219D01*
X124338654Y-102124976D01*
X124353070Y-102109070D01*
X124368976Y-102094654D01*
X124386219Y-102081866D01*
X124404632Y-102070830D01*
X124424038Y-102061651D01*
X124444250Y-102054419D01*
X124465074Y-102049203D01*
X124486309Y-102046053D01*
X124507750Y-102045000D01*
X124945250Y-102045000D01*
X124966691Y-102046053D01*
X124966691Y-102046053D01*
G37*
D15*
X124726500Y-102520000D03*
D14*
G36*
X123391691Y-102046053D02*
G01*
X123412926Y-102049203D01*
X123433750Y-102054419D01*
X123453962Y-102061651D01*
X123473368Y-102070830D01*
X123491781Y-102081866D01*
X123509024Y-102094654D01*
X123524930Y-102109070D01*
X123539346Y-102124976D01*
X123552134Y-102142219D01*
X123563170Y-102160632D01*
X123572349Y-102180038D01*
X123579581Y-102200250D01*
X123584797Y-102221074D01*
X123587947Y-102242309D01*
X123589000Y-102263750D01*
X123589000Y-102776250D01*
X123587947Y-102797691D01*
X123584797Y-102818926D01*
X123579581Y-102839750D01*
X123572349Y-102859962D01*
X123563170Y-102879368D01*
X123552134Y-102897781D01*
X123539346Y-102915024D01*
X123524930Y-102930930D01*
X123509024Y-102945346D01*
X123491781Y-102958134D01*
X123473368Y-102969170D01*
X123453962Y-102978349D01*
X123433750Y-102985581D01*
X123412926Y-102990797D01*
X123391691Y-102993947D01*
X123370250Y-102995000D01*
X122932750Y-102995000D01*
X122911309Y-102993947D01*
X122890074Y-102990797D01*
X122869250Y-102985581D01*
X122849038Y-102978349D01*
X122829632Y-102969170D01*
X122811219Y-102958134D01*
X122793976Y-102945346D01*
X122778070Y-102930930D01*
X122763654Y-102915024D01*
X122750866Y-102897781D01*
X122739830Y-102879368D01*
X122730651Y-102859962D01*
X122723419Y-102839750D01*
X122718203Y-102818926D01*
X122715053Y-102797691D01*
X122714000Y-102776250D01*
X122714000Y-102263750D01*
X122715053Y-102242309D01*
X122718203Y-102221074D01*
X122723419Y-102200250D01*
X122730651Y-102180038D01*
X122739830Y-102160632D01*
X122750866Y-102142219D01*
X122763654Y-102124976D01*
X122778070Y-102109070D01*
X122793976Y-102094654D01*
X122811219Y-102081866D01*
X122829632Y-102070830D01*
X122849038Y-102061651D01*
X122869250Y-102054419D01*
X122890074Y-102049203D01*
X122911309Y-102046053D01*
X122932750Y-102045000D01*
X123370250Y-102045000D01*
X123391691Y-102046053D01*
X123391691Y-102046053D01*
G37*
D15*
X123151500Y-102520000D03*
D14*
G36*
X125931691Y-92140053D02*
G01*
X125952926Y-92143203D01*
X125973750Y-92148419D01*
X125993962Y-92155651D01*
X126013368Y-92164830D01*
X126031781Y-92175866D01*
X126049024Y-92188654D01*
X126064930Y-92203070D01*
X126079346Y-92218976D01*
X126092134Y-92236219D01*
X126103170Y-92254632D01*
X126112349Y-92274038D01*
X126119581Y-92294250D01*
X126124797Y-92315074D01*
X126127947Y-92336309D01*
X126129000Y-92357750D01*
X126129000Y-92870250D01*
X126127947Y-92891691D01*
X126124797Y-92912926D01*
X126119581Y-92933750D01*
X126112349Y-92953962D01*
X126103170Y-92973368D01*
X126092134Y-92991781D01*
X126079346Y-93009024D01*
X126064930Y-93024930D01*
X126049024Y-93039346D01*
X126031781Y-93052134D01*
X126013368Y-93063170D01*
X125993962Y-93072349D01*
X125973750Y-93079581D01*
X125952926Y-93084797D01*
X125931691Y-93087947D01*
X125910250Y-93089000D01*
X125472750Y-93089000D01*
X125451309Y-93087947D01*
X125430074Y-93084797D01*
X125409250Y-93079581D01*
X125389038Y-93072349D01*
X125369632Y-93063170D01*
X125351219Y-93052134D01*
X125333976Y-93039346D01*
X125318070Y-93024930D01*
X125303654Y-93009024D01*
X125290866Y-92991781D01*
X125279830Y-92973368D01*
X125270651Y-92953962D01*
X125263419Y-92933750D01*
X125258203Y-92912926D01*
X125255053Y-92891691D01*
X125254000Y-92870250D01*
X125254000Y-92357750D01*
X125255053Y-92336309D01*
X125258203Y-92315074D01*
X125263419Y-92294250D01*
X125270651Y-92274038D01*
X125279830Y-92254632D01*
X125290866Y-92236219D01*
X125303654Y-92218976D01*
X125318070Y-92203070D01*
X125333976Y-92188654D01*
X125351219Y-92175866D01*
X125369632Y-92164830D01*
X125389038Y-92155651D01*
X125409250Y-92148419D01*
X125430074Y-92143203D01*
X125451309Y-92140053D01*
X125472750Y-92139000D01*
X125910250Y-92139000D01*
X125931691Y-92140053D01*
X125931691Y-92140053D01*
G37*
D15*
X125691500Y-92614000D03*
D14*
G36*
X127506691Y-92140053D02*
G01*
X127527926Y-92143203D01*
X127548750Y-92148419D01*
X127568962Y-92155651D01*
X127588368Y-92164830D01*
X127606781Y-92175866D01*
X127624024Y-92188654D01*
X127639930Y-92203070D01*
X127654346Y-92218976D01*
X127667134Y-92236219D01*
X127678170Y-92254632D01*
X127687349Y-92274038D01*
X127694581Y-92294250D01*
X127699797Y-92315074D01*
X127702947Y-92336309D01*
X127704000Y-92357750D01*
X127704000Y-92870250D01*
X127702947Y-92891691D01*
X127699797Y-92912926D01*
X127694581Y-92933750D01*
X127687349Y-92953962D01*
X127678170Y-92973368D01*
X127667134Y-92991781D01*
X127654346Y-93009024D01*
X127639930Y-93024930D01*
X127624024Y-93039346D01*
X127606781Y-93052134D01*
X127588368Y-93063170D01*
X127568962Y-93072349D01*
X127548750Y-93079581D01*
X127527926Y-93084797D01*
X127506691Y-93087947D01*
X127485250Y-93089000D01*
X127047750Y-93089000D01*
X127026309Y-93087947D01*
X127005074Y-93084797D01*
X126984250Y-93079581D01*
X126964038Y-93072349D01*
X126944632Y-93063170D01*
X126926219Y-93052134D01*
X126908976Y-93039346D01*
X126893070Y-93024930D01*
X126878654Y-93009024D01*
X126865866Y-92991781D01*
X126854830Y-92973368D01*
X126845651Y-92953962D01*
X126838419Y-92933750D01*
X126833203Y-92912926D01*
X126830053Y-92891691D01*
X126829000Y-92870250D01*
X126829000Y-92357750D01*
X126830053Y-92336309D01*
X126833203Y-92315074D01*
X126838419Y-92294250D01*
X126845651Y-92274038D01*
X126854830Y-92254632D01*
X126865866Y-92236219D01*
X126878654Y-92218976D01*
X126893070Y-92203070D01*
X126908976Y-92188654D01*
X126926219Y-92175866D01*
X126944632Y-92164830D01*
X126964038Y-92155651D01*
X126984250Y-92148419D01*
X127005074Y-92143203D01*
X127026309Y-92140053D01*
X127047750Y-92139000D01*
X127485250Y-92139000D01*
X127506691Y-92140053D01*
X127506691Y-92140053D01*
G37*
D15*
X127266500Y-92614000D03*
D22*
X131838000Y-92614000D03*
D23*
X138138000Y-92614000D03*
X138138000Y-90314000D03*
X138138000Y-94914000D03*
D24*
X121780000Y-89820000D03*
X126860000Y-89820000D03*
X116700000Y-130460000D03*
X121780000Y-130460000D03*
X126860000Y-130460000D03*
X131940000Y-130460000D03*
X137020000Y-130460000D03*
X142100000Y-115220000D03*
X142100000Y-130460000D03*
X126860000Y-125380000D03*
X126860000Y-120300000D03*
X126860000Y-115220000D03*
X131940000Y-115220000D03*
X131940000Y-120300000D03*
X131940000Y-110140000D03*
X137020000Y-110140000D03*
X137020000Y-115220000D03*
X137020000Y-120300000D03*
X137020000Y-125380000D03*
X121780000Y-125380000D03*
X121780000Y-94900000D03*
X121780000Y-84740000D03*
X126860000Y-84740000D03*
X147180000Y-115220000D03*
X116700000Y-89820000D03*
X116700000Y-94900000D03*
X131940000Y-84740000D03*
X137020000Y-84740000D03*
X142100000Y-84740000D03*
X129400000Y-97440000D03*
X134480000Y-97440000D03*
X139560000Y-97440000D03*
X134480000Y-102520000D03*
X127622000Y-94392000D03*
X140068000Y-94900000D03*
X140576000Y-93376000D03*
X145402000Y-104044000D03*
X148958000Y-104298000D03*
X152260000Y-115220000D03*
X152260000Y-120300000D03*
X152260000Y-125380000D03*
X152260000Y-105060000D03*
X152260000Y-99980000D03*
X152260000Y-94900000D03*
X152260000Y-92360000D03*
X105016000Y-120300000D03*
X105016000Y-125888000D03*
X105016000Y-116998000D03*
X105016000Y-114458000D03*
X105016000Y-96424000D03*
X105270000Y-88550000D03*
X121780000Y-118268000D03*
X126860000Y-98956000D03*
X124193000Y-104171000D03*
X124193000Y-111791000D03*
X124193000Y-118268000D03*
X139687000Y-108997000D03*
X139687000Y-104044000D03*
X119696999Y-113950000D03*
X119684500Y-111156000D03*
X119684500Y-106584000D03*
X119684500Y-104679000D03*
X115176000Y-108459000D03*
X115176000Y-104552000D03*
X115160262Y-101011738D03*
X118541500Y-112235500D03*
X122131000Y-108616000D03*
X116543000Y-106647500D03*
X120906999Y-113539000D03*
X120906999Y-107854000D03*
X117208000Y-107854000D03*
X120891000Y-105060000D03*
X120891000Y-100996000D03*
X122034000Y-101313500D03*
X122034000Y-104044000D03*
X123367500Y-105695000D03*
X123367500Y-99472000D03*
X122557000Y-113046000D03*
D25*
X107475000Y-90220000D02*
X107780000Y-90220000D01*
D26*
X108550000Y-90220000D02*
X110080001Y-88689999D01*
X107475000Y-90220000D02*
X108550000Y-90220000D01*
X120649999Y-88689999D02*
X110080001Y-88689999D01*
X121780000Y-89820000D02*
X120649999Y-88689999D01*
X106825000Y-92760000D02*
X106825000Y-95300000D01*
X106825000Y-90220000D02*
X106825000Y-92760000D01*
X107475000Y-123240000D02*
X107475000Y-125780000D01*
X107475000Y-120700000D02*
X107475000Y-123240000D01*
D25*
X118503500Y-120046000D02*
X118503500Y-118268000D01*
X118503500Y-118268000D02*
X121780000Y-118268000D01*
X125890000Y-97986000D02*
X126860000Y-98956000D01*
X124891500Y-97986000D02*
X125890000Y-97986000D01*
X124316500Y-97986000D02*
X122034000Y-97986000D01*
X124891500Y-97986000D02*
X124316500Y-97986000D01*
X122034000Y-97986000D02*
X120472000Y-97986000D01*
X120103500Y-98354500D02*
X117017500Y-98354500D01*
X120472000Y-97986000D02*
X120103500Y-98354500D01*
D26*
X123151500Y-102520000D02*
X123151500Y-103129500D01*
X123151500Y-103129500D02*
X124193000Y-104171000D01*
X117472098Y-102520000D02*
X123151500Y-102520000D01*
X113175000Y-102920000D02*
X117072098Y-102920000D01*
X117072098Y-102920000D02*
X117472098Y-102520000D01*
D25*
X124193000Y-111791000D02*
X124193000Y-118268000D01*
D26*
X125691500Y-93189000D02*
X125717000Y-93214500D01*
X125691500Y-92614000D02*
X125691500Y-93189000D01*
X125717000Y-93214500D02*
X125717000Y-95662000D01*
X126860000Y-96805000D02*
X126860000Y-98755990D01*
X125717000Y-95662000D02*
X126860000Y-96805000D01*
X116192000Y-124110000D02*
X115322000Y-123240000D01*
X117518001Y-126960001D02*
X116192000Y-125634000D01*
X146904001Y-126960001D02*
X117518001Y-126960001D01*
X113175000Y-123240000D02*
X115322000Y-123240000D01*
X116192000Y-125634000D02*
X116192000Y-124110000D01*
X147180000Y-120110000D02*
X148260000Y-120110000D01*
X148260000Y-120110000D02*
X148958000Y-120808000D01*
X148958000Y-120808000D02*
X148958000Y-124906002D01*
X148958000Y-124906002D02*
X146904001Y-126960001D01*
X141148000Y-120110000D02*
X147180000Y-120110000D01*
X139560000Y-118522000D02*
X141148000Y-120110000D01*
X139560000Y-111410000D02*
X139560000Y-118522000D01*
X142100000Y-110140000D02*
X140830000Y-110140000D01*
X140830000Y-110140000D02*
X139560000Y-111410000D01*
X147085000Y-90360000D02*
X148450000Y-91725000D01*
X145402000Y-90360000D02*
X147085000Y-90360000D01*
X140830000Y-110140000D02*
X139687000Y-108997000D01*
X139687000Y-104044000D02*
X142354000Y-101377000D01*
X140645500Y-90360000D02*
X140576000Y-90429500D01*
X145402000Y-90360000D02*
X140645500Y-90360000D01*
X140460500Y-90314000D02*
X140576000Y-90429500D01*
X138138000Y-90314000D02*
X140460500Y-90314000D01*
X140576000Y-90429500D02*
X141693500Y-90429500D01*
X142354000Y-91090000D02*
X142354000Y-101377000D01*
X141693500Y-90429500D02*
X142354000Y-91090000D01*
X143084000Y-90360000D02*
X142354000Y-91090000D01*
X145402000Y-90360000D02*
X143084000Y-90360000D01*
D25*
X109579999Y-102070001D02*
X108730000Y-102920000D01*
X109885001Y-101764999D02*
X109579999Y-102070001D01*
X115622001Y-101764999D02*
X109885001Y-101764999D01*
X116391000Y-100996000D02*
X115622001Y-101764999D01*
X116928500Y-100996000D02*
X116391000Y-100996000D01*
X119696999Y-113950000D02*
X119696999Y-114509001D01*
X119494000Y-114712000D02*
X118503500Y-114712000D01*
X119696999Y-114509001D02*
X119494000Y-114712000D01*
X120108764Y-111156000D02*
X119684500Y-111156000D01*
X121372123Y-111156000D02*
X120108764Y-111156000D01*
X124928123Y-107600000D02*
X121372123Y-111156000D01*
X126860000Y-107600000D02*
X124928123Y-107600000D01*
X119684500Y-106584000D02*
X119684500Y-104679000D01*
X115176000Y-108459000D02*
X115176000Y-104552000D01*
X109579999Y-98689999D02*
X108730000Y-97840000D01*
X109885001Y-98995001D02*
X109579999Y-98689999D01*
X114191001Y-98995001D02*
X109885001Y-98995001D01*
X115160262Y-99964262D02*
X114191001Y-98995001D01*
X115160262Y-101011738D02*
X115160262Y-99964262D01*
X118503500Y-112197500D02*
X118541500Y-112235500D01*
X118503500Y-111156000D02*
X118503500Y-112197500D01*
X118965764Y-112235500D02*
X118541500Y-112235500D01*
X121970500Y-112235500D02*
X118965764Y-112235500D01*
X126860000Y-110140000D02*
X124066000Y-110140000D01*
X124066000Y-110140000D02*
X121970500Y-112235500D01*
X115538000Y-95300000D02*
X117017500Y-96779500D01*
X113175000Y-95300000D02*
X115538000Y-95300000D01*
X122131000Y-108616000D02*
X117017500Y-108616000D01*
X117017500Y-108616000D02*
X116543000Y-108141500D01*
X116543000Y-108141500D02*
X116543000Y-106647500D01*
X118503500Y-116490000D02*
X119748000Y-116490000D01*
X119748000Y-116490000D02*
X120906999Y-115331001D01*
X120906999Y-115331001D02*
X120906999Y-113539000D01*
X120906999Y-107854000D02*
X117208000Y-107854000D01*
X126860000Y-105060000D02*
X121653000Y-105060000D01*
X121653000Y-105060000D02*
X120891000Y-105060000D01*
X120891000Y-100996000D02*
X118503500Y-100996000D01*
X120891000Y-107838001D02*
X120906999Y-107854000D01*
X120891000Y-105060000D02*
X120891000Y-107838001D01*
X109885001Y-109384999D02*
X108730000Y-110540000D01*
X116573000Y-104044000D02*
X115938000Y-104679000D01*
X115938000Y-104679000D02*
X115938000Y-108616000D01*
X115169001Y-109384999D02*
X109885001Y-109384999D01*
X115938000Y-108616000D02*
X115169001Y-109384999D01*
X142100000Y-107600000D02*
X130211010Y-107600000D01*
X129322010Y-106711000D02*
X129322010Y-102124510D01*
X130211010Y-107600000D02*
X129322010Y-106711000D01*
X122034000Y-104044000D02*
X116573000Y-104044000D01*
X128511000Y-101313500D02*
X129322010Y-102124510D01*
X122034000Y-101313500D02*
X128511000Y-101313500D01*
X122034000Y-101313500D02*
X122034000Y-99561000D01*
X123367500Y-105695000D02*
X123367500Y-108552500D01*
X123367500Y-108552500D02*
X122034000Y-109886000D01*
X115938000Y-109886000D02*
X115284000Y-110540000D01*
X115284000Y-110540000D02*
X113175000Y-110540000D01*
X122034000Y-109886000D02*
X115938000Y-109886000D01*
X128282500Y-99561000D02*
X124891500Y-99561000D01*
X129752020Y-101030520D02*
X128282500Y-99561000D01*
X129752020Y-104840520D02*
X129752020Y-101030520D01*
X142100000Y-105060000D02*
X129971500Y-105060000D01*
X129971500Y-105060000D02*
X129752020Y-104840520D01*
X124891500Y-99561000D02*
X123456500Y-99561000D01*
X123456500Y-99561000D02*
X123367500Y-99472000D01*
X109579999Y-119009999D02*
X108730000Y-118160000D01*
X109969000Y-119411000D02*
X109579999Y-119009999D01*
X115303000Y-119411000D02*
X109969000Y-119411000D01*
X116928500Y-120046000D02*
X115938000Y-120046000D01*
X115938000Y-120046000D02*
X115303000Y-119411000D01*
X113283000Y-118268000D02*
X113175000Y-118160000D01*
X116928500Y-118268000D02*
X113283000Y-118268000D01*
X113321000Y-112934000D02*
X113175000Y-113080000D01*
X116928500Y-112934000D02*
X113321000Y-112934000D01*
X121526000Y-112934000D02*
X116928500Y-112934000D01*
X122542000Y-113950000D02*
X121526000Y-112934000D01*
X122542000Y-123094000D02*
X122542000Y-113950000D01*
X147180000Y-124110000D02*
X123558000Y-124110000D01*
X123558000Y-124110000D02*
X122542000Y-123094000D01*
D26*
X145935500Y-110140000D02*
X145910000Y-110114500D01*
X148450000Y-110140000D02*
X145935500Y-110140000D01*
X149196000Y-107730000D02*
X148450000Y-108476000D01*
X149196000Y-106330000D02*
X149196000Y-107730000D01*
X148450000Y-108476000D02*
X148450000Y-110140000D01*
D25*
X144655416Y-123679990D02*
X146225406Y-122110000D01*
X124066000Y-123679990D02*
X144655416Y-123679990D01*
X123050000Y-122663990D02*
X124066000Y-123679990D01*
X123050000Y-113539000D02*
X123050000Y-122663990D01*
X122557000Y-113046000D02*
X123050000Y-113539000D01*
X146225406Y-122110000D02*
X147180000Y-122110000D01*
X109579999Y-112230001D02*
X108730000Y-113080000D01*
X109885001Y-111924999D02*
X109579999Y-112230001D01*
X115622001Y-111924999D02*
X109885001Y-111924999D01*
X116391000Y-111156000D02*
X115622001Y-111924999D01*
X116928500Y-111156000D02*
X116391000Y-111156000D01*
X109579999Y-114770001D02*
X108730000Y-115620000D01*
X109994000Y-114356000D02*
X109579999Y-114770001D01*
X114898749Y-114354251D02*
X109994000Y-114356000D01*
X116928500Y-114712000D02*
X115303000Y-114712000D01*
X115303000Y-114712000D02*
X114898749Y-114354251D01*
X113283000Y-115728000D02*
X113175000Y-115620000D01*
X114560000Y-115620000D02*
X115430000Y-116490000D01*
X113175000Y-115620000D02*
X114560000Y-115620000D01*
X116928500Y-116490000D02*
X115430000Y-116490000D01*
D26*
X147104500Y-107371500D02*
X147196000Y-107280000D01*
X145402000Y-107371500D02*
X147104500Y-107371500D01*
X145402000Y-101726000D02*
X144926000Y-101726000D01*
X143630001Y-103021999D02*
X143630001Y-106971001D01*
X144926000Y-101726000D02*
X143630001Y-103021999D01*
X144030500Y-107371500D02*
X145402000Y-107371500D01*
X143630001Y-106971001D02*
X144030500Y-107371500D01*
X147212000Y-101726000D02*
X148450000Y-100488000D01*
X145402000Y-101726000D02*
X147212000Y-101726000D01*
D27*
X138138000Y-92614000D02*
X131838000Y-92614000D01*
D26*
X129425500Y-92614000D02*
X129400000Y-92588500D01*
X131838000Y-92614000D02*
X129425500Y-92614000D01*
X127292000Y-92588500D02*
X127266500Y-92614000D01*
X129400000Y-92588500D02*
X127292000Y-92588500D01*
X145402000Y-94360000D02*
X145402000Y-97726000D01*
X147339000Y-94360000D02*
X148450000Y-93249000D01*
X145402000Y-94360000D02*
X147339000Y-94360000D01*
X147212000Y-97726000D02*
X148450000Y-98964000D01*
X145402000Y-97726000D02*
X147212000Y-97726000D01*
X126860000Y-102520000D02*
X124726500Y-102520000D01*
D28*
G36*
X143473288Y-83777379D02*
G01*
X143495525Y-83804475D01*
X143603637Y-83893200D01*
X143726980Y-83959128D01*
X143860816Y-83999727D01*
X143965123Y-84010000D01*
X143965124Y-84010000D01*
X143999999Y-84013435D01*
X144034874Y-84010000D01*
X149963950Y-84010000D01*
X149941331Y-84019369D01*
X149575271Y-84263962D01*
X149263962Y-84575271D01*
X149019369Y-84941331D01*
X148850890Y-85348075D01*
X148765000Y-85779872D01*
X148765000Y-86220128D01*
X148850890Y-86651925D01*
X149019369Y-87058669D01*
X149263962Y-87424729D01*
X149575271Y-87736038D01*
X149941331Y-87980631D01*
X150348075Y-88149110D01*
X150779872Y-88235000D01*
X151220128Y-88235000D01*
X151651925Y-88149110D01*
X152058669Y-87980631D01*
X152424729Y-87736038D01*
X152736038Y-87424729D01*
X152980631Y-87058669D01*
X152990000Y-87036050D01*
X152990001Y-89965115D01*
X152986565Y-90000000D01*
X153000274Y-90139184D01*
X153040872Y-90273019D01*
X153090711Y-90366260D01*
X153106801Y-90396363D01*
X153195526Y-90504475D01*
X153222617Y-90526708D01*
X153290000Y-90594091D01*
X153290001Y-125405908D01*
X153222617Y-125473292D01*
X153195525Y-125495526D01*
X153106800Y-125603638D01*
X153040872Y-125726981D01*
X153000273Y-125860817D01*
X152990000Y-125965123D01*
X152986565Y-126000000D01*
X152990000Y-126034875D01*
X152990001Y-128963952D01*
X152980631Y-128941331D01*
X152736038Y-128575271D01*
X152424729Y-128263962D01*
X152058669Y-128019369D01*
X151651925Y-127850890D01*
X151220128Y-127765000D01*
X150779872Y-127765000D01*
X150348075Y-127850890D01*
X149941331Y-128019369D01*
X149575271Y-128263962D01*
X149263962Y-128575271D01*
X149019369Y-128941331D01*
X148850890Y-129348075D01*
X148765000Y-129779872D01*
X148765000Y-130220128D01*
X148850890Y-130651925D01*
X149019369Y-131058669D01*
X149263962Y-131424729D01*
X149575271Y-131736038D01*
X149941331Y-131980631D01*
X149963950Y-131990000D01*
X144034874Y-131990000D01*
X143999999Y-131986565D01*
X143965124Y-131990000D01*
X143965123Y-131990000D01*
X143860816Y-132000273D01*
X143726980Y-132040872D01*
X143603637Y-132106800D01*
X143495525Y-132195525D01*
X143473288Y-132222621D01*
X143405909Y-132290000D01*
X114594091Y-132290000D01*
X114526712Y-132222621D01*
X114504475Y-132195525D01*
X114396363Y-132106800D01*
X114273020Y-132040872D01*
X114139184Y-132000273D01*
X114034877Y-131990000D01*
X114034875Y-131990000D01*
X114000000Y-131986565D01*
X113965125Y-131990000D01*
X108036050Y-131990000D01*
X108058669Y-131980631D01*
X108424729Y-131736038D01*
X108736038Y-131424729D01*
X108980631Y-131058669D01*
X109149110Y-130651925D01*
X109235000Y-130220128D01*
X109235000Y-129829117D01*
X109265000Y-129829117D01*
X109265000Y-130170883D01*
X109331675Y-130506081D01*
X109462463Y-130821831D01*
X109652337Y-131105998D01*
X109894002Y-131347663D01*
X110178169Y-131537537D01*
X110493919Y-131668325D01*
X110829117Y-131735000D01*
X111170883Y-131735000D01*
X111506081Y-131668325D01*
X111821831Y-131537537D01*
X112105998Y-131347663D01*
X112347663Y-131105998D01*
X112537537Y-130821831D01*
X112668325Y-130506081D01*
X112735000Y-130170883D01*
X112735000Y-129829117D01*
X145265000Y-129829117D01*
X145265000Y-130170883D01*
X145331675Y-130506081D01*
X145462463Y-130821831D01*
X145652337Y-131105998D01*
X145894002Y-131347663D01*
X146178169Y-131537537D01*
X146493919Y-131668325D01*
X146829117Y-131735000D01*
X147170883Y-131735000D01*
X147506081Y-131668325D01*
X147821831Y-131537537D01*
X148105998Y-131347663D01*
X148347663Y-131105998D01*
X148537537Y-130821831D01*
X148668325Y-130506081D01*
X148735000Y-130170883D01*
X148735000Y-129829117D01*
X148668325Y-129493919D01*
X148537537Y-129178169D01*
X148347663Y-128894002D01*
X148105998Y-128652337D01*
X147821831Y-128462463D01*
X147506081Y-128331675D01*
X147170883Y-128265000D01*
X146829117Y-128265000D01*
X146493919Y-128331675D01*
X146178169Y-128462463D01*
X145894002Y-128652337D01*
X145652337Y-128894002D01*
X145462463Y-129178169D01*
X145331675Y-129493919D01*
X145265000Y-129829117D01*
X112735000Y-129829117D01*
X112668325Y-129493919D01*
X112537537Y-129178169D01*
X112347663Y-128894002D01*
X112105998Y-128652337D01*
X111821831Y-128462463D01*
X111506081Y-128331675D01*
X111170883Y-128265000D01*
X110829117Y-128265000D01*
X110493919Y-128331675D01*
X110178169Y-128462463D01*
X109894002Y-128652337D01*
X109652337Y-128894002D01*
X109462463Y-129178169D01*
X109331675Y-129493919D01*
X109265000Y-129829117D01*
X109235000Y-129829117D01*
X109235000Y-129779872D01*
X109149110Y-129348075D01*
X108980631Y-128941331D01*
X108736038Y-128575271D01*
X108424729Y-128263962D01*
X108058669Y-128019369D01*
X107651925Y-127850890D01*
X107220128Y-127765000D01*
X106779872Y-127765000D01*
X106348075Y-127850890D01*
X105941331Y-128019369D01*
X105575271Y-128263962D01*
X105263962Y-128575271D01*
X105019369Y-128941331D01*
X105010000Y-128963950D01*
X105010000Y-126034874D01*
X105013435Y-125999999D01*
X105001807Y-125881939D01*
X104999727Y-125860816D01*
X104959128Y-125726980D01*
X104893200Y-125603637D01*
X104804475Y-125495525D01*
X104777379Y-125473288D01*
X104710000Y-125405909D01*
X104710000Y-90594091D01*
X104777379Y-90526712D01*
X104804475Y-90504475D01*
X104893200Y-90396363D01*
X104959128Y-90273020D01*
X104999727Y-90139184D01*
X105010000Y-90034877D01*
X105010000Y-90034876D01*
X105013435Y-90000001D01*
X105010000Y-89965126D01*
X105010000Y-89720000D01*
X105261928Y-89720000D01*
X105265000Y-89934250D01*
X105423750Y-90093000D01*
X105793692Y-90093000D01*
X105791649Y-90102523D01*
X105788587Y-90306377D01*
X105796035Y-90347000D01*
X105423750Y-90347000D01*
X105265000Y-90505750D01*
X105261928Y-90720000D01*
X105274188Y-90844482D01*
X105310498Y-90964180D01*
X105369463Y-91074494D01*
X105448815Y-91171185D01*
X105545506Y-91250537D01*
X105655820Y-91309502D01*
X105775518Y-91345812D01*
X105900000Y-91358072D01*
X107189250Y-91355000D01*
X107348000Y-91196250D01*
X107348000Y-90960562D01*
X107351836Y-90926444D01*
X107470158Y-91044766D01*
X107506839Y-91008085D01*
X107602000Y-91037746D01*
X107602000Y-91196250D01*
X107760750Y-91355000D01*
X107914550Y-91355366D01*
X107956514Y-91490000D01*
X107914550Y-91624634D01*
X107760750Y-91625000D01*
X107602000Y-91783750D01*
X107602000Y-91942254D01*
X107506839Y-91971915D01*
X107470158Y-91935234D01*
X107351836Y-92053556D01*
X107348000Y-92019438D01*
X107348000Y-91783750D01*
X107189250Y-91625000D01*
X105900000Y-91621928D01*
X105775518Y-91634188D01*
X105655820Y-91670498D01*
X105545506Y-91729463D01*
X105448815Y-91808815D01*
X105369463Y-91905506D01*
X105310498Y-92015820D01*
X105274188Y-92135518D01*
X105261928Y-92260000D01*
X105265000Y-92474250D01*
X105423750Y-92633000D01*
X105793692Y-92633000D01*
X105791649Y-92642523D01*
X105788587Y-92846377D01*
X105796035Y-92887000D01*
X105423750Y-92887000D01*
X105265000Y-93045750D01*
X105261928Y-93260000D01*
X105274188Y-93384482D01*
X105310498Y-93504180D01*
X105369463Y-93614494D01*
X105448815Y-93711185D01*
X105545506Y-93790537D01*
X105655820Y-93849502D01*
X105775518Y-93885812D01*
X105900000Y-93898072D01*
X107189250Y-93895000D01*
X107348000Y-93736250D01*
X107348000Y-93500562D01*
X107351836Y-93466444D01*
X107470158Y-93584766D01*
X107506839Y-93548085D01*
X107602000Y-93577746D01*
X107602000Y-93736250D01*
X107760750Y-93895000D01*
X107914550Y-93895366D01*
X107956514Y-94030000D01*
X107914550Y-94164634D01*
X107760750Y-94165000D01*
X107602000Y-94323750D01*
X107602000Y-94482254D01*
X107506839Y-94511915D01*
X107470158Y-94475234D01*
X107351836Y-94593556D01*
X107348000Y-94559438D01*
X107348000Y-94323750D01*
X107189250Y-94165000D01*
X105900000Y-94161928D01*
X105775518Y-94174188D01*
X105655820Y-94210498D01*
X105545506Y-94269463D01*
X105448815Y-94348815D01*
X105369463Y-94445506D01*
X105310498Y-94555820D01*
X105274188Y-94675518D01*
X105261928Y-94800000D01*
X105265000Y-95014250D01*
X105423750Y-95173000D01*
X105793692Y-95173000D01*
X105791649Y-95182523D01*
X105788587Y-95386377D01*
X105796035Y-95427000D01*
X105423750Y-95427000D01*
X105265000Y-95585750D01*
X105261928Y-95800000D01*
X105274188Y-95924482D01*
X105310498Y-96044180D01*
X105369463Y-96154494D01*
X105448815Y-96251185D01*
X105545506Y-96330537D01*
X105655820Y-96389502D01*
X105775518Y-96425812D01*
X105900000Y-96438072D01*
X107189250Y-96435000D01*
X107348000Y-96276250D01*
X107348000Y-96040562D01*
X107351836Y-96006444D01*
X107470158Y-96124766D01*
X107506839Y-96088085D01*
X107602000Y-96117746D01*
X107602000Y-96276250D01*
X107760750Y-96435000D01*
X107914550Y-96435366D01*
X107956729Y-96570689D01*
X107783368Y-96686525D01*
X107767965Y-96701928D01*
X105900000Y-96701928D01*
X105775518Y-96714188D01*
X105655820Y-96750498D01*
X105545506Y-96809463D01*
X105448815Y-96888815D01*
X105369463Y-96985506D01*
X105310498Y-97095820D01*
X105274188Y-97215518D01*
X105261928Y-97340000D01*
X105261928Y-98340000D01*
X105274188Y-98464482D01*
X105310498Y-98584180D01*
X105369463Y-98694494D01*
X105448815Y-98791185D01*
X105545506Y-98870537D01*
X105655820Y-98929502D01*
X105775518Y-98965812D01*
X105900000Y-98978072D01*
X107767965Y-98978072D01*
X107783368Y-98993475D01*
X107957760Y-99110000D01*
X107783368Y-99226525D01*
X107767965Y-99241928D01*
X105900000Y-99241928D01*
X105775518Y-99254188D01*
X105655820Y-99290498D01*
X105545506Y-99349463D01*
X105448815Y-99428815D01*
X105369463Y-99525506D01*
X105310498Y-99635820D01*
X105274188Y-99755518D01*
X105261928Y-99880000D01*
X105261928Y-100880000D01*
X105274188Y-101004482D01*
X105310498Y-101124180D01*
X105369463Y-101234494D01*
X105448815Y-101331185D01*
X105545506Y-101410537D01*
X105655820Y-101469502D01*
X105775518Y-101505812D01*
X105900000Y-101518072D01*
X107767965Y-101518072D01*
X107783368Y-101533475D01*
X107957760Y-101650000D01*
X107783368Y-101766525D01*
X107767965Y-101781928D01*
X105900000Y-101781928D01*
X105775518Y-101794188D01*
X105655820Y-101830498D01*
X105545506Y-101889463D01*
X105448815Y-101968815D01*
X105369463Y-102065506D01*
X105310498Y-102175820D01*
X105274188Y-102295518D01*
X105261928Y-102420000D01*
X105261928Y-103420000D01*
X105274188Y-103544482D01*
X105310498Y-103664180D01*
X105369463Y-103774494D01*
X105448815Y-103871185D01*
X105545506Y-103950537D01*
X105655820Y-104009502D01*
X105775518Y-104045812D01*
X105900000Y-104058072D01*
X107767965Y-104058072D01*
X107783368Y-104073475D01*
X107957760Y-104190000D01*
X107783368Y-104306525D01*
X107767965Y-104321928D01*
X105900000Y-104321928D01*
X105775518Y-104334188D01*
X105655820Y-104370498D01*
X105545506Y-104429463D01*
X105448815Y-104508815D01*
X105369463Y-104605506D01*
X105310498Y-104715820D01*
X105274188Y-104835518D01*
X105261928Y-104960000D01*
X105261928Y-105960000D01*
X105274188Y-106084482D01*
X105310498Y-106204180D01*
X105369463Y-106314494D01*
X105448815Y-106411185D01*
X105545506Y-106490537D01*
X105655820Y-106549502D01*
X105775518Y-106585812D01*
X105900000Y-106598072D01*
X107767965Y-106598072D01*
X107783368Y-106613475D01*
X107957760Y-106730000D01*
X107783368Y-106846525D01*
X107767965Y-106861928D01*
X105900000Y-106861928D01*
X105775518Y-106874188D01*
X105655820Y-106910498D01*
X105545506Y-106969463D01*
X105448815Y-107048815D01*
X105369463Y-107145506D01*
X105310498Y-107255820D01*
X105274188Y-107375518D01*
X105261928Y-107500000D01*
X105261928Y-108500000D01*
X105274188Y-108624482D01*
X105310498Y-108744180D01*
X105369463Y-108854494D01*
X105448815Y-108951185D01*
X105545506Y-109030537D01*
X105655820Y-109089502D01*
X105775518Y-109125812D01*
X105900000Y-109138072D01*
X107767965Y-109138072D01*
X107783368Y-109153475D01*
X107957760Y-109270000D01*
X107783368Y-109386525D01*
X107767965Y-109401928D01*
X105900000Y-109401928D01*
X105775518Y-109414188D01*
X105655820Y-109450498D01*
X105545506Y-109509463D01*
X105448815Y-109588815D01*
X105369463Y-109685506D01*
X105310498Y-109795820D01*
X105274188Y-109915518D01*
X105261928Y-110040000D01*
X105261928Y-111040000D01*
X105274188Y-111164482D01*
X105310498Y-111284180D01*
X105369463Y-111394494D01*
X105448815Y-111491185D01*
X105545506Y-111570537D01*
X105655820Y-111629502D01*
X105775518Y-111665812D01*
X105900000Y-111678072D01*
X107767965Y-111678072D01*
X107783368Y-111693475D01*
X107957760Y-111810000D01*
X107783368Y-111926525D01*
X107767965Y-111941928D01*
X105900000Y-111941928D01*
X105775518Y-111954188D01*
X105655820Y-111990498D01*
X105545506Y-112049463D01*
X105448815Y-112128815D01*
X105369463Y-112225506D01*
X105310498Y-112335820D01*
X105274188Y-112455518D01*
X105261928Y-112580000D01*
X105261928Y-113580000D01*
X105274188Y-113704482D01*
X105310498Y-113824180D01*
X105369463Y-113934494D01*
X105448815Y-114031185D01*
X105545506Y-114110537D01*
X105655820Y-114169502D01*
X105775518Y-114205812D01*
X105900000Y-114218072D01*
X107767965Y-114218072D01*
X107783368Y-114233475D01*
X107957760Y-114350000D01*
X107783368Y-114466525D01*
X107767965Y-114481928D01*
X105900000Y-114481928D01*
X105775518Y-114494188D01*
X105655820Y-114530498D01*
X105545506Y-114589463D01*
X105448815Y-114668815D01*
X105369463Y-114765506D01*
X105310498Y-114875820D01*
X105274188Y-114995518D01*
X105261928Y-115120000D01*
X105261928Y-116120000D01*
X105274188Y-116244482D01*
X105310498Y-116364180D01*
X105369463Y-116474494D01*
X105448815Y-116571185D01*
X105545506Y-116650537D01*
X105655820Y-116709502D01*
X105775518Y-116745812D01*
X105900000Y-116758072D01*
X107767965Y-116758072D01*
X107783368Y-116773475D01*
X107957760Y-116890000D01*
X107783368Y-117006525D01*
X107767965Y-117021928D01*
X105900000Y-117021928D01*
X105775518Y-117034188D01*
X105655820Y-117070498D01*
X105545506Y-117129463D01*
X105448815Y-117208815D01*
X105369463Y-117305506D01*
X105310498Y-117415820D01*
X105274188Y-117535518D01*
X105261928Y-117660000D01*
X105261928Y-118660000D01*
X105274188Y-118784482D01*
X105310498Y-118904180D01*
X105369463Y-119014494D01*
X105448815Y-119111185D01*
X105545506Y-119190537D01*
X105655820Y-119249502D01*
X105775518Y-119285812D01*
X105900000Y-119298072D01*
X107767965Y-119298072D01*
X107783368Y-119313475D01*
X107957760Y-119430000D01*
X107783368Y-119546525D01*
X107767965Y-119561928D01*
X107499561Y-119561928D01*
X107475000Y-119559509D01*
X107450439Y-119561928D01*
X105900000Y-119561928D01*
X105775518Y-119574188D01*
X105655820Y-119610498D01*
X105545506Y-119669463D01*
X105448815Y-119748815D01*
X105369463Y-119845506D01*
X105310498Y-119955820D01*
X105274188Y-120075518D01*
X105261928Y-120200000D01*
X105261928Y-121200000D01*
X105274188Y-121324482D01*
X105310498Y-121444180D01*
X105369463Y-121554494D01*
X105448815Y-121651185D01*
X105545506Y-121730537D01*
X105655820Y-121789502D01*
X105775518Y-121825812D01*
X105900000Y-121838072D01*
X106340000Y-121838072D01*
X106340001Y-122101928D01*
X105900000Y-122101928D01*
X105775518Y-122114188D01*
X105655820Y-122150498D01*
X105545506Y-122209463D01*
X105448815Y-122288815D01*
X105369463Y-122385506D01*
X105310498Y-122495820D01*
X105274188Y-122615518D01*
X105261928Y-122740000D01*
X105261928Y-123740000D01*
X105274188Y-123864482D01*
X105310498Y-123984180D01*
X105369463Y-124094494D01*
X105448815Y-124191185D01*
X105545506Y-124270537D01*
X105655820Y-124329502D01*
X105775518Y-124365812D01*
X105900000Y-124378072D01*
X106340000Y-124378072D01*
X106340001Y-124641928D01*
X105900000Y-124641928D01*
X105775518Y-124654188D01*
X105655820Y-124690498D01*
X105545506Y-124749463D01*
X105448815Y-124828815D01*
X105369463Y-124925506D01*
X105310498Y-125035820D01*
X105274188Y-125155518D01*
X105261928Y-125280000D01*
X105261928Y-126280000D01*
X105274188Y-126404482D01*
X105310498Y-126524180D01*
X105369463Y-126634494D01*
X105448815Y-126731185D01*
X105545506Y-126810537D01*
X105655820Y-126869502D01*
X105775518Y-126905812D01*
X105900000Y-126918072D01*
X107450439Y-126918072D01*
X107475000Y-126920491D01*
X107499561Y-126918072D01*
X107767965Y-126918072D01*
X107783368Y-126933475D01*
X108026589Y-127095990D01*
X108296842Y-127207932D01*
X108583740Y-127265000D01*
X108876260Y-127265000D01*
X109163158Y-127207932D01*
X109433411Y-127095990D01*
X109676632Y-126933475D01*
X109883475Y-126726632D01*
X110000000Y-126552240D01*
X110116525Y-126726632D01*
X110323368Y-126933475D01*
X110566589Y-127095990D01*
X110836842Y-127207932D01*
X111123740Y-127265000D01*
X111416260Y-127265000D01*
X111703158Y-127207932D01*
X111973411Y-127095990D01*
X112216632Y-126933475D01*
X112232035Y-126918072D01*
X114100000Y-126918072D01*
X114224482Y-126905812D01*
X114344180Y-126869502D01*
X114454494Y-126810537D01*
X114551185Y-126731185D01*
X114630537Y-126634494D01*
X114689502Y-126524180D01*
X114725812Y-126404482D01*
X114738072Y-126280000D01*
X114738072Y-125280000D01*
X114725812Y-125155518D01*
X114689502Y-125035820D01*
X114630537Y-124925506D01*
X114551185Y-124828815D01*
X114454494Y-124749463D01*
X114344180Y-124690498D01*
X114224482Y-124654188D01*
X114100000Y-124641928D01*
X112232035Y-124641928D01*
X112216632Y-124626525D01*
X112042240Y-124510000D01*
X112216632Y-124393475D01*
X112232035Y-124378072D01*
X114100000Y-124378072D01*
X114131192Y-124375000D01*
X114851869Y-124375000D01*
X115057000Y-124580132D01*
X115057000Y-125578249D01*
X115051509Y-125634000D01*
X115059236Y-125712451D01*
X115073423Y-125856498D01*
X115138324Y-126070446D01*
X115243716Y-126267623D01*
X115385551Y-126440449D01*
X115428864Y-126475995D01*
X116676014Y-127723147D01*
X116711552Y-127766450D01*
X116754855Y-127801988D01*
X116754857Y-127801990D01*
X116884378Y-127908285D01*
X117081554Y-128013677D01*
X117295502Y-128078578D01*
X117518001Y-128100492D01*
X117573753Y-128095001D01*
X146848250Y-128095001D01*
X146904001Y-128100492D01*
X146959752Y-128095001D01*
X146959753Y-128095001D01*
X147126500Y-128078578D01*
X147340448Y-128013677D01*
X147537624Y-127908285D01*
X147710450Y-127766450D01*
X147745997Y-127723136D01*
X149721141Y-125747993D01*
X149764449Y-125712451D01*
X149906284Y-125539625D01*
X150011676Y-125342449D01*
X150076577Y-125128501D01*
X150093000Y-124961754D01*
X150093000Y-124961745D01*
X150098490Y-124906003D01*
X150093000Y-124850261D01*
X150093000Y-120863751D01*
X150098491Y-120807999D01*
X150076577Y-120585501D01*
X150011676Y-120371553D01*
X149955707Y-120266842D01*
X149906284Y-120174377D01*
X149764449Y-120001551D01*
X149721135Y-119966004D01*
X149101996Y-119346865D01*
X149066449Y-119303551D01*
X148893623Y-119161716D01*
X148696447Y-119056324D01*
X148482499Y-118991423D01*
X148315752Y-118975000D01*
X148315751Y-118975000D01*
X148260000Y-118969509D01*
X148204249Y-118975000D01*
X148175714Y-118975000D01*
X148200161Y-118950553D01*
X148083402Y-118833794D01*
X148314621Y-118777370D01*
X148423017Y-118543192D01*
X148483645Y-118292367D01*
X148494174Y-118034535D01*
X148454200Y-117779602D01*
X148365259Y-117537367D01*
X148314621Y-117442630D01*
X148083400Y-117386205D01*
X147359605Y-118110000D01*
X147373748Y-118124143D01*
X147194143Y-118303748D01*
X147180000Y-118289605D01*
X147165858Y-118303748D01*
X146986253Y-118124143D01*
X147000395Y-118110000D01*
X146276600Y-117386205D01*
X146045379Y-117442630D01*
X145936983Y-117676808D01*
X145876355Y-117927633D01*
X145865826Y-118185465D01*
X145905800Y-118440398D01*
X145994741Y-118682633D01*
X146045379Y-118777370D01*
X146276598Y-118833794D01*
X146159839Y-118950553D01*
X146184286Y-118975000D01*
X141618132Y-118975000D01*
X140695000Y-118051869D01*
X140695000Y-117206600D01*
X146456205Y-117206600D01*
X147180000Y-117930395D01*
X147903795Y-117206600D01*
X147847370Y-116975379D01*
X147613192Y-116866983D01*
X147362367Y-116806355D01*
X147104535Y-116795826D01*
X146849602Y-116835800D01*
X146607367Y-116924741D01*
X146512630Y-116975379D01*
X146456205Y-117206600D01*
X140695000Y-117206600D01*
X140695000Y-113838728D01*
X140719463Y-113884494D01*
X140798815Y-113981185D01*
X140895506Y-114060537D01*
X141005820Y-114119502D01*
X141125518Y-114155812D01*
X141250000Y-114168072D01*
X141814250Y-114165000D01*
X141973000Y-114006250D01*
X141973000Y-112807000D01*
X142227000Y-112807000D01*
X142227000Y-114006250D01*
X142385750Y-114165000D01*
X142950000Y-114168072D01*
X143074482Y-114155812D01*
X143194180Y-114119502D01*
X143304494Y-114060537D01*
X143401185Y-113981185D01*
X143480537Y-113884494D01*
X143539502Y-113774180D01*
X143575812Y-113654482D01*
X143588072Y-113530000D01*
X146961928Y-113530000D01*
X146974188Y-113654482D01*
X147010498Y-113774180D01*
X147069463Y-113884494D01*
X147148815Y-113981185D01*
X147245506Y-114060537D01*
X147355820Y-114119502D01*
X147475518Y-114155812D01*
X147600000Y-114168072D01*
X148164250Y-114165000D01*
X148323000Y-114006250D01*
X148323000Y-112807000D01*
X148577000Y-112807000D01*
X148577000Y-114006250D01*
X148735750Y-114165000D01*
X149300000Y-114168072D01*
X149424482Y-114155812D01*
X149544180Y-114119502D01*
X149654494Y-114060537D01*
X149751185Y-113981185D01*
X149830537Y-113884494D01*
X149889502Y-113774180D01*
X149925812Y-113654482D01*
X149938072Y-113530000D01*
X149935000Y-112965750D01*
X149776250Y-112807000D01*
X148577000Y-112807000D01*
X148323000Y-112807000D01*
X147123750Y-112807000D01*
X146965000Y-112965750D01*
X146961928Y-113530000D01*
X143588072Y-113530000D01*
X143585000Y-112965750D01*
X143426250Y-112807000D01*
X142227000Y-112807000D01*
X141973000Y-112807000D01*
X141953000Y-112807000D01*
X141953000Y-112553000D01*
X141973000Y-112553000D01*
X141973000Y-112533000D01*
X142227000Y-112533000D01*
X142227000Y-112553000D01*
X143426250Y-112553000D01*
X143585000Y-112394250D01*
X143586455Y-112127000D01*
X144796928Y-112127000D01*
X144809188Y-112251482D01*
X144845498Y-112371180D01*
X144904463Y-112481494D01*
X144983815Y-112578185D01*
X145080506Y-112657537D01*
X145190820Y-112716502D01*
X145310518Y-112752812D01*
X145435000Y-112765072D01*
X145624250Y-112762000D01*
X145783000Y-112603250D01*
X145783000Y-111816500D01*
X144958750Y-111816500D01*
X144800000Y-111975250D01*
X144796928Y-112127000D01*
X143586455Y-112127000D01*
X143588072Y-111830000D01*
X143575812Y-111705518D01*
X143539502Y-111585820D01*
X143480537Y-111475506D01*
X143401185Y-111378815D01*
X143304494Y-111299463D01*
X143194180Y-111240498D01*
X143125313Y-111219607D01*
X143155134Y-111195134D01*
X143340706Y-110969014D01*
X143478599Y-110711034D01*
X143563513Y-110431111D01*
X143592185Y-110140000D01*
X143563513Y-109848889D01*
X143478599Y-109568966D01*
X143340706Y-109310986D01*
X143155134Y-109084866D01*
X142929014Y-108899294D01*
X142874209Y-108870000D01*
X142929014Y-108840706D01*
X143155134Y-108655134D01*
X143340706Y-108429014D01*
X143398599Y-108320704D01*
X143594053Y-108425176D01*
X143751624Y-108472975D01*
X143808000Y-108490077D01*
X144030499Y-108511991D01*
X144086251Y-108506500D01*
X147048749Y-108506500D01*
X147104500Y-108511991D01*
X147160251Y-108506500D01*
X147160252Y-108506500D01*
X147311050Y-108491648D01*
X147315000Y-108531751D01*
X147315000Y-109005000D01*
X146162421Y-109005000D01*
X146132498Y-108995923D01*
X145910000Y-108974009D01*
X145687502Y-108995923D01*
X145493802Y-109054682D01*
X145486592Y-109055392D01*
X145325858Y-109104150D01*
X145177725Y-109183329D01*
X145047885Y-109289885D01*
X144941329Y-109419725D01*
X144862150Y-109567858D01*
X144813392Y-109728592D01*
X144800121Y-109863327D01*
X144791423Y-109892002D01*
X144769509Y-110114500D01*
X144791423Y-110336998D01*
X144800121Y-110365673D01*
X144813392Y-110500408D01*
X144862150Y-110661142D01*
X144941329Y-110809275D01*
X144959100Y-110830930D01*
X144904463Y-110897506D01*
X144845498Y-111007820D01*
X144809188Y-111127518D01*
X144796928Y-111252000D01*
X144800000Y-111403750D01*
X144958750Y-111562500D01*
X145783000Y-111562500D01*
X145783000Y-111542500D01*
X146037000Y-111542500D01*
X146037000Y-111562500D01*
X146057000Y-111562500D01*
X146057000Y-111816500D01*
X146037000Y-111816500D01*
X146037000Y-112603250D01*
X146195750Y-112762000D01*
X146385000Y-112765072D01*
X146509482Y-112752812D01*
X146629180Y-112716502D01*
X146739494Y-112657537D01*
X146836185Y-112578185D01*
X146915537Y-112481494D01*
X146964971Y-112389010D01*
X146965000Y-112394250D01*
X147123750Y-112553000D01*
X148323000Y-112553000D01*
X148323000Y-112533000D01*
X148577000Y-112533000D01*
X148577000Y-112553000D01*
X149776250Y-112553000D01*
X149935000Y-112394250D01*
X149938072Y-111830000D01*
X149925812Y-111705518D01*
X149889502Y-111585820D01*
X149830537Y-111475506D01*
X149751185Y-111378815D01*
X149654494Y-111299463D01*
X149544180Y-111240498D01*
X149475313Y-111219607D01*
X149505134Y-111195134D01*
X149690706Y-110969014D01*
X149828599Y-110711034D01*
X149913513Y-110431111D01*
X149942185Y-110140000D01*
X149913513Y-109848889D01*
X149828599Y-109568966D01*
X149690706Y-109310986D01*
X149585000Y-109182183D01*
X149585000Y-108946131D01*
X149959135Y-108571996D01*
X150002449Y-108536449D01*
X150144284Y-108363623D01*
X150249676Y-108166447D01*
X150314577Y-107952499D01*
X150331000Y-107785752D01*
X150331000Y-107785743D01*
X150336490Y-107730001D01*
X150331000Y-107674259D01*
X150331000Y-106274248D01*
X150314577Y-106107501D01*
X150284072Y-106006940D01*
X150284072Y-105930000D01*
X150271812Y-105805518D01*
X150235502Y-105685820D01*
X150176537Y-105575506D01*
X150097185Y-105478815D01*
X150000494Y-105399463D01*
X149890180Y-105340498D01*
X149770482Y-105304188D01*
X149665172Y-105293816D01*
X149632446Y-105276324D01*
X149418498Y-105211423D01*
X149196000Y-105189509D01*
X148973501Y-105211423D01*
X148759553Y-105276324D01*
X148726827Y-105293816D01*
X148621518Y-105304188D01*
X148501820Y-105340498D01*
X148391506Y-105399463D01*
X148294815Y-105478815D01*
X148215463Y-105575506D01*
X148206857Y-105591607D01*
X148122250Y-105507000D01*
X147323000Y-105507000D01*
X147323000Y-105527000D01*
X147069000Y-105527000D01*
X147069000Y-105507000D01*
X147049000Y-105507000D01*
X147049000Y-105253000D01*
X147069000Y-105253000D01*
X147069000Y-104503750D01*
X147323000Y-104503750D01*
X147323000Y-105253000D01*
X148122250Y-105253000D01*
X148281000Y-105094250D01*
X148284072Y-104980000D01*
X148271812Y-104855518D01*
X148235502Y-104735820D01*
X148176537Y-104625506D01*
X148097185Y-104528815D01*
X148000494Y-104449463D01*
X147890180Y-104390498D01*
X147770482Y-104354188D01*
X147646000Y-104341928D01*
X147481750Y-104345000D01*
X147323000Y-104503750D01*
X147069000Y-104503750D01*
X146910250Y-104345000D01*
X146746000Y-104341928D01*
X146621518Y-104354188D01*
X146501820Y-104390498D01*
X146391506Y-104449463D01*
X146294815Y-104528815D01*
X146215463Y-104625506D01*
X146156498Y-104735820D01*
X146142780Y-104781043D01*
X146121180Y-104769498D01*
X146001482Y-104733188D01*
X145877000Y-104720928D01*
X145687750Y-104724000D01*
X145529000Y-104882750D01*
X145529000Y-105669500D01*
X145549000Y-105669500D01*
X145549000Y-105923500D01*
X145529000Y-105923500D01*
X145529000Y-105943500D01*
X145275000Y-105943500D01*
X145275000Y-105923500D01*
X145255000Y-105923500D01*
X145255000Y-105669500D01*
X145275000Y-105669500D01*
X145275000Y-104882750D01*
X145116250Y-104724000D01*
X144927000Y-104720928D01*
X144802518Y-104733188D01*
X144765001Y-104744569D01*
X144765001Y-103614072D01*
X146302000Y-103614072D01*
X146426482Y-103601812D01*
X146546180Y-103565502D01*
X146656494Y-103506537D01*
X146753185Y-103427185D01*
X146832537Y-103330494D01*
X146891502Y-103220180D01*
X146927812Y-103100482D01*
X146940072Y-102976000D01*
X146940072Y-102861000D01*
X147156249Y-102861000D01*
X147212000Y-102866491D01*
X147267751Y-102861000D01*
X147267752Y-102861000D01*
X147434499Y-102844577D01*
X147648447Y-102779676D01*
X147845623Y-102674284D01*
X148018449Y-102532449D01*
X148053996Y-102489135D01*
X148832860Y-101710272D01*
X149250100Y-101710272D01*
X149374582Y-101698012D01*
X149494280Y-101661702D01*
X149604594Y-101602737D01*
X149701285Y-101523385D01*
X149780637Y-101426694D01*
X149839602Y-101316380D01*
X149875912Y-101196682D01*
X149888172Y-101072200D01*
X149888172Y-99903800D01*
X149875912Y-99779318D01*
X149859738Y-99726000D01*
X149875912Y-99672682D01*
X149888172Y-99548200D01*
X149888172Y-98379800D01*
X149875912Y-98255318D01*
X149839602Y-98135620D01*
X149780637Y-98025306D01*
X149701285Y-97928615D01*
X149604594Y-97849263D01*
X149494280Y-97790298D01*
X149374582Y-97753988D01*
X149250100Y-97741728D01*
X148832860Y-97741728D01*
X148053996Y-96962865D01*
X148018449Y-96919551D01*
X147845623Y-96777716D01*
X147648447Y-96672324D01*
X147434499Y-96607423D01*
X147267752Y-96591000D01*
X147267751Y-96591000D01*
X147212000Y-96585509D01*
X147156249Y-96591000D01*
X146940072Y-96591000D01*
X146940072Y-96476000D01*
X146927812Y-96351518D01*
X146891502Y-96231820D01*
X146832537Y-96121506D01*
X146768109Y-96043000D01*
X146832537Y-95964494D01*
X146891502Y-95854180D01*
X146927812Y-95734482D01*
X146940072Y-95610000D01*
X146940072Y-95495000D01*
X147283249Y-95495000D01*
X147339000Y-95500491D01*
X147394751Y-95495000D01*
X147394752Y-95495000D01*
X147561499Y-95478577D01*
X147775447Y-95413676D01*
X147972623Y-95308284D01*
X148145449Y-95166449D01*
X148180996Y-95123136D01*
X148832860Y-94471272D01*
X149250100Y-94471272D01*
X149374582Y-94459012D01*
X149494280Y-94422702D01*
X149604594Y-94363737D01*
X149701285Y-94284385D01*
X149780637Y-94187694D01*
X149839602Y-94077380D01*
X149875912Y-93957682D01*
X149888172Y-93833200D01*
X149888172Y-92664800D01*
X149875912Y-92540318D01*
X149859738Y-92487000D01*
X149875912Y-92433682D01*
X149888172Y-92309200D01*
X149888172Y-91140800D01*
X149875912Y-91016318D01*
X149839602Y-90896620D01*
X149780637Y-90786306D01*
X149701285Y-90689615D01*
X149604594Y-90610263D01*
X149494280Y-90551298D01*
X149374582Y-90514988D01*
X149250100Y-90502728D01*
X148832860Y-90502728D01*
X147926995Y-89596864D01*
X147891449Y-89553551D01*
X147718623Y-89411716D01*
X147521447Y-89306324D01*
X147307499Y-89241423D01*
X147140752Y-89225000D01*
X147140751Y-89225000D01*
X147085000Y-89219509D01*
X147029249Y-89225000D01*
X146940072Y-89225000D01*
X146940072Y-89110000D01*
X146927812Y-88985518D01*
X146891502Y-88865820D01*
X146832537Y-88755506D01*
X146753185Y-88658815D01*
X146656494Y-88579463D01*
X146546180Y-88520498D01*
X146426482Y-88484188D01*
X146302000Y-88471928D01*
X144502000Y-88471928D01*
X144377518Y-88484188D01*
X144257820Y-88520498D01*
X144147506Y-88579463D01*
X144050815Y-88658815D01*
X143971463Y-88755506D01*
X143912498Y-88865820D01*
X143876188Y-88985518D01*
X143863928Y-89110000D01*
X143863928Y-89225000D01*
X143139751Y-89225000D01*
X143084000Y-89219509D01*
X143028248Y-89225000D01*
X140780500Y-89225000D01*
X140682999Y-89195423D01*
X140516252Y-89179000D01*
X140516251Y-89179000D01*
X140460500Y-89173509D01*
X140404749Y-89179000D01*
X139643501Y-89179000D01*
X139589185Y-89112815D01*
X139492494Y-89033463D01*
X139382180Y-88974498D01*
X139262482Y-88938188D01*
X139138000Y-88925928D01*
X137138000Y-88925928D01*
X137013518Y-88938188D01*
X136893820Y-88974498D01*
X136783506Y-89033463D01*
X136686815Y-89112815D01*
X136607463Y-89209506D01*
X136548498Y-89319820D01*
X136512188Y-89439518D01*
X136499928Y-89564000D01*
X136499928Y-90979000D01*
X133476072Y-90979000D01*
X133476072Y-90714000D01*
X133463812Y-90589518D01*
X133427502Y-90469820D01*
X133368537Y-90359506D01*
X133289185Y-90262815D01*
X133192494Y-90183463D01*
X133082180Y-90124498D01*
X132962482Y-90088188D01*
X132838000Y-90075928D01*
X130838000Y-90075928D01*
X130713518Y-90088188D01*
X130593820Y-90124498D01*
X130483506Y-90183463D01*
X130386815Y-90262815D01*
X130307463Y-90359506D01*
X130248498Y-90469820D01*
X130212188Y-90589518D01*
X130199928Y-90714000D01*
X130199928Y-91479000D01*
X129652422Y-91479000D01*
X129622499Y-91469923D01*
X129455752Y-91453500D01*
X129455751Y-91453500D01*
X129400000Y-91448009D01*
X129344249Y-91453500D01*
X127347741Y-91453500D01*
X127291999Y-91448010D01*
X127236258Y-91453500D01*
X127236248Y-91453500D01*
X127069501Y-91469923D01*
X126928608Y-91512663D01*
X126880592Y-91517392D01*
X126719858Y-91566150D01*
X126571725Y-91645329D01*
X126479000Y-91721426D01*
X126386275Y-91645329D01*
X126238142Y-91566150D01*
X126077408Y-91517392D01*
X125942673Y-91504121D01*
X125913998Y-91495423D01*
X125691500Y-91473509D01*
X125469001Y-91495423D01*
X125440326Y-91504122D01*
X125305592Y-91517392D01*
X125144858Y-91566150D01*
X124996725Y-91645329D01*
X124866885Y-91751885D01*
X124760329Y-91881725D01*
X124681150Y-92029858D01*
X124632392Y-92190592D01*
X124631682Y-92197802D01*
X124572923Y-92391502D01*
X124556500Y-92558249D01*
X124556500Y-93133249D01*
X124551009Y-93189000D01*
X124556500Y-93244751D01*
X124556500Y-93244752D01*
X124572923Y-93411499D01*
X124582000Y-93441422D01*
X124582001Y-95606239D01*
X124576509Y-95662000D01*
X124598423Y-95884498D01*
X124663324Y-96098446D01*
X124702307Y-96171377D01*
X124768717Y-96295623D01*
X124910552Y-96468449D01*
X124953860Y-96503991D01*
X125403693Y-96953825D01*
X125314908Y-96926892D01*
X125147750Y-96910428D01*
X124635250Y-96910428D01*
X124468092Y-96926892D01*
X124307358Y-96975650D01*
X124159225Y-97054829D01*
X124029385Y-97161385D01*
X123976357Y-97226000D01*
X122949143Y-97226000D01*
X122896115Y-97161385D01*
X122766275Y-97054829D01*
X122618142Y-96975650D01*
X122457408Y-96926892D01*
X122290250Y-96910428D01*
X121777750Y-96910428D01*
X121610592Y-96926892D01*
X121449858Y-96975650D01*
X121301725Y-97054829D01*
X121171885Y-97161385D01*
X121118857Y-97226000D01*
X120509325Y-97226000D01*
X120472000Y-97222324D01*
X120434675Y-97226000D01*
X120434667Y-97226000D01*
X120323014Y-97236997D01*
X120179753Y-97280454D01*
X120047724Y-97351026D01*
X119931999Y-97445999D01*
X119908196Y-97475003D01*
X119788699Y-97594500D01*
X117932643Y-97594500D01*
X117910074Y-97567000D01*
X117986171Y-97474275D01*
X118065350Y-97326142D01*
X118114108Y-97165408D01*
X118130572Y-96998250D01*
X118130572Y-96560750D01*
X118114108Y-96393592D01*
X118065350Y-96232858D01*
X117986171Y-96084725D01*
X117879615Y-95954885D01*
X117749775Y-95848329D01*
X117601642Y-95769150D01*
X117440908Y-95720392D01*
X117273750Y-95703928D01*
X117016730Y-95703928D01*
X116101804Y-94789003D01*
X116078001Y-94759999D01*
X115962276Y-94665026D01*
X115830247Y-94594454D01*
X115686986Y-94550997D01*
X115575333Y-94540000D01*
X115575322Y-94540000D01*
X115538000Y-94536324D01*
X115500678Y-94540000D01*
X114681046Y-94540000D01*
X114630537Y-94445506D01*
X114551185Y-94348815D01*
X114454494Y-94269463D01*
X114344180Y-94210498D01*
X114224482Y-94174188D01*
X114100000Y-94161928D01*
X112232035Y-94161928D01*
X112216632Y-94146525D01*
X112042240Y-94030000D01*
X112216632Y-93913475D01*
X112232035Y-93898072D01*
X114100000Y-93898072D01*
X114224482Y-93885812D01*
X114344180Y-93849502D01*
X114454494Y-93790537D01*
X114551185Y-93711185D01*
X114630537Y-93614494D01*
X114689502Y-93504180D01*
X114725812Y-93384482D01*
X114738072Y-93260000D01*
X114738072Y-92260000D01*
X114725812Y-92135518D01*
X114689502Y-92015820D01*
X114630537Y-91905506D01*
X114551185Y-91808815D01*
X114454494Y-91729463D01*
X114344180Y-91670498D01*
X114224482Y-91634188D01*
X114100000Y-91621928D01*
X112232035Y-91621928D01*
X112216632Y-91606525D01*
X112042240Y-91490000D01*
X112216632Y-91373475D01*
X112232035Y-91358072D01*
X114100000Y-91358072D01*
X114224482Y-91345812D01*
X114344180Y-91309502D01*
X114454494Y-91250537D01*
X114551185Y-91171185D01*
X114630537Y-91074494D01*
X114689502Y-90964180D01*
X114725812Y-90844482D01*
X114738072Y-90720000D01*
X114738072Y-89720000D01*
X114725812Y-89595518D01*
X114689502Y-89475820D01*
X114630537Y-89365506D01*
X114551185Y-89268815D01*
X114454494Y-89189463D01*
X114344180Y-89130498D01*
X114224482Y-89094188D01*
X114100000Y-89081928D01*
X112232035Y-89081928D01*
X112216632Y-89066525D01*
X111973411Y-88904010D01*
X111703158Y-88792068D01*
X111416260Y-88735000D01*
X111123740Y-88735000D01*
X110836842Y-88792068D01*
X110566589Y-88904010D01*
X110323368Y-89066525D01*
X110116525Y-89273368D01*
X110000689Y-89446729D01*
X109758397Y-89371208D01*
X109642826Y-89486779D01*
X109639502Y-89475820D01*
X109580537Y-89365506D01*
X109501363Y-89269032D01*
X109578792Y-89191603D01*
X109501157Y-88942528D01*
X109237117Y-88816629D01*
X108953589Y-88744661D01*
X108661469Y-88729389D01*
X108371981Y-88771401D01*
X108096253Y-88869081D01*
X107958843Y-88942528D01*
X107914550Y-89084634D01*
X107760750Y-89085000D01*
X107602000Y-89243750D01*
X107602000Y-89402254D01*
X107506839Y-89431915D01*
X107470158Y-89395234D01*
X107351836Y-89513556D01*
X107348000Y-89479438D01*
X107348000Y-89243750D01*
X107189250Y-89085000D01*
X105900000Y-89081928D01*
X105775518Y-89094188D01*
X105655820Y-89130498D01*
X105545506Y-89189463D01*
X105448815Y-89268815D01*
X105369463Y-89365506D01*
X105310498Y-89475820D01*
X105274188Y-89595518D01*
X105261928Y-89720000D01*
X105010000Y-89720000D01*
X105010000Y-87036050D01*
X105019369Y-87058669D01*
X105263962Y-87424729D01*
X105575271Y-87736038D01*
X105941331Y-87980631D01*
X106348075Y-88149110D01*
X106779872Y-88235000D01*
X107220128Y-88235000D01*
X107651925Y-88149110D01*
X108058669Y-87980631D01*
X108424729Y-87736038D01*
X108736038Y-87424729D01*
X108980631Y-87058669D01*
X109149110Y-86651925D01*
X109235000Y-86220128D01*
X109235000Y-85779872D01*
X109149110Y-85348075D01*
X108980631Y-84941331D01*
X108736038Y-84575271D01*
X108424729Y-84263962D01*
X108058669Y-84019369D01*
X108036050Y-84010000D01*
X111790000Y-84010000D01*
X111790001Y-84449278D01*
X111506081Y-84331675D01*
X111170883Y-84265000D01*
X110829117Y-84265000D01*
X110493919Y-84331675D01*
X110178169Y-84462463D01*
X109894002Y-84652337D01*
X109652337Y-84894002D01*
X109462463Y-85178169D01*
X109331675Y-85493919D01*
X109265000Y-85829117D01*
X109265000Y-86170883D01*
X109331675Y-86506081D01*
X109462463Y-86821831D01*
X109652337Y-87105998D01*
X109894002Y-87347663D01*
X110178169Y-87537537D01*
X110493919Y-87668325D01*
X110829117Y-87735000D01*
X111170883Y-87735000D01*
X111506081Y-87668325D01*
X111821831Y-87537537D01*
X112105998Y-87347663D01*
X112347663Y-87105998D01*
X112537537Y-86821831D01*
X112668325Y-86506081D01*
X112735000Y-86170883D01*
X112735000Y-86161561D01*
X112860816Y-86199727D01*
X112965123Y-86210000D01*
X112965125Y-86210000D01*
X113000000Y-86213435D01*
X113034875Y-86210000D01*
X115965125Y-86210000D01*
X116000000Y-86213435D01*
X116034875Y-86210000D01*
X116034877Y-86210000D01*
X116139184Y-86199727D01*
X116273020Y-86159128D01*
X116396363Y-86093200D01*
X116504475Y-86004475D01*
X116526712Y-85977379D01*
X116674974Y-85829117D01*
X145265000Y-85829117D01*
X145265000Y-86170883D01*
X145331675Y-86506081D01*
X145462463Y-86821831D01*
X145652337Y-87105998D01*
X145894002Y-87347663D01*
X146178169Y-87537537D01*
X146493919Y-87668325D01*
X146829117Y-87735000D01*
X147170883Y-87735000D01*
X147506081Y-87668325D01*
X147821831Y-87537537D01*
X148105998Y-87347663D01*
X148347663Y-87105998D01*
X148537537Y-86821831D01*
X148668325Y-86506081D01*
X148735000Y-86170883D01*
X148735000Y-85829117D01*
X148668325Y-85493919D01*
X148537537Y-85178169D01*
X148347663Y-84894002D01*
X148105998Y-84652337D01*
X147821831Y-84462463D01*
X147506081Y-84331675D01*
X147170883Y-84265000D01*
X146829117Y-84265000D01*
X146493919Y-84331675D01*
X146178169Y-84462463D01*
X145894002Y-84652337D01*
X145652337Y-84894002D01*
X145462463Y-85178169D01*
X145331675Y-85493919D01*
X145265000Y-85829117D01*
X116674974Y-85829117D01*
X116977383Y-85526708D01*
X117004474Y-85504475D01*
X117093200Y-85396363D01*
X117159128Y-85273020D01*
X117199727Y-85139184D01*
X117210000Y-85034877D01*
X117210000Y-85034875D01*
X117213435Y-85000000D01*
X117210000Y-84965125D01*
X117210000Y-83794091D01*
X117294091Y-83710000D01*
X143405909Y-83710000D01*
X143473288Y-83777379D01*
X143473288Y-83777379D01*
G37*
X143473288Y-83777379D02*
X143495525Y-83804475D01*
X143603637Y-83893200D01*
X143726980Y-83959128D01*
X143860816Y-83999727D01*
X143965123Y-84010000D01*
X143965124Y-84010000D01*
X143999999Y-84013435D01*
X144034874Y-84010000D01*
X149963950Y-84010000D01*
X149941331Y-84019369D01*
X149575271Y-84263962D01*
X149263962Y-84575271D01*
X149019369Y-84941331D01*
X148850890Y-85348075D01*
X148765000Y-85779872D01*
X148765000Y-86220128D01*
X148850890Y-86651925D01*
X149019369Y-87058669D01*
X149263962Y-87424729D01*
X149575271Y-87736038D01*
X149941331Y-87980631D01*
X150348075Y-88149110D01*
X150779872Y-88235000D01*
X151220128Y-88235000D01*
X151651925Y-88149110D01*
X152058669Y-87980631D01*
X152424729Y-87736038D01*
X152736038Y-87424729D01*
X152980631Y-87058669D01*
X152990000Y-87036050D01*
X152990001Y-89965115D01*
X152986565Y-90000000D01*
X153000274Y-90139184D01*
X153040872Y-90273019D01*
X153090711Y-90366260D01*
X153106801Y-90396363D01*
X153195526Y-90504475D01*
X153222617Y-90526708D01*
X153290000Y-90594091D01*
X153290001Y-125405908D01*
X153222617Y-125473292D01*
X153195525Y-125495526D01*
X153106800Y-125603638D01*
X153040872Y-125726981D01*
X153000273Y-125860817D01*
X152990000Y-125965123D01*
X152986565Y-126000000D01*
X152990000Y-126034875D01*
X152990001Y-128963952D01*
X152980631Y-128941331D01*
X152736038Y-128575271D01*
X152424729Y-128263962D01*
X152058669Y-128019369D01*
X151651925Y-127850890D01*
X151220128Y-127765000D01*
X150779872Y-127765000D01*
X150348075Y-127850890D01*
X149941331Y-128019369D01*
X149575271Y-128263962D01*
X149263962Y-128575271D01*
X149019369Y-128941331D01*
X148850890Y-129348075D01*
X148765000Y-129779872D01*
X148765000Y-130220128D01*
X148850890Y-130651925D01*
X149019369Y-131058669D01*
X149263962Y-131424729D01*
X149575271Y-131736038D01*
X149941331Y-131980631D01*
X149963950Y-131990000D01*
X144034874Y-131990000D01*
X143999999Y-131986565D01*
X143965124Y-131990000D01*
X143965123Y-131990000D01*
X143860816Y-132000273D01*
X143726980Y-132040872D01*
X143603637Y-132106800D01*
X143495525Y-132195525D01*
X143473288Y-132222621D01*
X143405909Y-132290000D01*
X114594091Y-132290000D01*
X114526712Y-132222621D01*
X114504475Y-132195525D01*
X114396363Y-132106800D01*
X114273020Y-132040872D01*
X114139184Y-132000273D01*
X114034877Y-131990000D01*
X114034875Y-131990000D01*
X114000000Y-131986565D01*
X113965125Y-131990000D01*
X108036050Y-131990000D01*
X108058669Y-131980631D01*
X108424729Y-131736038D01*
X108736038Y-131424729D01*
X108980631Y-131058669D01*
X109149110Y-130651925D01*
X109235000Y-130220128D01*
X109235000Y-129829117D01*
X109265000Y-129829117D01*
X109265000Y-130170883D01*
X109331675Y-130506081D01*
X109462463Y-130821831D01*
X109652337Y-131105998D01*
X109894002Y-131347663D01*
X110178169Y-131537537D01*
X110493919Y-131668325D01*
X110829117Y-131735000D01*
X111170883Y-131735000D01*
X111506081Y-131668325D01*
X111821831Y-131537537D01*
X112105998Y-131347663D01*
X112347663Y-131105998D01*
X112537537Y-130821831D01*
X112668325Y-130506081D01*
X112735000Y-130170883D01*
X112735000Y-129829117D01*
X145265000Y-129829117D01*
X145265000Y-130170883D01*
X145331675Y-130506081D01*
X145462463Y-130821831D01*
X145652337Y-131105998D01*
X145894002Y-131347663D01*
X146178169Y-131537537D01*
X146493919Y-131668325D01*
X146829117Y-131735000D01*
X147170883Y-131735000D01*
X147506081Y-131668325D01*
X147821831Y-131537537D01*
X148105998Y-131347663D01*
X148347663Y-131105998D01*
X148537537Y-130821831D01*
X148668325Y-130506081D01*
X148735000Y-130170883D01*
X148735000Y-129829117D01*
X148668325Y-129493919D01*
X148537537Y-129178169D01*
X148347663Y-128894002D01*
X148105998Y-128652337D01*
X147821831Y-128462463D01*
X147506081Y-128331675D01*
X147170883Y-128265000D01*
X146829117Y-128265000D01*
X146493919Y-128331675D01*
X146178169Y-128462463D01*
X145894002Y-128652337D01*
X145652337Y-128894002D01*
X145462463Y-129178169D01*
X145331675Y-129493919D01*
X145265000Y-129829117D01*
X112735000Y-129829117D01*
X112668325Y-129493919D01*
X112537537Y-129178169D01*
X112347663Y-128894002D01*
X112105998Y-128652337D01*
X111821831Y-128462463D01*
X111506081Y-128331675D01*
X111170883Y-128265000D01*
X110829117Y-128265000D01*
X110493919Y-128331675D01*
X110178169Y-128462463D01*
X109894002Y-128652337D01*
X109652337Y-128894002D01*
X109462463Y-129178169D01*
X109331675Y-129493919D01*
X109265000Y-129829117D01*
X109235000Y-129829117D01*
X109235000Y-129779872D01*
X109149110Y-129348075D01*
X108980631Y-128941331D01*
X108736038Y-128575271D01*
X108424729Y-128263962D01*
X108058669Y-128019369D01*
X107651925Y-127850890D01*
X107220128Y-127765000D01*
X106779872Y-127765000D01*
X106348075Y-127850890D01*
X105941331Y-128019369D01*
X105575271Y-128263962D01*
X105263962Y-128575271D01*
X105019369Y-128941331D01*
X105010000Y-128963950D01*
X105010000Y-126034874D01*
X105013435Y-125999999D01*
X105001807Y-125881939D01*
X104999727Y-125860816D01*
X104959128Y-125726980D01*
X104893200Y-125603637D01*
X104804475Y-125495525D01*
X104777379Y-125473288D01*
X104710000Y-125405909D01*
X104710000Y-90594091D01*
X104777379Y-90526712D01*
X104804475Y-90504475D01*
X104893200Y-90396363D01*
X104959128Y-90273020D01*
X104999727Y-90139184D01*
X105010000Y-90034877D01*
X105010000Y-90034876D01*
X105013435Y-90000001D01*
X105010000Y-89965126D01*
X105010000Y-89720000D01*
X105261928Y-89720000D01*
X105265000Y-89934250D01*
X105423750Y-90093000D01*
X105793692Y-90093000D01*
X105791649Y-90102523D01*
X105788587Y-90306377D01*
X105796035Y-90347000D01*
X105423750Y-90347000D01*
X105265000Y-90505750D01*
X105261928Y-90720000D01*
X105274188Y-90844482D01*
X105310498Y-90964180D01*
X105369463Y-91074494D01*
X105448815Y-91171185D01*
X105545506Y-91250537D01*
X105655820Y-91309502D01*
X105775518Y-91345812D01*
X105900000Y-91358072D01*
X107189250Y-91355000D01*
X107348000Y-91196250D01*
X107348000Y-90960562D01*
X107351836Y-90926444D01*
X107470158Y-91044766D01*
X107506839Y-91008085D01*
X107602000Y-91037746D01*
X107602000Y-91196250D01*
X107760750Y-91355000D01*
X107914550Y-91355366D01*
X107956514Y-91490000D01*
X107914550Y-91624634D01*
X107760750Y-91625000D01*
X107602000Y-91783750D01*
X107602000Y-91942254D01*
X107506839Y-91971915D01*
X107470158Y-91935234D01*
X107351836Y-92053556D01*
X107348000Y-92019438D01*
X107348000Y-91783750D01*
X107189250Y-91625000D01*
X105900000Y-91621928D01*
X105775518Y-91634188D01*
X105655820Y-91670498D01*
X105545506Y-91729463D01*
X105448815Y-91808815D01*
X105369463Y-91905506D01*
X105310498Y-92015820D01*
X105274188Y-92135518D01*
X105261928Y-92260000D01*
X105265000Y-92474250D01*
X105423750Y-92633000D01*
X105793692Y-92633000D01*
X105791649Y-92642523D01*
X105788587Y-92846377D01*
X105796035Y-92887000D01*
X105423750Y-92887000D01*
X105265000Y-93045750D01*
X105261928Y-93260000D01*
X105274188Y-93384482D01*
X105310498Y-93504180D01*
X105369463Y-93614494D01*
X105448815Y-93711185D01*
X105545506Y-93790537D01*
X105655820Y-93849502D01*
X105775518Y-93885812D01*
X105900000Y-93898072D01*
X107189250Y-93895000D01*
X107348000Y-93736250D01*
X107348000Y-93500562D01*
X107351836Y-93466444D01*
X107470158Y-93584766D01*
X107506839Y-93548085D01*
X107602000Y-93577746D01*
X107602000Y-93736250D01*
X107760750Y-93895000D01*
X107914550Y-93895366D01*
X107956514Y-94030000D01*
X107914550Y-94164634D01*
X107760750Y-94165000D01*
X107602000Y-94323750D01*
X107602000Y-94482254D01*
X107506839Y-94511915D01*
X107470158Y-94475234D01*
X107351836Y-94593556D01*
X107348000Y-94559438D01*
X107348000Y-94323750D01*
X107189250Y-94165000D01*
X105900000Y-94161928D01*
X105775518Y-94174188D01*
X105655820Y-94210498D01*
X105545506Y-94269463D01*
X105448815Y-94348815D01*
X105369463Y-94445506D01*
X105310498Y-94555820D01*
X105274188Y-94675518D01*
X105261928Y-94800000D01*
X105265000Y-95014250D01*
X105423750Y-95173000D01*
X105793692Y-95173000D01*
X105791649Y-95182523D01*
X105788587Y-95386377D01*
X105796035Y-95427000D01*
X105423750Y-95427000D01*
X105265000Y-95585750D01*
X105261928Y-95800000D01*
X105274188Y-95924482D01*
X105310498Y-96044180D01*
X105369463Y-96154494D01*
X105448815Y-96251185D01*
X105545506Y-96330537D01*
X105655820Y-96389502D01*
X105775518Y-96425812D01*
X105900000Y-96438072D01*
X107189250Y-96435000D01*
X107348000Y-96276250D01*
X107348000Y-96040562D01*
X107351836Y-96006444D01*
X107470158Y-96124766D01*
X107506839Y-96088085D01*
X107602000Y-96117746D01*
X107602000Y-96276250D01*
X107760750Y-96435000D01*
X107914550Y-96435366D01*
X107956729Y-96570689D01*
X107783368Y-96686525D01*
X107767965Y-96701928D01*
X105900000Y-96701928D01*
X105775518Y-96714188D01*
X105655820Y-96750498D01*
X105545506Y-96809463D01*
X105448815Y-96888815D01*
X105369463Y-96985506D01*
X105310498Y-97095820D01*
X105274188Y-97215518D01*
X105261928Y-97340000D01*
X105261928Y-98340000D01*
X105274188Y-98464482D01*
X105310498Y-98584180D01*
X105369463Y-98694494D01*
X105448815Y-98791185D01*
X105545506Y-98870537D01*
X105655820Y-98929502D01*
X105775518Y-98965812D01*
X105900000Y-98978072D01*
X107767965Y-98978072D01*
X107783368Y-98993475D01*
X107957760Y-99110000D01*
X107783368Y-99226525D01*
X107767965Y-99241928D01*
X105900000Y-99241928D01*
X105775518Y-99254188D01*
X105655820Y-99290498D01*
X105545506Y-99349463D01*
X105448815Y-99428815D01*
X105369463Y-99525506D01*
X105310498Y-99635820D01*
X105274188Y-99755518D01*
X105261928Y-99880000D01*
X105261928Y-100880000D01*
X105274188Y-101004482D01*
X105310498Y-101124180D01*
X105369463Y-101234494D01*
X105448815Y-101331185D01*
X105545506Y-101410537D01*
X105655820Y-101469502D01*
X105775518Y-101505812D01*
X105900000Y-101518072D01*
X107767965Y-101518072D01*
X107783368Y-101533475D01*
X107957760Y-101650000D01*
X107783368Y-101766525D01*
X107767965Y-101781928D01*
X105900000Y-101781928D01*
X105775518Y-101794188D01*
X105655820Y-101830498D01*
X105545506Y-101889463D01*
X105448815Y-101968815D01*
X105369463Y-102065506D01*
X105310498Y-102175820D01*
X105274188Y-102295518D01*
X105261928Y-102420000D01*
X105261928Y-103420000D01*
X105274188Y-103544482D01*
X105310498Y-103664180D01*
X105369463Y-103774494D01*
X105448815Y-103871185D01*
X105545506Y-103950537D01*
X105655820Y-104009502D01*
X105775518Y-104045812D01*
X105900000Y-104058072D01*
X107767965Y-104058072D01*
X107783368Y-104073475D01*
X107957760Y-104190000D01*
X107783368Y-104306525D01*
X107767965Y-104321928D01*
X105900000Y-104321928D01*
X105775518Y-104334188D01*
X105655820Y-104370498D01*
X105545506Y-104429463D01*
X105448815Y-104508815D01*
X105369463Y-104605506D01*
X105310498Y-104715820D01*
X105274188Y-104835518D01*
X105261928Y-104960000D01*
X105261928Y-105960000D01*
X105274188Y-106084482D01*
X105310498Y-106204180D01*
X105369463Y-106314494D01*
X105448815Y-106411185D01*
X105545506Y-106490537D01*
X105655820Y-106549502D01*
X105775518Y-106585812D01*
X105900000Y-106598072D01*
X107767965Y-106598072D01*
X107783368Y-106613475D01*
X107957760Y-106730000D01*
X107783368Y-106846525D01*
X107767965Y-106861928D01*
X105900000Y-106861928D01*
X105775518Y-106874188D01*
X105655820Y-106910498D01*
X105545506Y-106969463D01*
X105448815Y-107048815D01*
X105369463Y-107145506D01*
X105310498Y-107255820D01*
X105274188Y-107375518D01*
X105261928Y-107500000D01*
X105261928Y-108500000D01*
X105274188Y-108624482D01*
X105310498Y-108744180D01*
X105369463Y-108854494D01*
X105448815Y-108951185D01*
X105545506Y-109030537D01*
X105655820Y-109089502D01*
X105775518Y-109125812D01*
X105900000Y-109138072D01*
X107767965Y-109138072D01*
X107783368Y-109153475D01*
X107957760Y-109270000D01*
X107783368Y-109386525D01*
X107767965Y-109401928D01*
X105900000Y-109401928D01*
X105775518Y-109414188D01*
X105655820Y-109450498D01*
X105545506Y-109509463D01*
X105448815Y-109588815D01*
X105369463Y-109685506D01*
X105310498Y-109795820D01*
X105274188Y-109915518D01*
X105261928Y-110040000D01*
X105261928Y-111040000D01*
X105274188Y-111164482D01*
X105310498Y-111284180D01*
X105369463Y-111394494D01*
X105448815Y-111491185D01*
X105545506Y-111570537D01*
X105655820Y-111629502D01*
X105775518Y-111665812D01*
X105900000Y-111678072D01*
X107767965Y-111678072D01*
X107783368Y-111693475D01*
X107957760Y-111810000D01*
X107783368Y-111926525D01*
X107767965Y-111941928D01*
X105900000Y-111941928D01*
X105775518Y-111954188D01*
X105655820Y-111990498D01*
X105545506Y-112049463D01*
X105448815Y-112128815D01*
X105369463Y-112225506D01*
X105310498Y-112335820D01*
X105274188Y-112455518D01*
X105261928Y-112580000D01*
X105261928Y-113580000D01*
X105274188Y-113704482D01*
X105310498Y-113824180D01*
X105369463Y-113934494D01*
X105448815Y-114031185D01*
X105545506Y-114110537D01*
X105655820Y-114169502D01*
X105775518Y-114205812D01*
X105900000Y-114218072D01*
X107767965Y-114218072D01*
X107783368Y-114233475D01*
X107957760Y-114350000D01*
X107783368Y-114466525D01*
X107767965Y-114481928D01*
X105900000Y-114481928D01*
X105775518Y-114494188D01*
X105655820Y-114530498D01*
X105545506Y-114589463D01*
X105448815Y-114668815D01*
X105369463Y-114765506D01*
X105310498Y-114875820D01*
X105274188Y-114995518D01*
X105261928Y-115120000D01*
X105261928Y-116120000D01*
X105274188Y-116244482D01*
X105310498Y-116364180D01*
X105369463Y-116474494D01*
X105448815Y-116571185D01*
X105545506Y-116650537D01*
X105655820Y-116709502D01*
X105775518Y-116745812D01*
X105900000Y-116758072D01*
X107767965Y-116758072D01*
X107783368Y-116773475D01*
X107957760Y-116890000D01*
X107783368Y-117006525D01*
X107767965Y-117021928D01*
X105900000Y-117021928D01*
X105775518Y-117034188D01*
X105655820Y-117070498D01*
X105545506Y-117129463D01*
X105448815Y-117208815D01*
X105369463Y-117305506D01*
X105310498Y-117415820D01*
X105274188Y-117535518D01*
X105261928Y-117660000D01*
X105261928Y-118660000D01*
X105274188Y-118784482D01*
X105310498Y-118904180D01*
X105369463Y-119014494D01*
X105448815Y-119111185D01*
X105545506Y-119190537D01*
X105655820Y-119249502D01*
X105775518Y-119285812D01*
X105900000Y-119298072D01*
X107767965Y-119298072D01*
X107783368Y-119313475D01*
X107957760Y-119430000D01*
X107783368Y-119546525D01*
X107767965Y-119561928D01*
X107499561Y-119561928D01*
X107475000Y-119559509D01*
X107450439Y-119561928D01*
X105900000Y-119561928D01*
X105775518Y-119574188D01*
X105655820Y-119610498D01*
X105545506Y-119669463D01*
X105448815Y-119748815D01*
X105369463Y-119845506D01*
X105310498Y-119955820D01*
X105274188Y-120075518D01*
X105261928Y-120200000D01*
X105261928Y-121200000D01*
X105274188Y-121324482D01*
X105310498Y-121444180D01*
X105369463Y-121554494D01*
X105448815Y-121651185D01*
X105545506Y-121730537D01*
X105655820Y-121789502D01*
X105775518Y-121825812D01*
X105900000Y-121838072D01*
X106340000Y-121838072D01*
X106340001Y-122101928D01*
X105900000Y-122101928D01*
X105775518Y-122114188D01*
X105655820Y-122150498D01*
X105545506Y-122209463D01*
X105448815Y-122288815D01*
X105369463Y-122385506D01*
X105310498Y-122495820D01*
X105274188Y-122615518D01*
X105261928Y-122740000D01*
X105261928Y-123740000D01*
X105274188Y-123864482D01*
X105310498Y-123984180D01*
X105369463Y-124094494D01*
X105448815Y-124191185D01*
X105545506Y-124270537D01*
X105655820Y-124329502D01*
X105775518Y-124365812D01*
X105900000Y-124378072D01*
X106340000Y-124378072D01*
X106340001Y-124641928D01*
X105900000Y-124641928D01*
X105775518Y-124654188D01*
X105655820Y-124690498D01*
X105545506Y-124749463D01*
X105448815Y-124828815D01*
X105369463Y-124925506D01*
X105310498Y-125035820D01*
X105274188Y-125155518D01*
X105261928Y-125280000D01*
X105261928Y-126280000D01*
X105274188Y-126404482D01*
X105310498Y-126524180D01*
X105369463Y-126634494D01*
X105448815Y-126731185D01*
X105545506Y-126810537D01*
X105655820Y-126869502D01*
X105775518Y-126905812D01*
X105900000Y-126918072D01*
X107450439Y-126918072D01*
X107475000Y-126920491D01*
X107499561Y-126918072D01*
X107767965Y-126918072D01*
X107783368Y-126933475D01*
X108026589Y-127095990D01*
X108296842Y-127207932D01*
X108583740Y-127265000D01*
X108876260Y-127265000D01*
X109163158Y-127207932D01*
X109433411Y-127095990D01*
X109676632Y-126933475D01*
X109883475Y-126726632D01*
X110000000Y-126552240D01*
X110116525Y-126726632D01*
X110323368Y-126933475D01*
X110566589Y-127095990D01*
X110836842Y-127207932D01*
X111123740Y-127265000D01*
X111416260Y-127265000D01*
X111703158Y-127207932D01*
X111973411Y-127095990D01*
X112216632Y-126933475D01*
X112232035Y-126918072D01*
X114100000Y-126918072D01*
X114224482Y-126905812D01*
X114344180Y-126869502D01*
X114454494Y-126810537D01*
X114551185Y-126731185D01*
X114630537Y-126634494D01*
X114689502Y-126524180D01*
X114725812Y-126404482D01*
X114738072Y-126280000D01*
X114738072Y-125280000D01*
X114725812Y-125155518D01*
X114689502Y-125035820D01*
X114630537Y-124925506D01*
X114551185Y-124828815D01*
X114454494Y-124749463D01*
X114344180Y-124690498D01*
X114224482Y-124654188D01*
X114100000Y-124641928D01*
X112232035Y-124641928D01*
X112216632Y-124626525D01*
X112042240Y-124510000D01*
X112216632Y-124393475D01*
X112232035Y-124378072D01*
X114100000Y-124378072D01*
X114131192Y-124375000D01*
X114851869Y-124375000D01*
X115057000Y-124580132D01*
X115057000Y-125578249D01*
X115051509Y-125634000D01*
X115059236Y-125712451D01*
X115073423Y-125856498D01*
X115138324Y-126070446D01*
X115243716Y-126267623D01*
X115385551Y-126440449D01*
X115428864Y-126475995D01*
X116676014Y-127723147D01*
X116711552Y-127766450D01*
X116754855Y-127801988D01*
X116754857Y-127801990D01*
X116884378Y-127908285D01*
X117081554Y-128013677D01*
X117295502Y-128078578D01*
X117518001Y-128100492D01*
X117573753Y-128095001D01*
X146848250Y-128095001D01*
X146904001Y-128100492D01*
X146959752Y-128095001D01*
X146959753Y-128095001D01*
X147126500Y-128078578D01*
X147340448Y-128013677D01*
X147537624Y-127908285D01*
X147710450Y-127766450D01*
X147745997Y-127723136D01*
X149721141Y-125747993D01*
X149764449Y-125712451D01*
X149906284Y-125539625D01*
X150011676Y-125342449D01*
X150076577Y-125128501D01*
X150093000Y-124961754D01*
X150093000Y-124961745D01*
X150098490Y-124906003D01*
X150093000Y-124850261D01*
X150093000Y-120863751D01*
X150098491Y-120807999D01*
X150076577Y-120585501D01*
X150011676Y-120371553D01*
X149955707Y-120266842D01*
X149906284Y-120174377D01*
X149764449Y-120001551D01*
X149721135Y-119966004D01*
X149101996Y-119346865D01*
X149066449Y-119303551D01*
X148893623Y-119161716D01*
X148696447Y-119056324D01*
X148482499Y-118991423D01*
X148315752Y-118975000D01*
X148315751Y-118975000D01*
X148260000Y-118969509D01*
X148204249Y-118975000D01*
X148175714Y-118975000D01*
X148200161Y-118950553D01*
X148083402Y-118833794D01*
X148314621Y-118777370D01*
X148423017Y-118543192D01*
X148483645Y-118292367D01*
X148494174Y-118034535D01*
X148454200Y-117779602D01*
X148365259Y-117537367D01*
X148314621Y-117442630D01*
X148083400Y-117386205D01*
X147359605Y-118110000D01*
X147373748Y-118124143D01*
X147194143Y-118303748D01*
X147180000Y-118289605D01*
X147165858Y-118303748D01*
X146986253Y-118124143D01*
X147000395Y-118110000D01*
X146276600Y-117386205D01*
X146045379Y-117442630D01*
X145936983Y-117676808D01*
X145876355Y-117927633D01*
X145865826Y-118185465D01*
X145905800Y-118440398D01*
X145994741Y-118682633D01*
X146045379Y-118777370D01*
X146276598Y-118833794D01*
X146159839Y-118950553D01*
X146184286Y-118975000D01*
X141618132Y-118975000D01*
X140695000Y-118051869D01*
X140695000Y-117206600D01*
X146456205Y-117206600D01*
X147180000Y-117930395D01*
X147903795Y-117206600D01*
X147847370Y-116975379D01*
X147613192Y-116866983D01*
X147362367Y-116806355D01*
X147104535Y-116795826D01*
X146849602Y-116835800D01*
X146607367Y-116924741D01*
X146512630Y-116975379D01*
X146456205Y-117206600D01*
X140695000Y-117206600D01*
X140695000Y-113838728D01*
X140719463Y-113884494D01*
X140798815Y-113981185D01*
X140895506Y-114060537D01*
X141005820Y-114119502D01*
X141125518Y-114155812D01*
X141250000Y-114168072D01*
X141814250Y-114165000D01*
X141973000Y-114006250D01*
X141973000Y-112807000D01*
X142227000Y-112807000D01*
X142227000Y-114006250D01*
X142385750Y-114165000D01*
X142950000Y-114168072D01*
X143074482Y-114155812D01*
X143194180Y-114119502D01*
X143304494Y-114060537D01*
X143401185Y-113981185D01*
X143480537Y-113884494D01*
X143539502Y-113774180D01*
X143575812Y-113654482D01*
X143588072Y-113530000D01*
X146961928Y-113530000D01*
X146974188Y-113654482D01*
X147010498Y-113774180D01*
X147069463Y-113884494D01*
X147148815Y-113981185D01*
X147245506Y-114060537D01*
X147355820Y-114119502D01*
X147475518Y-114155812D01*
X147600000Y-114168072D01*
X148164250Y-114165000D01*
X148323000Y-114006250D01*
X148323000Y-112807000D01*
X148577000Y-112807000D01*
X148577000Y-114006250D01*
X148735750Y-114165000D01*
X149300000Y-114168072D01*
X149424482Y-114155812D01*
X149544180Y-114119502D01*
X149654494Y-114060537D01*
X149751185Y-113981185D01*
X149830537Y-113884494D01*
X149889502Y-113774180D01*
X149925812Y-113654482D01*
X149938072Y-113530000D01*
X149935000Y-112965750D01*
X149776250Y-112807000D01*
X148577000Y-112807000D01*
X148323000Y-112807000D01*
X147123750Y-112807000D01*
X146965000Y-112965750D01*
X146961928Y-113530000D01*
X143588072Y-113530000D01*
X143585000Y-112965750D01*
X143426250Y-112807000D01*
X142227000Y-112807000D01*
X141973000Y-112807000D01*
X141953000Y-112807000D01*
X141953000Y-112553000D01*
X141973000Y-112553000D01*
X141973000Y-112533000D01*
X142227000Y-112533000D01*
X142227000Y-112553000D01*
X143426250Y-112553000D01*
X143585000Y-112394250D01*
X143586455Y-112127000D01*
X144796928Y-112127000D01*
X144809188Y-112251482D01*
X144845498Y-112371180D01*
X144904463Y-112481494D01*
X144983815Y-112578185D01*
X145080506Y-112657537D01*
X145190820Y-112716502D01*
X145310518Y-112752812D01*
X145435000Y-112765072D01*
X145624250Y-112762000D01*
X145783000Y-112603250D01*
X145783000Y-111816500D01*
X144958750Y-111816500D01*
X144800000Y-111975250D01*
X144796928Y-112127000D01*
X143586455Y-112127000D01*
X143588072Y-111830000D01*
X143575812Y-111705518D01*
X143539502Y-111585820D01*
X143480537Y-111475506D01*
X143401185Y-111378815D01*
X143304494Y-111299463D01*
X143194180Y-111240498D01*
X143125313Y-111219607D01*
X143155134Y-111195134D01*
X143340706Y-110969014D01*
X143478599Y-110711034D01*
X143563513Y-110431111D01*
X143592185Y-110140000D01*
X143563513Y-109848889D01*
X143478599Y-109568966D01*
X143340706Y-109310986D01*
X143155134Y-109084866D01*
X142929014Y-108899294D01*
X142874209Y-108870000D01*
X142929014Y-108840706D01*
X143155134Y-108655134D01*
X143340706Y-108429014D01*
X143398599Y-108320704D01*
X143594053Y-108425176D01*
X143751624Y-108472975D01*
X143808000Y-108490077D01*
X144030499Y-108511991D01*
X144086251Y-108506500D01*
X147048749Y-108506500D01*
X147104500Y-108511991D01*
X147160251Y-108506500D01*
X147160252Y-108506500D01*
X147311050Y-108491648D01*
X147315000Y-108531751D01*
X147315000Y-109005000D01*
X146162421Y-109005000D01*
X146132498Y-108995923D01*
X145910000Y-108974009D01*
X145687502Y-108995923D01*
X145493802Y-109054682D01*
X145486592Y-109055392D01*
X145325858Y-109104150D01*
X145177725Y-109183329D01*
X145047885Y-109289885D01*
X144941329Y-109419725D01*
X144862150Y-109567858D01*
X144813392Y-109728592D01*
X144800121Y-109863327D01*
X144791423Y-109892002D01*
X144769509Y-110114500D01*
X144791423Y-110336998D01*
X144800121Y-110365673D01*
X144813392Y-110500408D01*
X144862150Y-110661142D01*
X144941329Y-110809275D01*
X144959100Y-110830930D01*
X144904463Y-110897506D01*
X144845498Y-111007820D01*
X144809188Y-111127518D01*
X144796928Y-111252000D01*
X144800000Y-111403750D01*
X144958750Y-111562500D01*
X145783000Y-111562500D01*
X145783000Y-111542500D01*
X146037000Y-111542500D01*
X146037000Y-111562500D01*
X146057000Y-111562500D01*
X146057000Y-111816500D01*
X146037000Y-111816500D01*
X146037000Y-112603250D01*
X146195750Y-112762000D01*
X146385000Y-112765072D01*
X146509482Y-112752812D01*
X146629180Y-112716502D01*
X146739494Y-112657537D01*
X146836185Y-112578185D01*
X146915537Y-112481494D01*
X146964971Y-112389010D01*
X146965000Y-112394250D01*
X147123750Y-112553000D01*
X148323000Y-112553000D01*
X148323000Y-112533000D01*
X148577000Y-112533000D01*
X148577000Y-112553000D01*
X149776250Y-112553000D01*
X149935000Y-112394250D01*
X149938072Y-111830000D01*
X149925812Y-111705518D01*
X149889502Y-111585820D01*
X149830537Y-111475506D01*
X149751185Y-111378815D01*
X149654494Y-111299463D01*
X149544180Y-111240498D01*
X149475313Y-111219607D01*
X149505134Y-111195134D01*
X149690706Y-110969014D01*
X149828599Y-110711034D01*
X149913513Y-110431111D01*
X149942185Y-110140000D01*
X149913513Y-109848889D01*
X149828599Y-109568966D01*
X149690706Y-109310986D01*
X149585000Y-109182183D01*
X149585000Y-108946131D01*
X149959135Y-108571996D01*
X150002449Y-108536449D01*
X150144284Y-108363623D01*
X150249676Y-108166447D01*
X150314577Y-107952499D01*
X150331000Y-107785752D01*
X150331000Y-107785743D01*
X150336490Y-107730001D01*
X150331000Y-107674259D01*
X150331000Y-106274248D01*
X150314577Y-106107501D01*
X150284072Y-106006940D01*
X150284072Y-105930000D01*
X150271812Y-105805518D01*
X150235502Y-105685820D01*
X150176537Y-105575506D01*
X150097185Y-105478815D01*
X150000494Y-105399463D01*
X149890180Y-105340498D01*
X149770482Y-105304188D01*
X149665172Y-105293816D01*
X149632446Y-105276324D01*
X149418498Y-105211423D01*
X149196000Y-105189509D01*
X148973501Y-105211423D01*
X148759553Y-105276324D01*
X148726827Y-105293816D01*
X148621518Y-105304188D01*
X148501820Y-105340498D01*
X148391506Y-105399463D01*
X148294815Y-105478815D01*
X148215463Y-105575506D01*
X148206857Y-105591607D01*
X148122250Y-105507000D01*
X147323000Y-105507000D01*
X147323000Y-105527000D01*
X147069000Y-105527000D01*
X147069000Y-105507000D01*
X147049000Y-105507000D01*
X147049000Y-105253000D01*
X147069000Y-105253000D01*
X147069000Y-104503750D01*
X147323000Y-104503750D01*
X147323000Y-105253000D01*
X148122250Y-105253000D01*
X148281000Y-105094250D01*
X148284072Y-104980000D01*
X148271812Y-104855518D01*
X148235502Y-104735820D01*
X148176537Y-104625506D01*
X148097185Y-104528815D01*
X148000494Y-104449463D01*
X147890180Y-104390498D01*
X147770482Y-104354188D01*
X147646000Y-104341928D01*
X147481750Y-104345000D01*
X147323000Y-104503750D01*
X147069000Y-104503750D01*
X146910250Y-104345000D01*
X146746000Y-104341928D01*
X146621518Y-104354188D01*
X146501820Y-104390498D01*
X146391506Y-104449463D01*
X146294815Y-104528815D01*
X146215463Y-104625506D01*
X146156498Y-104735820D01*
X146142780Y-104781043D01*
X146121180Y-104769498D01*
X146001482Y-104733188D01*
X145877000Y-104720928D01*
X145687750Y-104724000D01*
X145529000Y-104882750D01*
X145529000Y-105669500D01*
X145549000Y-105669500D01*
X145549000Y-105923500D01*
X145529000Y-105923500D01*
X145529000Y-105943500D01*
X145275000Y-105943500D01*
X145275000Y-105923500D01*
X145255000Y-105923500D01*
X145255000Y-105669500D01*
X145275000Y-105669500D01*
X145275000Y-104882750D01*
X145116250Y-104724000D01*
X144927000Y-104720928D01*
X144802518Y-104733188D01*
X144765001Y-104744569D01*
X144765001Y-103614072D01*
X146302000Y-103614072D01*
X146426482Y-103601812D01*
X146546180Y-103565502D01*
X146656494Y-103506537D01*
X146753185Y-103427185D01*
X146832537Y-103330494D01*
X146891502Y-103220180D01*
X146927812Y-103100482D01*
X146940072Y-102976000D01*
X146940072Y-102861000D01*
X147156249Y-102861000D01*
X147212000Y-102866491D01*
X147267751Y-102861000D01*
X147267752Y-102861000D01*
X147434499Y-102844577D01*
X147648447Y-102779676D01*
X147845623Y-102674284D01*
X148018449Y-102532449D01*
X148053996Y-102489135D01*
X148832860Y-101710272D01*
X149250100Y-101710272D01*
X149374582Y-101698012D01*
X149494280Y-101661702D01*
X149604594Y-101602737D01*
X149701285Y-101523385D01*
X149780637Y-101426694D01*
X149839602Y-101316380D01*
X149875912Y-101196682D01*
X149888172Y-101072200D01*
X149888172Y-99903800D01*
X149875912Y-99779318D01*
X149859738Y-99726000D01*
X149875912Y-99672682D01*
X149888172Y-99548200D01*
X149888172Y-98379800D01*
X149875912Y-98255318D01*
X149839602Y-98135620D01*
X149780637Y-98025306D01*
X149701285Y-97928615D01*
X149604594Y-97849263D01*
X149494280Y-97790298D01*
X149374582Y-97753988D01*
X149250100Y-97741728D01*
X148832860Y-97741728D01*
X148053996Y-96962865D01*
X148018449Y-96919551D01*
X147845623Y-96777716D01*
X147648447Y-96672324D01*
X147434499Y-96607423D01*
X147267752Y-96591000D01*
X147267751Y-96591000D01*
X147212000Y-96585509D01*
X147156249Y-96591000D01*
X146940072Y-96591000D01*
X146940072Y-96476000D01*
X146927812Y-96351518D01*
X146891502Y-96231820D01*
X146832537Y-96121506D01*
X146768109Y-96043000D01*
X146832537Y-95964494D01*
X146891502Y-95854180D01*
X146927812Y-95734482D01*
X146940072Y-95610000D01*
X146940072Y-95495000D01*
X147283249Y-95495000D01*
X147339000Y-95500491D01*
X147394751Y-95495000D01*
X147394752Y-95495000D01*
X147561499Y-95478577D01*
X147775447Y-95413676D01*
X147972623Y-95308284D01*
X148145449Y-95166449D01*
X148180996Y-95123136D01*
X148832860Y-94471272D01*
X149250100Y-94471272D01*
X149374582Y-94459012D01*
X149494280Y-94422702D01*
X149604594Y-94363737D01*
X149701285Y-94284385D01*
X149780637Y-94187694D01*
X149839602Y-94077380D01*
X149875912Y-93957682D01*
X149888172Y-93833200D01*
X149888172Y-92664800D01*
X149875912Y-92540318D01*
X149859738Y-92487000D01*
X149875912Y-92433682D01*
X149888172Y-92309200D01*
X149888172Y-91140800D01*
X149875912Y-91016318D01*
X149839602Y-90896620D01*
X149780637Y-90786306D01*
X149701285Y-90689615D01*
X149604594Y-90610263D01*
X149494280Y-90551298D01*
X149374582Y-90514988D01*
X149250100Y-90502728D01*
X148832860Y-90502728D01*
X147926995Y-89596864D01*
X147891449Y-89553551D01*
X147718623Y-89411716D01*
X147521447Y-89306324D01*
X147307499Y-89241423D01*
X147140752Y-89225000D01*
X147140751Y-89225000D01*
X147085000Y-89219509D01*
X147029249Y-89225000D01*
X146940072Y-89225000D01*
X146940072Y-89110000D01*
X146927812Y-88985518D01*
X146891502Y-88865820D01*
X146832537Y-88755506D01*
X146753185Y-88658815D01*
X146656494Y-88579463D01*
X146546180Y-88520498D01*
X146426482Y-88484188D01*
X146302000Y-88471928D01*
X144502000Y-88471928D01*
X144377518Y-88484188D01*
X144257820Y-88520498D01*
X144147506Y-88579463D01*
X144050815Y-88658815D01*
X143971463Y-88755506D01*
X143912498Y-88865820D01*
X143876188Y-88985518D01*
X143863928Y-89110000D01*
X143863928Y-89225000D01*
X143139751Y-89225000D01*
X143084000Y-89219509D01*
X143028248Y-89225000D01*
X140780500Y-89225000D01*
X140682999Y-89195423D01*
X140516252Y-89179000D01*
X140516251Y-89179000D01*
X140460500Y-89173509D01*
X140404749Y-89179000D01*
X139643501Y-89179000D01*
X139589185Y-89112815D01*
X139492494Y-89033463D01*
X139382180Y-88974498D01*
X139262482Y-88938188D01*
X139138000Y-88925928D01*
X137138000Y-88925928D01*
X137013518Y-88938188D01*
X136893820Y-88974498D01*
X136783506Y-89033463D01*
X136686815Y-89112815D01*
X136607463Y-89209506D01*
X136548498Y-89319820D01*
X136512188Y-89439518D01*
X136499928Y-89564000D01*
X136499928Y-90979000D01*
X133476072Y-90979000D01*
X133476072Y-90714000D01*
X133463812Y-90589518D01*
X133427502Y-90469820D01*
X133368537Y-90359506D01*
X133289185Y-90262815D01*
X133192494Y-90183463D01*
X133082180Y-90124498D01*
X132962482Y-90088188D01*
X132838000Y-90075928D01*
X130838000Y-90075928D01*
X130713518Y-90088188D01*
X130593820Y-90124498D01*
X130483506Y-90183463D01*
X130386815Y-90262815D01*
X130307463Y-90359506D01*
X130248498Y-90469820D01*
X130212188Y-90589518D01*
X130199928Y-90714000D01*
X130199928Y-91479000D01*
X129652422Y-91479000D01*
X129622499Y-91469923D01*
X129455752Y-91453500D01*
X129455751Y-91453500D01*
X129400000Y-91448009D01*
X129344249Y-91453500D01*
X127347741Y-91453500D01*
X127291999Y-91448010D01*
X127236258Y-91453500D01*
X127236248Y-91453500D01*
X127069501Y-91469923D01*
X126928608Y-91512663D01*
X126880592Y-91517392D01*
X126719858Y-91566150D01*
X126571725Y-91645329D01*
X126479000Y-91721426D01*
X126386275Y-91645329D01*
X126238142Y-91566150D01*
X126077408Y-91517392D01*
X125942673Y-91504121D01*
X125913998Y-91495423D01*
X125691500Y-91473509D01*
X125469001Y-91495423D01*
X125440326Y-91504122D01*
X125305592Y-91517392D01*
X125144858Y-91566150D01*
X124996725Y-91645329D01*
X124866885Y-91751885D01*
X124760329Y-91881725D01*
X124681150Y-92029858D01*
X124632392Y-92190592D01*
X124631682Y-92197802D01*
X124572923Y-92391502D01*
X124556500Y-92558249D01*
X124556500Y-93133249D01*
X124551009Y-93189000D01*
X124556500Y-93244751D01*
X124556500Y-93244752D01*
X124572923Y-93411499D01*
X124582000Y-93441422D01*
X124582001Y-95606239D01*
X124576509Y-95662000D01*
X124598423Y-95884498D01*
X124663324Y-96098446D01*
X124702307Y-96171377D01*
X124768717Y-96295623D01*
X124910552Y-96468449D01*
X124953860Y-96503991D01*
X125403693Y-96953825D01*
X125314908Y-96926892D01*
X125147750Y-96910428D01*
X124635250Y-96910428D01*
X124468092Y-96926892D01*
X124307358Y-96975650D01*
X124159225Y-97054829D01*
X124029385Y-97161385D01*
X123976357Y-97226000D01*
X122949143Y-97226000D01*
X122896115Y-97161385D01*
X122766275Y-97054829D01*
X122618142Y-96975650D01*
X122457408Y-96926892D01*
X122290250Y-96910428D01*
X121777750Y-96910428D01*
X121610592Y-96926892D01*
X121449858Y-96975650D01*
X121301725Y-97054829D01*
X121171885Y-97161385D01*
X121118857Y-97226000D01*
X120509325Y-97226000D01*
X120472000Y-97222324D01*
X120434675Y-97226000D01*
X120434667Y-97226000D01*
X120323014Y-97236997D01*
X120179753Y-97280454D01*
X120047724Y-97351026D01*
X119931999Y-97445999D01*
X119908196Y-97475003D01*
X119788699Y-97594500D01*
X117932643Y-97594500D01*
X117910074Y-97567000D01*
X117986171Y-97474275D01*
X118065350Y-97326142D01*
X118114108Y-97165408D01*
X118130572Y-96998250D01*
X118130572Y-96560750D01*
X118114108Y-96393592D01*
X118065350Y-96232858D01*
X117986171Y-96084725D01*
X117879615Y-95954885D01*
X117749775Y-95848329D01*
X117601642Y-95769150D01*
X117440908Y-95720392D01*
X117273750Y-95703928D01*
X117016730Y-95703928D01*
X116101804Y-94789003D01*
X116078001Y-94759999D01*
X115962276Y-94665026D01*
X115830247Y-94594454D01*
X115686986Y-94550997D01*
X115575333Y-94540000D01*
X115575322Y-94540000D01*
X115538000Y-94536324D01*
X115500678Y-94540000D01*
X114681046Y-94540000D01*
X114630537Y-94445506D01*
X114551185Y-94348815D01*
X114454494Y-94269463D01*
X114344180Y-94210498D01*
X114224482Y-94174188D01*
X114100000Y-94161928D01*
X112232035Y-94161928D01*
X112216632Y-94146525D01*
X112042240Y-94030000D01*
X112216632Y-93913475D01*
X112232035Y-93898072D01*
X114100000Y-93898072D01*
X114224482Y-93885812D01*
X114344180Y-93849502D01*
X114454494Y-93790537D01*
X114551185Y-93711185D01*
X114630537Y-93614494D01*
X114689502Y-93504180D01*
X114725812Y-93384482D01*
X114738072Y-93260000D01*
X114738072Y-92260000D01*
X114725812Y-92135518D01*
X114689502Y-92015820D01*
X114630537Y-91905506D01*
X114551185Y-91808815D01*
X114454494Y-91729463D01*
X114344180Y-91670498D01*
X114224482Y-91634188D01*
X114100000Y-91621928D01*
X112232035Y-91621928D01*
X112216632Y-91606525D01*
X112042240Y-91490000D01*
X112216632Y-91373475D01*
X112232035Y-91358072D01*
X114100000Y-91358072D01*
X114224482Y-91345812D01*
X114344180Y-91309502D01*
X114454494Y-91250537D01*
X114551185Y-91171185D01*
X114630537Y-91074494D01*
X114689502Y-90964180D01*
X114725812Y-90844482D01*
X114738072Y-90720000D01*
X114738072Y-89720000D01*
X114725812Y-89595518D01*
X114689502Y-89475820D01*
X114630537Y-89365506D01*
X114551185Y-89268815D01*
X114454494Y-89189463D01*
X114344180Y-89130498D01*
X114224482Y-89094188D01*
X114100000Y-89081928D01*
X112232035Y-89081928D01*
X112216632Y-89066525D01*
X111973411Y-88904010D01*
X111703158Y-88792068D01*
X111416260Y-88735000D01*
X111123740Y-88735000D01*
X110836842Y-88792068D01*
X110566589Y-88904010D01*
X110323368Y-89066525D01*
X110116525Y-89273368D01*
X110000689Y-89446729D01*
X109758397Y-89371208D01*
X109642826Y-89486779D01*
X109639502Y-89475820D01*
X109580537Y-89365506D01*
X109501363Y-89269032D01*
X109578792Y-89191603D01*
X109501157Y-88942528D01*
X109237117Y-88816629D01*
X108953589Y-88744661D01*
X108661469Y-88729389D01*
X108371981Y-88771401D01*
X108096253Y-88869081D01*
X107958843Y-88942528D01*
X107914550Y-89084634D01*
X107760750Y-89085000D01*
X107602000Y-89243750D01*
X107602000Y-89402254D01*
X107506839Y-89431915D01*
X107470158Y-89395234D01*
X107351836Y-89513556D01*
X107348000Y-89479438D01*
X107348000Y-89243750D01*
X107189250Y-89085000D01*
X105900000Y-89081928D01*
X105775518Y-89094188D01*
X105655820Y-89130498D01*
X105545506Y-89189463D01*
X105448815Y-89268815D01*
X105369463Y-89365506D01*
X105310498Y-89475820D01*
X105274188Y-89595518D01*
X105261928Y-89720000D01*
X105010000Y-89720000D01*
X105010000Y-87036050D01*
X105019369Y-87058669D01*
X105263962Y-87424729D01*
X105575271Y-87736038D01*
X105941331Y-87980631D01*
X106348075Y-88149110D01*
X106779872Y-88235000D01*
X107220128Y-88235000D01*
X107651925Y-88149110D01*
X108058669Y-87980631D01*
X108424729Y-87736038D01*
X108736038Y-87424729D01*
X108980631Y-87058669D01*
X109149110Y-86651925D01*
X109235000Y-86220128D01*
X109235000Y-85779872D01*
X109149110Y-85348075D01*
X108980631Y-84941331D01*
X108736038Y-84575271D01*
X108424729Y-84263962D01*
X108058669Y-84019369D01*
X108036050Y-84010000D01*
X111790000Y-84010000D01*
X111790001Y-84449278D01*
X111506081Y-84331675D01*
X111170883Y-84265000D01*
X110829117Y-84265000D01*
X110493919Y-84331675D01*
X110178169Y-84462463D01*
X109894002Y-84652337D01*
X109652337Y-84894002D01*
X109462463Y-85178169D01*
X109331675Y-85493919D01*
X109265000Y-85829117D01*
X109265000Y-86170883D01*
X109331675Y-86506081D01*
X109462463Y-86821831D01*
X109652337Y-87105998D01*
X109894002Y-87347663D01*
X110178169Y-87537537D01*
X110493919Y-87668325D01*
X110829117Y-87735000D01*
X111170883Y-87735000D01*
X111506081Y-87668325D01*
X111821831Y-87537537D01*
X112105998Y-87347663D01*
X112347663Y-87105998D01*
X112537537Y-86821831D01*
X112668325Y-86506081D01*
X112735000Y-86170883D01*
X112735000Y-86161561D01*
X112860816Y-86199727D01*
X112965123Y-86210000D01*
X112965125Y-86210000D01*
X113000000Y-86213435D01*
X113034875Y-86210000D01*
X115965125Y-86210000D01*
X116000000Y-86213435D01*
X116034875Y-86210000D01*
X116034877Y-86210000D01*
X116139184Y-86199727D01*
X116273020Y-86159128D01*
X116396363Y-86093200D01*
X116504475Y-86004475D01*
X116526712Y-85977379D01*
X116674974Y-85829117D01*
X145265000Y-85829117D01*
X145265000Y-86170883D01*
X145331675Y-86506081D01*
X145462463Y-86821831D01*
X145652337Y-87105998D01*
X145894002Y-87347663D01*
X146178169Y-87537537D01*
X146493919Y-87668325D01*
X146829117Y-87735000D01*
X147170883Y-87735000D01*
X147506081Y-87668325D01*
X147821831Y-87537537D01*
X148105998Y-87347663D01*
X148347663Y-87105998D01*
X148537537Y-86821831D01*
X148668325Y-86506081D01*
X148735000Y-86170883D01*
X148735000Y-85829117D01*
X148668325Y-85493919D01*
X148537537Y-85178169D01*
X148347663Y-84894002D01*
X148105998Y-84652337D01*
X147821831Y-84462463D01*
X147506081Y-84331675D01*
X147170883Y-84265000D01*
X146829117Y-84265000D01*
X146493919Y-84331675D01*
X146178169Y-84462463D01*
X145894002Y-84652337D01*
X145652337Y-84894002D01*
X145462463Y-85178169D01*
X145331675Y-85493919D01*
X145265000Y-85829117D01*
X116674974Y-85829117D01*
X116977383Y-85526708D01*
X117004474Y-85504475D01*
X117093200Y-85396363D01*
X117159128Y-85273020D01*
X117199727Y-85139184D01*
X117210000Y-85034877D01*
X117210000Y-85034875D01*
X117213435Y-85000000D01*
X117210000Y-84965125D01*
X117210000Y-83794091D01*
X117294091Y-83710000D01*
X143405909Y-83710000D01*
X143473288Y-83777379D01*
G36*
X121337111Y-119096586D02*
G01*
X121507271Y-119167068D01*
X121687911Y-119203000D01*
X121782000Y-119203000D01*
X121782000Y-123056678D01*
X121778324Y-123094000D01*
X121782000Y-123131322D01*
X121782000Y-123131332D01*
X121792997Y-123242985D01*
X121825459Y-123350000D01*
X121836454Y-123386246D01*
X121907026Y-123518276D01*
X121946871Y-123566826D01*
X122001999Y-123634001D01*
X122031002Y-123657804D01*
X122994201Y-124621003D01*
X123017999Y-124650001D01*
X123046997Y-124673799D01*
X123133723Y-124744974D01*
X123265753Y-124815546D01*
X123409014Y-124859003D01*
X123520667Y-124870000D01*
X123520677Y-124870000D01*
X123558000Y-124873676D01*
X123595322Y-124870000D01*
X145875299Y-124870000D01*
X145879188Y-124909482D01*
X145915498Y-125029180D01*
X145974463Y-125139494D01*
X146053815Y-125236185D01*
X146150506Y-125315537D01*
X146260820Y-125374502D01*
X146380518Y-125410812D01*
X146505000Y-125423072D01*
X146835799Y-125423072D01*
X146433870Y-125825001D01*
X117988133Y-125825001D01*
X117327000Y-125163868D01*
X117327000Y-124165752D01*
X117332491Y-124110000D01*
X117310577Y-123887501D01*
X117245676Y-123673553D01*
X117140284Y-123476377D01*
X117128894Y-123462498D01*
X116998449Y-123303551D01*
X116955140Y-123268008D01*
X116163995Y-122476864D01*
X116128449Y-122433551D01*
X115955623Y-122291716D01*
X115758447Y-122186324D01*
X115544499Y-122121423D01*
X115377752Y-122105000D01*
X115377751Y-122105000D01*
X115322000Y-122099509D01*
X115266249Y-122105000D01*
X114131192Y-122105000D01*
X114100000Y-122101928D01*
X112232035Y-122101928D01*
X112216632Y-122086525D01*
X112042240Y-121970000D01*
X112216632Y-121853475D01*
X112232035Y-121838072D01*
X114100000Y-121838072D01*
X114224482Y-121825812D01*
X114344180Y-121789502D01*
X114454494Y-121730537D01*
X114551185Y-121651185D01*
X114630537Y-121554494D01*
X114689502Y-121444180D01*
X114725812Y-121324482D01*
X114738072Y-121200000D01*
X114738072Y-120200000D01*
X114735216Y-120171000D01*
X114988199Y-120171000D01*
X115374200Y-120557002D01*
X115397999Y-120586001D01*
X115513724Y-120680974D01*
X115645753Y-120751546D01*
X115789014Y-120795003D01*
X115859436Y-120801939D01*
X115938000Y-120809677D01*
X115975333Y-120806000D01*
X116020082Y-120806000D01*
X116103885Y-120908115D01*
X116233725Y-121014671D01*
X116381858Y-121093850D01*
X116542592Y-121142608D01*
X116709750Y-121159072D01*
X117147250Y-121159072D01*
X117314408Y-121142608D01*
X117475142Y-121093850D01*
X117623275Y-121014671D01*
X117716000Y-120938574D01*
X117808725Y-121014671D01*
X117956858Y-121093850D01*
X118117592Y-121142608D01*
X118284750Y-121159072D01*
X118722250Y-121159072D01*
X118889408Y-121142608D01*
X119050142Y-121093850D01*
X119198275Y-121014671D01*
X119328115Y-120908115D01*
X119434671Y-120778275D01*
X119513850Y-120630142D01*
X119562608Y-120469408D01*
X119579072Y-120302250D01*
X119579072Y-119789750D01*
X119562608Y-119622592D01*
X119513850Y-119461858D01*
X119434671Y-119313725D01*
X119328115Y-119183885D01*
X119295355Y-119157000D01*
X119328115Y-119130115D01*
X119411918Y-119028000D01*
X121234465Y-119028000D01*
X121337111Y-119096586D01*
X121337111Y-119096586D01*
G37*
X121337111Y-119096586D02*
X121507271Y-119167068D01*
X121687911Y-119203000D01*
X121782000Y-119203000D01*
X121782000Y-123056678D01*
X121778324Y-123094000D01*
X121782000Y-123131322D01*
X121782000Y-123131332D01*
X121792997Y-123242985D01*
X121825459Y-123350000D01*
X121836454Y-123386246D01*
X121907026Y-123518276D01*
X121946871Y-123566826D01*
X122001999Y-123634001D01*
X122031002Y-123657804D01*
X122994201Y-124621003D01*
X123017999Y-124650001D01*
X123046997Y-124673799D01*
X123133723Y-124744974D01*
X123265753Y-124815546D01*
X123409014Y-124859003D01*
X123520667Y-124870000D01*
X123520677Y-124870000D01*
X123558000Y-124873676D01*
X123595322Y-124870000D01*
X145875299Y-124870000D01*
X145879188Y-124909482D01*
X145915498Y-125029180D01*
X145974463Y-125139494D01*
X146053815Y-125236185D01*
X146150506Y-125315537D01*
X146260820Y-125374502D01*
X146380518Y-125410812D01*
X146505000Y-125423072D01*
X146835799Y-125423072D01*
X146433870Y-125825001D01*
X117988133Y-125825001D01*
X117327000Y-125163868D01*
X117327000Y-124165752D01*
X117332491Y-124110000D01*
X117310577Y-123887501D01*
X117245676Y-123673553D01*
X117140284Y-123476377D01*
X117128894Y-123462498D01*
X116998449Y-123303551D01*
X116955140Y-123268008D01*
X116163995Y-122476864D01*
X116128449Y-122433551D01*
X115955623Y-122291716D01*
X115758447Y-122186324D01*
X115544499Y-122121423D01*
X115377752Y-122105000D01*
X115377751Y-122105000D01*
X115322000Y-122099509D01*
X115266249Y-122105000D01*
X114131192Y-122105000D01*
X114100000Y-122101928D01*
X112232035Y-122101928D01*
X112216632Y-122086525D01*
X112042240Y-121970000D01*
X112216632Y-121853475D01*
X112232035Y-121838072D01*
X114100000Y-121838072D01*
X114224482Y-121825812D01*
X114344180Y-121789502D01*
X114454494Y-121730537D01*
X114551185Y-121651185D01*
X114630537Y-121554494D01*
X114689502Y-121444180D01*
X114725812Y-121324482D01*
X114738072Y-121200000D01*
X114738072Y-120200000D01*
X114735216Y-120171000D01*
X114988199Y-120171000D01*
X115374200Y-120557002D01*
X115397999Y-120586001D01*
X115513724Y-120680974D01*
X115645753Y-120751546D01*
X115789014Y-120795003D01*
X115859436Y-120801939D01*
X115938000Y-120809677D01*
X115975333Y-120806000D01*
X116020082Y-120806000D01*
X116103885Y-120908115D01*
X116233725Y-121014671D01*
X116381858Y-121093850D01*
X116542592Y-121142608D01*
X116709750Y-121159072D01*
X117147250Y-121159072D01*
X117314408Y-121142608D01*
X117475142Y-121093850D01*
X117623275Y-121014671D01*
X117716000Y-120938574D01*
X117808725Y-121014671D01*
X117956858Y-121093850D01*
X118117592Y-121142608D01*
X118284750Y-121159072D01*
X118722250Y-121159072D01*
X118889408Y-121142608D01*
X119050142Y-121093850D01*
X119198275Y-121014671D01*
X119328115Y-120908115D01*
X119434671Y-120778275D01*
X119513850Y-120630142D01*
X119562608Y-120469408D01*
X119579072Y-120302250D01*
X119579072Y-119789750D01*
X119562608Y-119622592D01*
X119513850Y-119461858D01*
X119434671Y-119313725D01*
X119328115Y-119183885D01*
X119295355Y-119157000D01*
X119328115Y-119130115D01*
X119411918Y-119028000D01*
X121234465Y-119028000D01*
X121337111Y-119096586D01*
G36*
X128562011Y-102439313D02*
G01*
X128562010Y-106673677D01*
X128558334Y-106711000D01*
X128562010Y-106748322D01*
X128562010Y-106748332D01*
X128573007Y-106859985D01*
X128604871Y-106965027D01*
X128616464Y-107003246D01*
X128687036Y-107135276D01*
X128724713Y-107181185D01*
X128782009Y-107251001D01*
X128811012Y-107274803D01*
X129647211Y-108111003D01*
X129671009Y-108140001D01*
X129786734Y-108234974D01*
X129918763Y-108305546D01*
X130062024Y-108349003D01*
X130173677Y-108360000D01*
X130173687Y-108360000D01*
X130211010Y-108363676D01*
X130248333Y-108360000D01*
X138741489Y-108360000D01*
X138738717Y-108363378D01*
X138633324Y-108560554D01*
X138568423Y-108774502D01*
X138546509Y-108997000D01*
X138568423Y-109219498D01*
X138633324Y-109433446D01*
X138738717Y-109630622D01*
X138845012Y-109760143D01*
X139224869Y-110140000D01*
X138796865Y-110568004D01*
X138753551Y-110603551D01*
X138611716Y-110776377D01*
X138524732Y-110939115D01*
X138506324Y-110973554D01*
X138441423Y-111187502D01*
X138419509Y-111410000D01*
X138425000Y-111465752D01*
X138425001Y-118466239D01*
X138419509Y-118522000D01*
X138441423Y-118744498D01*
X138506324Y-118958446D01*
X138545466Y-119031676D01*
X138611717Y-119155623D01*
X138753552Y-119328449D01*
X138796860Y-119363991D01*
X140306009Y-120873140D01*
X140341551Y-120916449D01*
X140514377Y-121058284D01*
X140711553Y-121163676D01*
X140875705Y-121213471D01*
X140925500Y-121228577D01*
X141147999Y-121250491D01*
X141203751Y-121245000D01*
X146192379Y-121245000D01*
X146162456Y-121274923D01*
X146106953Y-121357990D01*
X146076420Y-121360997D01*
X145936597Y-121403411D01*
X145933159Y-121404454D01*
X145801129Y-121475026D01*
X145717489Y-121543668D01*
X145685405Y-121569999D01*
X145661607Y-121598997D01*
X144340615Y-122919990D01*
X124380802Y-122919990D01*
X123810000Y-122349189D01*
X123810000Y-119121393D01*
X123920271Y-119167068D01*
X124100911Y-119203000D01*
X124285089Y-119203000D01*
X124465729Y-119167068D01*
X124635889Y-119096586D01*
X124789028Y-118994262D01*
X124919262Y-118864028D01*
X125021586Y-118710889D01*
X125092068Y-118540729D01*
X125128000Y-118360089D01*
X125128000Y-118175911D01*
X125092068Y-117995271D01*
X125021586Y-117825111D01*
X124953000Y-117722465D01*
X124953000Y-112336535D01*
X125021586Y-112233889D01*
X125092068Y-112063729D01*
X125128000Y-111883089D01*
X125128000Y-111698911D01*
X125092068Y-111518271D01*
X125021586Y-111348111D01*
X124919262Y-111194972D01*
X124789028Y-111064738D01*
X124635889Y-110962414D01*
X124485207Y-110900000D01*
X125582405Y-110900000D01*
X125619294Y-110969014D01*
X125804866Y-111195134D01*
X125834687Y-111219607D01*
X125765820Y-111240498D01*
X125655506Y-111299463D01*
X125558815Y-111378815D01*
X125479463Y-111475506D01*
X125420498Y-111585820D01*
X125384188Y-111705518D01*
X125371928Y-111830000D01*
X125371928Y-113530000D01*
X125384188Y-113654482D01*
X125420498Y-113774180D01*
X125479463Y-113884494D01*
X125558815Y-113981185D01*
X125655506Y-114060537D01*
X125765820Y-114119502D01*
X125885518Y-114155812D01*
X126010000Y-114168072D01*
X127710000Y-114168072D01*
X127834482Y-114155812D01*
X127954180Y-114119502D01*
X128064494Y-114060537D01*
X128161185Y-113981185D01*
X128240537Y-113884494D01*
X128299502Y-113774180D01*
X128335812Y-113654482D01*
X128348072Y-113530000D01*
X128348072Y-111830000D01*
X128335812Y-111705518D01*
X128299502Y-111585820D01*
X128240537Y-111475506D01*
X128161185Y-111378815D01*
X128064494Y-111299463D01*
X127954180Y-111240498D01*
X127885313Y-111219607D01*
X127915134Y-111195134D01*
X128100706Y-110969014D01*
X128238599Y-110711034D01*
X128323513Y-110431111D01*
X128352185Y-110140000D01*
X128323513Y-109848889D01*
X128238599Y-109568966D01*
X128100706Y-109310986D01*
X127915134Y-109084866D01*
X127689014Y-108899294D01*
X127634209Y-108870000D01*
X127689014Y-108840706D01*
X127915134Y-108655134D01*
X128100706Y-108429014D01*
X128238599Y-108171034D01*
X128323513Y-107891111D01*
X128352185Y-107600000D01*
X128323513Y-107308889D01*
X128238599Y-107028966D01*
X128100706Y-106770986D01*
X127915134Y-106544866D01*
X127689014Y-106359294D01*
X127634209Y-106330000D01*
X127689014Y-106300706D01*
X127915134Y-106115134D01*
X128100706Y-105889014D01*
X128238599Y-105631034D01*
X128323513Y-105351111D01*
X128352185Y-105060000D01*
X128323513Y-104768889D01*
X128238599Y-104488966D01*
X128100706Y-104230986D01*
X127915134Y-104004866D01*
X127689014Y-103819294D01*
X127634209Y-103790000D01*
X127689014Y-103760706D01*
X127915134Y-103575134D01*
X128100706Y-103349014D01*
X128238599Y-103091034D01*
X128323513Y-102811111D01*
X128352185Y-102520000D01*
X128323513Y-102228889D01*
X128311288Y-102188590D01*
X128562011Y-102439313D01*
X128562011Y-102439313D01*
G37*
X128562011Y-102439313D02*
X128562010Y-106673677D01*
X128558334Y-106711000D01*
X128562010Y-106748322D01*
X128562010Y-106748332D01*
X128573007Y-106859985D01*
X128604871Y-106965027D01*
X128616464Y-107003246D01*
X128687036Y-107135276D01*
X128724713Y-107181185D01*
X128782009Y-107251001D01*
X128811012Y-107274803D01*
X129647211Y-108111003D01*
X129671009Y-108140001D01*
X129786734Y-108234974D01*
X129918763Y-108305546D01*
X130062024Y-108349003D01*
X130173677Y-108360000D01*
X130173687Y-108360000D01*
X130211010Y-108363676D01*
X130248333Y-108360000D01*
X138741489Y-108360000D01*
X138738717Y-108363378D01*
X138633324Y-108560554D01*
X138568423Y-108774502D01*
X138546509Y-108997000D01*
X138568423Y-109219498D01*
X138633324Y-109433446D01*
X138738717Y-109630622D01*
X138845012Y-109760143D01*
X139224869Y-110140000D01*
X138796865Y-110568004D01*
X138753551Y-110603551D01*
X138611716Y-110776377D01*
X138524732Y-110939115D01*
X138506324Y-110973554D01*
X138441423Y-111187502D01*
X138419509Y-111410000D01*
X138425000Y-111465752D01*
X138425001Y-118466239D01*
X138419509Y-118522000D01*
X138441423Y-118744498D01*
X138506324Y-118958446D01*
X138545466Y-119031676D01*
X138611717Y-119155623D01*
X138753552Y-119328449D01*
X138796860Y-119363991D01*
X140306009Y-120873140D01*
X140341551Y-120916449D01*
X140514377Y-121058284D01*
X140711553Y-121163676D01*
X140875705Y-121213471D01*
X140925500Y-121228577D01*
X141147999Y-121250491D01*
X141203751Y-121245000D01*
X146192379Y-121245000D01*
X146162456Y-121274923D01*
X146106953Y-121357990D01*
X146076420Y-121360997D01*
X145936597Y-121403411D01*
X145933159Y-121404454D01*
X145801129Y-121475026D01*
X145717489Y-121543668D01*
X145685405Y-121569999D01*
X145661607Y-121598997D01*
X144340615Y-122919990D01*
X124380802Y-122919990D01*
X123810000Y-122349189D01*
X123810000Y-119121393D01*
X123920271Y-119167068D01*
X124100911Y-119203000D01*
X124285089Y-119203000D01*
X124465729Y-119167068D01*
X124635889Y-119096586D01*
X124789028Y-118994262D01*
X124919262Y-118864028D01*
X125021586Y-118710889D01*
X125092068Y-118540729D01*
X125128000Y-118360089D01*
X125128000Y-118175911D01*
X125092068Y-117995271D01*
X125021586Y-117825111D01*
X124953000Y-117722465D01*
X124953000Y-112336535D01*
X125021586Y-112233889D01*
X125092068Y-112063729D01*
X125128000Y-111883089D01*
X125128000Y-111698911D01*
X125092068Y-111518271D01*
X125021586Y-111348111D01*
X124919262Y-111194972D01*
X124789028Y-111064738D01*
X124635889Y-110962414D01*
X124485207Y-110900000D01*
X125582405Y-110900000D01*
X125619294Y-110969014D01*
X125804866Y-111195134D01*
X125834687Y-111219607D01*
X125765820Y-111240498D01*
X125655506Y-111299463D01*
X125558815Y-111378815D01*
X125479463Y-111475506D01*
X125420498Y-111585820D01*
X125384188Y-111705518D01*
X125371928Y-111830000D01*
X125371928Y-113530000D01*
X125384188Y-113654482D01*
X125420498Y-113774180D01*
X125479463Y-113884494D01*
X125558815Y-113981185D01*
X125655506Y-114060537D01*
X125765820Y-114119502D01*
X125885518Y-114155812D01*
X126010000Y-114168072D01*
X127710000Y-114168072D01*
X127834482Y-114155812D01*
X127954180Y-114119502D01*
X128064494Y-114060537D01*
X128161185Y-113981185D01*
X128240537Y-113884494D01*
X128299502Y-113774180D01*
X128335812Y-113654482D01*
X128348072Y-113530000D01*
X128348072Y-111830000D01*
X128335812Y-111705518D01*
X128299502Y-111585820D01*
X128240537Y-111475506D01*
X128161185Y-111378815D01*
X128064494Y-111299463D01*
X127954180Y-111240498D01*
X127885313Y-111219607D01*
X127915134Y-111195134D01*
X128100706Y-110969014D01*
X128238599Y-110711034D01*
X128323513Y-110431111D01*
X128352185Y-110140000D01*
X128323513Y-109848889D01*
X128238599Y-109568966D01*
X128100706Y-109310986D01*
X127915134Y-109084866D01*
X127689014Y-108899294D01*
X127634209Y-108870000D01*
X127689014Y-108840706D01*
X127915134Y-108655134D01*
X128100706Y-108429014D01*
X128238599Y-108171034D01*
X128323513Y-107891111D01*
X128352185Y-107600000D01*
X128323513Y-107308889D01*
X128238599Y-107028966D01*
X128100706Y-106770986D01*
X127915134Y-106544866D01*
X127689014Y-106359294D01*
X127634209Y-106330000D01*
X127689014Y-106300706D01*
X127915134Y-106115134D01*
X128100706Y-105889014D01*
X128238599Y-105631034D01*
X128323513Y-105351111D01*
X128352185Y-105060000D01*
X128323513Y-104768889D01*
X128238599Y-104488966D01*
X128100706Y-104230986D01*
X127915134Y-104004866D01*
X127689014Y-103819294D01*
X127634209Y-103790000D01*
X127689014Y-103760706D01*
X127915134Y-103575134D01*
X128100706Y-103349014D01*
X128238599Y-103091034D01*
X128323513Y-102811111D01*
X128352185Y-102520000D01*
X128323513Y-102228889D01*
X128311288Y-102188590D01*
X128562011Y-102439313D01*
G36*
X140703000Y-91877500D02*
G01*
X140723000Y-91877500D01*
X140723000Y-92131500D01*
X140703000Y-92131500D01*
X140703000Y-92918250D01*
X140861750Y-93077000D01*
X141051000Y-93080072D01*
X141175482Y-93067812D01*
X141219000Y-93054611D01*
X141219001Y-100906866D01*
X138845012Y-103280857D01*
X138738717Y-103410378D01*
X138633324Y-103607554D01*
X138568423Y-103821502D01*
X138546509Y-104044000D01*
X138568423Y-104266498D01*
X138578586Y-104300000D01*
X130512020Y-104300000D01*
X130512020Y-101067842D01*
X130515696Y-101030519D01*
X130512020Y-100993196D01*
X130512020Y-100993187D01*
X130501023Y-100881534D01*
X130457566Y-100738273D01*
X130449547Y-100723271D01*
X130386994Y-100606243D01*
X130315819Y-100519517D01*
X130292021Y-100490519D01*
X130263023Y-100466721D01*
X128846304Y-99050003D01*
X128822501Y-99020999D01*
X128706776Y-98926026D01*
X128574747Y-98855454D01*
X128431486Y-98811997D01*
X128319833Y-98801000D01*
X128319822Y-98801000D01*
X128282500Y-98797324D01*
X128245178Y-98801000D01*
X127995000Y-98801000D01*
X127995000Y-96860751D01*
X128000491Y-96804999D01*
X127978577Y-96582501D01*
X127913676Y-96368553D01*
X127874694Y-96295623D01*
X127808284Y-96171377D01*
X127666449Y-95998551D01*
X127623140Y-95963008D01*
X127324132Y-95664000D01*
X136499928Y-95664000D01*
X136512188Y-95788482D01*
X136548498Y-95908180D01*
X136607463Y-96018494D01*
X136686815Y-96115185D01*
X136783506Y-96194537D01*
X136893820Y-96253502D01*
X137013518Y-96289812D01*
X137138000Y-96302072D01*
X137852250Y-96299000D01*
X138011000Y-96140250D01*
X138011000Y-95041000D01*
X138265000Y-95041000D01*
X138265000Y-96140250D01*
X138423750Y-96299000D01*
X139138000Y-96302072D01*
X139262482Y-96289812D01*
X139382180Y-96253502D01*
X139492494Y-96194537D01*
X139589185Y-96115185D01*
X139668537Y-96018494D01*
X139727502Y-95908180D01*
X139763812Y-95788482D01*
X139776072Y-95664000D01*
X139773000Y-95199750D01*
X139614250Y-95041000D01*
X138265000Y-95041000D01*
X138011000Y-95041000D01*
X136661750Y-95041000D01*
X136503000Y-95199750D01*
X136499928Y-95664000D01*
X127324132Y-95664000D01*
X126852000Y-95191869D01*
X126852000Y-94601000D01*
X128286928Y-94601000D01*
X128299188Y-94725482D01*
X128335498Y-94845180D01*
X128394463Y-94955494D01*
X128473815Y-95052185D01*
X128570506Y-95131537D01*
X128680820Y-95190502D01*
X128800518Y-95226812D01*
X128925000Y-95239072D01*
X129114250Y-95236000D01*
X129273000Y-95077250D01*
X129273000Y-94290500D01*
X128448750Y-94290500D01*
X128290000Y-94449250D01*
X128286928Y-94601000D01*
X126852000Y-94601000D01*
X126852000Y-93701935D01*
X126880592Y-93710608D01*
X127015327Y-93723879D01*
X127044002Y-93732577D01*
X127266500Y-93754491D01*
X127488998Y-93732577D01*
X127517673Y-93723879D01*
X127521516Y-93723500D01*
X128287174Y-93723500D01*
X128286928Y-93726000D01*
X128290000Y-93877750D01*
X128448750Y-94036500D01*
X129273000Y-94036500D01*
X129273000Y-94016500D01*
X129527000Y-94016500D01*
X129527000Y-94036500D01*
X129547000Y-94036500D01*
X129547000Y-94290500D01*
X129527000Y-94290500D01*
X129527000Y-95077250D01*
X129685750Y-95236000D01*
X129875000Y-95239072D01*
X129999482Y-95226812D01*
X130119180Y-95190502D01*
X130229494Y-95131537D01*
X130326185Y-95052185D01*
X130393250Y-94970466D01*
X130483506Y-95044537D01*
X130593820Y-95103502D01*
X130713518Y-95139812D01*
X130838000Y-95152072D01*
X132838000Y-95152072D01*
X132962482Y-95139812D01*
X133082180Y-95103502D01*
X133192494Y-95044537D01*
X133289185Y-94965185D01*
X133368537Y-94868494D01*
X133427502Y-94758180D01*
X133463812Y-94638482D01*
X133476072Y-94514000D01*
X133476072Y-94249000D01*
X136500490Y-94249000D01*
X136503000Y-94628250D01*
X136661750Y-94787000D01*
X138011000Y-94787000D01*
X138011000Y-94767000D01*
X138265000Y-94767000D01*
X138265000Y-94787000D01*
X139614250Y-94787000D01*
X139773000Y-94628250D01*
X139776072Y-94164000D01*
X139763812Y-94039518D01*
X139727502Y-93919820D01*
X139668537Y-93809506D01*
X139631191Y-93764000D01*
X139668537Y-93718494D01*
X139727502Y-93608180D01*
X139763812Y-93488482D01*
X139776072Y-93364000D01*
X139776072Y-92988341D01*
X139856820Y-93031502D01*
X139976518Y-93067812D01*
X140101000Y-93080072D01*
X140290250Y-93077000D01*
X140449000Y-92918250D01*
X140449000Y-92131500D01*
X140429000Y-92131500D01*
X140429000Y-91877500D01*
X140449000Y-91877500D01*
X140449000Y-91857500D01*
X140703000Y-91857500D01*
X140703000Y-91877500D01*
X140703000Y-91877500D01*
G37*
X140703000Y-91877500D02*
X140723000Y-91877500D01*
X140723000Y-92131500D01*
X140703000Y-92131500D01*
X140703000Y-92918250D01*
X140861750Y-93077000D01*
X141051000Y-93080072D01*
X141175482Y-93067812D01*
X141219000Y-93054611D01*
X141219001Y-100906866D01*
X138845012Y-103280857D01*
X138738717Y-103410378D01*
X138633324Y-103607554D01*
X138568423Y-103821502D01*
X138546509Y-104044000D01*
X138568423Y-104266498D01*
X138578586Y-104300000D01*
X130512020Y-104300000D01*
X130512020Y-101067842D01*
X130515696Y-101030519D01*
X130512020Y-100993196D01*
X130512020Y-100993187D01*
X130501023Y-100881534D01*
X130457566Y-100738273D01*
X130449547Y-100723271D01*
X130386994Y-100606243D01*
X130315819Y-100519517D01*
X130292021Y-100490519D01*
X130263023Y-100466721D01*
X128846304Y-99050003D01*
X128822501Y-99020999D01*
X128706776Y-98926026D01*
X128574747Y-98855454D01*
X128431486Y-98811997D01*
X128319833Y-98801000D01*
X128319822Y-98801000D01*
X128282500Y-98797324D01*
X128245178Y-98801000D01*
X127995000Y-98801000D01*
X127995000Y-96860751D01*
X128000491Y-96804999D01*
X127978577Y-96582501D01*
X127913676Y-96368553D01*
X127874694Y-96295623D01*
X127808284Y-96171377D01*
X127666449Y-95998551D01*
X127623140Y-95963008D01*
X127324132Y-95664000D01*
X136499928Y-95664000D01*
X136512188Y-95788482D01*
X136548498Y-95908180D01*
X136607463Y-96018494D01*
X136686815Y-96115185D01*
X136783506Y-96194537D01*
X136893820Y-96253502D01*
X137013518Y-96289812D01*
X137138000Y-96302072D01*
X137852250Y-96299000D01*
X138011000Y-96140250D01*
X138011000Y-95041000D01*
X138265000Y-95041000D01*
X138265000Y-96140250D01*
X138423750Y-96299000D01*
X139138000Y-96302072D01*
X139262482Y-96289812D01*
X139382180Y-96253502D01*
X139492494Y-96194537D01*
X139589185Y-96115185D01*
X139668537Y-96018494D01*
X139727502Y-95908180D01*
X139763812Y-95788482D01*
X139776072Y-95664000D01*
X139773000Y-95199750D01*
X139614250Y-95041000D01*
X138265000Y-95041000D01*
X138011000Y-95041000D01*
X136661750Y-95041000D01*
X136503000Y-95199750D01*
X136499928Y-95664000D01*
X127324132Y-95664000D01*
X126852000Y-95191869D01*
X126852000Y-94601000D01*
X128286928Y-94601000D01*
X128299188Y-94725482D01*
X128335498Y-94845180D01*
X128394463Y-94955494D01*
X128473815Y-95052185D01*
X128570506Y-95131537D01*
X128680820Y-95190502D01*
X128800518Y-95226812D01*
X128925000Y-95239072D01*
X129114250Y-95236000D01*
X129273000Y-95077250D01*
X129273000Y-94290500D01*
X128448750Y-94290500D01*
X128290000Y-94449250D01*
X128286928Y-94601000D01*
X126852000Y-94601000D01*
X126852000Y-93701935D01*
X126880592Y-93710608D01*
X127015327Y-93723879D01*
X127044002Y-93732577D01*
X127266500Y-93754491D01*
X127488998Y-93732577D01*
X127517673Y-93723879D01*
X127521516Y-93723500D01*
X128287174Y-93723500D01*
X128286928Y-93726000D01*
X128290000Y-93877750D01*
X128448750Y-94036500D01*
X129273000Y-94036500D01*
X129273000Y-94016500D01*
X129527000Y-94016500D01*
X129527000Y-94036500D01*
X129547000Y-94036500D01*
X129547000Y-94290500D01*
X129527000Y-94290500D01*
X129527000Y-95077250D01*
X129685750Y-95236000D01*
X129875000Y-95239072D01*
X129999482Y-95226812D01*
X130119180Y-95190502D01*
X130229494Y-95131537D01*
X130326185Y-95052185D01*
X130393250Y-94970466D01*
X130483506Y-95044537D01*
X130593820Y-95103502D01*
X130713518Y-95139812D01*
X130838000Y-95152072D01*
X132838000Y-95152072D01*
X132962482Y-95139812D01*
X133082180Y-95103502D01*
X133192494Y-95044537D01*
X133289185Y-94965185D01*
X133368537Y-94868494D01*
X133427502Y-94758180D01*
X133463812Y-94638482D01*
X133476072Y-94514000D01*
X133476072Y-94249000D01*
X136500490Y-94249000D01*
X136503000Y-94628250D01*
X136661750Y-94787000D01*
X138011000Y-94787000D01*
X138011000Y-94767000D01*
X138265000Y-94767000D01*
X138265000Y-94787000D01*
X139614250Y-94787000D01*
X139773000Y-94628250D01*
X139776072Y-94164000D01*
X139763812Y-94039518D01*
X139727502Y-93919820D01*
X139668537Y-93809506D01*
X139631191Y-93764000D01*
X139668537Y-93718494D01*
X139727502Y-93608180D01*
X139763812Y-93488482D01*
X139776072Y-93364000D01*
X139776072Y-92988341D01*
X139856820Y-93031502D01*
X139976518Y-93067812D01*
X140101000Y-93080072D01*
X140290250Y-93077000D01*
X140449000Y-92918250D01*
X140449000Y-92131500D01*
X140429000Y-92131500D01*
X140429000Y-91877500D01*
X140449000Y-91877500D01*
X140449000Y-91857500D01*
X140703000Y-91857500D01*
X140703000Y-91877500D01*
G36*
X107018748Y-95285858D02*
G01*
X107004605Y-95300000D01*
X107018748Y-95314143D01*
X106905890Y-95427000D01*
X106744110Y-95427000D01*
X106631253Y-95314143D01*
X106645395Y-95300000D01*
X106631253Y-95285858D01*
X106744110Y-95173000D01*
X106905890Y-95173000D01*
X107018748Y-95285858D01*
X107018748Y-95285858D01*
G37*
X107018748Y-95285858D02*
X107004605Y-95300000D01*
X107018748Y-95314143D01*
X106905890Y-95427000D01*
X106744110Y-95427000D01*
X106631253Y-95314143D01*
X106645395Y-95300000D01*
X106631253Y-95285858D01*
X106744110Y-95173000D01*
X106905890Y-95173000D01*
X107018748Y-95285858D01*
G36*
X107018748Y-92745858D02*
G01*
X107004605Y-92760000D01*
X107018748Y-92774143D01*
X106905890Y-92887000D01*
X106744110Y-92887000D01*
X106631253Y-92774143D01*
X106645395Y-92760000D01*
X106631253Y-92745858D01*
X106744110Y-92633000D01*
X106905890Y-92633000D01*
X107018748Y-92745858D01*
X107018748Y-92745858D01*
G37*
X107018748Y-92745858D02*
X107004605Y-92760000D01*
X107018748Y-92774143D01*
X106905890Y-92887000D01*
X106744110Y-92887000D01*
X106631253Y-92774143D01*
X106645395Y-92760000D01*
X106631253Y-92745858D01*
X106744110Y-92633000D01*
X106905890Y-92633000D01*
X107018748Y-92745858D01*
G36*
X107018748Y-90205858D02*
G01*
X107004605Y-90220000D01*
X107018748Y-90234143D01*
X106905890Y-90347000D01*
X106744110Y-90347000D01*
X106631253Y-90234143D01*
X106645395Y-90220000D01*
X106631253Y-90205858D01*
X106744110Y-90093000D01*
X106905890Y-90093000D01*
X107018748Y-90205858D01*
X107018748Y-90205858D01*
G37*
X107018748Y-90205858D02*
X107004605Y-90220000D01*
X107018748Y-90234143D01*
X106905890Y-90347000D01*
X106744110Y-90347000D01*
X106631253Y-90234143D01*
X106645395Y-90220000D01*
X106631253Y-90205858D01*
X106744110Y-90093000D01*
X106905890Y-90093000D01*
X107018748Y-90205858D01*
M02*
