G04 #@! TF.GenerationSoftware,KiCad,Pcbnew,(5.1.4)-1*
G04 #@! TF.CreationDate,2020-04-17T11:16:30+09:00*
G04 #@! TF.ProjectId,M5_Atom2Mbus,4d355f41-746f-46d3-924d-6275732e6b69,v0.1*
G04 #@! TF.SameCoordinates,Original*
G04 #@! TF.FileFunction,Legend,Top*
G04 #@! TF.FilePolarity,Positive*
%FSLAX46Y46*%
G04 Gerber Fmt 4.6, Leading zero omitted, Abs format (unit mm)*
G04 Created by KiCad (PCBNEW (5.1.4)-1) date 2020-04-17 11:16:30*
%MOMM*%
%LPD*%
G04 APERTURE LIST*
%ADD10C,0.200000*%
%ADD11C,0.150000*%
%ADD12C,0.100000*%
%ADD13C,0.120000*%
%ADD14C,0.203200*%
%ADD15C,0.144780*%
%ADD16C,0.127000*%
%ADD17R,2.000200X1.568400*%
%ADD18C,1.200000*%
%ADD19C,1.400000*%
%ADD20R,3.550000X1.400000*%
%ADD21C,2.100000*%
%ADD22C,1.275000*%
%ADD23R,2.100000X2.100000*%
%ADD24O,2.100000X2.100000*%
%ADD25R,1.750000X1.750000*%
%ADD26C,1.750000*%
%ADD27R,1.300000X1.200000*%
%ADD28C,3.600000*%
%ADD29C,2.600000*%
%ADD30R,2.200000X2.900000*%
%ADD31R,2.400000X4.200000*%
%ADD32R,2.400000X1.900000*%
G04 APERTURE END LIST*
D10*
X105468380Y-119053714D02*
X104468380Y-119053714D01*
X104468380Y-118672761D01*
X104516000Y-118577523D01*
X104563619Y-118529904D01*
X104658857Y-118482285D01*
X104801714Y-118482285D01*
X104896952Y-118529904D01*
X104944571Y-118577523D01*
X104992190Y-118672761D01*
X104992190Y-119053714D01*
X104468380Y-118053714D02*
X105277904Y-118053714D01*
X105373142Y-118006095D01*
X105420761Y-117958476D01*
X105468380Y-117863238D01*
X105468380Y-117672761D01*
X105420761Y-117577523D01*
X105373142Y-117529904D01*
X105277904Y-117482285D01*
X104468380Y-117482285D01*
X105468380Y-115918476D02*
X105468380Y-116489904D01*
X105468380Y-116204190D02*
X104468380Y-116204190D01*
X104611238Y-116299428D01*
X104706476Y-116394666D01*
X104754095Y-116489904D01*
X105468380Y-115442285D02*
X105468380Y-115251809D01*
X105420761Y-115156571D01*
X105373142Y-115108952D01*
X105230285Y-115013714D01*
X105039809Y-114966095D01*
X104658857Y-114966095D01*
X104563619Y-115013714D01*
X104516000Y-115061333D01*
X104468380Y-115156571D01*
X104468380Y-115347047D01*
X104516000Y-115442285D01*
X104563619Y-115489904D01*
X104658857Y-115537523D01*
X104896952Y-115537523D01*
X104992190Y-115489904D01*
X105039809Y-115442285D01*
X105087428Y-115347047D01*
X105087428Y-115156571D01*
X105039809Y-115061333D01*
X104992190Y-115013714D01*
X104896952Y-114966095D01*
D11*
X104654095Y-113797523D02*
X104616000Y-113759428D01*
X104577904Y-113683238D01*
X104577904Y-113492761D01*
X104616000Y-113416571D01*
X104654095Y-113378476D01*
X104730285Y-113340380D01*
X104806476Y-113340380D01*
X104920761Y-113378476D01*
X105377904Y-113835619D01*
X105377904Y-113340380D01*
X104577904Y-113073714D02*
X104577904Y-112578476D01*
X104882666Y-112845142D01*
X104882666Y-112730857D01*
X104920761Y-112654666D01*
X104958857Y-112616571D01*
X105035047Y-112578476D01*
X105225523Y-112578476D01*
X105301714Y-112616571D01*
X105339809Y-112654666D01*
X105377904Y-112730857D01*
X105377904Y-112959428D01*
X105339809Y-113035619D01*
X105301714Y-113073714D01*
D12*
X105125571Y-112262285D02*
X105097000Y-112233714D01*
X105068428Y-112176571D01*
X105068428Y-112033714D01*
X105097000Y-111976571D01*
X105125571Y-111948000D01*
X105182714Y-111919428D01*
X105239857Y-111919428D01*
X105325571Y-111948000D01*
X105668428Y-112290857D01*
X105668428Y-111919428D01*
X105068428Y-111376571D02*
X105068428Y-111662285D01*
X105354142Y-111690857D01*
X105325571Y-111662285D01*
X105297000Y-111605142D01*
X105297000Y-111462285D01*
X105325571Y-111405142D01*
X105354142Y-111376571D01*
X105411285Y-111348000D01*
X105554142Y-111348000D01*
X105611285Y-111376571D01*
X105639857Y-111405142D01*
X105668428Y-111462285D01*
X105668428Y-111605142D01*
X105639857Y-111662285D01*
X105611285Y-111690857D01*
X105039857Y-110662285D02*
X105811285Y-111176571D01*
X105639857Y-110490857D02*
X105668428Y-110405142D01*
X105668428Y-110262285D01*
X105639857Y-110205142D01*
X105611285Y-110176571D01*
X105554142Y-110148000D01*
X105497000Y-110148000D01*
X105439857Y-110176571D01*
X105411285Y-110205142D01*
X105382714Y-110262285D01*
X105354142Y-110376571D01*
X105325571Y-110433714D01*
X105297000Y-110462285D01*
X105239857Y-110490857D01*
X105182714Y-110490857D01*
X105125571Y-110462285D01*
X105097000Y-110433714D01*
X105068428Y-110376571D01*
X105068428Y-110233714D01*
X105097000Y-110148000D01*
X105668428Y-109890857D02*
X105068428Y-109890857D01*
X105068428Y-109748000D01*
X105097000Y-109662285D01*
X105154142Y-109605142D01*
X105211285Y-109576571D01*
X105325571Y-109548000D01*
X105411285Y-109548000D01*
X105525571Y-109576571D01*
X105582714Y-109605142D01*
X105639857Y-109662285D01*
X105668428Y-109748000D01*
X105668428Y-109890857D01*
X105497000Y-109319428D02*
X105497000Y-109033714D01*
X105668428Y-109376571D02*
X105068428Y-109176571D01*
X105668428Y-108976571D01*
X104306428Y-109906428D02*
X104306428Y-109535000D01*
X104535000Y-109735000D01*
X104535000Y-109649285D01*
X104563571Y-109592142D01*
X104592142Y-109563571D01*
X104649285Y-109535000D01*
X104792142Y-109535000D01*
X104849285Y-109563571D01*
X104877857Y-109592142D01*
X104906428Y-109649285D01*
X104906428Y-109820714D01*
X104877857Y-109877857D01*
X104849285Y-109906428D01*
X104306428Y-109335000D02*
X104306428Y-108963571D01*
X104535000Y-109163571D01*
X104535000Y-109077857D01*
X104563571Y-109020714D01*
X104592142Y-108992142D01*
X104649285Y-108963571D01*
X104792142Y-108963571D01*
X104849285Y-108992142D01*
X104877857Y-109020714D01*
X104906428Y-109077857D01*
X104906428Y-109249285D01*
X104877857Y-109306428D01*
X104849285Y-109335000D01*
X104277857Y-108277857D02*
X105049285Y-108792142D01*
X104906428Y-107735000D02*
X104620714Y-107935000D01*
X104906428Y-108077857D02*
X104306428Y-108077857D01*
X104306428Y-107849285D01*
X104335000Y-107792142D01*
X104363571Y-107763571D01*
X104420714Y-107735000D01*
X104506428Y-107735000D01*
X104563571Y-107763571D01*
X104592142Y-107792142D01*
X104620714Y-107849285D01*
X104620714Y-108077857D01*
X104306428Y-107535000D02*
X104906428Y-107135000D01*
X104306428Y-107135000D02*
X104906428Y-107535000D01*
X104363571Y-106935000D02*
X104335000Y-106906428D01*
X104306428Y-106849285D01*
X104306428Y-106706428D01*
X104335000Y-106649285D01*
X104363571Y-106620714D01*
X104420714Y-106592142D01*
X104477857Y-106592142D01*
X104563571Y-106620714D01*
X104906428Y-106963571D01*
X104906428Y-106592142D01*
D11*
X105377904Y-106196571D02*
X104577904Y-106196571D01*
X105377904Y-105739428D01*
X104577904Y-105739428D01*
X105301714Y-104901333D02*
X105339809Y-104939428D01*
X105377904Y-105053714D01*
X105377904Y-105129904D01*
X105339809Y-105244190D01*
X105263619Y-105320380D01*
X105187428Y-105358476D01*
X105035047Y-105396571D01*
X104920761Y-105396571D01*
X104768380Y-105358476D01*
X104692190Y-105320380D01*
X104616000Y-105244190D01*
X104577904Y-105129904D01*
X104577904Y-105053714D01*
X104616000Y-104939428D01*
X104654095Y-104901333D01*
D12*
X105125571Y-104685142D02*
X105097000Y-104656571D01*
X105068428Y-104599428D01*
X105068428Y-104456571D01*
X105097000Y-104399428D01*
X105125571Y-104370857D01*
X105182714Y-104342285D01*
X105239857Y-104342285D01*
X105325571Y-104370857D01*
X105668428Y-104713714D01*
X105668428Y-104342285D01*
X105125571Y-104113714D02*
X105097000Y-104085142D01*
X105068428Y-104028000D01*
X105068428Y-103885142D01*
X105097000Y-103828000D01*
X105125571Y-103799428D01*
X105182714Y-103770857D01*
X105239857Y-103770857D01*
X105325571Y-103799428D01*
X105668428Y-104142285D01*
X105668428Y-103770857D01*
X105039857Y-103085142D02*
X105811285Y-103599428D01*
X105639857Y-102913714D02*
X105668428Y-102828000D01*
X105668428Y-102685142D01*
X105639857Y-102628000D01*
X105611285Y-102599428D01*
X105554142Y-102570857D01*
X105497000Y-102570857D01*
X105439857Y-102599428D01*
X105411285Y-102628000D01*
X105382714Y-102685142D01*
X105354142Y-102799428D01*
X105325571Y-102856571D01*
X105297000Y-102885142D01*
X105239857Y-102913714D01*
X105182714Y-102913714D01*
X105125571Y-102885142D01*
X105097000Y-102856571D01*
X105068428Y-102799428D01*
X105068428Y-102656571D01*
X105097000Y-102570857D01*
X105611285Y-101970857D02*
X105639857Y-101999428D01*
X105668428Y-102085142D01*
X105668428Y-102142285D01*
X105639857Y-102228000D01*
X105582714Y-102285142D01*
X105525571Y-102313714D01*
X105411285Y-102342285D01*
X105325571Y-102342285D01*
X105211285Y-102313714D01*
X105154142Y-102285142D01*
X105097000Y-102228000D01*
X105068428Y-102142285D01*
X105068428Y-102085142D01*
X105097000Y-101999428D01*
X105125571Y-101970857D01*
X105668428Y-101713714D02*
X105068428Y-101713714D01*
X105668428Y-101370857D02*
X105325571Y-101628000D01*
X105068428Y-101370857D02*
X105411285Y-101713714D01*
X104906428Y-102002285D02*
X104906428Y-102345142D01*
X104906428Y-102173714D02*
X104306428Y-102173714D01*
X104392142Y-102230857D01*
X104449285Y-102288000D01*
X104477857Y-102345142D01*
X104906428Y-101716571D02*
X104906428Y-101602285D01*
X104877857Y-101545142D01*
X104849285Y-101516571D01*
X104763571Y-101459428D01*
X104649285Y-101430857D01*
X104420714Y-101430857D01*
X104363571Y-101459428D01*
X104335000Y-101488000D01*
X104306428Y-101545142D01*
X104306428Y-101659428D01*
X104335000Y-101716571D01*
X104363571Y-101745142D01*
X104420714Y-101773714D01*
X104563571Y-101773714D01*
X104620714Y-101745142D01*
X104649285Y-101716571D01*
X104677857Y-101659428D01*
X104677857Y-101545142D01*
X104649285Y-101488000D01*
X104620714Y-101459428D01*
X104563571Y-101430857D01*
X104277857Y-100745142D02*
X105049285Y-101259428D01*
X104906428Y-100545142D02*
X104306428Y-100545142D01*
X104735000Y-100345142D01*
X104306428Y-100145142D01*
X104906428Y-100145142D01*
X104906428Y-99859428D02*
X104306428Y-99859428D01*
X104877857Y-99602285D02*
X104906428Y-99516571D01*
X104906428Y-99373714D01*
X104877857Y-99316571D01*
X104849285Y-99288000D01*
X104792142Y-99259428D01*
X104735000Y-99259428D01*
X104677857Y-99288000D01*
X104649285Y-99316571D01*
X104620714Y-99373714D01*
X104592142Y-99488000D01*
X104563571Y-99545142D01*
X104535000Y-99573714D01*
X104477857Y-99602285D01*
X104420714Y-99602285D01*
X104363571Y-99573714D01*
X104335000Y-99545142D01*
X104306428Y-99488000D01*
X104306428Y-99345142D01*
X104335000Y-99259428D01*
X104306428Y-98888000D02*
X104306428Y-98773714D01*
X104335000Y-98716571D01*
X104392142Y-98659428D01*
X104506428Y-98630857D01*
X104706428Y-98630857D01*
X104820714Y-98659428D01*
X104877857Y-98716571D01*
X104906428Y-98773714D01*
X104906428Y-98888000D01*
X104877857Y-98945142D01*
X104820714Y-99002285D01*
X104706428Y-99030857D01*
X104506428Y-99030857D01*
X104392142Y-99002285D01*
X104335000Y-98945142D01*
X104306428Y-98888000D01*
X105125571Y-99551142D02*
X105097000Y-99522571D01*
X105068428Y-99465428D01*
X105068428Y-99322571D01*
X105097000Y-99265428D01*
X105125571Y-99236857D01*
X105182714Y-99208285D01*
X105239857Y-99208285D01*
X105325571Y-99236857D01*
X105668428Y-99579714D01*
X105668428Y-99208285D01*
X105068428Y-99008285D02*
X105068428Y-98636857D01*
X105297000Y-98836857D01*
X105297000Y-98751142D01*
X105325571Y-98694000D01*
X105354142Y-98665428D01*
X105411285Y-98636857D01*
X105554142Y-98636857D01*
X105611285Y-98665428D01*
X105639857Y-98694000D01*
X105668428Y-98751142D01*
X105668428Y-98922571D01*
X105639857Y-98979714D01*
X105611285Y-99008285D01*
X105039857Y-97951142D02*
X105811285Y-98465428D01*
X105668428Y-97751142D02*
X105068428Y-97751142D01*
X105497000Y-97551142D01*
X105068428Y-97351142D01*
X105668428Y-97351142D01*
X105068428Y-96951142D02*
X105068428Y-96836857D01*
X105097000Y-96779714D01*
X105154142Y-96722571D01*
X105268428Y-96694000D01*
X105468428Y-96694000D01*
X105582714Y-96722571D01*
X105639857Y-96779714D01*
X105668428Y-96836857D01*
X105668428Y-96951142D01*
X105639857Y-97008285D01*
X105582714Y-97065428D01*
X105468428Y-97094000D01*
X105268428Y-97094000D01*
X105154142Y-97065428D01*
X105097000Y-97008285D01*
X105068428Y-96951142D01*
X105639857Y-96465428D02*
X105668428Y-96379714D01*
X105668428Y-96236857D01*
X105639857Y-96179714D01*
X105611285Y-96151142D01*
X105554142Y-96122571D01*
X105497000Y-96122571D01*
X105439857Y-96151142D01*
X105411285Y-96179714D01*
X105382714Y-96236857D01*
X105354142Y-96351142D01*
X105325571Y-96408285D01*
X105297000Y-96436857D01*
X105239857Y-96465428D01*
X105182714Y-96465428D01*
X105125571Y-96436857D01*
X105097000Y-96408285D01*
X105068428Y-96351142D01*
X105068428Y-96208285D01*
X105097000Y-96122571D01*
X105668428Y-95865428D02*
X105068428Y-95865428D01*
D11*
X115156904Y-90829571D02*
X114356904Y-90829571D01*
X115156904Y-90372428D01*
X114356904Y-90372428D01*
X115080714Y-89534333D02*
X115118809Y-89572428D01*
X115156904Y-89686714D01*
X115156904Y-89762904D01*
X115118809Y-89877190D01*
X115042619Y-89953380D01*
X114966428Y-89991476D01*
X114814047Y-90029571D01*
X114699761Y-90029571D01*
X114547380Y-89991476D01*
X114471190Y-89953380D01*
X114395000Y-89877190D01*
X114356904Y-89762904D01*
X114356904Y-89686714D01*
X114395000Y-89572428D01*
X114433095Y-89534333D01*
X115156904Y-93369571D02*
X114356904Y-93369571D01*
X115156904Y-92912428D01*
X114356904Y-92912428D01*
X115080714Y-92074333D02*
X115118809Y-92112428D01*
X115156904Y-92226714D01*
X115156904Y-92302904D01*
X115118809Y-92417190D01*
X115042619Y-92493380D01*
X114966428Y-92531476D01*
X114814047Y-92569571D01*
X114699761Y-92569571D01*
X114547380Y-92531476D01*
X114471190Y-92493380D01*
X114395000Y-92417190D01*
X114356904Y-92302904D01*
X114356904Y-92226714D01*
X114395000Y-92112428D01*
X114433095Y-92074333D01*
X115156904Y-98449571D02*
X114356904Y-98449571D01*
X115156904Y-97992428D01*
X114356904Y-97992428D01*
X115080714Y-97154333D02*
X115118809Y-97192428D01*
X115156904Y-97306714D01*
X115156904Y-97382904D01*
X115118809Y-97497190D01*
X115042619Y-97573380D01*
X114966428Y-97611476D01*
X114814047Y-97649571D01*
X114699761Y-97649571D01*
X114547380Y-97611476D01*
X114471190Y-97573380D01*
X114395000Y-97497190D01*
X114356904Y-97382904D01*
X114356904Y-97306714D01*
X114395000Y-97192428D01*
X114433095Y-97154333D01*
X114433095Y-100843523D02*
X114395000Y-100805428D01*
X114356904Y-100729238D01*
X114356904Y-100538761D01*
X114395000Y-100462571D01*
X114433095Y-100424476D01*
X114509285Y-100386380D01*
X114585476Y-100386380D01*
X114699761Y-100424476D01*
X115156904Y-100881619D01*
X115156904Y-100386380D01*
X114356904Y-99700666D02*
X114356904Y-99853047D01*
X114395000Y-99929238D01*
X114433095Y-99967333D01*
X114547380Y-100043523D01*
X114699761Y-100081619D01*
X115004523Y-100081619D01*
X115080714Y-100043523D01*
X115118809Y-100005428D01*
X115156904Y-99929238D01*
X115156904Y-99776857D01*
X115118809Y-99700666D01*
X115080714Y-99662571D01*
X115004523Y-99624476D01*
X114814047Y-99624476D01*
X114737857Y-99662571D01*
X114699761Y-99700666D01*
X114661666Y-99776857D01*
X114661666Y-99929238D01*
X114699761Y-100005428D01*
X114737857Y-100043523D01*
X114814047Y-100081619D01*
X115156904Y-106069571D02*
X114356904Y-106069571D01*
X115156904Y-105612428D01*
X114356904Y-105612428D01*
X115080714Y-104774333D02*
X115118809Y-104812428D01*
X115156904Y-104926714D01*
X115156904Y-105002904D01*
X115118809Y-105117190D01*
X115042619Y-105193380D01*
X114966428Y-105231476D01*
X114814047Y-105269571D01*
X114699761Y-105269571D01*
X114547380Y-105231476D01*
X114471190Y-105193380D01*
X114395000Y-105117190D01*
X114356904Y-105002904D01*
X114356904Y-104926714D01*
X114395000Y-104812428D01*
X114433095Y-104774333D01*
D12*
X115539571Y-109552428D02*
X115511000Y-109523857D01*
X115482428Y-109466714D01*
X115482428Y-109323857D01*
X115511000Y-109266714D01*
X115539571Y-109238142D01*
X115596714Y-109209571D01*
X115653857Y-109209571D01*
X115739571Y-109238142D01*
X116082428Y-109581000D01*
X116082428Y-109209571D01*
X115539571Y-108981000D02*
X115511000Y-108952428D01*
X115482428Y-108895285D01*
X115482428Y-108752428D01*
X115511000Y-108695285D01*
X115539571Y-108666714D01*
X115596714Y-108638142D01*
X115653857Y-108638142D01*
X115739571Y-108666714D01*
X116082428Y-109009571D01*
X116082428Y-108638142D01*
X115453857Y-107952428D02*
X116225285Y-108466714D01*
X115482428Y-107838142D02*
X115482428Y-107495285D01*
X116082428Y-107666714D02*
X115482428Y-107666714D01*
X115482428Y-107352428D02*
X116082428Y-106952428D01*
X115482428Y-106952428D02*
X116082428Y-107352428D01*
X115539571Y-106752428D02*
X115511000Y-106723857D01*
X115482428Y-106666714D01*
X115482428Y-106523857D01*
X115511000Y-106466714D01*
X115539571Y-106438142D01*
X115596714Y-106409571D01*
X115653857Y-106409571D01*
X115739571Y-106438142D01*
X116082428Y-106781000D01*
X116082428Y-106409571D01*
X114650571Y-112248000D02*
X114622000Y-112219428D01*
X114593428Y-112162285D01*
X114593428Y-112019428D01*
X114622000Y-111962285D01*
X114650571Y-111933714D01*
X114707714Y-111905142D01*
X114764857Y-111905142D01*
X114850571Y-111933714D01*
X115193428Y-112276571D01*
X115193428Y-111905142D01*
X115193428Y-111333714D02*
X115193428Y-111676571D01*
X115193428Y-111505142D02*
X114593428Y-111505142D01*
X114679142Y-111562285D01*
X114736285Y-111619428D01*
X114764857Y-111676571D01*
X114564857Y-110648000D02*
X115336285Y-111162285D01*
X115164857Y-110476571D02*
X115193428Y-110390857D01*
X115193428Y-110248000D01*
X115164857Y-110190857D01*
X115136285Y-110162285D01*
X115079142Y-110133714D01*
X115022000Y-110133714D01*
X114964857Y-110162285D01*
X114936285Y-110190857D01*
X114907714Y-110248000D01*
X114879142Y-110362285D01*
X114850571Y-110419428D01*
X114822000Y-110448000D01*
X114764857Y-110476571D01*
X114707714Y-110476571D01*
X114650571Y-110448000D01*
X114622000Y-110419428D01*
X114593428Y-110362285D01*
X114593428Y-110219428D01*
X114622000Y-110133714D01*
X115136285Y-109533714D02*
X115164857Y-109562285D01*
X115193428Y-109648000D01*
X115193428Y-109705142D01*
X115164857Y-109790857D01*
X115107714Y-109848000D01*
X115050571Y-109876571D01*
X114936285Y-109905142D01*
X114850571Y-109905142D01*
X114736285Y-109876571D01*
X114679142Y-109848000D01*
X114622000Y-109790857D01*
X114593428Y-109705142D01*
X114593428Y-109648000D01*
X114622000Y-109562285D01*
X114650571Y-109533714D01*
X115193428Y-108990857D02*
X115193428Y-109276571D01*
X114593428Y-109276571D01*
X114466428Y-113546714D02*
X114466428Y-113175285D01*
X114695000Y-113375285D01*
X114695000Y-113289571D01*
X114723571Y-113232428D01*
X114752142Y-113203857D01*
X114809285Y-113175285D01*
X114952142Y-113175285D01*
X115009285Y-113203857D01*
X115037857Y-113232428D01*
X115066428Y-113289571D01*
X115066428Y-113461000D01*
X115037857Y-113518142D01*
X115009285Y-113546714D01*
X114523571Y-112946714D02*
X114495000Y-112918142D01*
X114466428Y-112861000D01*
X114466428Y-112718142D01*
X114495000Y-112661000D01*
X114523571Y-112632428D01*
X114580714Y-112603857D01*
X114637857Y-112603857D01*
X114723571Y-112632428D01*
X115066428Y-112975285D01*
X115066428Y-112603857D01*
D11*
X114433095Y-116083523D02*
X114395000Y-116045428D01*
X114356904Y-115969238D01*
X114356904Y-115778761D01*
X114395000Y-115702571D01*
X114433095Y-115664476D01*
X114509285Y-115626380D01*
X114585476Y-115626380D01*
X114699761Y-115664476D01*
X115156904Y-116121619D01*
X115156904Y-115626380D01*
X114433095Y-115321619D02*
X114395000Y-115283523D01*
X114356904Y-115207333D01*
X114356904Y-115016857D01*
X114395000Y-114940666D01*
X114433095Y-114902571D01*
X114509285Y-114864476D01*
X114585476Y-114864476D01*
X114699761Y-114902571D01*
X115156904Y-115359714D01*
X115156904Y-114864476D01*
X115156904Y-118896571D02*
X114356904Y-118896571D01*
X114356904Y-118591809D01*
X114395000Y-118515619D01*
X114433095Y-118477523D01*
X114509285Y-118439428D01*
X114623571Y-118439428D01*
X114699761Y-118477523D01*
X114737857Y-118515619D01*
X114775952Y-118591809D01*
X114775952Y-118896571D01*
X114356904Y-118096571D02*
X115004523Y-118096571D01*
X115080714Y-118058476D01*
X115118809Y-118020380D01*
X115156904Y-117944190D01*
X115156904Y-117791809D01*
X115118809Y-117715619D01*
X115080714Y-117677523D01*
X115004523Y-117639428D01*
X114356904Y-117639428D01*
X115156904Y-121436571D02*
X114356904Y-121436571D01*
X115156904Y-120979428D01*
X114356904Y-120979428D01*
X115080714Y-120141333D02*
X115118809Y-120179428D01*
X115156904Y-120293714D01*
X115156904Y-120369904D01*
X115118809Y-120484190D01*
X115042619Y-120560380D01*
X114966428Y-120598476D01*
X114814047Y-120636571D01*
X114699761Y-120636571D01*
X114547380Y-120598476D01*
X114471190Y-120560380D01*
X114395000Y-120484190D01*
X114356904Y-120369904D01*
X114356904Y-120293714D01*
X114395000Y-120179428D01*
X114433095Y-120141333D01*
X115156904Y-126389571D02*
X114356904Y-126389571D01*
X115156904Y-125932428D01*
X114356904Y-125932428D01*
X115080714Y-125094333D02*
X115118809Y-125132428D01*
X115156904Y-125246714D01*
X115156904Y-125322904D01*
X115118809Y-125437190D01*
X115042619Y-125513380D01*
X114966428Y-125551476D01*
X114814047Y-125589571D01*
X114699761Y-125589571D01*
X114547380Y-125551476D01*
X114471190Y-125513380D01*
X114395000Y-125437190D01*
X114356904Y-125322904D01*
X114356904Y-125246714D01*
X114395000Y-125132428D01*
X114433095Y-125094333D01*
X129217523Y-112180000D02*
X129122285Y-112132380D01*
X128979428Y-112132380D01*
X128836571Y-112180000D01*
X128741333Y-112275238D01*
X128693714Y-112370476D01*
X128646095Y-112560952D01*
X128646095Y-112703809D01*
X128693714Y-112894285D01*
X128741333Y-112989523D01*
X128836571Y-113084761D01*
X128979428Y-113132380D01*
X129074666Y-113132380D01*
X129217523Y-113084761D01*
X129265142Y-113037142D01*
X129265142Y-112703809D01*
X129074666Y-112703809D01*
X129598476Y-112132380D02*
X130217523Y-112132380D01*
X129884190Y-112513333D01*
X130027047Y-112513333D01*
X130122285Y-112560952D01*
X130169904Y-112608571D01*
X130217523Y-112703809D01*
X130217523Y-112941904D01*
X130169904Y-113037142D01*
X130122285Y-113084761D01*
X130027047Y-113132380D01*
X129741333Y-113132380D01*
X129646095Y-113084761D01*
X129598476Y-113037142D01*
X130550857Y-112132380D02*
X131169904Y-112132380D01*
X130836571Y-112513333D01*
X130979428Y-112513333D01*
X131074666Y-112560952D01*
X131122285Y-112608571D01*
X131169904Y-112703809D01*
X131169904Y-112941904D01*
X131122285Y-113037142D01*
X131074666Y-113084761D01*
X130979428Y-113132380D01*
X130693714Y-113132380D01*
X130598476Y-113084761D01*
X130550857Y-113037142D01*
X129217523Y-109640000D02*
X129122285Y-109592380D01*
X128979428Y-109592380D01*
X128836571Y-109640000D01*
X128741333Y-109735238D01*
X128693714Y-109830476D01*
X128646095Y-110020952D01*
X128646095Y-110163809D01*
X128693714Y-110354285D01*
X128741333Y-110449523D01*
X128836571Y-110544761D01*
X128979428Y-110592380D01*
X129074666Y-110592380D01*
X129217523Y-110544761D01*
X129265142Y-110497142D01*
X129265142Y-110163809D01*
X129074666Y-110163809D01*
X129646095Y-109687619D02*
X129693714Y-109640000D01*
X129788952Y-109592380D01*
X130027047Y-109592380D01*
X130122285Y-109640000D01*
X130169904Y-109687619D01*
X130217523Y-109782857D01*
X130217523Y-109878095D01*
X130169904Y-110020952D01*
X129598476Y-110592380D01*
X130217523Y-110592380D01*
X130550857Y-109592380D02*
X131169904Y-109592380D01*
X130836571Y-109973333D01*
X130979428Y-109973333D01*
X131074666Y-110020952D01*
X131122285Y-110068571D01*
X131169904Y-110163809D01*
X131169904Y-110401904D01*
X131122285Y-110497142D01*
X131074666Y-110544761D01*
X130979428Y-110592380D01*
X130693714Y-110592380D01*
X130598476Y-110544761D01*
X130550857Y-110497142D01*
X129217523Y-107100000D02*
X129122285Y-107052380D01*
X128979428Y-107052380D01*
X128836571Y-107100000D01*
X128741333Y-107195238D01*
X128693714Y-107290476D01*
X128646095Y-107480952D01*
X128646095Y-107623809D01*
X128693714Y-107814285D01*
X128741333Y-107909523D01*
X128836571Y-108004761D01*
X128979428Y-108052380D01*
X129074666Y-108052380D01*
X129217523Y-108004761D01*
X129265142Y-107957142D01*
X129265142Y-107623809D01*
X129074666Y-107623809D01*
X130217523Y-108052380D02*
X129646095Y-108052380D01*
X129931809Y-108052380D02*
X129931809Y-107052380D01*
X129836571Y-107195238D01*
X129741333Y-107290476D01*
X129646095Y-107338095D01*
X130693714Y-108052380D02*
X130884190Y-108052380D01*
X130979428Y-108004761D01*
X131027047Y-107957142D01*
X131122285Y-107814285D01*
X131169904Y-107623809D01*
X131169904Y-107242857D01*
X131122285Y-107147619D01*
X131074666Y-107100000D01*
X130979428Y-107052380D01*
X130788952Y-107052380D01*
X130693714Y-107100000D01*
X130646095Y-107147619D01*
X130598476Y-107242857D01*
X130598476Y-107480952D01*
X130646095Y-107576190D01*
X130693714Y-107623809D01*
X130788952Y-107671428D01*
X130979428Y-107671428D01*
X131074666Y-107623809D01*
X131122285Y-107576190D01*
X131169904Y-107480952D01*
X129217523Y-104560000D02*
X129122285Y-104512380D01*
X128979428Y-104512380D01*
X128836571Y-104560000D01*
X128741333Y-104655238D01*
X128693714Y-104750476D01*
X128646095Y-104940952D01*
X128646095Y-105083809D01*
X128693714Y-105274285D01*
X128741333Y-105369523D01*
X128836571Y-105464761D01*
X128979428Y-105512380D01*
X129074666Y-105512380D01*
X129217523Y-105464761D01*
X129265142Y-105417142D01*
X129265142Y-105083809D01*
X129074666Y-105083809D01*
X129646095Y-104607619D02*
X129693714Y-104560000D01*
X129788952Y-104512380D01*
X130027047Y-104512380D01*
X130122285Y-104560000D01*
X130169904Y-104607619D01*
X130217523Y-104702857D01*
X130217523Y-104798095D01*
X130169904Y-104940952D01*
X129598476Y-105512380D01*
X130217523Y-105512380D01*
X130598476Y-104607619D02*
X130646095Y-104560000D01*
X130741333Y-104512380D01*
X130979428Y-104512380D01*
X131074666Y-104560000D01*
X131122285Y-104607619D01*
X131169904Y-104702857D01*
X131169904Y-104798095D01*
X131122285Y-104940952D01*
X130550857Y-105512380D01*
X131169904Y-105512380D01*
X128400095Y-102591428D02*
X129162000Y-102591428D01*
X128781047Y-102972380D02*
X128781047Y-102210476D01*
X129542952Y-101972380D02*
X130162000Y-101972380D01*
X129828666Y-102353333D01*
X129971523Y-102353333D01*
X130066761Y-102400952D01*
X130114380Y-102448571D01*
X130162000Y-102543809D01*
X130162000Y-102781904D01*
X130114380Y-102877142D01*
X130066761Y-102924761D01*
X129971523Y-102972380D01*
X129685809Y-102972380D01*
X129590571Y-102924761D01*
X129542952Y-102877142D01*
X130447714Y-101972380D02*
X130781047Y-102972380D01*
X131114380Y-101972380D01*
X131352476Y-101972380D02*
X131971523Y-101972380D01*
X131638190Y-102353333D01*
X131781047Y-102353333D01*
X131876285Y-102400952D01*
X131923904Y-102448571D01*
X131971523Y-102543809D01*
X131971523Y-102781904D01*
X131923904Y-102877142D01*
X131876285Y-102924761D01*
X131781047Y-102972380D01*
X131495333Y-102972380D01*
X131400095Y-102924761D01*
X131352476Y-102877142D01*
X138544095Y-112180000D02*
X138448857Y-112132380D01*
X138306000Y-112132380D01*
X138163142Y-112180000D01*
X138067904Y-112275238D01*
X138020285Y-112370476D01*
X137972666Y-112560952D01*
X137972666Y-112703809D01*
X138020285Y-112894285D01*
X138067904Y-112989523D01*
X138163142Y-113084761D01*
X138306000Y-113132380D01*
X138401238Y-113132380D01*
X138544095Y-113084761D01*
X138591714Y-113037142D01*
X138591714Y-112703809D01*
X138401238Y-112703809D01*
X139020285Y-113132380D02*
X139020285Y-112132380D01*
X139591714Y-113132380D01*
X139591714Y-112132380D01*
X140067904Y-113132380D02*
X140067904Y-112132380D01*
X140306000Y-112132380D01*
X140448857Y-112180000D01*
X140544095Y-112275238D01*
X140591714Y-112370476D01*
X140639333Y-112560952D01*
X140639333Y-112703809D01*
X140591714Y-112894285D01*
X140544095Y-112989523D01*
X140448857Y-113084761D01*
X140306000Y-113132380D01*
X140067904Y-113132380D01*
X138020285Y-110211428D02*
X138782190Y-110211428D01*
X138401238Y-110592380D02*
X138401238Y-109830476D01*
X139734571Y-109592380D02*
X139258380Y-109592380D01*
X139210761Y-110068571D01*
X139258380Y-110020952D01*
X139353619Y-109973333D01*
X139591714Y-109973333D01*
X139686952Y-110020952D01*
X139734571Y-110068571D01*
X139782190Y-110163809D01*
X139782190Y-110401904D01*
X139734571Y-110497142D01*
X139686952Y-110544761D01*
X139591714Y-110592380D01*
X139353619Y-110592380D01*
X139258380Y-110544761D01*
X139210761Y-110497142D01*
X140067904Y-109592380D02*
X140401238Y-110592380D01*
X140734571Y-109592380D01*
X138615523Y-107100000D02*
X138520285Y-107052380D01*
X138377428Y-107052380D01*
X138234571Y-107100000D01*
X138139333Y-107195238D01*
X138091714Y-107290476D01*
X138044095Y-107480952D01*
X138044095Y-107623809D01*
X138091714Y-107814285D01*
X138139333Y-107909523D01*
X138234571Y-108004761D01*
X138377428Y-108052380D01*
X138472666Y-108052380D01*
X138615523Y-108004761D01*
X138663142Y-107957142D01*
X138663142Y-107623809D01*
X138472666Y-107623809D01*
X139044095Y-107147619D02*
X139091714Y-107100000D01*
X139186952Y-107052380D01*
X139425047Y-107052380D01*
X139520285Y-107100000D01*
X139567904Y-107147619D01*
X139615523Y-107242857D01*
X139615523Y-107338095D01*
X139567904Y-107480952D01*
X138996476Y-108052380D01*
X139615523Y-108052380D01*
X140520285Y-107052380D02*
X140044095Y-107052380D01*
X139996476Y-107528571D01*
X140044095Y-107480952D01*
X140139333Y-107433333D01*
X140377428Y-107433333D01*
X140472666Y-107480952D01*
X140520285Y-107528571D01*
X140567904Y-107623809D01*
X140567904Y-107861904D01*
X140520285Y-107957142D01*
X140472666Y-108004761D01*
X140377428Y-108052380D01*
X140139333Y-108052380D01*
X140044095Y-108004761D01*
X139996476Y-107957142D01*
X138615523Y-104560000D02*
X138520285Y-104512380D01*
X138377428Y-104512380D01*
X138234571Y-104560000D01*
X138139333Y-104655238D01*
X138091714Y-104750476D01*
X138044095Y-104940952D01*
X138044095Y-105083809D01*
X138091714Y-105274285D01*
X138139333Y-105369523D01*
X138234571Y-105464761D01*
X138377428Y-105512380D01*
X138472666Y-105512380D01*
X138615523Y-105464761D01*
X138663142Y-105417142D01*
X138663142Y-105083809D01*
X138472666Y-105083809D01*
X139044095Y-104607619D02*
X139091714Y-104560000D01*
X139186952Y-104512380D01*
X139425047Y-104512380D01*
X139520285Y-104560000D01*
X139567904Y-104607619D01*
X139615523Y-104702857D01*
X139615523Y-104798095D01*
X139567904Y-104940952D01*
X138996476Y-105512380D01*
X139615523Y-105512380D01*
X140567904Y-105512380D02*
X139996476Y-105512380D01*
X140282190Y-105512380D02*
X140282190Y-104512380D01*
X140186952Y-104655238D01*
X140091714Y-104750476D01*
X139996476Y-104798095D01*
X149029523Y-123610000D02*
X148934285Y-123562380D01*
X148791428Y-123562380D01*
X148648571Y-123610000D01*
X148553333Y-123705238D01*
X148505714Y-123800476D01*
X148458095Y-123990952D01*
X148458095Y-124133809D01*
X148505714Y-124324285D01*
X148553333Y-124419523D01*
X148648571Y-124514761D01*
X148791428Y-124562380D01*
X148886666Y-124562380D01*
X149029523Y-124514761D01*
X149077142Y-124467142D01*
X149077142Y-124133809D01*
X148886666Y-124133809D01*
X149410476Y-123562380D02*
X150029523Y-123562380D01*
X149696190Y-123943333D01*
X149839047Y-123943333D01*
X149934285Y-123990952D01*
X149981904Y-124038571D01*
X150029523Y-124133809D01*
X150029523Y-124371904D01*
X149981904Y-124467142D01*
X149934285Y-124514761D01*
X149839047Y-124562380D01*
X149553333Y-124562380D01*
X149458095Y-124514761D01*
X149410476Y-124467142D01*
X150410476Y-123657619D02*
X150458095Y-123610000D01*
X150553333Y-123562380D01*
X150791428Y-123562380D01*
X150886666Y-123610000D01*
X150934285Y-123657619D01*
X150981904Y-123752857D01*
X150981904Y-123848095D01*
X150934285Y-123990952D01*
X150362857Y-124562380D01*
X150981904Y-124562380D01*
X149029523Y-121578000D02*
X148934285Y-121530380D01*
X148791428Y-121530380D01*
X148648571Y-121578000D01*
X148553333Y-121673238D01*
X148505714Y-121768476D01*
X148458095Y-121958952D01*
X148458095Y-122101809D01*
X148505714Y-122292285D01*
X148553333Y-122387523D01*
X148648571Y-122482761D01*
X148791428Y-122530380D01*
X148886666Y-122530380D01*
X149029523Y-122482761D01*
X149077142Y-122435142D01*
X149077142Y-122101809D01*
X148886666Y-122101809D01*
X149458095Y-121625619D02*
X149505714Y-121578000D01*
X149600952Y-121530380D01*
X149839047Y-121530380D01*
X149934285Y-121578000D01*
X149981904Y-121625619D01*
X150029523Y-121720857D01*
X150029523Y-121816095D01*
X149981904Y-121958952D01*
X149410476Y-122530380D01*
X150029523Y-122530380D01*
X150886666Y-121530380D02*
X150696190Y-121530380D01*
X150600952Y-121578000D01*
X150553333Y-121625619D01*
X150458095Y-121768476D01*
X150410476Y-121958952D01*
X150410476Y-122339904D01*
X150458095Y-122435142D01*
X150505714Y-122482761D01*
X150600952Y-122530380D01*
X150791428Y-122530380D01*
X150886666Y-122482761D01*
X150934285Y-122435142D01*
X150981904Y-122339904D01*
X150981904Y-122101809D01*
X150934285Y-122006571D01*
X150886666Y-121958952D01*
X150791428Y-121911333D01*
X150600952Y-121911333D01*
X150505714Y-121958952D01*
X150458095Y-122006571D01*
X150410476Y-122101809D01*
X148434285Y-120117428D02*
X149196190Y-120117428D01*
X148815238Y-120498380D02*
X148815238Y-119736476D01*
X150148571Y-119498380D02*
X149672380Y-119498380D01*
X149624761Y-119974571D01*
X149672380Y-119926952D01*
X149767619Y-119879333D01*
X150005714Y-119879333D01*
X150100952Y-119926952D01*
X150148571Y-119974571D01*
X150196190Y-120069809D01*
X150196190Y-120307904D01*
X150148571Y-120403142D01*
X150100952Y-120450761D01*
X150005714Y-120498380D01*
X149767619Y-120498380D01*
X149672380Y-120450761D01*
X149624761Y-120403142D01*
X150481904Y-119498380D02*
X150815238Y-120498380D01*
X151148571Y-119498380D01*
X148958095Y-117514000D02*
X148862857Y-117466380D01*
X148720000Y-117466380D01*
X148577142Y-117514000D01*
X148481904Y-117609238D01*
X148434285Y-117704476D01*
X148386666Y-117894952D01*
X148386666Y-118037809D01*
X148434285Y-118228285D01*
X148481904Y-118323523D01*
X148577142Y-118418761D01*
X148720000Y-118466380D01*
X148815238Y-118466380D01*
X148958095Y-118418761D01*
X149005714Y-118371142D01*
X149005714Y-118037809D01*
X148815238Y-118037809D01*
X149434285Y-118466380D02*
X149434285Y-117466380D01*
X150005714Y-118466380D01*
X150005714Y-117466380D01*
X150481904Y-118466380D02*
X150481904Y-117466380D01*
X150720000Y-117466380D01*
X150862857Y-117514000D01*
X150958095Y-117609238D01*
X151005714Y-117704476D01*
X151053333Y-117894952D01*
X151053333Y-118037809D01*
X151005714Y-118228285D01*
X150958095Y-118323523D01*
X150862857Y-118418761D01*
X150720000Y-118466380D01*
X150481904Y-118466380D01*
X149704285Y-109957428D02*
X150466190Y-109957428D01*
X150085238Y-110338380D02*
X150085238Y-109576476D01*
X151418571Y-109338380D02*
X150942380Y-109338380D01*
X150894761Y-109814571D01*
X150942380Y-109766952D01*
X151037619Y-109719333D01*
X151275714Y-109719333D01*
X151370952Y-109766952D01*
X151418571Y-109814571D01*
X151466190Y-109909809D01*
X151466190Y-110147904D01*
X151418571Y-110243142D01*
X151370952Y-110290761D01*
X151275714Y-110338380D01*
X151037619Y-110338380D01*
X150942380Y-110290761D01*
X150894761Y-110243142D01*
X151751904Y-109338380D02*
X152085238Y-110338380D01*
X152418571Y-109338380D01*
X150228095Y-112180000D02*
X150132857Y-112132380D01*
X149990000Y-112132380D01*
X149847142Y-112180000D01*
X149751904Y-112275238D01*
X149704285Y-112370476D01*
X149656666Y-112560952D01*
X149656666Y-112703809D01*
X149704285Y-112894285D01*
X149751904Y-112989523D01*
X149847142Y-113084761D01*
X149990000Y-113132380D01*
X150085238Y-113132380D01*
X150228095Y-113084761D01*
X150275714Y-113037142D01*
X150275714Y-112703809D01*
X150085238Y-112703809D01*
X150704285Y-113132380D02*
X150704285Y-112132380D01*
X151275714Y-113132380D01*
X151275714Y-112132380D01*
X151751904Y-113132380D02*
X151751904Y-112132380D01*
X151990000Y-112132380D01*
X152132857Y-112180000D01*
X152228095Y-112275238D01*
X152275714Y-112370476D01*
X152323333Y-112560952D01*
X152323333Y-112703809D01*
X152275714Y-112894285D01*
X152228095Y-112989523D01*
X152132857Y-113084761D01*
X151990000Y-113132380D01*
X151751904Y-113132380D01*
D13*
X105992000Y-127982666D02*
X105992000Y-127282666D01*
X106225333Y-127782666D01*
X106458666Y-127282666D01*
X106458666Y-127982666D01*
X106792000Y-127716000D02*
X107325333Y-127716000D01*
X107892000Y-127616000D02*
X107992000Y-127649333D01*
X108025333Y-127682666D01*
X108058666Y-127749333D01*
X108058666Y-127849333D01*
X108025333Y-127916000D01*
X107992000Y-127949333D01*
X107925333Y-127982666D01*
X107658666Y-127982666D01*
X107658666Y-127282666D01*
X107892000Y-127282666D01*
X107958666Y-127316000D01*
X107992000Y-127349333D01*
X108025333Y-127416000D01*
X108025333Y-127482666D01*
X107992000Y-127549333D01*
X107958666Y-127582666D01*
X107892000Y-127616000D01*
X107658666Y-127616000D01*
X108358666Y-127282666D02*
X108358666Y-127849333D01*
X108392000Y-127916000D01*
X108425333Y-127949333D01*
X108492000Y-127982666D01*
X108625333Y-127982666D01*
X108692000Y-127949333D01*
X108725333Y-127916000D01*
X108758666Y-127849333D01*
X108758666Y-127282666D01*
X109058666Y-127949333D02*
X109158666Y-127982666D01*
X109325333Y-127982666D01*
X109392000Y-127949333D01*
X109425333Y-127916000D01*
X109458666Y-127849333D01*
X109458666Y-127782666D01*
X109425333Y-127716000D01*
X109392000Y-127682666D01*
X109325333Y-127649333D01*
X109192000Y-127616000D01*
X109125333Y-127582666D01*
X109092000Y-127549333D01*
X109058666Y-127482666D01*
X109058666Y-127416000D01*
X109092000Y-127349333D01*
X109125333Y-127316000D01*
X109192000Y-127282666D01*
X109358666Y-127282666D01*
X109458666Y-127316000D01*
X110525333Y-127616000D02*
X110292000Y-127616000D01*
X110292000Y-127982666D02*
X110292000Y-127282666D01*
X110625333Y-127282666D01*
X111158666Y-127949333D02*
X111092000Y-127982666D01*
X110958666Y-127982666D01*
X110892000Y-127949333D01*
X110858666Y-127882666D01*
X110858666Y-127616000D01*
X110892000Y-127549333D01*
X110958666Y-127516000D01*
X111092000Y-127516000D01*
X111158666Y-127549333D01*
X111192000Y-127616000D01*
X111192000Y-127682666D01*
X110858666Y-127749333D01*
X111492000Y-127982666D02*
X111492000Y-127516000D01*
X111492000Y-127582666D02*
X111525333Y-127549333D01*
X111592000Y-127516000D01*
X111692000Y-127516000D01*
X111758666Y-127549333D01*
X111792000Y-127616000D01*
X111792000Y-127982666D01*
X111792000Y-127616000D02*
X111825333Y-127549333D01*
X111892000Y-127516000D01*
X111992000Y-127516000D01*
X112058666Y-127549333D01*
X112092000Y-127616000D01*
X112092000Y-127982666D01*
X112725333Y-127982666D02*
X112725333Y-127616000D01*
X112692000Y-127549333D01*
X112625333Y-127516000D01*
X112492000Y-127516000D01*
X112425333Y-127549333D01*
X112725333Y-127949333D02*
X112658666Y-127982666D01*
X112492000Y-127982666D01*
X112425333Y-127949333D01*
X112392000Y-127882666D01*
X112392000Y-127816000D01*
X112425333Y-127749333D01*
X112492000Y-127716000D01*
X112658666Y-127716000D01*
X112725333Y-127682666D01*
X113158666Y-127982666D02*
X113092000Y-127949333D01*
X113058666Y-127882666D01*
X113058666Y-127282666D01*
X113692000Y-127949333D02*
X113625333Y-127982666D01*
X113492000Y-127982666D01*
X113425333Y-127949333D01*
X113392000Y-127882666D01*
X113392000Y-127616000D01*
X113425333Y-127549333D01*
X113492000Y-127516000D01*
X113625333Y-127516000D01*
X113692000Y-127549333D01*
X113725333Y-127616000D01*
X113725333Y-127682666D01*
X113392000Y-127749333D01*
D11*
X114356904Y-123373380D02*
X114356904Y-123754333D01*
X114737857Y-123792428D01*
X114699761Y-123754333D01*
X114661666Y-123678142D01*
X114661666Y-123487666D01*
X114699761Y-123411476D01*
X114737857Y-123373380D01*
X114814047Y-123335285D01*
X115004523Y-123335285D01*
X115080714Y-123373380D01*
X115118809Y-123411476D01*
X115156904Y-123487666D01*
X115156904Y-123678142D01*
X115118809Y-123754333D01*
X115080714Y-123792428D01*
X114356904Y-123106714D02*
X115156904Y-122840047D01*
X114356904Y-122573380D01*
X114356904Y-104018476D02*
X114356904Y-103523238D01*
X114661666Y-103789904D01*
X114661666Y-103675619D01*
X114699761Y-103599428D01*
X114737857Y-103561333D01*
X114814047Y-103523238D01*
X115004523Y-103523238D01*
X115080714Y-103561333D01*
X115118809Y-103599428D01*
X115156904Y-103675619D01*
X115156904Y-103904190D01*
X115118809Y-103980380D01*
X115080714Y-104018476D01*
X114356904Y-103294666D02*
X115156904Y-103028000D01*
X114356904Y-102761333D01*
X114356904Y-102570857D02*
X114356904Y-102075619D01*
X114661666Y-102342285D01*
X114661666Y-102228000D01*
X114699761Y-102151809D01*
X114737857Y-102113714D01*
X114814047Y-102075619D01*
X115004523Y-102075619D01*
X115080714Y-102113714D01*
X115118809Y-102151809D01*
X115156904Y-102228000D01*
X115156904Y-102456571D01*
X115118809Y-102532761D01*
X115080714Y-102570857D01*
X114737857Y-95871476D02*
X114737857Y-95604809D01*
X115156904Y-95490523D02*
X115156904Y-95871476D01*
X114356904Y-95871476D01*
X114356904Y-95490523D01*
X115156904Y-95147666D02*
X114356904Y-95147666D01*
X115156904Y-94690523D01*
X114356904Y-94690523D01*
D10*
X105778000Y-126396000D02*
X104000000Y-126396000D01*
X105778000Y-120300000D02*
X105778000Y-126396000D01*
X104000000Y-120300000D02*
X105778000Y-120300000D01*
X105778000Y-89820000D02*
X105778000Y-95916000D01*
X105778000Y-95916000D02*
X104000000Y-95916000D01*
X104000000Y-89820000D02*
X105778000Y-89820000D01*
X105468380Y-125205142D02*
X104468380Y-125205142D01*
X104944571Y-125205142D02*
X104944571Y-124633714D01*
X105468380Y-124633714D02*
X104468380Y-124633714D01*
X105468380Y-124157523D02*
X104468380Y-124157523D01*
X104468380Y-123776571D01*
X104516000Y-123681333D01*
X104563619Y-123633714D01*
X104658857Y-123586095D01*
X104801714Y-123586095D01*
X104896952Y-123633714D01*
X104944571Y-123681333D01*
X104992190Y-123776571D01*
X104992190Y-124157523D01*
X104468380Y-123252761D02*
X105468380Y-123014666D01*
X104754095Y-122824190D01*
X105468380Y-122633714D01*
X104468380Y-122395619D01*
X105468380Y-121443238D02*
X104992190Y-121776571D01*
X105468380Y-122014666D02*
X104468380Y-122014666D01*
X104468380Y-121633714D01*
X104516000Y-121538476D01*
X104563619Y-121490857D01*
X104658857Y-121443238D01*
X104801714Y-121443238D01*
X104896952Y-121490857D01*
X104944571Y-121538476D01*
X104992190Y-121633714D01*
X104992190Y-122014666D01*
X104516000Y-93629904D02*
X104468380Y-93725142D01*
X104468380Y-93868000D01*
X104516000Y-94010857D01*
X104611238Y-94106095D01*
X104706476Y-94153714D01*
X104896952Y-94201333D01*
X105039809Y-94201333D01*
X105230285Y-94153714D01*
X105325523Y-94106095D01*
X105420761Y-94010857D01*
X105468380Y-93868000D01*
X105468380Y-93772761D01*
X105420761Y-93629904D01*
X105373142Y-93582285D01*
X105039809Y-93582285D01*
X105039809Y-93772761D01*
X105468380Y-93153714D02*
X104468380Y-93153714D01*
X105468380Y-92582285D01*
X104468380Y-92582285D01*
X105468380Y-92106095D02*
X104468380Y-92106095D01*
X104468380Y-91868000D01*
X104516000Y-91725142D01*
X104611238Y-91629904D01*
X104706476Y-91582285D01*
X104896952Y-91534666D01*
X105039809Y-91534666D01*
X105230285Y-91582285D01*
X105325523Y-91629904D01*
X105420761Y-91725142D01*
X105468380Y-91868000D01*
X105468380Y-92106095D01*
D14*
X149466000Y-98329000D02*
X149466000Y-101123000D01*
X147688000Y-98075000D02*
X149212000Y-98075000D01*
X147688000Y-101377000D02*
X149212000Y-101377000D01*
X147434000Y-101123000D02*
X147434000Y-98329000D01*
D13*
X107400000Y-88890000D02*
X112600000Y-88890000D01*
X107400000Y-127110000D02*
X112600000Y-127110000D01*
X105960000Y-89460000D02*
X107400000Y-89460000D01*
X107400000Y-88890000D02*
X107400000Y-89460000D01*
X112600000Y-88890000D02*
X112600000Y-89460000D01*
X107400000Y-126540000D02*
X107400000Y-127110000D01*
X112600000Y-126540000D02*
X112600000Y-127110000D01*
X107400000Y-90980000D02*
X107400000Y-92000000D01*
X112600000Y-90980000D02*
X112600000Y-92000000D01*
X107400000Y-93520000D02*
X107400000Y-94540000D01*
X112600000Y-93520000D02*
X112600000Y-94540000D01*
X107400000Y-96060000D02*
X107400000Y-97080000D01*
X112600000Y-96060000D02*
X112600000Y-97080000D01*
X107400000Y-98600000D02*
X107400000Y-99620000D01*
X112600000Y-98600000D02*
X112600000Y-99620000D01*
X107400000Y-101140000D02*
X107400000Y-102160000D01*
X112600000Y-101140000D02*
X112600000Y-102160000D01*
X107400000Y-103680000D02*
X107400000Y-104700000D01*
X112600000Y-103680000D02*
X112600000Y-104700000D01*
X107400000Y-106220000D02*
X107400000Y-107240000D01*
X112600000Y-106220000D02*
X112600000Y-107240000D01*
X107400000Y-108760000D02*
X107400000Y-109780000D01*
X112600000Y-108760000D02*
X112600000Y-109780000D01*
X107400000Y-111300000D02*
X107400000Y-112320000D01*
X112600000Y-111300000D02*
X112600000Y-112320000D01*
X107400000Y-113840000D02*
X107400000Y-114860000D01*
X112600000Y-113840000D02*
X112600000Y-114860000D01*
X107400000Y-116380000D02*
X107400000Y-117400000D01*
X112600000Y-116380000D02*
X112600000Y-117400000D01*
X107400000Y-118920000D02*
X107400000Y-119940000D01*
X112600000Y-118920000D02*
X112600000Y-119940000D01*
X107400000Y-121460000D02*
X107400000Y-122480000D01*
X112600000Y-121460000D02*
X112600000Y-122480000D01*
X107400000Y-124000000D02*
X107400000Y-125020000D01*
X112600000Y-124000000D02*
X112600000Y-125020000D01*
X122544000Y-98936279D02*
X122544000Y-98610721D01*
X121524000Y-98936279D02*
X121524000Y-98610721D01*
X117553221Y-117000000D02*
X117878779Y-117000000D01*
X117553221Y-115980000D02*
X117878779Y-115980000D01*
X117878779Y-101506000D02*
X117553221Y-101506000D01*
X117878779Y-100486000D02*
X117553221Y-100486000D01*
X117878779Y-110646000D02*
X117553221Y-110646000D01*
X117878779Y-111666000D02*
X117553221Y-111666000D01*
X117878779Y-115222000D02*
X117553221Y-115222000D01*
X117878779Y-114202000D02*
X117553221Y-114202000D01*
X117553221Y-119536000D02*
X117878779Y-119536000D01*
X117553221Y-120556000D02*
X117878779Y-120556000D01*
X116507500Y-97729779D02*
X116507500Y-97404221D01*
X117527500Y-97729779D02*
X117527500Y-97404221D01*
X117878779Y-118778000D02*
X117553221Y-118778000D01*
X117878779Y-117758000D02*
X117553221Y-117758000D01*
X125401500Y-98936279D02*
X125401500Y-98610721D01*
X124381500Y-98936279D02*
X124381500Y-98610721D01*
X144892000Y-106746779D02*
X144892000Y-106421221D01*
X145912000Y-106746779D02*
X145912000Y-106421221D01*
X148956000Y-107910000D02*
X148956000Y-106980000D01*
X148956000Y-104750000D02*
X148956000Y-105680000D01*
X148956000Y-104750000D02*
X146796000Y-104750000D01*
X148956000Y-107910000D02*
X147496000Y-107910000D01*
X145400000Y-111064779D02*
X145400000Y-110739221D01*
X146420000Y-111064779D02*
X146420000Y-110739221D01*
X141086000Y-91054221D02*
X141086000Y-91379779D01*
X140066000Y-91054221D02*
X140066000Y-91379779D01*
X128890000Y-93213221D02*
X128890000Y-93538779D01*
X129910000Y-93213221D02*
X129910000Y-93538779D01*
X147052000Y-96326000D02*
X143752000Y-96326000D01*
X143752000Y-96326000D02*
X143752000Y-101726000D01*
X147052000Y-96326000D02*
X147052000Y-101726000D01*
X147052000Y-88960000D02*
X147052000Y-94360000D01*
X143752000Y-88960000D02*
X143752000Y-94360000D01*
X147052000Y-88960000D02*
X143752000Y-88960000D01*
D14*
X147434000Y-93884000D02*
X147434000Y-91090000D01*
X147688000Y-94138000D02*
X149212000Y-94138000D01*
X147688000Y-90836000D02*
X149212000Y-90836000D01*
X149466000Y-91090000D02*
X149466000Y-93884000D01*
D13*
X123776221Y-103030000D02*
X124101779Y-103030000D01*
X123776221Y-102010000D02*
X124101779Y-102010000D01*
X126316221Y-92104000D02*
X126641779Y-92104000D01*
X126316221Y-93124000D02*
X126641779Y-93124000D01*
X133078000Y-89204000D02*
X133078000Y-90464000D01*
X133078000Y-96024000D02*
X133078000Y-94764000D01*
X136838000Y-89204000D02*
X133078000Y-89204000D01*
X139088000Y-96024000D02*
X133078000Y-96024000D01*
D15*
X149754895Y-101177428D02*
X150335466Y-101177428D01*
X150451580Y-101216133D01*
X150528990Y-101293542D01*
X150567695Y-101409657D01*
X150567695Y-101487066D01*
X150567695Y-100790380D02*
X149754895Y-100790380D01*
X149754895Y-100480742D01*
X149793600Y-100403333D01*
X149832304Y-100364628D01*
X149909714Y-100325923D01*
X150025828Y-100325923D01*
X150103238Y-100364628D01*
X150141942Y-100403333D01*
X150180647Y-100480742D01*
X150180647Y-100790380D01*
X150567695Y-99938876D02*
X150567695Y-99784057D01*
X150528990Y-99706647D01*
X150490285Y-99667942D01*
X150374171Y-99590533D01*
X150219352Y-99551828D01*
X149909714Y-99551828D01*
X149832304Y-99590533D01*
X149793600Y-99629238D01*
X149754895Y-99706647D01*
X149754895Y-99861466D01*
X149793600Y-99938876D01*
X149832304Y-99977580D01*
X149909714Y-100016285D01*
X150103238Y-100016285D01*
X150180647Y-99977580D01*
X150219352Y-99938876D01*
X150258057Y-99861466D01*
X150258057Y-99706647D01*
X150219352Y-99629238D01*
X150180647Y-99590533D01*
X150103238Y-99551828D01*
X149754895Y-99048666D02*
X149754895Y-98971257D01*
X149793600Y-98893847D01*
X149832304Y-98855142D01*
X149909714Y-98816438D01*
X150064533Y-98777733D01*
X150258057Y-98777733D01*
X150412876Y-98816438D01*
X150490285Y-98855142D01*
X150528990Y-98893847D01*
X150567695Y-98971257D01*
X150567695Y-99048666D01*
X150528990Y-99126076D01*
X150490285Y-99164780D01*
X150412876Y-99203485D01*
X150258057Y-99242190D01*
X150064533Y-99242190D01*
X149909714Y-99203485D01*
X149832304Y-99164780D01*
X149793600Y-99126076D01*
X149754895Y-99048666D01*
X150567695Y-98003638D02*
X150567695Y-98468095D01*
X150567695Y-98235866D02*
X149754895Y-98235866D01*
X149871009Y-98313276D01*
X149948419Y-98390685D01*
X149987123Y-98468095D01*
D11*
X113318666Y-87748380D02*
X113318666Y-88462666D01*
X113271047Y-88605523D01*
X113175809Y-88700761D01*
X113032952Y-88748380D01*
X112937714Y-88748380D01*
X114318666Y-88748380D02*
X113747238Y-88748380D01*
X114032952Y-88748380D02*
X114032952Y-87748380D01*
X113937714Y-87891238D01*
X113842476Y-87986476D01*
X113747238Y-88034095D01*
X121025880Y-99352857D02*
X120549690Y-99686190D01*
X121025880Y-99924285D02*
X120025880Y-99924285D01*
X120025880Y-99543333D01*
X120073500Y-99448095D01*
X120121119Y-99400476D01*
X120216357Y-99352857D01*
X120359214Y-99352857D01*
X120454452Y-99400476D01*
X120502071Y-99448095D01*
X120549690Y-99543333D01*
X120549690Y-99924285D01*
X121025880Y-98400476D02*
X121025880Y-98971904D01*
X121025880Y-98686190D02*
X120025880Y-98686190D01*
X120168738Y-98781428D01*
X120263976Y-98876666D01*
X120311595Y-98971904D01*
X120025880Y-97781428D02*
X120025880Y-97686190D01*
X120073500Y-97590952D01*
X120121119Y-97543333D01*
X120216357Y-97495714D01*
X120406833Y-97448095D01*
X120644928Y-97448095D01*
X120835404Y-97495714D01*
X120930642Y-97543333D01*
X120978261Y-97590952D01*
X121025880Y-97686190D01*
X121025880Y-97781428D01*
X120978261Y-97876666D01*
X120930642Y-97924285D01*
X120835404Y-97971904D01*
X120644928Y-98019523D01*
X120406833Y-98019523D01*
X120216357Y-97971904D01*
X120121119Y-97924285D01*
X120073500Y-97876666D01*
X120025880Y-97781428D01*
X120343333Y-116942380D02*
X120010000Y-116466190D01*
X119771904Y-116942380D02*
X119771904Y-115942380D01*
X120152857Y-115942380D01*
X120248095Y-115990000D01*
X120295714Y-116037619D01*
X120343333Y-116132857D01*
X120343333Y-116275714D01*
X120295714Y-116370952D01*
X120248095Y-116418571D01*
X120152857Y-116466190D01*
X119771904Y-116466190D01*
X120676666Y-115942380D02*
X121343333Y-115942380D01*
X120914761Y-116942380D01*
X118565333Y-99924380D02*
X118232000Y-99448190D01*
X117993904Y-99924380D02*
X117993904Y-98924380D01*
X118374857Y-98924380D01*
X118470095Y-98972000D01*
X118517714Y-99019619D01*
X118565333Y-99114857D01*
X118565333Y-99257714D01*
X118517714Y-99352952D01*
X118470095Y-99400571D01*
X118374857Y-99448190D01*
X117993904Y-99448190D01*
X119517714Y-99924380D02*
X118946285Y-99924380D01*
X119232000Y-99924380D02*
X119232000Y-98924380D01*
X119136761Y-99067238D01*
X119041523Y-99162476D01*
X118946285Y-99210095D01*
X117612833Y-110274880D02*
X117279500Y-109798690D01*
X117041404Y-110274880D02*
X117041404Y-109274880D01*
X117422357Y-109274880D01*
X117517595Y-109322500D01*
X117565214Y-109370119D01*
X117612833Y-109465357D01*
X117612833Y-109608214D01*
X117565214Y-109703452D01*
X117517595Y-109751071D01*
X117422357Y-109798690D01*
X117041404Y-109798690D01*
X117993785Y-109370119D02*
X118041404Y-109322500D01*
X118136642Y-109274880D01*
X118374738Y-109274880D01*
X118469976Y-109322500D01*
X118517595Y-109370119D01*
X118565214Y-109465357D01*
X118565214Y-109560595D01*
X118517595Y-109703452D01*
X117946166Y-110274880D01*
X118565214Y-110274880D01*
X120343333Y-115164380D02*
X120010000Y-114688190D01*
X119771904Y-115164380D02*
X119771904Y-114164380D01*
X120152857Y-114164380D01*
X120248095Y-114212000D01*
X120295714Y-114259619D01*
X120343333Y-114354857D01*
X120343333Y-114497714D01*
X120295714Y-114592952D01*
X120248095Y-114640571D01*
X120152857Y-114688190D01*
X119771904Y-114688190D01*
X120676666Y-114164380D02*
X121295714Y-114164380D01*
X120962380Y-114545333D01*
X121105238Y-114545333D01*
X121200476Y-114592952D01*
X121248095Y-114640571D01*
X121295714Y-114735809D01*
X121295714Y-114973904D01*
X121248095Y-115069142D01*
X121200476Y-115116761D01*
X121105238Y-115164380D01*
X120819523Y-115164380D01*
X120724285Y-115116761D01*
X120676666Y-115069142D01*
X120343333Y-120498380D02*
X120010000Y-120022190D01*
X119771904Y-120498380D02*
X119771904Y-119498380D01*
X120152857Y-119498380D01*
X120248095Y-119546000D01*
X120295714Y-119593619D01*
X120343333Y-119688857D01*
X120343333Y-119831714D01*
X120295714Y-119926952D01*
X120248095Y-119974571D01*
X120152857Y-120022190D01*
X119771904Y-120022190D01*
X121200476Y-119831714D02*
X121200476Y-120498380D01*
X120962380Y-119450761D02*
X120724285Y-120165047D01*
X121343333Y-120165047D01*
X118168380Y-95066666D02*
X117692190Y-95400000D01*
X118168380Y-95638095D02*
X117168380Y-95638095D01*
X117168380Y-95257142D01*
X117216000Y-95161904D01*
X117263619Y-95114285D01*
X117358857Y-95066666D01*
X117501714Y-95066666D01*
X117596952Y-95114285D01*
X117644571Y-95161904D01*
X117692190Y-95257142D01*
X117692190Y-95638095D01*
X117168380Y-94161904D02*
X117168380Y-94638095D01*
X117644571Y-94685714D01*
X117596952Y-94638095D01*
X117549333Y-94542857D01*
X117549333Y-94304761D01*
X117596952Y-94209523D01*
X117644571Y-94161904D01*
X117739809Y-94114285D01*
X117977904Y-94114285D01*
X118073142Y-94161904D01*
X118120761Y-94209523D01*
X118168380Y-94304761D01*
X118168380Y-94542857D01*
X118120761Y-94638095D01*
X118073142Y-94685714D01*
X120343333Y-118720380D02*
X120010000Y-118244190D01*
X119771904Y-118720380D02*
X119771904Y-117720380D01*
X120152857Y-117720380D01*
X120248095Y-117768000D01*
X120295714Y-117815619D01*
X120343333Y-117910857D01*
X120343333Y-118053714D01*
X120295714Y-118148952D01*
X120248095Y-118196571D01*
X120152857Y-118244190D01*
X119771904Y-118244190D01*
X120914761Y-118148952D02*
X120819523Y-118101333D01*
X120771904Y-118053714D01*
X120724285Y-117958476D01*
X120724285Y-117910857D01*
X120771904Y-117815619D01*
X120819523Y-117768000D01*
X120914761Y-117720380D01*
X121105238Y-117720380D01*
X121200476Y-117768000D01*
X121248095Y-117815619D01*
X121295714Y-117910857D01*
X121295714Y-117958476D01*
X121248095Y-118053714D01*
X121200476Y-118101333D01*
X121105238Y-118148952D01*
X120914761Y-118148952D01*
X120819523Y-118196571D01*
X120771904Y-118244190D01*
X120724285Y-118339428D01*
X120724285Y-118529904D01*
X120771904Y-118625142D01*
X120819523Y-118672761D01*
X120914761Y-118720380D01*
X121105238Y-118720380D01*
X121200476Y-118672761D01*
X121248095Y-118625142D01*
X121295714Y-118529904D01*
X121295714Y-118339428D01*
X121248095Y-118244190D01*
X121200476Y-118196571D01*
X121105238Y-118148952D01*
X123946880Y-98178166D02*
X123470690Y-98511500D01*
X123946880Y-98749595D02*
X122946880Y-98749595D01*
X122946880Y-98368642D01*
X122994500Y-98273404D01*
X123042119Y-98225785D01*
X123137357Y-98178166D01*
X123280214Y-98178166D01*
X123375452Y-98225785D01*
X123423071Y-98273404D01*
X123470690Y-98368642D01*
X123470690Y-98749595D01*
X123946880Y-97701976D02*
X123946880Y-97511500D01*
X123899261Y-97416261D01*
X123851642Y-97368642D01*
X123708785Y-97273404D01*
X123518309Y-97225785D01*
X123137357Y-97225785D01*
X123042119Y-97273404D01*
X122994500Y-97321023D01*
X122946880Y-97416261D01*
X122946880Y-97606738D01*
X122994500Y-97701976D01*
X123042119Y-97749595D01*
X123137357Y-97797214D01*
X123375452Y-97797214D01*
X123470690Y-97749595D01*
X123518309Y-97701976D01*
X123565928Y-97606738D01*
X123565928Y-97416261D01*
X123518309Y-97321023D01*
X123470690Y-97273404D01*
X123375452Y-97225785D01*
X144235142Y-107703047D02*
X144282761Y-107750666D01*
X144330380Y-107893523D01*
X144330380Y-107988761D01*
X144282761Y-108131619D01*
X144187523Y-108226857D01*
X144092285Y-108274476D01*
X143901809Y-108322095D01*
X143758952Y-108322095D01*
X143568476Y-108274476D01*
X143473238Y-108226857D01*
X143378000Y-108131619D01*
X143330380Y-107988761D01*
X143330380Y-107893523D01*
X143378000Y-107750666D01*
X143425619Y-107703047D01*
X144330380Y-107226857D02*
X144330380Y-107036380D01*
X144282761Y-106941142D01*
X144235142Y-106893523D01*
X144092285Y-106798285D01*
X143901809Y-106750666D01*
X143520857Y-106750666D01*
X143425619Y-106798285D01*
X143378000Y-106845904D01*
X143330380Y-106941142D01*
X143330380Y-107131619D01*
X143378000Y-107226857D01*
X143425619Y-107274476D01*
X143520857Y-107322095D01*
X143758952Y-107322095D01*
X143854190Y-107274476D01*
X143901809Y-107226857D01*
X143949428Y-107131619D01*
X143949428Y-106941142D01*
X143901809Y-106845904D01*
X143854190Y-106798285D01*
X143758952Y-106750666D01*
X143330380Y-106131619D02*
X143330380Y-106036380D01*
X143378000Y-105941142D01*
X143425619Y-105893523D01*
X143520857Y-105845904D01*
X143711333Y-105798285D01*
X143949428Y-105798285D01*
X144139904Y-105845904D01*
X144235142Y-105893523D01*
X144282761Y-105941142D01*
X144330380Y-106036380D01*
X144330380Y-106131619D01*
X144282761Y-106226857D01*
X144235142Y-106274476D01*
X144139904Y-106322095D01*
X143949428Y-106369714D01*
X143711333Y-106369714D01*
X143520857Y-106322095D01*
X143425619Y-106274476D01*
X143378000Y-106226857D01*
X143330380Y-106131619D01*
X144330380Y-104845904D02*
X144330380Y-105417333D01*
X144330380Y-105131619D02*
X143330380Y-105131619D01*
X143473238Y-105226857D01*
X143568476Y-105322095D01*
X143616095Y-105417333D01*
X151283619Y-107377619D02*
X151236000Y-107472857D01*
X151140761Y-107568095D01*
X150997904Y-107710952D01*
X150950285Y-107806190D01*
X150950285Y-107901428D01*
X151188380Y-107853809D02*
X151140761Y-107949047D01*
X151045523Y-108044285D01*
X150855047Y-108091904D01*
X150521714Y-108091904D01*
X150331238Y-108044285D01*
X150236000Y-107949047D01*
X150188380Y-107853809D01*
X150188380Y-107663333D01*
X150236000Y-107568095D01*
X150331238Y-107472857D01*
X150521714Y-107425238D01*
X150855047Y-107425238D01*
X151045523Y-107472857D01*
X151140761Y-107568095D01*
X151188380Y-107663333D01*
X151188380Y-107853809D01*
X151188380Y-106949047D02*
X151188380Y-106758571D01*
X151140761Y-106663333D01*
X151093142Y-106615714D01*
X150950285Y-106520476D01*
X150759809Y-106472857D01*
X150378857Y-106472857D01*
X150283619Y-106520476D01*
X150236000Y-106568095D01*
X150188380Y-106663333D01*
X150188380Y-106853809D01*
X150236000Y-106949047D01*
X150283619Y-106996666D01*
X150378857Y-107044285D01*
X150616952Y-107044285D01*
X150712190Y-106996666D01*
X150759809Y-106949047D01*
X150807428Y-106853809D01*
X150807428Y-106663333D01*
X150759809Y-106568095D01*
X150712190Y-106520476D01*
X150616952Y-106472857D01*
X150188380Y-105853809D02*
X150188380Y-105758571D01*
X150236000Y-105663333D01*
X150283619Y-105615714D01*
X150378857Y-105568095D01*
X150569333Y-105520476D01*
X150807428Y-105520476D01*
X150997904Y-105568095D01*
X151093142Y-105615714D01*
X151140761Y-105663333D01*
X151188380Y-105758571D01*
X151188380Y-105853809D01*
X151140761Y-105949047D01*
X151093142Y-105996666D01*
X150997904Y-106044285D01*
X150807428Y-106091904D01*
X150569333Y-106091904D01*
X150378857Y-106044285D01*
X150283619Y-105996666D01*
X150236000Y-105949047D01*
X150188380Y-105853809D01*
X151188380Y-104568095D02*
X151188380Y-105139523D01*
X151188380Y-104853809D02*
X150188380Y-104853809D01*
X150331238Y-104949047D01*
X150426476Y-105044285D01*
X150474095Y-105139523D01*
X144838380Y-112021047D02*
X144362190Y-112354380D01*
X144838380Y-112592476D02*
X143838380Y-112592476D01*
X143838380Y-112211523D01*
X143886000Y-112116285D01*
X143933619Y-112068666D01*
X144028857Y-112021047D01*
X144171714Y-112021047D01*
X144266952Y-112068666D01*
X144314571Y-112116285D01*
X144362190Y-112211523D01*
X144362190Y-112592476D01*
X144838380Y-111544857D02*
X144838380Y-111354380D01*
X144790761Y-111259142D01*
X144743142Y-111211523D01*
X144600285Y-111116285D01*
X144409809Y-111068666D01*
X144028857Y-111068666D01*
X143933619Y-111116285D01*
X143886000Y-111163904D01*
X143838380Y-111259142D01*
X143838380Y-111449619D01*
X143886000Y-111544857D01*
X143933619Y-111592476D01*
X144028857Y-111640095D01*
X144266952Y-111640095D01*
X144362190Y-111592476D01*
X144409809Y-111544857D01*
X144457428Y-111449619D01*
X144457428Y-111259142D01*
X144409809Y-111163904D01*
X144362190Y-111116285D01*
X144266952Y-111068666D01*
X143838380Y-110449619D02*
X143838380Y-110354380D01*
X143886000Y-110259142D01*
X143933619Y-110211523D01*
X144028857Y-110163904D01*
X144219333Y-110116285D01*
X144457428Y-110116285D01*
X144647904Y-110163904D01*
X144743142Y-110211523D01*
X144790761Y-110259142D01*
X144838380Y-110354380D01*
X144838380Y-110449619D01*
X144790761Y-110544857D01*
X144743142Y-110592476D01*
X144647904Y-110640095D01*
X144457428Y-110687714D01*
X144219333Y-110687714D01*
X144028857Y-110640095D01*
X143933619Y-110592476D01*
X143886000Y-110544857D01*
X143838380Y-110449619D01*
X144838380Y-109163904D02*
X144838380Y-109735333D01*
X144838380Y-109449619D02*
X143838380Y-109449619D01*
X143981238Y-109544857D01*
X144076476Y-109640095D01*
X144124095Y-109735333D01*
X140933142Y-88653047D02*
X140980761Y-88700666D01*
X141028380Y-88843523D01*
X141028380Y-88938761D01*
X140980761Y-89081619D01*
X140885523Y-89176857D01*
X140790285Y-89224476D01*
X140599809Y-89272095D01*
X140456952Y-89272095D01*
X140266476Y-89224476D01*
X140171238Y-89176857D01*
X140076000Y-89081619D01*
X140028380Y-88938761D01*
X140028380Y-88843523D01*
X140076000Y-88700666D01*
X140123619Y-88653047D01*
X141028380Y-88176857D02*
X141028380Y-87986380D01*
X140980761Y-87891142D01*
X140933142Y-87843523D01*
X140790285Y-87748285D01*
X140599809Y-87700666D01*
X140218857Y-87700666D01*
X140123619Y-87748285D01*
X140076000Y-87795904D01*
X140028380Y-87891142D01*
X140028380Y-88081619D01*
X140076000Y-88176857D01*
X140123619Y-88224476D01*
X140218857Y-88272095D01*
X140456952Y-88272095D01*
X140552190Y-88224476D01*
X140599809Y-88176857D01*
X140647428Y-88081619D01*
X140647428Y-87891142D01*
X140599809Y-87795904D01*
X140552190Y-87748285D01*
X140456952Y-87700666D01*
X140028380Y-87081619D02*
X140028380Y-86986380D01*
X140076000Y-86891142D01*
X140123619Y-86843523D01*
X140218857Y-86795904D01*
X140409333Y-86748285D01*
X140647428Y-86748285D01*
X140837904Y-86795904D01*
X140933142Y-86843523D01*
X140980761Y-86891142D01*
X141028380Y-86986380D01*
X141028380Y-87081619D01*
X140980761Y-87176857D01*
X140933142Y-87224476D01*
X140837904Y-87272095D01*
X140647428Y-87319714D01*
X140409333Y-87319714D01*
X140218857Y-87272095D01*
X140123619Y-87224476D01*
X140076000Y-87176857D01*
X140028380Y-87081619D01*
X140123619Y-86367333D02*
X140076000Y-86319714D01*
X140028380Y-86224476D01*
X140028380Y-85986380D01*
X140076000Y-85891142D01*
X140123619Y-85843523D01*
X140218857Y-85795904D01*
X140314095Y-85795904D01*
X140456952Y-85843523D01*
X141028380Y-86414952D01*
X141028380Y-85795904D01*
X129757142Y-90939047D02*
X129804761Y-90986666D01*
X129852380Y-91129523D01*
X129852380Y-91224761D01*
X129804761Y-91367619D01*
X129709523Y-91462857D01*
X129614285Y-91510476D01*
X129423809Y-91558095D01*
X129280952Y-91558095D01*
X129090476Y-91510476D01*
X128995238Y-91462857D01*
X128900000Y-91367619D01*
X128852380Y-91224761D01*
X128852380Y-91129523D01*
X128900000Y-90986666D01*
X128947619Y-90939047D01*
X129852380Y-90462857D02*
X129852380Y-90272380D01*
X129804761Y-90177142D01*
X129757142Y-90129523D01*
X129614285Y-90034285D01*
X129423809Y-89986666D01*
X129042857Y-89986666D01*
X128947619Y-90034285D01*
X128900000Y-90081904D01*
X128852380Y-90177142D01*
X128852380Y-90367619D01*
X128900000Y-90462857D01*
X128947619Y-90510476D01*
X129042857Y-90558095D01*
X129280952Y-90558095D01*
X129376190Y-90510476D01*
X129423809Y-90462857D01*
X129471428Y-90367619D01*
X129471428Y-90177142D01*
X129423809Y-90081904D01*
X129376190Y-90034285D01*
X129280952Y-89986666D01*
X128852380Y-89367619D02*
X128852380Y-89272380D01*
X128900000Y-89177142D01*
X128947619Y-89129523D01*
X129042857Y-89081904D01*
X129233333Y-89034285D01*
X129471428Y-89034285D01*
X129661904Y-89081904D01*
X129757142Y-89129523D01*
X129804761Y-89177142D01*
X129852380Y-89272380D01*
X129852380Y-89367619D01*
X129804761Y-89462857D01*
X129757142Y-89510476D01*
X129661904Y-89558095D01*
X129471428Y-89605714D01*
X129233333Y-89605714D01*
X129042857Y-89558095D01*
X128947619Y-89510476D01*
X128900000Y-89462857D01*
X128852380Y-89367619D01*
X128852380Y-88700952D02*
X128852380Y-88081904D01*
X129233333Y-88415238D01*
X129233333Y-88272380D01*
X129280952Y-88177142D01*
X129328571Y-88129523D01*
X129423809Y-88081904D01*
X129661904Y-88081904D01*
X129757142Y-88129523D01*
X129804761Y-88177142D01*
X129852380Y-88272380D01*
X129852380Y-88558095D01*
X129804761Y-88653333D01*
X129757142Y-88700952D01*
X143314380Y-101416476D02*
X142314380Y-101416476D01*
X142314380Y-101178380D01*
X142362000Y-101035523D01*
X142457238Y-100940285D01*
X142552476Y-100892666D01*
X142742952Y-100845047D01*
X142885809Y-100845047D01*
X143076285Y-100892666D01*
X143171523Y-100940285D01*
X143266761Y-101035523D01*
X143314380Y-101178380D01*
X143314380Y-101416476D01*
X143314380Y-100368857D02*
X143314380Y-100178380D01*
X143266761Y-100083142D01*
X143219142Y-100035523D01*
X143076285Y-99940285D01*
X142885809Y-99892666D01*
X142504857Y-99892666D01*
X142409619Y-99940285D01*
X142362000Y-99987904D01*
X142314380Y-100083142D01*
X142314380Y-100273619D01*
X142362000Y-100368857D01*
X142409619Y-100416476D01*
X142504857Y-100464095D01*
X142742952Y-100464095D01*
X142838190Y-100416476D01*
X142885809Y-100368857D01*
X142933428Y-100273619D01*
X142933428Y-100083142D01*
X142885809Y-99987904D01*
X142838190Y-99940285D01*
X142742952Y-99892666D01*
X142314380Y-99273619D02*
X142314380Y-99178380D01*
X142362000Y-99083142D01*
X142409619Y-99035523D01*
X142504857Y-98987904D01*
X142695333Y-98940285D01*
X142933428Y-98940285D01*
X143123904Y-98987904D01*
X143219142Y-99035523D01*
X143266761Y-99083142D01*
X143314380Y-99178380D01*
X143314380Y-99273619D01*
X143266761Y-99368857D01*
X143219142Y-99416476D01*
X143123904Y-99464095D01*
X142933428Y-99511714D01*
X142695333Y-99511714D01*
X142504857Y-99464095D01*
X142409619Y-99416476D01*
X142362000Y-99368857D01*
X142314380Y-99273619D01*
X143314380Y-97987904D02*
X143314380Y-98559333D01*
X143314380Y-98273619D02*
X142314380Y-98273619D01*
X142457238Y-98368857D01*
X142552476Y-98464095D01*
X142600095Y-98559333D01*
X143441380Y-95066476D02*
X142441380Y-95066476D01*
X142441380Y-94828380D01*
X142489000Y-94685523D01*
X142584238Y-94590285D01*
X142679476Y-94542666D01*
X142869952Y-94495047D01*
X143012809Y-94495047D01*
X143203285Y-94542666D01*
X143298523Y-94590285D01*
X143393761Y-94685523D01*
X143441380Y-94828380D01*
X143441380Y-95066476D01*
X143441380Y-94018857D02*
X143441380Y-93828380D01*
X143393761Y-93733142D01*
X143346142Y-93685523D01*
X143203285Y-93590285D01*
X143012809Y-93542666D01*
X142631857Y-93542666D01*
X142536619Y-93590285D01*
X142489000Y-93637904D01*
X142441380Y-93733142D01*
X142441380Y-93923619D01*
X142489000Y-94018857D01*
X142536619Y-94066476D01*
X142631857Y-94114095D01*
X142869952Y-94114095D01*
X142965190Y-94066476D01*
X143012809Y-94018857D01*
X143060428Y-93923619D01*
X143060428Y-93733142D01*
X143012809Y-93637904D01*
X142965190Y-93590285D01*
X142869952Y-93542666D01*
X142441380Y-92923619D02*
X142441380Y-92828380D01*
X142489000Y-92733142D01*
X142536619Y-92685523D01*
X142631857Y-92637904D01*
X142822333Y-92590285D01*
X143060428Y-92590285D01*
X143250904Y-92637904D01*
X143346142Y-92685523D01*
X143393761Y-92733142D01*
X143441380Y-92828380D01*
X143441380Y-92923619D01*
X143393761Y-93018857D01*
X143346142Y-93066476D01*
X143250904Y-93114095D01*
X143060428Y-93161714D01*
X142822333Y-93161714D01*
X142631857Y-93114095D01*
X142536619Y-93066476D01*
X142489000Y-93018857D01*
X142441380Y-92923619D01*
X142536619Y-92209333D02*
X142489000Y-92161714D01*
X142441380Y-92066476D01*
X142441380Y-91828380D01*
X142489000Y-91733142D01*
X142536619Y-91685523D01*
X142631857Y-91637904D01*
X142727095Y-91637904D01*
X142869952Y-91685523D01*
X143441380Y-92256952D01*
X143441380Y-91637904D01*
D15*
X149754895Y-93938428D02*
X150335466Y-93938428D01*
X150451580Y-93977133D01*
X150528990Y-94054542D01*
X150567695Y-94170657D01*
X150567695Y-94248066D01*
X150567695Y-93551380D02*
X149754895Y-93551380D01*
X149754895Y-93241742D01*
X149793600Y-93164333D01*
X149832304Y-93125628D01*
X149909714Y-93086923D01*
X150025828Y-93086923D01*
X150103238Y-93125628D01*
X150141942Y-93164333D01*
X150180647Y-93241742D01*
X150180647Y-93551380D01*
X150567695Y-92699876D02*
X150567695Y-92545057D01*
X150528990Y-92467647D01*
X150490285Y-92428942D01*
X150374171Y-92351533D01*
X150219352Y-92312828D01*
X149909714Y-92312828D01*
X149832304Y-92351533D01*
X149793600Y-92390238D01*
X149754895Y-92467647D01*
X149754895Y-92622466D01*
X149793600Y-92699876D01*
X149832304Y-92738580D01*
X149909714Y-92777285D01*
X150103238Y-92777285D01*
X150180647Y-92738580D01*
X150219352Y-92699876D01*
X150258057Y-92622466D01*
X150258057Y-92467647D01*
X150219352Y-92390238D01*
X150180647Y-92351533D01*
X150103238Y-92312828D01*
X149754895Y-91809666D02*
X149754895Y-91732257D01*
X149793600Y-91654847D01*
X149832304Y-91616142D01*
X149909714Y-91577438D01*
X150064533Y-91538733D01*
X150258057Y-91538733D01*
X150412876Y-91577438D01*
X150490285Y-91616142D01*
X150528990Y-91654847D01*
X150567695Y-91732257D01*
X150567695Y-91809666D01*
X150528990Y-91887076D01*
X150490285Y-91925780D01*
X150412876Y-91964485D01*
X150258057Y-92003190D01*
X150064533Y-92003190D01*
X149909714Y-91964485D01*
X149832304Y-91925780D01*
X149793600Y-91887076D01*
X149754895Y-91809666D01*
X149832304Y-91229095D02*
X149793600Y-91190390D01*
X149754895Y-91112980D01*
X149754895Y-90919457D01*
X149793600Y-90842047D01*
X149832304Y-90803342D01*
X149909714Y-90764638D01*
X149987123Y-90764638D01*
X150103238Y-90803342D01*
X150567695Y-91267800D01*
X150567695Y-90764638D01*
D11*
X123073952Y-101575380D02*
X122740619Y-101099190D01*
X122502523Y-101575380D02*
X122502523Y-100575380D01*
X122883476Y-100575380D01*
X122978714Y-100623000D01*
X123026333Y-100670619D01*
X123073952Y-100765857D01*
X123073952Y-100908714D01*
X123026333Y-101003952D01*
X122978714Y-101051571D01*
X122883476Y-101099190D01*
X122502523Y-101099190D01*
X124026333Y-101575380D02*
X123454904Y-101575380D01*
X123740619Y-101575380D02*
X123740619Y-100575380D01*
X123645380Y-100718238D01*
X123550142Y-100813476D01*
X123454904Y-100861095D01*
X124645380Y-100575380D02*
X124740619Y-100575380D01*
X124835857Y-100623000D01*
X124883476Y-100670619D01*
X124931095Y-100765857D01*
X124978714Y-100956333D01*
X124978714Y-101194428D01*
X124931095Y-101384904D01*
X124883476Y-101480142D01*
X124835857Y-101527761D01*
X124740619Y-101575380D01*
X124645380Y-101575380D01*
X124550142Y-101527761D01*
X124502523Y-101480142D01*
X124454904Y-101384904D01*
X124407285Y-101194428D01*
X124407285Y-100956333D01*
X124454904Y-100765857D01*
X124502523Y-100670619D01*
X124550142Y-100623000D01*
X124645380Y-100575380D01*
X125931095Y-101575380D02*
X125359666Y-101575380D01*
X125645380Y-101575380D02*
X125645380Y-100575380D01*
X125550142Y-100718238D01*
X125454904Y-100813476D01*
X125359666Y-100861095D01*
X125359952Y-91636380D02*
X125026619Y-91160190D01*
X124788523Y-91636380D02*
X124788523Y-90636380D01*
X125169476Y-90636380D01*
X125264714Y-90684000D01*
X125312333Y-90731619D01*
X125359952Y-90826857D01*
X125359952Y-90969714D01*
X125312333Y-91064952D01*
X125264714Y-91112571D01*
X125169476Y-91160190D01*
X124788523Y-91160190D01*
X125836142Y-91636380D02*
X126026619Y-91636380D01*
X126121857Y-91588761D01*
X126169476Y-91541142D01*
X126264714Y-91398285D01*
X126312333Y-91207809D01*
X126312333Y-90826857D01*
X126264714Y-90731619D01*
X126217095Y-90684000D01*
X126121857Y-90636380D01*
X125931380Y-90636380D01*
X125836142Y-90684000D01*
X125788523Y-90731619D01*
X125740904Y-90826857D01*
X125740904Y-91064952D01*
X125788523Y-91160190D01*
X125836142Y-91207809D01*
X125931380Y-91255428D01*
X126121857Y-91255428D01*
X126217095Y-91207809D01*
X126264714Y-91160190D01*
X126312333Y-91064952D01*
X126931380Y-90636380D02*
X127026619Y-90636380D01*
X127121857Y-90684000D01*
X127169476Y-90731619D01*
X127217095Y-90826857D01*
X127264714Y-91017333D01*
X127264714Y-91255428D01*
X127217095Y-91445904D01*
X127169476Y-91541142D01*
X127121857Y-91588761D01*
X127026619Y-91636380D01*
X126931380Y-91636380D01*
X126836142Y-91588761D01*
X126788523Y-91541142D01*
X126740904Y-91445904D01*
X126693285Y-91255428D01*
X126693285Y-91017333D01*
X126740904Y-90826857D01*
X126788523Y-90731619D01*
X126836142Y-90684000D01*
X126931380Y-90636380D01*
X127645666Y-90731619D02*
X127693285Y-90684000D01*
X127788523Y-90636380D01*
X128026619Y-90636380D01*
X128121857Y-90684000D01*
X128169476Y-90731619D01*
X128217095Y-90826857D01*
X128217095Y-90922095D01*
X128169476Y-91064952D01*
X127598047Y-91636380D01*
X128217095Y-91636380D01*
X133273714Y-87621380D02*
X133273714Y-88430904D01*
X133321333Y-88526142D01*
X133368952Y-88573761D01*
X133464190Y-88621380D01*
X133654666Y-88621380D01*
X133749904Y-88573761D01*
X133797523Y-88526142D01*
X133845142Y-88430904D01*
X133845142Y-87621380D01*
X134368952Y-88621380D02*
X134559428Y-88621380D01*
X134654666Y-88573761D01*
X134702285Y-88526142D01*
X134797523Y-88383285D01*
X134845142Y-88192809D01*
X134845142Y-87811857D01*
X134797523Y-87716619D01*
X134749904Y-87669000D01*
X134654666Y-87621380D01*
X134464190Y-87621380D01*
X134368952Y-87669000D01*
X134321333Y-87716619D01*
X134273714Y-87811857D01*
X134273714Y-88049952D01*
X134321333Y-88145190D01*
X134368952Y-88192809D01*
X134464190Y-88240428D01*
X134654666Y-88240428D01*
X134749904Y-88192809D01*
X134797523Y-88145190D01*
X134845142Y-88049952D01*
X135464190Y-87621380D02*
X135559428Y-87621380D01*
X135654666Y-87669000D01*
X135702285Y-87716619D01*
X135749904Y-87811857D01*
X135797523Y-88002333D01*
X135797523Y-88240428D01*
X135749904Y-88430904D01*
X135702285Y-88526142D01*
X135654666Y-88573761D01*
X135559428Y-88621380D01*
X135464190Y-88621380D01*
X135368952Y-88573761D01*
X135321333Y-88526142D01*
X135273714Y-88430904D01*
X135226095Y-88240428D01*
X135226095Y-88002333D01*
X135273714Y-87811857D01*
X135321333Y-87716619D01*
X135368952Y-87669000D01*
X135464190Y-87621380D01*
X136749904Y-88621380D02*
X136178476Y-88621380D01*
X136464190Y-88621380D02*
X136464190Y-87621380D01*
X136368952Y-87764238D01*
X136273714Y-87859476D01*
X136178476Y-87907095D01*
%LPC*%
D16*
X149364400Y-99649800D02*
X147535600Y-99649800D01*
X149364400Y-99802200D02*
X149364400Y-99649800D01*
X147535600Y-99802200D02*
X149364400Y-99802200D01*
X147535600Y-99649800D02*
X147535600Y-99802200D01*
X147535600Y-92410800D02*
X147535600Y-92563200D01*
X147535600Y-92563200D02*
X149364400Y-92563200D01*
X149364400Y-92563200D02*
X149364400Y-92410800D01*
X149364400Y-92410800D02*
X147535600Y-92410800D01*
D17*
X148450000Y-100488000D03*
X148450000Y-98964000D03*
D18*
X110000000Y-121970000D03*
D19*
X110000000Y-124510000D03*
D18*
X110000000Y-94030000D03*
D20*
X107475000Y-90220000D03*
X107475000Y-102920000D03*
X107475000Y-100380000D03*
X107475000Y-97840000D03*
X107475000Y-95300000D03*
X107475000Y-92760000D03*
D18*
X106825000Y-90220000D03*
D20*
X112525000Y-90220000D03*
X112525000Y-92760000D03*
X112525000Y-95300000D03*
X112525000Y-97840000D03*
X112525000Y-100380000D03*
X112525000Y-102920000D03*
X107475000Y-105460000D03*
X112525000Y-105460000D03*
X107475000Y-108000000D03*
X112525000Y-108000000D03*
X107475000Y-110540000D03*
X112525000Y-110540000D03*
X107475000Y-113080000D03*
X112525000Y-113080000D03*
X107475000Y-115620000D03*
X112525000Y-115620000D03*
X107475000Y-118160000D03*
X112525000Y-118160000D03*
X107475000Y-120700000D03*
X112525000Y-120700000D03*
X107475000Y-123240000D03*
X112525000Y-123240000D03*
X107475000Y-125780000D03*
X112525000Y-125780000D03*
D18*
X106825000Y-92760000D03*
X106825000Y-95300000D03*
X106825000Y-97840000D03*
X106825000Y-100380000D03*
X106825000Y-102920000D03*
X106825000Y-105460000D03*
X106825000Y-108000000D03*
X106825000Y-110540000D03*
X106825000Y-113080000D03*
X106825000Y-115620000D03*
X106825000Y-118160000D03*
X106825000Y-120700000D03*
X106825000Y-123240000D03*
X106825000Y-125780000D03*
X113175000Y-90220000D03*
X113175000Y-92760000D03*
X113175000Y-95300000D03*
X113175000Y-97840000D03*
X113175000Y-100380000D03*
X113175000Y-102920000D03*
X113175000Y-105460000D03*
X113175000Y-108000000D03*
X113175000Y-110540000D03*
X113175000Y-113080000D03*
X113175000Y-115620000D03*
X113175000Y-118160000D03*
X113175000Y-120700000D03*
X113175000Y-123240000D03*
X113175000Y-125780000D03*
D19*
X110000000Y-91490000D03*
D21*
X108730000Y-90220000D03*
X111270000Y-90220000D03*
X108730000Y-92760000D03*
X111270000Y-92760000D03*
X108730000Y-95300000D03*
X111270000Y-95300000D03*
X108730000Y-97840000D03*
X111270000Y-97840000D03*
X108730000Y-100380000D03*
X111270000Y-100380000D03*
X108730000Y-102920000D03*
X111270000Y-102920000D03*
X108730000Y-105460000D03*
X111270000Y-105460000D03*
X108730000Y-108000000D03*
X111270000Y-108000000D03*
X108730000Y-110540000D03*
X111270000Y-110540000D03*
X108730000Y-113080000D03*
X111270000Y-113080000D03*
X108730000Y-115620000D03*
X111270000Y-115620000D03*
X108730000Y-118160000D03*
X111270000Y-118160000D03*
X108730000Y-120700000D03*
X111270000Y-120700000D03*
X108730000Y-123240000D03*
X111270000Y-123240000D03*
X108730000Y-125780000D03*
X111270000Y-125780000D03*
D12*
G36*
X122421493Y-97350035D02*
G01*
X122452435Y-97354625D01*
X122482778Y-97362225D01*
X122512230Y-97372763D01*
X122540508Y-97386138D01*
X122567338Y-97402219D01*
X122592463Y-97420853D01*
X122615640Y-97441860D01*
X122636647Y-97465037D01*
X122655281Y-97490162D01*
X122671362Y-97516992D01*
X122684737Y-97545270D01*
X122695275Y-97574722D01*
X122702875Y-97605065D01*
X122707465Y-97636007D01*
X122709000Y-97667250D01*
X122709000Y-98304750D01*
X122707465Y-98335993D01*
X122702875Y-98366935D01*
X122695275Y-98397278D01*
X122684737Y-98426730D01*
X122671362Y-98455008D01*
X122655281Y-98481838D01*
X122636647Y-98506963D01*
X122615640Y-98530140D01*
X122592463Y-98551147D01*
X122567338Y-98569781D01*
X122540508Y-98585862D01*
X122512230Y-98599237D01*
X122482778Y-98609775D01*
X122452435Y-98617375D01*
X122421493Y-98621965D01*
X122390250Y-98623500D01*
X121677750Y-98623500D01*
X121646507Y-98621965D01*
X121615565Y-98617375D01*
X121585222Y-98609775D01*
X121555770Y-98599237D01*
X121527492Y-98585862D01*
X121500662Y-98569781D01*
X121475537Y-98551147D01*
X121452360Y-98530140D01*
X121431353Y-98506963D01*
X121412719Y-98481838D01*
X121396638Y-98455008D01*
X121383263Y-98426730D01*
X121372725Y-98397278D01*
X121365125Y-98366935D01*
X121360535Y-98335993D01*
X121359000Y-98304750D01*
X121359000Y-97667250D01*
X121360535Y-97636007D01*
X121365125Y-97605065D01*
X121372725Y-97574722D01*
X121383263Y-97545270D01*
X121396638Y-97516992D01*
X121412719Y-97490162D01*
X121431353Y-97465037D01*
X121452360Y-97441860D01*
X121475537Y-97420853D01*
X121500662Y-97402219D01*
X121527492Y-97386138D01*
X121555770Y-97372763D01*
X121585222Y-97362225D01*
X121615565Y-97354625D01*
X121646507Y-97350035D01*
X121677750Y-97348500D01*
X122390250Y-97348500D01*
X122421493Y-97350035D01*
X122421493Y-97350035D01*
G37*
D22*
X122034000Y-97986000D03*
D12*
G36*
X122421493Y-98925035D02*
G01*
X122452435Y-98929625D01*
X122482778Y-98937225D01*
X122512230Y-98947763D01*
X122540508Y-98961138D01*
X122567338Y-98977219D01*
X122592463Y-98995853D01*
X122615640Y-99016860D01*
X122636647Y-99040037D01*
X122655281Y-99065162D01*
X122671362Y-99091992D01*
X122684737Y-99120270D01*
X122695275Y-99149722D01*
X122702875Y-99180065D01*
X122707465Y-99211007D01*
X122709000Y-99242250D01*
X122709000Y-99879750D01*
X122707465Y-99910993D01*
X122702875Y-99941935D01*
X122695275Y-99972278D01*
X122684737Y-100001730D01*
X122671362Y-100030008D01*
X122655281Y-100056838D01*
X122636647Y-100081963D01*
X122615640Y-100105140D01*
X122592463Y-100126147D01*
X122567338Y-100144781D01*
X122540508Y-100160862D01*
X122512230Y-100174237D01*
X122482778Y-100184775D01*
X122452435Y-100192375D01*
X122421493Y-100196965D01*
X122390250Y-100198500D01*
X121677750Y-100198500D01*
X121646507Y-100196965D01*
X121615565Y-100192375D01*
X121585222Y-100184775D01*
X121555770Y-100174237D01*
X121527492Y-100160862D01*
X121500662Y-100144781D01*
X121475537Y-100126147D01*
X121452360Y-100105140D01*
X121431353Y-100081963D01*
X121412719Y-100056838D01*
X121396638Y-100030008D01*
X121383263Y-100001730D01*
X121372725Y-99972278D01*
X121365125Y-99941935D01*
X121360535Y-99910993D01*
X121359000Y-99879750D01*
X121359000Y-99242250D01*
X121360535Y-99211007D01*
X121365125Y-99180065D01*
X121372725Y-99149722D01*
X121383263Y-99120270D01*
X121396638Y-99091992D01*
X121412719Y-99065162D01*
X121431353Y-99040037D01*
X121452360Y-99016860D01*
X121475537Y-98995853D01*
X121500662Y-98977219D01*
X121527492Y-98961138D01*
X121555770Y-98947763D01*
X121585222Y-98937225D01*
X121615565Y-98929625D01*
X121646507Y-98925035D01*
X121677750Y-98923500D01*
X122390250Y-98923500D01*
X122421493Y-98925035D01*
X122421493Y-98925035D01*
G37*
D22*
X122034000Y-99561000D03*
D12*
G36*
X118853493Y-115816535D02*
G01*
X118884435Y-115821125D01*
X118914778Y-115828725D01*
X118944230Y-115839263D01*
X118972508Y-115852638D01*
X118999338Y-115868719D01*
X119024463Y-115887353D01*
X119047640Y-115908360D01*
X119068647Y-115931537D01*
X119087281Y-115956662D01*
X119103362Y-115983492D01*
X119116737Y-116011770D01*
X119127275Y-116041222D01*
X119134875Y-116071565D01*
X119139465Y-116102507D01*
X119141000Y-116133750D01*
X119141000Y-116846250D01*
X119139465Y-116877493D01*
X119134875Y-116908435D01*
X119127275Y-116938778D01*
X119116737Y-116968230D01*
X119103362Y-116996508D01*
X119087281Y-117023338D01*
X119068647Y-117048463D01*
X119047640Y-117071640D01*
X119024463Y-117092647D01*
X118999338Y-117111281D01*
X118972508Y-117127362D01*
X118944230Y-117140737D01*
X118914778Y-117151275D01*
X118884435Y-117158875D01*
X118853493Y-117163465D01*
X118822250Y-117165000D01*
X118184750Y-117165000D01*
X118153507Y-117163465D01*
X118122565Y-117158875D01*
X118092222Y-117151275D01*
X118062770Y-117140737D01*
X118034492Y-117127362D01*
X118007662Y-117111281D01*
X117982537Y-117092647D01*
X117959360Y-117071640D01*
X117938353Y-117048463D01*
X117919719Y-117023338D01*
X117903638Y-116996508D01*
X117890263Y-116968230D01*
X117879725Y-116938778D01*
X117872125Y-116908435D01*
X117867535Y-116877493D01*
X117866000Y-116846250D01*
X117866000Y-116133750D01*
X117867535Y-116102507D01*
X117872125Y-116071565D01*
X117879725Y-116041222D01*
X117890263Y-116011770D01*
X117903638Y-115983492D01*
X117919719Y-115956662D01*
X117938353Y-115931537D01*
X117959360Y-115908360D01*
X117982537Y-115887353D01*
X118007662Y-115868719D01*
X118034492Y-115852638D01*
X118062770Y-115839263D01*
X118092222Y-115828725D01*
X118122565Y-115821125D01*
X118153507Y-115816535D01*
X118184750Y-115815000D01*
X118822250Y-115815000D01*
X118853493Y-115816535D01*
X118853493Y-115816535D01*
G37*
D22*
X118503500Y-116490000D03*
D12*
G36*
X117278493Y-115816535D02*
G01*
X117309435Y-115821125D01*
X117339778Y-115828725D01*
X117369230Y-115839263D01*
X117397508Y-115852638D01*
X117424338Y-115868719D01*
X117449463Y-115887353D01*
X117472640Y-115908360D01*
X117493647Y-115931537D01*
X117512281Y-115956662D01*
X117528362Y-115983492D01*
X117541737Y-116011770D01*
X117552275Y-116041222D01*
X117559875Y-116071565D01*
X117564465Y-116102507D01*
X117566000Y-116133750D01*
X117566000Y-116846250D01*
X117564465Y-116877493D01*
X117559875Y-116908435D01*
X117552275Y-116938778D01*
X117541737Y-116968230D01*
X117528362Y-116996508D01*
X117512281Y-117023338D01*
X117493647Y-117048463D01*
X117472640Y-117071640D01*
X117449463Y-117092647D01*
X117424338Y-117111281D01*
X117397508Y-117127362D01*
X117369230Y-117140737D01*
X117339778Y-117151275D01*
X117309435Y-117158875D01*
X117278493Y-117163465D01*
X117247250Y-117165000D01*
X116609750Y-117165000D01*
X116578507Y-117163465D01*
X116547565Y-117158875D01*
X116517222Y-117151275D01*
X116487770Y-117140737D01*
X116459492Y-117127362D01*
X116432662Y-117111281D01*
X116407537Y-117092647D01*
X116384360Y-117071640D01*
X116363353Y-117048463D01*
X116344719Y-117023338D01*
X116328638Y-116996508D01*
X116315263Y-116968230D01*
X116304725Y-116938778D01*
X116297125Y-116908435D01*
X116292535Y-116877493D01*
X116291000Y-116846250D01*
X116291000Y-116133750D01*
X116292535Y-116102507D01*
X116297125Y-116071565D01*
X116304725Y-116041222D01*
X116315263Y-116011770D01*
X116328638Y-115983492D01*
X116344719Y-115956662D01*
X116363353Y-115931537D01*
X116384360Y-115908360D01*
X116407537Y-115887353D01*
X116432662Y-115868719D01*
X116459492Y-115852638D01*
X116487770Y-115839263D01*
X116517222Y-115828725D01*
X116547565Y-115821125D01*
X116578507Y-115816535D01*
X116609750Y-115815000D01*
X117247250Y-115815000D01*
X117278493Y-115816535D01*
X117278493Y-115816535D01*
G37*
D22*
X116928500Y-116490000D03*
D23*
X126860000Y-112680000D03*
D24*
X126860000Y-110140000D03*
X126860000Y-107600000D03*
X126860000Y-105060000D03*
X126860000Y-102520000D03*
D23*
X142100000Y-112680000D03*
D24*
X142100000Y-110140000D03*
X142100000Y-107600000D03*
X142100000Y-105060000D03*
D12*
G36*
X118853493Y-100322535D02*
G01*
X118884435Y-100327125D01*
X118914778Y-100334725D01*
X118944230Y-100345263D01*
X118972508Y-100358638D01*
X118999338Y-100374719D01*
X119024463Y-100393353D01*
X119047640Y-100414360D01*
X119068647Y-100437537D01*
X119087281Y-100462662D01*
X119103362Y-100489492D01*
X119116737Y-100517770D01*
X119127275Y-100547222D01*
X119134875Y-100577565D01*
X119139465Y-100608507D01*
X119141000Y-100639750D01*
X119141000Y-101352250D01*
X119139465Y-101383493D01*
X119134875Y-101414435D01*
X119127275Y-101444778D01*
X119116737Y-101474230D01*
X119103362Y-101502508D01*
X119087281Y-101529338D01*
X119068647Y-101554463D01*
X119047640Y-101577640D01*
X119024463Y-101598647D01*
X118999338Y-101617281D01*
X118972508Y-101633362D01*
X118944230Y-101646737D01*
X118914778Y-101657275D01*
X118884435Y-101664875D01*
X118853493Y-101669465D01*
X118822250Y-101671000D01*
X118184750Y-101671000D01*
X118153507Y-101669465D01*
X118122565Y-101664875D01*
X118092222Y-101657275D01*
X118062770Y-101646737D01*
X118034492Y-101633362D01*
X118007662Y-101617281D01*
X117982537Y-101598647D01*
X117959360Y-101577640D01*
X117938353Y-101554463D01*
X117919719Y-101529338D01*
X117903638Y-101502508D01*
X117890263Y-101474230D01*
X117879725Y-101444778D01*
X117872125Y-101414435D01*
X117867535Y-101383493D01*
X117866000Y-101352250D01*
X117866000Y-100639750D01*
X117867535Y-100608507D01*
X117872125Y-100577565D01*
X117879725Y-100547222D01*
X117890263Y-100517770D01*
X117903638Y-100489492D01*
X117919719Y-100462662D01*
X117938353Y-100437537D01*
X117959360Y-100414360D01*
X117982537Y-100393353D01*
X118007662Y-100374719D01*
X118034492Y-100358638D01*
X118062770Y-100345263D01*
X118092222Y-100334725D01*
X118122565Y-100327125D01*
X118153507Y-100322535D01*
X118184750Y-100321000D01*
X118822250Y-100321000D01*
X118853493Y-100322535D01*
X118853493Y-100322535D01*
G37*
D22*
X118503500Y-100996000D03*
D12*
G36*
X117278493Y-100322535D02*
G01*
X117309435Y-100327125D01*
X117339778Y-100334725D01*
X117369230Y-100345263D01*
X117397508Y-100358638D01*
X117424338Y-100374719D01*
X117449463Y-100393353D01*
X117472640Y-100414360D01*
X117493647Y-100437537D01*
X117512281Y-100462662D01*
X117528362Y-100489492D01*
X117541737Y-100517770D01*
X117552275Y-100547222D01*
X117559875Y-100577565D01*
X117564465Y-100608507D01*
X117566000Y-100639750D01*
X117566000Y-101352250D01*
X117564465Y-101383493D01*
X117559875Y-101414435D01*
X117552275Y-101444778D01*
X117541737Y-101474230D01*
X117528362Y-101502508D01*
X117512281Y-101529338D01*
X117493647Y-101554463D01*
X117472640Y-101577640D01*
X117449463Y-101598647D01*
X117424338Y-101617281D01*
X117397508Y-101633362D01*
X117369230Y-101646737D01*
X117339778Y-101657275D01*
X117309435Y-101664875D01*
X117278493Y-101669465D01*
X117247250Y-101671000D01*
X116609750Y-101671000D01*
X116578507Y-101669465D01*
X116547565Y-101664875D01*
X116517222Y-101657275D01*
X116487770Y-101646737D01*
X116459492Y-101633362D01*
X116432662Y-101617281D01*
X116407537Y-101598647D01*
X116384360Y-101577640D01*
X116363353Y-101554463D01*
X116344719Y-101529338D01*
X116328638Y-101502508D01*
X116315263Y-101474230D01*
X116304725Y-101444778D01*
X116297125Y-101414435D01*
X116292535Y-101383493D01*
X116291000Y-101352250D01*
X116291000Y-100639750D01*
X116292535Y-100608507D01*
X116297125Y-100577565D01*
X116304725Y-100547222D01*
X116315263Y-100517770D01*
X116328638Y-100489492D01*
X116344719Y-100462662D01*
X116363353Y-100437537D01*
X116384360Y-100414360D01*
X116407537Y-100393353D01*
X116432662Y-100374719D01*
X116459492Y-100358638D01*
X116487770Y-100345263D01*
X116517222Y-100334725D01*
X116547565Y-100327125D01*
X116578507Y-100322535D01*
X116609750Y-100321000D01*
X117247250Y-100321000D01*
X117278493Y-100322535D01*
X117278493Y-100322535D01*
G37*
D22*
X116928500Y-100996000D03*
D12*
G36*
X117278493Y-110482535D02*
G01*
X117309435Y-110487125D01*
X117339778Y-110494725D01*
X117369230Y-110505263D01*
X117397508Y-110518638D01*
X117424338Y-110534719D01*
X117449463Y-110553353D01*
X117472640Y-110574360D01*
X117493647Y-110597537D01*
X117512281Y-110622662D01*
X117528362Y-110649492D01*
X117541737Y-110677770D01*
X117552275Y-110707222D01*
X117559875Y-110737565D01*
X117564465Y-110768507D01*
X117566000Y-110799750D01*
X117566000Y-111512250D01*
X117564465Y-111543493D01*
X117559875Y-111574435D01*
X117552275Y-111604778D01*
X117541737Y-111634230D01*
X117528362Y-111662508D01*
X117512281Y-111689338D01*
X117493647Y-111714463D01*
X117472640Y-111737640D01*
X117449463Y-111758647D01*
X117424338Y-111777281D01*
X117397508Y-111793362D01*
X117369230Y-111806737D01*
X117339778Y-111817275D01*
X117309435Y-111824875D01*
X117278493Y-111829465D01*
X117247250Y-111831000D01*
X116609750Y-111831000D01*
X116578507Y-111829465D01*
X116547565Y-111824875D01*
X116517222Y-111817275D01*
X116487770Y-111806737D01*
X116459492Y-111793362D01*
X116432662Y-111777281D01*
X116407537Y-111758647D01*
X116384360Y-111737640D01*
X116363353Y-111714463D01*
X116344719Y-111689338D01*
X116328638Y-111662508D01*
X116315263Y-111634230D01*
X116304725Y-111604778D01*
X116297125Y-111574435D01*
X116292535Y-111543493D01*
X116291000Y-111512250D01*
X116291000Y-110799750D01*
X116292535Y-110768507D01*
X116297125Y-110737565D01*
X116304725Y-110707222D01*
X116315263Y-110677770D01*
X116328638Y-110649492D01*
X116344719Y-110622662D01*
X116363353Y-110597537D01*
X116384360Y-110574360D01*
X116407537Y-110553353D01*
X116432662Y-110534719D01*
X116459492Y-110518638D01*
X116487770Y-110505263D01*
X116517222Y-110494725D01*
X116547565Y-110487125D01*
X116578507Y-110482535D01*
X116609750Y-110481000D01*
X117247250Y-110481000D01*
X117278493Y-110482535D01*
X117278493Y-110482535D01*
G37*
D22*
X116928500Y-111156000D03*
D12*
G36*
X118853493Y-110482535D02*
G01*
X118884435Y-110487125D01*
X118914778Y-110494725D01*
X118944230Y-110505263D01*
X118972508Y-110518638D01*
X118999338Y-110534719D01*
X119024463Y-110553353D01*
X119047640Y-110574360D01*
X119068647Y-110597537D01*
X119087281Y-110622662D01*
X119103362Y-110649492D01*
X119116737Y-110677770D01*
X119127275Y-110707222D01*
X119134875Y-110737565D01*
X119139465Y-110768507D01*
X119141000Y-110799750D01*
X119141000Y-111512250D01*
X119139465Y-111543493D01*
X119134875Y-111574435D01*
X119127275Y-111604778D01*
X119116737Y-111634230D01*
X119103362Y-111662508D01*
X119087281Y-111689338D01*
X119068647Y-111714463D01*
X119047640Y-111737640D01*
X119024463Y-111758647D01*
X118999338Y-111777281D01*
X118972508Y-111793362D01*
X118944230Y-111806737D01*
X118914778Y-111817275D01*
X118884435Y-111824875D01*
X118853493Y-111829465D01*
X118822250Y-111831000D01*
X118184750Y-111831000D01*
X118153507Y-111829465D01*
X118122565Y-111824875D01*
X118092222Y-111817275D01*
X118062770Y-111806737D01*
X118034492Y-111793362D01*
X118007662Y-111777281D01*
X117982537Y-111758647D01*
X117959360Y-111737640D01*
X117938353Y-111714463D01*
X117919719Y-111689338D01*
X117903638Y-111662508D01*
X117890263Y-111634230D01*
X117879725Y-111604778D01*
X117872125Y-111574435D01*
X117867535Y-111543493D01*
X117866000Y-111512250D01*
X117866000Y-110799750D01*
X117867535Y-110768507D01*
X117872125Y-110737565D01*
X117879725Y-110707222D01*
X117890263Y-110677770D01*
X117903638Y-110649492D01*
X117919719Y-110622662D01*
X117938353Y-110597537D01*
X117959360Y-110574360D01*
X117982537Y-110553353D01*
X118007662Y-110534719D01*
X118034492Y-110518638D01*
X118062770Y-110505263D01*
X118092222Y-110494725D01*
X118122565Y-110487125D01*
X118153507Y-110482535D01*
X118184750Y-110481000D01*
X118822250Y-110481000D01*
X118853493Y-110482535D01*
X118853493Y-110482535D01*
G37*
D22*
X118503500Y-111156000D03*
D12*
G36*
X118853493Y-114038535D02*
G01*
X118884435Y-114043125D01*
X118914778Y-114050725D01*
X118944230Y-114061263D01*
X118972508Y-114074638D01*
X118999338Y-114090719D01*
X119024463Y-114109353D01*
X119047640Y-114130360D01*
X119068647Y-114153537D01*
X119087281Y-114178662D01*
X119103362Y-114205492D01*
X119116737Y-114233770D01*
X119127275Y-114263222D01*
X119134875Y-114293565D01*
X119139465Y-114324507D01*
X119141000Y-114355750D01*
X119141000Y-115068250D01*
X119139465Y-115099493D01*
X119134875Y-115130435D01*
X119127275Y-115160778D01*
X119116737Y-115190230D01*
X119103362Y-115218508D01*
X119087281Y-115245338D01*
X119068647Y-115270463D01*
X119047640Y-115293640D01*
X119024463Y-115314647D01*
X118999338Y-115333281D01*
X118972508Y-115349362D01*
X118944230Y-115362737D01*
X118914778Y-115373275D01*
X118884435Y-115380875D01*
X118853493Y-115385465D01*
X118822250Y-115387000D01*
X118184750Y-115387000D01*
X118153507Y-115385465D01*
X118122565Y-115380875D01*
X118092222Y-115373275D01*
X118062770Y-115362737D01*
X118034492Y-115349362D01*
X118007662Y-115333281D01*
X117982537Y-115314647D01*
X117959360Y-115293640D01*
X117938353Y-115270463D01*
X117919719Y-115245338D01*
X117903638Y-115218508D01*
X117890263Y-115190230D01*
X117879725Y-115160778D01*
X117872125Y-115130435D01*
X117867535Y-115099493D01*
X117866000Y-115068250D01*
X117866000Y-114355750D01*
X117867535Y-114324507D01*
X117872125Y-114293565D01*
X117879725Y-114263222D01*
X117890263Y-114233770D01*
X117903638Y-114205492D01*
X117919719Y-114178662D01*
X117938353Y-114153537D01*
X117959360Y-114130360D01*
X117982537Y-114109353D01*
X118007662Y-114090719D01*
X118034492Y-114074638D01*
X118062770Y-114061263D01*
X118092222Y-114050725D01*
X118122565Y-114043125D01*
X118153507Y-114038535D01*
X118184750Y-114037000D01*
X118822250Y-114037000D01*
X118853493Y-114038535D01*
X118853493Y-114038535D01*
G37*
D22*
X118503500Y-114712000D03*
D12*
G36*
X117278493Y-114038535D02*
G01*
X117309435Y-114043125D01*
X117339778Y-114050725D01*
X117369230Y-114061263D01*
X117397508Y-114074638D01*
X117424338Y-114090719D01*
X117449463Y-114109353D01*
X117472640Y-114130360D01*
X117493647Y-114153537D01*
X117512281Y-114178662D01*
X117528362Y-114205492D01*
X117541737Y-114233770D01*
X117552275Y-114263222D01*
X117559875Y-114293565D01*
X117564465Y-114324507D01*
X117566000Y-114355750D01*
X117566000Y-115068250D01*
X117564465Y-115099493D01*
X117559875Y-115130435D01*
X117552275Y-115160778D01*
X117541737Y-115190230D01*
X117528362Y-115218508D01*
X117512281Y-115245338D01*
X117493647Y-115270463D01*
X117472640Y-115293640D01*
X117449463Y-115314647D01*
X117424338Y-115333281D01*
X117397508Y-115349362D01*
X117369230Y-115362737D01*
X117339778Y-115373275D01*
X117309435Y-115380875D01*
X117278493Y-115385465D01*
X117247250Y-115387000D01*
X116609750Y-115387000D01*
X116578507Y-115385465D01*
X116547565Y-115380875D01*
X116517222Y-115373275D01*
X116487770Y-115362737D01*
X116459492Y-115349362D01*
X116432662Y-115333281D01*
X116407537Y-115314647D01*
X116384360Y-115293640D01*
X116363353Y-115270463D01*
X116344719Y-115245338D01*
X116328638Y-115218508D01*
X116315263Y-115190230D01*
X116304725Y-115160778D01*
X116297125Y-115130435D01*
X116292535Y-115099493D01*
X116291000Y-115068250D01*
X116291000Y-114355750D01*
X116292535Y-114324507D01*
X116297125Y-114293565D01*
X116304725Y-114263222D01*
X116315263Y-114233770D01*
X116328638Y-114205492D01*
X116344719Y-114178662D01*
X116363353Y-114153537D01*
X116384360Y-114130360D01*
X116407537Y-114109353D01*
X116432662Y-114090719D01*
X116459492Y-114074638D01*
X116487770Y-114061263D01*
X116517222Y-114050725D01*
X116547565Y-114043125D01*
X116578507Y-114038535D01*
X116609750Y-114037000D01*
X117247250Y-114037000D01*
X117278493Y-114038535D01*
X117278493Y-114038535D01*
G37*
D22*
X116928500Y-114712000D03*
D12*
G36*
X117278493Y-119372535D02*
G01*
X117309435Y-119377125D01*
X117339778Y-119384725D01*
X117369230Y-119395263D01*
X117397508Y-119408638D01*
X117424338Y-119424719D01*
X117449463Y-119443353D01*
X117472640Y-119464360D01*
X117493647Y-119487537D01*
X117512281Y-119512662D01*
X117528362Y-119539492D01*
X117541737Y-119567770D01*
X117552275Y-119597222D01*
X117559875Y-119627565D01*
X117564465Y-119658507D01*
X117566000Y-119689750D01*
X117566000Y-120402250D01*
X117564465Y-120433493D01*
X117559875Y-120464435D01*
X117552275Y-120494778D01*
X117541737Y-120524230D01*
X117528362Y-120552508D01*
X117512281Y-120579338D01*
X117493647Y-120604463D01*
X117472640Y-120627640D01*
X117449463Y-120648647D01*
X117424338Y-120667281D01*
X117397508Y-120683362D01*
X117369230Y-120696737D01*
X117339778Y-120707275D01*
X117309435Y-120714875D01*
X117278493Y-120719465D01*
X117247250Y-120721000D01*
X116609750Y-120721000D01*
X116578507Y-120719465D01*
X116547565Y-120714875D01*
X116517222Y-120707275D01*
X116487770Y-120696737D01*
X116459492Y-120683362D01*
X116432662Y-120667281D01*
X116407537Y-120648647D01*
X116384360Y-120627640D01*
X116363353Y-120604463D01*
X116344719Y-120579338D01*
X116328638Y-120552508D01*
X116315263Y-120524230D01*
X116304725Y-120494778D01*
X116297125Y-120464435D01*
X116292535Y-120433493D01*
X116291000Y-120402250D01*
X116291000Y-119689750D01*
X116292535Y-119658507D01*
X116297125Y-119627565D01*
X116304725Y-119597222D01*
X116315263Y-119567770D01*
X116328638Y-119539492D01*
X116344719Y-119512662D01*
X116363353Y-119487537D01*
X116384360Y-119464360D01*
X116407537Y-119443353D01*
X116432662Y-119424719D01*
X116459492Y-119408638D01*
X116487770Y-119395263D01*
X116517222Y-119384725D01*
X116547565Y-119377125D01*
X116578507Y-119372535D01*
X116609750Y-119371000D01*
X117247250Y-119371000D01*
X117278493Y-119372535D01*
X117278493Y-119372535D01*
G37*
D22*
X116928500Y-120046000D03*
D12*
G36*
X118853493Y-119372535D02*
G01*
X118884435Y-119377125D01*
X118914778Y-119384725D01*
X118944230Y-119395263D01*
X118972508Y-119408638D01*
X118999338Y-119424719D01*
X119024463Y-119443353D01*
X119047640Y-119464360D01*
X119068647Y-119487537D01*
X119087281Y-119512662D01*
X119103362Y-119539492D01*
X119116737Y-119567770D01*
X119127275Y-119597222D01*
X119134875Y-119627565D01*
X119139465Y-119658507D01*
X119141000Y-119689750D01*
X119141000Y-120402250D01*
X119139465Y-120433493D01*
X119134875Y-120464435D01*
X119127275Y-120494778D01*
X119116737Y-120524230D01*
X119103362Y-120552508D01*
X119087281Y-120579338D01*
X119068647Y-120604463D01*
X119047640Y-120627640D01*
X119024463Y-120648647D01*
X118999338Y-120667281D01*
X118972508Y-120683362D01*
X118944230Y-120696737D01*
X118914778Y-120707275D01*
X118884435Y-120714875D01*
X118853493Y-120719465D01*
X118822250Y-120721000D01*
X118184750Y-120721000D01*
X118153507Y-120719465D01*
X118122565Y-120714875D01*
X118092222Y-120707275D01*
X118062770Y-120696737D01*
X118034492Y-120683362D01*
X118007662Y-120667281D01*
X117982537Y-120648647D01*
X117959360Y-120627640D01*
X117938353Y-120604463D01*
X117919719Y-120579338D01*
X117903638Y-120552508D01*
X117890263Y-120524230D01*
X117879725Y-120494778D01*
X117872125Y-120464435D01*
X117867535Y-120433493D01*
X117866000Y-120402250D01*
X117866000Y-119689750D01*
X117867535Y-119658507D01*
X117872125Y-119627565D01*
X117879725Y-119597222D01*
X117890263Y-119567770D01*
X117903638Y-119539492D01*
X117919719Y-119512662D01*
X117938353Y-119487537D01*
X117959360Y-119464360D01*
X117982537Y-119443353D01*
X118007662Y-119424719D01*
X118034492Y-119408638D01*
X118062770Y-119395263D01*
X118092222Y-119384725D01*
X118122565Y-119377125D01*
X118153507Y-119372535D01*
X118184750Y-119371000D01*
X118822250Y-119371000D01*
X118853493Y-119372535D01*
X118853493Y-119372535D01*
G37*
D22*
X118503500Y-120046000D03*
D12*
G36*
X117404993Y-97718535D02*
G01*
X117435935Y-97723125D01*
X117466278Y-97730725D01*
X117495730Y-97741263D01*
X117524008Y-97754638D01*
X117550838Y-97770719D01*
X117575963Y-97789353D01*
X117599140Y-97810360D01*
X117620147Y-97833537D01*
X117638781Y-97858662D01*
X117654862Y-97885492D01*
X117668237Y-97913770D01*
X117678775Y-97943222D01*
X117686375Y-97973565D01*
X117690965Y-98004507D01*
X117692500Y-98035750D01*
X117692500Y-98673250D01*
X117690965Y-98704493D01*
X117686375Y-98735435D01*
X117678775Y-98765778D01*
X117668237Y-98795230D01*
X117654862Y-98823508D01*
X117638781Y-98850338D01*
X117620147Y-98875463D01*
X117599140Y-98898640D01*
X117575963Y-98919647D01*
X117550838Y-98938281D01*
X117524008Y-98954362D01*
X117495730Y-98967737D01*
X117466278Y-98978275D01*
X117435935Y-98985875D01*
X117404993Y-98990465D01*
X117373750Y-98992000D01*
X116661250Y-98992000D01*
X116630007Y-98990465D01*
X116599065Y-98985875D01*
X116568722Y-98978275D01*
X116539270Y-98967737D01*
X116510992Y-98954362D01*
X116484162Y-98938281D01*
X116459037Y-98919647D01*
X116435860Y-98898640D01*
X116414853Y-98875463D01*
X116396219Y-98850338D01*
X116380138Y-98823508D01*
X116366763Y-98795230D01*
X116356225Y-98765778D01*
X116348625Y-98735435D01*
X116344035Y-98704493D01*
X116342500Y-98673250D01*
X116342500Y-98035750D01*
X116344035Y-98004507D01*
X116348625Y-97973565D01*
X116356225Y-97943222D01*
X116366763Y-97913770D01*
X116380138Y-97885492D01*
X116396219Y-97858662D01*
X116414853Y-97833537D01*
X116435860Y-97810360D01*
X116459037Y-97789353D01*
X116484162Y-97770719D01*
X116510992Y-97754638D01*
X116539270Y-97741263D01*
X116568722Y-97730725D01*
X116599065Y-97723125D01*
X116630007Y-97718535D01*
X116661250Y-97717000D01*
X117373750Y-97717000D01*
X117404993Y-97718535D01*
X117404993Y-97718535D01*
G37*
D22*
X117017500Y-98354500D03*
D12*
G36*
X117404993Y-96143535D02*
G01*
X117435935Y-96148125D01*
X117466278Y-96155725D01*
X117495730Y-96166263D01*
X117524008Y-96179638D01*
X117550838Y-96195719D01*
X117575963Y-96214353D01*
X117599140Y-96235360D01*
X117620147Y-96258537D01*
X117638781Y-96283662D01*
X117654862Y-96310492D01*
X117668237Y-96338770D01*
X117678775Y-96368222D01*
X117686375Y-96398565D01*
X117690965Y-96429507D01*
X117692500Y-96460750D01*
X117692500Y-97098250D01*
X117690965Y-97129493D01*
X117686375Y-97160435D01*
X117678775Y-97190778D01*
X117668237Y-97220230D01*
X117654862Y-97248508D01*
X117638781Y-97275338D01*
X117620147Y-97300463D01*
X117599140Y-97323640D01*
X117575963Y-97344647D01*
X117550838Y-97363281D01*
X117524008Y-97379362D01*
X117495730Y-97392737D01*
X117466278Y-97403275D01*
X117435935Y-97410875D01*
X117404993Y-97415465D01*
X117373750Y-97417000D01*
X116661250Y-97417000D01*
X116630007Y-97415465D01*
X116599065Y-97410875D01*
X116568722Y-97403275D01*
X116539270Y-97392737D01*
X116510992Y-97379362D01*
X116484162Y-97363281D01*
X116459037Y-97344647D01*
X116435860Y-97323640D01*
X116414853Y-97300463D01*
X116396219Y-97275338D01*
X116380138Y-97248508D01*
X116366763Y-97220230D01*
X116356225Y-97190778D01*
X116348625Y-97160435D01*
X116344035Y-97129493D01*
X116342500Y-97098250D01*
X116342500Y-96460750D01*
X116344035Y-96429507D01*
X116348625Y-96398565D01*
X116356225Y-96368222D01*
X116366763Y-96338770D01*
X116380138Y-96310492D01*
X116396219Y-96283662D01*
X116414853Y-96258537D01*
X116435860Y-96235360D01*
X116459037Y-96214353D01*
X116484162Y-96195719D01*
X116510992Y-96179638D01*
X116539270Y-96166263D01*
X116568722Y-96155725D01*
X116599065Y-96148125D01*
X116630007Y-96143535D01*
X116661250Y-96142000D01*
X117373750Y-96142000D01*
X117404993Y-96143535D01*
X117404993Y-96143535D01*
G37*
D22*
X117017500Y-96779500D03*
D12*
G36*
X118853493Y-117594535D02*
G01*
X118884435Y-117599125D01*
X118914778Y-117606725D01*
X118944230Y-117617263D01*
X118972508Y-117630638D01*
X118999338Y-117646719D01*
X119024463Y-117665353D01*
X119047640Y-117686360D01*
X119068647Y-117709537D01*
X119087281Y-117734662D01*
X119103362Y-117761492D01*
X119116737Y-117789770D01*
X119127275Y-117819222D01*
X119134875Y-117849565D01*
X119139465Y-117880507D01*
X119141000Y-117911750D01*
X119141000Y-118624250D01*
X119139465Y-118655493D01*
X119134875Y-118686435D01*
X119127275Y-118716778D01*
X119116737Y-118746230D01*
X119103362Y-118774508D01*
X119087281Y-118801338D01*
X119068647Y-118826463D01*
X119047640Y-118849640D01*
X119024463Y-118870647D01*
X118999338Y-118889281D01*
X118972508Y-118905362D01*
X118944230Y-118918737D01*
X118914778Y-118929275D01*
X118884435Y-118936875D01*
X118853493Y-118941465D01*
X118822250Y-118943000D01*
X118184750Y-118943000D01*
X118153507Y-118941465D01*
X118122565Y-118936875D01*
X118092222Y-118929275D01*
X118062770Y-118918737D01*
X118034492Y-118905362D01*
X118007662Y-118889281D01*
X117982537Y-118870647D01*
X117959360Y-118849640D01*
X117938353Y-118826463D01*
X117919719Y-118801338D01*
X117903638Y-118774508D01*
X117890263Y-118746230D01*
X117879725Y-118716778D01*
X117872125Y-118686435D01*
X117867535Y-118655493D01*
X117866000Y-118624250D01*
X117866000Y-117911750D01*
X117867535Y-117880507D01*
X117872125Y-117849565D01*
X117879725Y-117819222D01*
X117890263Y-117789770D01*
X117903638Y-117761492D01*
X117919719Y-117734662D01*
X117938353Y-117709537D01*
X117959360Y-117686360D01*
X117982537Y-117665353D01*
X118007662Y-117646719D01*
X118034492Y-117630638D01*
X118062770Y-117617263D01*
X118092222Y-117606725D01*
X118122565Y-117599125D01*
X118153507Y-117594535D01*
X118184750Y-117593000D01*
X118822250Y-117593000D01*
X118853493Y-117594535D01*
X118853493Y-117594535D01*
G37*
D22*
X118503500Y-118268000D03*
D12*
G36*
X117278493Y-117594535D02*
G01*
X117309435Y-117599125D01*
X117339778Y-117606725D01*
X117369230Y-117617263D01*
X117397508Y-117630638D01*
X117424338Y-117646719D01*
X117449463Y-117665353D01*
X117472640Y-117686360D01*
X117493647Y-117709537D01*
X117512281Y-117734662D01*
X117528362Y-117761492D01*
X117541737Y-117789770D01*
X117552275Y-117819222D01*
X117559875Y-117849565D01*
X117564465Y-117880507D01*
X117566000Y-117911750D01*
X117566000Y-118624250D01*
X117564465Y-118655493D01*
X117559875Y-118686435D01*
X117552275Y-118716778D01*
X117541737Y-118746230D01*
X117528362Y-118774508D01*
X117512281Y-118801338D01*
X117493647Y-118826463D01*
X117472640Y-118849640D01*
X117449463Y-118870647D01*
X117424338Y-118889281D01*
X117397508Y-118905362D01*
X117369230Y-118918737D01*
X117339778Y-118929275D01*
X117309435Y-118936875D01*
X117278493Y-118941465D01*
X117247250Y-118943000D01*
X116609750Y-118943000D01*
X116578507Y-118941465D01*
X116547565Y-118936875D01*
X116517222Y-118929275D01*
X116487770Y-118918737D01*
X116459492Y-118905362D01*
X116432662Y-118889281D01*
X116407537Y-118870647D01*
X116384360Y-118849640D01*
X116363353Y-118826463D01*
X116344719Y-118801338D01*
X116328638Y-118774508D01*
X116315263Y-118746230D01*
X116304725Y-118716778D01*
X116297125Y-118686435D01*
X116292535Y-118655493D01*
X116291000Y-118624250D01*
X116291000Y-117911750D01*
X116292535Y-117880507D01*
X116297125Y-117849565D01*
X116304725Y-117819222D01*
X116315263Y-117789770D01*
X116328638Y-117761492D01*
X116344719Y-117734662D01*
X116363353Y-117709537D01*
X116384360Y-117686360D01*
X116407537Y-117665353D01*
X116432662Y-117646719D01*
X116459492Y-117630638D01*
X116487770Y-117617263D01*
X116517222Y-117606725D01*
X116547565Y-117599125D01*
X116578507Y-117594535D01*
X116609750Y-117593000D01*
X117247250Y-117593000D01*
X117278493Y-117594535D01*
X117278493Y-117594535D01*
G37*
D22*
X116928500Y-118268000D03*
D12*
G36*
X125278993Y-97350035D02*
G01*
X125309935Y-97354625D01*
X125340278Y-97362225D01*
X125369730Y-97372763D01*
X125398008Y-97386138D01*
X125424838Y-97402219D01*
X125449963Y-97420853D01*
X125473140Y-97441860D01*
X125494147Y-97465037D01*
X125512781Y-97490162D01*
X125528862Y-97516992D01*
X125542237Y-97545270D01*
X125552775Y-97574722D01*
X125560375Y-97605065D01*
X125564965Y-97636007D01*
X125566500Y-97667250D01*
X125566500Y-98304750D01*
X125564965Y-98335993D01*
X125560375Y-98366935D01*
X125552775Y-98397278D01*
X125542237Y-98426730D01*
X125528862Y-98455008D01*
X125512781Y-98481838D01*
X125494147Y-98506963D01*
X125473140Y-98530140D01*
X125449963Y-98551147D01*
X125424838Y-98569781D01*
X125398008Y-98585862D01*
X125369730Y-98599237D01*
X125340278Y-98609775D01*
X125309935Y-98617375D01*
X125278993Y-98621965D01*
X125247750Y-98623500D01*
X124535250Y-98623500D01*
X124504007Y-98621965D01*
X124473065Y-98617375D01*
X124442722Y-98609775D01*
X124413270Y-98599237D01*
X124384992Y-98585862D01*
X124358162Y-98569781D01*
X124333037Y-98551147D01*
X124309860Y-98530140D01*
X124288853Y-98506963D01*
X124270219Y-98481838D01*
X124254138Y-98455008D01*
X124240763Y-98426730D01*
X124230225Y-98397278D01*
X124222625Y-98366935D01*
X124218035Y-98335993D01*
X124216500Y-98304750D01*
X124216500Y-97667250D01*
X124218035Y-97636007D01*
X124222625Y-97605065D01*
X124230225Y-97574722D01*
X124240763Y-97545270D01*
X124254138Y-97516992D01*
X124270219Y-97490162D01*
X124288853Y-97465037D01*
X124309860Y-97441860D01*
X124333037Y-97420853D01*
X124358162Y-97402219D01*
X124384992Y-97386138D01*
X124413270Y-97372763D01*
X124442722Y-97362225D01*
X124473065Y-97354625D01*
X124504007Y-97350035D01*
X124535250Y-97348500D01*
X125247750Y-97348500D01*
X125278993Y-97350035D01*
X125278993Y-97350035D01*
G37*
D22*
X124891500Y-97986000D03*
D12*
G36*
X125278993Y-98925035D02*
G01*
X125309935Y-98929625D01*
X125340278Y-98937225D01*
X125369730Y-98947763D01*
X125398008Y-98961138D01*
X125424838Y-98977219D01*
X125449963Y-98995853D01*
X125473140Y-99016860D01*
X125494147Y-99040037D01*
X125512781Y-99065162D01*
X125528862Y-99091992D01*
X125542237Y-99120270D01*
X125552775Y-99149722D01*
X125560375Y-99180065D01*
X125564965Y-99211007D01*
X125566500Y-99242250D01*
X125566500Y-99879750D01*
X125564965Y-99910993D01*
X125560375Y-99941935D01*
X125552775Y-99972278D01*
X125542237Y-100001730D01*
X125528862Y-100030008D01*
X125512781Y-100056838D01*
X125494147Y-100081963D01*
X125473140Y-100105140D01*
X125449963Y-100126147D01*
X125424838Y-100144781D01*
X125398008Y-100160862D01*
X125369730Y-100174237D01*
X125340278Y-100184775D01*
X125309935Y-100192375D01*
X125278993Y-100196965D01*
X125247750Y-100198500D01*
X124535250Y-100198500D01*
X124504007Y-100196965D01*
X124473065Y-100192375D01*
X124442722Y-100184775D01*
X124413270Y-100174237D01*
X124384992Y-100160862D01*
X124358162Y-100144781D01*
X124333037Y-100126147D01*
X124309860Y-100105140D01*
X124288853Y-100081963D01*
X124270219Y-100056838D01*
X124254138Y-100030008D01*
X124240763Y-100001730D01*
X124230225Y-99972278D01*
X124222625Y-99941935D01*
X124218035Y-99910993D01*
X124216500Y-99879750D01*
X124216500Y-99242250D01*
X124218035Y-99211007D01*
X124222625Y-99180065D01*
X124230225Y-99149722D01*
X124240763Y-99120270D01*
X124254138Y-99091992D01*
X124270219Y-99065162D01*
X124288853Y-99040037D01*
X124309860Y-99016860D01*
X124333037Y-98995853D01*
X124358162Y-98977219D01*
X124384992Y-98961138D01*
X124413270Y-98947763D01*
X124442722Y-98937225D01*
X124473065Y-98929625D01*
X124504007Y-98925035D01*
X124535250Y-98923500D01*
X125247750Y-98923500D01*
X125278993Y-98925035D01*
X125278993Y-98925035D01*
G37*
D22*
X124891500Y-99561000D03*
D25*
X147180000Y-124110000D03*
D26*
X147180000Y-122110000D03*
X147180000Y-120110000D03*
X147180000Y-118110000D03*
D12*
G36*
X145789493Y-106735535D02*
G01*
X145820435Y-106740125D01*
X145850778Y-106747725D01*
X145880230Y-106758263D01*
X145908508Y-106771638D01*
X145935338Y-106787719D01*
X145960463Y-106806353D01*
X145983640Y-106827360D01*
X146004647Y-106850537D01*
X146023281Y-106875662D01*
X146039362Y-106902492D01*
X146052737Y-106930770D01*
X146063275Y-106960222D01*
X146070875Y-106990565D01*
X146075465Y-107021507D01*
X146077000Y-107052750D01*
X146077000Y-107690250D01*
X146075465Y-107721493D01*
X146070875Y-107752435D01*
X146063275Y-107782778D01*
X146052737Y-107812230D01*
X146039362Y-107840508D01*
X146023281Y-107867338D01*
X146004647Y-107892463D01*
X145983640Y-107915640D01*
X145960463Y-107936647D01*
X145935338Y-107955281D01*
X145908508Y-107971362D01*
X145880230Y-107984737D01*
X145850778Y-107995275D01*
X145820435Y-108002875D01*
X145789493Y-108007465D01*
X145758250Y-108009000D01*
X145045750Y-108009000D01*
X145014507Y-108007465D01*
X144983565Y-108002875D01*
X144953222Y-107995275D01*
X144923770Y-107984737D01*
X144895492Y-107971362D01*
X144868662Y-107955281D01*
X144843537Y-107936647D01*
X144820360Y-107915640D01*
X144799353Y-107892463D01*
X144780719Y-107867338D01*
X144764638Y-107840508D01*
X144751263Y-107812230D01*
X144740725Y-107782778D01*
X144733125Y-107752435D01*
X144728535Y-107721493D01*
X144727000Y-107690250D01*
X144727000Y-107052750D01*
X144728535Y-107021507D01*
X144733125Y-106990565D01*
X144740725Y-106960222D01*
X144751263Y-106930770D01*
X144764638Y-106902492D01*
X144780719Y-106875662D01*
X144799353Y-106850537D01*
X144820360Y-106827360D01*
X144843537Y-106806353D01*
X144868662Y-106787719D01*
X144895492Y-106771638D01*
X144923770Y-106758263D01*
X144953222Y-106747725D01*
X144983565Y-106740125D01*
X145014507Y-106735535D01*
X145045750Y-106734000D01*
X145758250Y-106734000D01*
X145789493Y-106735535D01*
X145789493Y-106735535D01*
G37*
D22*
X145402000Y-107371500D03*
D12*
G36*
X145789493Y-105160535D02*
G01*
X145820435Y-105165125D01*
X145850778Y-105172725D01*
X145880230Y-105183263D01*
X145908508Y-105196638D01*
X145935338Y-105212719D01*
X145960463Y-105231353D01*
X145983640Y-105252360D01*
X146004647Y-105275537D01*
X146023281Y-105300662D01*
X146039362Y-105327492D01*
X146052737Y-105355770D01*
X146063275Y-105385222D01*
X146070875Y-105415565D01*
X146075465Y-105446507D01*
X146077000Y-105477750D01*
X146077000Y-106115250D01*
X146075465Y-106146493D01*
X146070875Y-106177435D01*
X146063275Y-106207778D01*
X146052737Y-106237230D01*
X146039362Y-106265508D01*
X146023281Y-106292338D01*
X146004647Y-106317463D01*
X145983640Y-106340640D01*
X145960463Y-106361647D01*
X145935338Y-106380281D01*
X145908508Y-106396362D01*
X145880230Y-106409737D01*
X145850778Y-106420275D01*
X145820435Y-106427875D01*
X145789493Y-106432465D01*
X145758250Y-106434000D01*
X145045750Y-106434000D01*
X145014507Y-106432465D01*
X144983565Y-106427875D01*
X144953222Y-106420275D01*
X144923770Y-106409737D01*
X144895492Y-106396362D01*
X144868662Y-106380281D01*
X144843537Y-106361647D01*
X144820360Y-106340640D01*
X144799353Y-106317463D01*
X144780719Y-106292338D01*
X144764638Y-106265508D01*
X144751263Y-106237230D01*
X144740725Y-106207778D01*
X144733125Y-106177435D01*
X144728535Y-106146493D01*
X144727000Y-106115250D01*
X144727000Y-105477750D01*
X144728535Y-105446507D01*
X144733125Y-105415565D01*
X144740725Y-105385222D01*
X144751263Y-105355770D01*
X144764638Y-105327492D01*
X144780719Y-105300662D01*
X144799353Y-105275537D01*
X144820360Y-105252360D01*
X144843537Y-105231353D01*
X144868662Y-105212719D01*
X144895492Y-105196638D01*
X144923770Y-105183263D01*
X144953222Y-105172725D01*
X144983565Y-105165125D01*
X145014507Y-105160535D01*
X145045750Y-105159000D01*
X145758250Y-105159000D01*
X145789493Y-105160535D01*
X145789493Y-105160535D01*
G37*
D22*
X145402000Y-105796500D03*
D23*
X148450000Y-112680000D03*
D24*
X148450000Y-110140000D03*
D27*
X147196000Y-105380000D03*
X147196000Y-107280000D03*
X149196000Y-106330000D03*
D12*
G36*
X146297493Y-111053535D02*
G01*
X146328435Y-111058125D01*
X146358778Y-111065725D01*
X146388230Y-111076263D01*
X146416508Y-111089638D01*
X146443338Y-111105719D01*
X146468463Y-111124353D01*
X146491640Y-111145360D01*
X146512647Y-111168537D01*
X146531281Y-111193662D01*
X146547362Y-111220492D01*
X146560737Y-111248770D01*
X146571275Y-111278222D01*
X146578875Y-111308565D01*
X146583465Y-111339507D01*
X146585000Y-111370750D01*
X146585000Y-112008250D01*
X146583465Y-112039493D01*
X146578875Y-112070435D01*
X146571275Y-112100778D01*
X146560737Y-112130230D01*
X146547362Y-112158508D01*
X146531281Y-112185338D01*
X146512647Y-112210463D01*
X146491640Y-112233640D01*
X146468463Y-112254647D01*
X146443338Y-112273281D01*
X146416508Y-112289362D01*
X146388230Y-112302737D01*
X146358778Y-112313275D01*
X146328435Y-112320875D01*
X146297493Y-112325465D01*
X146266250Y-112327000D01*
X145553750Y-112327000D01*
X145522507Y-112325465D01*
X145491565Y-112320875D01*
X145461222Y-112313275D01*
X145431770Y-112302737D01*
X145403492Y-112289362D01*
X145376662Y-112273281D01*
X145351537Y-112254647D01*
X145328360Y-112233640D01*
X145307353Y-112210463D01*
X145288719Y-112185338D01*
X145272638Y-112158508D01*
X145259263Y-112130230D01*
X145248725Y-112100778D01*
X145241125Y-112070435D01*
X145236535Y-112039493D01*
X145235000Y-112008250D01*
X145235000Y-111370750D01*
X145236535Y-111339507D01*
X145241125Y-111308565D01*
X145248725Y-111278222D01*
X145259263Y-111248770D01*
X145272638Y-111220492D01*
X145288719Y-111193662D01*
X145307353Y-111168537D01*
X145328360Y-111145360D01*
X145351537Y-111124353D01*
X145376662Y-111105719D01*
X145403492Y-111089638D01*
X145431770Y-111076263D01*
X145461222Y-111065725D01*
X145491565Y-111058125D01*
X145522507Y-111053535D01*
X145553750Y-111052000D01*
X146266250Y-111052000D01*
X146297493Y-111053535D01*
X146297493Y-111053535D01*
G37*
D22*
X145910000Y-111689500D03*
D12*
G36*
X146297493Y-109478535D02*
G01*
X146328435Y-109483125D01*
X146358778Y-109490725D01*
X146388230Y-109501263D01*
X146416508Y-109514638D01*
X146443338Y-109530719D01*
X146468463Y-109549353D01*
X146491640Y-109570360D01*
X146512647Y-109593537D01*
X146531281Y-109618662D01*
X146547362Y-109645492D01*
X146560737Y-109673770D01*
X146571275Y-109703222D01*
X146578875Y-109733565D01*
X146583465Y-109764507D01*
X146585000Y-109795750D01*
X146585000Y-110433250D01*
X146583465Y-110464493D01*
X146578875Y-110495435D01*
X146571275Y-110525778D01*
X146560737Y-110555230D01*
X146547362Y-110583508D01*
X146531281Y-110610338D01*
X146512647Y-110635463D01*
X146491640Y-110658640D01*
X146468463Y-110679647D01*
X146443338Y-110698281D01*
X146416508Y-110714362D01*
X146388230Y-110727737D01*
X146358778Y-110738275D01*
X146328435Y-110745875D01*
X146297493Y-110750465D01*
X146266250Y-110752000D01*
X145553750Y-110752000D01*
X145522507Y-110750465D01*
X145491565Y-110745875D01*
X145461222Y-110738275D01*
X145431770Y-110727737D01*
X145403492Y-110714362D01*
X145376662Y-110698281D01*
X145351537Y-110679647D01*
X145328360Y-110658640D01*
X145307353Y-110635463D01*
X145288719Y-110610338D01*
X145272638Y-110583508D01*
X145259263Y-110555230D01*
X145248725Y-110525778D01*
X145241125Y-110495435D01*
X145236535Y-110464493D01*
X145235000Y-110433250D01*
X145235000Y-109795750D01*
X145236535Y-109764507D01*
X145241125Y-109733565D01*
X145248725Y-109703222D01*
X145259263Y-109673770D01*
X145272638Y-109645492D01*
X145288719Y-109618662D01*
X145307353Y-109593537D01*
X145328360Y-109570360D01*
X145351537Y-109549353D01*
X145376662Y-109530719D01*
X145403492Y-109514638D01*
X145431770Y-109501263D01*
X145461222Y-109490725D01*
X145491565Y-109483125D01*
X145522507Y-109478535D01*
X145553750Y-109477000D01*
X146266250Y-109477000D01*
X146297493Y-109478535D01*
X146297493Y-109478535D01*
G37*
D22*
X145910000Y-110114500D03*
D28*
X107000000Y-130000000D03*
X151000000Y-130000000D03*
X151000000Y-86000000D03*
X107000000Y-86000000D03*
D29*
X111000000Y-130000000D03*
X147000000Y-130000000D03*
X147000000Y-86000000D03*
X111000000Y-86000000D03*
D12*
G36*
X140963493Y-89793535D02*
G01*
X140994435Y-89798125D01*
X141024778Y-89805725D01*
X141054230Y-89816263D01*
X141082508Y-89829638D01*
X141109338Y-89845719D01*
X141134463Y-89864353D01*
X141157640Y-89885360D01*
X141178647Y-89908537D01*
X141197281Y-89933662D01*
X141213362Y-89960492D01*
X141226737Y-89988770D01*
X141237275Y-90018222D01*
X141244875Y-90048565D01*
X141249465Y-90079507D01*
X141251000Y-90110750D01*
X141251000Y-90748250D01*
X141249465Y-90779493D01*
X141244875Y-90810435D01*
X141237275Y-90840778D01*
X141226737Y-90870230D01*
X141213362Y-90898508D01*
X141197281Y-90925338D01*
X141178647Y-90950463D01*
X141157640Y-90973640D01*
X141134463Y-90994647D01*
X141109338Y-91013281D01*
X141082508Y-91029362D01*
X141054230Y-91042737D01*
X141024778Y-91053275D01*
X140994435Y-91060875D01*
X140963493Y-91065465D01*
X140932250Y-91067000D01*
X140219750Y-91067000D01*
X140188507Y-91065465D01*
X140157565Y-91060875D01*
X140127222Y-91053275D01*
X140097770Y-91042737D01*
X140069492Y-91029362D01*
X140042662Y-91013281D01*
X140017537Y-90994647D01*
X139994360Y-90973640D01*
X139973353Y-90950463D01*
X139954719Y-90925338D01*
X139938638Y-90898508D01*
X139925263Y-90870230D01*
X139914725Y-90840778D01*
X139907125Y-90810435D01*
X139902535Y-90779493D01*
X139901000Y-90748250D01*
X139901000Y-90110750D01*
X139902535Y-90079507D01*
X139907125Y-90048565D01*
X139914725Y-90018222D01*
X139925263Y-89988770D01*
X139938638Y-89960492D01*
X139954719Y-89933662D01*
X139973353Y-89908537D01*
X139994360Y-89885360D01*
X140017537Y-89864353D01*
X140042662Y-89845719D01*
X140069492Y-89829638D01*
X140097770Y-89816263D01*
X140127222Y-89805725D01*
X140157565Y-89798125D01*
X140188507Y-89793535D01*
X140219750Y-89792000D01*
X140932250Y-89792000D01*
X140963493Y-89793535D01*
X140963493Y-89793535D01*
G37*
D22*
X140576000Y-90429500D03*
D12*
G36*
X140963493Y-91368535D02*
G01*
X140994435Y-91373125D01*
X141024778Y-91380725D01*
X141054230Y-91391263D01*
X141082508Y-91404638D01*
X141109338Y-91420719D01*
X141134463Y-91439353D01*
X141157640Y-91460360D01*
X141178647Y-91483537D01*
X141197281Y-91508662D01*
X141213362Y-91535492D01*
X141226737Y-91563770D01*
X141237275Y-91593222D01*
X141244875Y-91623565D01*
X141249465Y-91654507D01*
X141251000Y-91685750D01*
X141251000Y-92323250D01*
X141249465Y-92354493D01*
X141244875Y-92385435D01*
X141237275Y-92415778D01*
X141226737Y-92445230D01*
X141213362Y-92473508D01*
X141197281Y-92500338D01*
X141178647Y-92525463D01*
X141157640Y-92548640D01*
X141134463Y-92569647D01*
X141109338Y-92588281D01*
X141082508Y-92604362D01*
X141054230Y-92617737D01*
X141024778Y-92628275D01*
X140994435Y-92635875D01*
X140963493Y-92640465D01*
X140932250Y-92642000D01*
X140219750Y-92642000D01*
X140188507Y-92640465D01*
X140157565Y-92635875D01*
X140127222Y-92628275D01*
X140097770Y-92617737D01*
X140069492Y-92604362D01*
X140042662Y-92588281D01*
X140017537Y-92569647D01*
X139994360Y-92548640D01*
X139973353Y-92525463D01*
X139954719Y-92500338D01*
X139938638Y-92473508D01*
X139925263Y-92445230D01*
X139914725Y-92415778D01*
X139907125Y-92385435D01*
X139902535Y-92354493D01*
X139901000Y-92323250D01*
X139901000Y-91685750D01*
X139902535Y-91654507D01*
X139907125Y-91623565D01*
X139914725Y-91593222D01*
X139925263Y-91563770D01*
X139938638Y-91535492D01*
X139954719Y-91508662D01*
X139973353Y-91483537D01*
X139994360Y-91460360D01*
X140017537Y-91439353D01*
X140042662Y-91420719D01*
X140069492Y-91404638D01*
X140097770Y-91391263D01*
X140127222Y-91380725D01*
X140157565Y-91373125D01*
X140188507Y-91368535D01*
X140219750Y-91367000D01*
X140932250Y-91367000D01*
X140963493Y-91368535D01*
X140963493Y-91368535D01*
G37*
D22*
X140576000Y-92004500D03*
D12*
G36*
X129787493Y-93527535D02*
G01*
X129818435Y-93532125D01*
X129848778Y-93539725D01*
X129878230Y-93550263D01*
X129906508Y-93563638D01*
X129933338Y-93579719D01*
X129958463Y-93598353D01*
X129981640Y-93619360D01*
X130002647Y-93642537D01*
X130021281Y-93667662D01*
X130037362Y-93694492D01*
X130050737Y-93722770D01*
X130061275Y-93752222D01*
X130068875Y-93782565D01*
X130073465Y-93813507D01*
X130075000Y-93844750D01*
X130075000Y-94482250D01*
X130073465Y-94513493D01*
X130068875Y-94544435D01*
X130061275Y-94574778D01*
X130050737Y-94604230D01*
X130037362Y-94632508D01*
X130021281Y-94659338D01*
X130002647Y-94684463D01*
X129981640Y-94707640D01*
X129958463Y-94728647D01*
X129933338Y-94747281D01*
X129906508Y-94763362D01*
X129878230Y-94776737D01*
X129848778Y-94787275D01*
X129818435Y-94794875D01*
X129787493Y-94799465D01*
X129756250Y-94801000D01*
X129043750Y-94801000D01*
X129012507Y-94799465D01*
X128981565Y-94794875D01*
X128951222Y-94787275D01*
X128921770Y-94776737D01*
X128893492Y-94763362D01*
X128866662Y-94747281D01*
X128841537Y-94728647D01*
X128818360Y-94707640D01*
X128797353Y-94684463D01*
X128778719Y-94659338D01*
X128762638Y-94632508D01*
X128749263Y-94604230D01*
X128738725Y-94574778D01*
X128731125Y-94544435D01*
X128726535Y-94513493D01*
X128725000Y-94482250D01*
X128725000Y-93844750D01*
X128726535Y-93813507D01*
X128731125Y-93782565D01*
X128738725Y-93752222D01*
X128749263Y-93722770D01*
X128762638Y-93694492D01*
X128778719Y-93667662D01*
X128797353Y-93642537D01*
X128818360Y-93619360D01*
X128841537Y-93598353D01*
X128866662Y-93579719D01*
X128893492Y-93563638D01*
X128921770Y-93550263D01*
X128951222Y-93539725D01*
X128981565Y-93532125D01*
X129012507Y-93527535D01*
X129043750Y-93526000D01*
X129756250Y-93526000D01*
X129787493Y-93527535D01*
X129787493Y-93527535D01*
G37*
D22*
X129400000Y-94163500D03*
D12*
G36*
X129787493Y-91952535D02*
G01*
X129818435Y-91957125D01*
X129848778Y-91964725D01*
X129878230Y-91975263D01*
X129906508Y-91988638D01*
X129933338Y-92004719D01*
X129958463Y-92023353D01*
X129981640Y-92044360D01*
X130002647Y-92067537D01*
X130021281Y-92092662D01*
X130037362Y-92119492D01*
X130050737Y-92147770D01*
X130061275Y-92177222D01*
X130068875Y-92207565D01*
X130073465Y-92238507D01*
X130075000Y-92269750D01*
X130075000Y-92907250D01*
X130073465Y-92938493D01*
X130068875Y-92969435D01*
X130061275Y-92999778D01*
X130050737Y-93029230D01*
X130037362Y-93057508D01*
X130021281Y-93084338D01*
X130002647Y-93109463D01*
X129981640Y-93132640D01*
X129958463Y-93153647D01*
X129933338Y-93172281D01*
X129906508Y-93188362D01*
X129878230Y-93201737D01*
X129848778Y-93212275D01*
X129818435Y-93219875D01*
X129787493Y-93224465D01*
X129756250Y-93226000D01*
X129043750Y-93226000D01*
X129012507Y-93224465D01*
X128981565Y-93219875D01*
X128951222Y-93212275D01*
X128921770Y-93201737D01*
X128893492Y-93188362D01*
X128866662Y-93172281D01*
X128841537Y-93153647D01*
X128818360Y-93132640D01*
X128797353Y-93109463D01*
X128778719Y-93084338D01*
X128762638Y-93057508D01*
X128749263Y-93029230D01*
X128738725Y-92999778D01*
X128731125Y-92969435D01*
X128726535Y-92938493D01*
X128725000Y-92907250D01*
X128725000Y-92269750D01*
X128726535Y-92238507D01*
X128731125Y-92207565D01*
X128738725Y-92177222D01*
X128749263Y-92147770D01*
X128762638Y-92119492D01*
X128778719Y-92092662D01*
X128797353Y-92067537D01*
X128818360Y-92044360D01*
X128841537Y-92023353D01*
X128866662Y-92004719D01*
X128893492Y-91988638D01*
X128921770Y-91975263D01*
X128951222Y-91964725D01*
X128981565Y-91957125D01*
X129012507Y-91952535D01*
X129043750Y-91951000D01*
X129756250Y-91951000D01*
X129787493Y-91952535D01*
X129787493Y-91952535D01*
G37*
D22*
X129400000Y-92588500D03*
D30*
X145402000Y-97726000D03*
X145402000Y-101726000D03*
X145402000Y-94360000D03*
X145402000Y-90360000D03*
D17*
X148450000Y-91725000D03*
X148450000Y-93249000D03*
D12*
G36*
X125076493Y-101846535D02*
G01*
X125107435Y-101851125D01*
X125137778Y-101858725D01*
X125167230Y-101869263D01*
X125195508Y-101882638D01*
X125222338Y-101898719D01*
X125247463Y-101917353D01*
X125270640Y-101938360D01*
X125291647Y-101961537D01*
X125310281Y-101986662D01*
X125326362Y-102013492D01*
X125339737Y-102041770D01*
X125350275Y-102071222D01*
X125357875Y-102101565D01*
X125362465Y-102132507D01*
X125364000Y-102163750D01*
X125364000Y-102876250D01*
X125362465Y-102907493D01*
X125357875Y-102938435D01*
X125350275Y-102968778D01*
X125339737Y-102998230D01*
X125326362Y-103026508D01*
X125310281Y-103053338D01*
X125291647Y-103078463D01*
X125270640Y-103101640D01*
X125247463Y-103122647D01*
X125222338Y-103141281D01*
X125195508Y-103157362D01*
X125167230Y-103170737D01*
X125137778Y-103181275D01*
X125107435Y-103188875D01*
X125076493Y-103193465D01*
X125045250Y-103195000D01*
X124407750Y-103195000D01*
X124376507Y-103193465D01*
X124345565Y-103188875D01*
X124315222Y-103181275D01*
X124285770Y-103170737D01*
X124257492Y-103157362D01*
X124230662Y-103141281D01*
X124205537Y-103122647D01*
X124182360Y-103101640D01*
X124161353Y-103078463D01*
X124142719Y-103053338D01*
X124126638Y-103026508D01*
X124113263Y-102998230D01*
X124102725Y-102968778D01*
X124095125Y-102938435D01*
X124090535Y-102907493D01*
X124089000Y-102876250D01*
X124089000Y-102163750D01*
X124090535Y-102132507D01*
X124095125Y-102101565D01*
X124102725Y-102071222D01*
X124113263Y-102041770D01*
X124126638Y-102013492D01*
X124142719Y-101986662D01*
X124161353Y-101961537D01*
X124182360Y-101938360D01*
X124205537Y-101917353D01*
X124230662Y-101898719D01*
X124257492Y-101882638D01*
X124285770Y-101869263D01*
X124315222Y-101858725D01*
X124345565Y-101851125D01*
X124376507Y-101846535D01*
X124407750Y-101845000D01*
X125045250Y-101845000D01*
X125076493Y-101846535D01*
X125076493Y-101846535D01*
G37*
D22*
X124726500Y-102520000D03*
D12*
G36*
X123501493Y-101846535D02*
G01*
X123532435Y-101851125D01*
X123562778Y-101858725D01*
X123592230Y-101869263D01*
X123620508Y-101882638D01*
X123647338Y-101898719D01*
X123672463Y-101917353D01*
X123695640Y-101938360D01*
X123716647Y-101961537D01*
X123735281Y-101986662D01*
X123751362Y-102013492D01*
X123764737Y-102041770D01*
X123775275Y-102071222D01*
X123782875Y-102101565D01*
X123787465Y-102132507D01*
X123789000Y-102163750D01*
X123789000Y-102876250D01*
X123787465Y-102907493D01*
X123782875Y-102938435D01*
X123775275Y-102968778D01*
X123764737Y-102998230D01*
X123751362Y-103026508D01*
X123735281Y-103053338D01*
X123716647Y-103078463D01*
X123695640Y-103101640D01*
X123672463Y-103122647D01*
X123647338Y-103141281D01*
X123620508Y-103157362D01*
X123592230Y-103170737D01*
X123562778Y-103181275D01*
X123532435Y-103188875D01*
X123501493Y-103193465D01*
X123470250Y-103195000D01*
X122832750Y-103195000D01*
X122801507Y-103193465D01*
X122770565Y-103188875D01*
X122740222Y-103181275D01*
X122710770Y-103170737D01*
X122682492Y-103157362D01*
X122655662Y-103141281D01*
X122630537Y-103122647D01*
X122607360Y-103101640D01*
X122586353Y-103078463D01*
X122567719Y-103053338D01*
X122551638Y-103026508D01*
X122538263Y-102998230D01*
X122527725Y-102968778D01*
X122520125Y-102938435D01*
X122515535Y-102907493D01*
X122514000Y-102876250D01*
X122514000Y-102163750D01*
X122515535Y-102132507D01*
X122520125Y-102101565D01*
X122527725Y-102071222D01*
X122538263Y-102041770D01*
X122551638Y-102013492D01*
X122567719Y-101986662D01*
X122586353Y-101961537D01*
X122607360Y-101938360D01*
X122630537Y-101917353D01*
X122655662Y-101898719D01*
X122682492Y-101882638D01*
X122710770Y-101869263D01*
X122740222Y-101858725D01*
X122770565Y-101851125D01*
X122801507Y-101846535D01*
X122832750Y-101845000D01*
X123470250Y-101845000D01*
X123501493Y-101846535D01*
X123501493Y-101846535D01*
G37*
D22*
X123151500Y-102520000D03*
D12*
G36*
X126041493Y-91940535D02*
G01*
X126072435Y-91945125D01*
X126102778Y-91952725D01*
X126132230Y-91963263D01*
X126160508Y-91976638D01*
X126187338Y-91992719D01*
X126212463Y-92011353D01*
X126235640Y-92032360D01*
X126256647Y-92055537D01*
X126275281Y-92080662D01*
X126291362Y-92107492D01*
X126304737Y-92135770D01*
X126315275Y-92165222D01*
X126322875Y-92195565D01*
X126327465Y-92226507D01*
X126329000Y-92257750D01*
X126329000Y-92970250D01*
X126327465Y-93001493D01*
X126322875Y-93032435D01*
X126315275Y-93062778D01*
X126304737Y-93092230D01*
X126291362Y-93120508D01*
X126275281Y-93147338D01*
X126256647Y-93172463D01*
X126235640Y-93195640D01*
X126212463Y-93216647D01*
X126187338Y-93235281D01*
X126160508Y-93251362D01*
X126132230Y-93264737D01*
X126102778Y-93275275D01*
X126072435Y-93282875D01*
X126041493Y-93287465D01*
X126010250Y-93289000D01*
X125372750Y-93289000D01*
X125341507Y-93287465D01*
X125310565Y-93282875D01*
X125280222Y-93275275D01*
X125250770Y-93264737D01*
X125222492Y-93251362D01*
X125195662Y-93235281D01*
X125170537Y-93216647D01*
X125147360Y-93195640D01*
X125126353Y-93172463D01*
X125107719Y-93147338D01*
X125091638Y-93120508D01*
X125078263Y-93092230D01*
X125067725Y-93062778D01*
X125060125Y-93032435D01*
X125055535Y-93001493D01*
X125054000Y-92970250D01*
X125054000Y-92257750D01*
X125055535Y-92226507D01*
X125060125Y-92195565D01*
X125067725Y-92165222D01*
X125078263Y-92135770D01*
X125091638Y-92107492D01*
X125107719Y-92080662D01*
X125126353Y-92055537D01*
X125147360Y-92032360D01*
X125170537Y-92011353D01*
X125195662Y-91992719D01*
X125222492Y-91976638D01*
X125250770Y-91963263D01*
X125280222Y-91952725D01*
X125310565Y-91945125D01*
X125341507Y-91940535D01*
X125372750Y-91939000D01*
X126010250Y-91939000D01*
X126041493Y-91940535D01*
X126041493Y-91940535D01*
G37*
D22*
X125691500Y-92614000D03*
D12*
G36*
X127616493Y-91940535D02*
G01*
X127647435Y-91945125D01*
X127677778Y-91952725D01*
X127707230Y-91963263D01*
X127735508Y-91976638D01*
X127762338Y-91992719D01*
X127787463Y-92011353D01*
X127810640Y-92032360D01*
X127831647Y-92055537D01*
X127850281Y-92080662D01*
X127866362Y-92107492D01*
X127879737Y-92135770D01*
X127890275Y-92165222D01*
X127897875Y-92195565D01*
X127902465Y-92226507D01*
X127904000Y-92257750D01*
X127904000Y-92970250D01*
X127902465Y-93001493D01*
X127897875Y-93032435D01*
X127890275Y-93062778D01*
X127879737Y-93092230D01*
X127866362Y-93120508D01*
X127850281Y-93147338D01*
X127831647Y-93172463D01*
X127810640Y-93195640D01*
X127787463Y-93216647D01*
X127762338Y-93235281D01*
X127735508Y-93251362D01*
X127707230Y-93264737D01*
X127677778Y-93275275D01*
X127647435Y-93282875D01*
X127616493Y-93287465D01*
X127585250Y-93289000D01*
X126947750Y-93289000D01*
X126916507Y-93287465D01*
X126885565Y-93282875D01*
X126855222Y-93275275D01*
X126825770Y-93264737D01*
X126797492Y-93251362D01*
X126770662Y-93235281D01*
X126745537Y-93216647D01*
X126722360Y-93195640D01*
X126701353Y-93172463D01*
X126682719Y-93147338D01*
X126666638Y-93120508D01*
X126653263Y-93092230D01*
X126642725Y-93062778D01*
X126635125Y-93032435D01*
X126630535Y-93001493D01*
X126629000Y-92970250D01*
X126629000Y-92257750D01*
X126630535Y-92226507D01*
X126635125Y-92195565D01*
X126642725Y-92165222D01*
X126653263Y-92135770D01*
X126666638Y-92107492D01*
X126682719Y-92080662D01*
X126701353Y-92055537D01*
X126722360Y-92032360D01*
X126745537Y-92011353D01*
X126770662Y-91992719D01*
X126797492Y-91976638D01*
X126825770Y-91963263D01*
X126855222Y-91952725D01*
X126885565Y-91945125D01*
X126916507Y-91940535D01*
X126947750Y-91939000D01*
X127585250Y-91939000D01*
X127616493Y-91940535D01*
X127616493Y-91940535D01*
G37*
D22*
X127266500Y-92614000D03*
D31*
X131838000Y-92614000D03*
D32*
X138138000Y-92614000D03*
X138138000Y-90314000D03*
X138138000Y-94914000D03*
M02*
