G04 #@! TF.GenerationSoftware,KiCad,Pcbnew,(5.1.4)-1*
G04 #@! TF.CreationDate,2020-04-17T11:09:56+09:00*
G04 #@! TF.ProjectId,M5_Atom2Mbus,4d355f41-746f-46d3-924d-6275732e6b69,v0.1*
G04 #@! TF.SameCoordinates,Original*
G04 #@! TF.FileFunction,Soldermask,Top*
G04 #@! TF.FilePolarity,Negative*
%FSLAX46Y46*%
G04 Gerber Fmt 4.6, Leading zero omitted, Abs format (unit mm)*
G04 Created by KiCad (PCBNEW (5.1.4)-1) date 2020-04-17 11:09:56*
%MOMM*%
%LPD*%
G04 APERTURE LIST*
%ADD10C,0.127000*%
%ADD11R,2.000200X1.568400*%
%ADD12C,1.200000*%
%ADD13C,1.400000*%
%ADD14R,3.550000X1.400000*%
%ADD15C,2.100000*%
%ADD16C,0.100000*%
%ADD17C,1.275000*%
%ADD18R,2.100000X2.100000*%
%ADD19O,2.100000X2.100000*%
%ADD20R,1.750000X1.750000*%
%ADD21C,1.750000*%
%ADD22R,1.300000X1.200000*%
%ADD23C,3.600000*%
%ADD24C,2.600000*%
%ADD25R,2.200000X2.900000*%
%ADD26R,2.400000X4.200000*%
%ADD27R,2.400000X1.900000*%
G04 APERTURE END LIST*
D10*
X149364400Y-99649800D02*
X147535600Y-99649800D01*
X149364400Y-99802200D02*
X149364400Y-99649800D01*
X147535600Y-99802200D02*
X149364400Y-99802200D01*
X147535600Y-99649800D02*
X147535600Y-99802200D01*
X147535600Y-92410800D02*
X147535600Y-92563200D01*
X147535600Y-92563200D02*
X149364400Y-92563200D01*
X149364400Y-92563200D02*
X149364400Y-92410800D01*
X149364400Y-92410800D02*
X147535600Y-92410800D01*
D11*
X148450000Y-100488000D03*
X148450000Y-98964000D03*
D12*
X110000000Y-121970000D03*
D13*
X110000000Y-124510000D03*
D12*
X110000000Y-94030000D03*
D14*
X107475000Y-90220000D03*
X107475000Y-102920000D03*
X107475000Y-100380000D03*
X107475000Y-97840000D03*
X107475000Y-95300000D03*
X107475000Y-92760000D03*
D12*
X106825000Y-90220000D03*
D14*
X112525000Y-90220000D03*
X112525000Y-92760000D03*
X112525000Y-95300000D03*
X112525000Y-97840000D03*
X112525000Y-100380000D03*
X112525000Y-102920000D03*
X107475000Y-105460000D03*
X112525000Y-105460000D03*
X107475000Y-108000000D03*
X112525000Y-108000000D03*
X107475000Y-110540000D03*
X112525000Y-110540000D03*
X107475000Y-113080000D03*
X112525000Y-113080000D03*
X107475000Y-115620000D03*
X112525000Y-115620000D03*
X107475000Y-118160000D03*
X112525000Y-118160000D03*
X107475000Y-120700000D03*
X112525000Y-120700000D03*
X107475000Y-123240000D03*
X112525000Y-123240000D03*
X107475000Y-125780000D03*
X112525000Y-125780000D03*
D12*
X106825000Y-92760000D03*
X106825000Y-95300000D03*
X106825000Y-97840000D03*
X106825000Y-100380000D03*
X106825000Y-102920000D03*
X106825000Y-105460000D03*
X106825000Y-108000000D03*
X106825000Y-110540000D03*
X106825000Y-113080000D03*
X106825000Y-115620000D03*
X106825000Y-118160000D03*
X106825000Y-120700000D03*
X106825000Y-123240000D03*
X106825000Y-125780000D03*
X113175000Y-90220000D03*
X113175000Y-92760000D03*
X113175000Y-95300000D03*
X113175000Y-97840000D03*
X113175000Y-100380000D03*
X113175000Y-102920000D03*
X113175000Y-105460000D03*
X113175000Y-108000000D03*
X113175000Y-110540000D03*
X113175000Y-113080000D03*
X113175000Y-115620000D03*
X113175000Y-118160000D03*
X113175000Y-120700000D03*
X113175000Y-123240000D03*
X113175000Y-125780000D03*
D13*
X110000000Y-91490000D03*
D15*
X108730000Y-90220000D03*
X111270000Y-90220000D03*
X108730000Y-92760000D03*
X111270000Y-92760000D03*
X108730000Y-95300000D03*
X111270000Y-95300000D03*
X108730000Y-97840000D03*
X111270000Y-97840000D03*
X108730000Y-100380000D03*
X111270000Y-100380000D03*
X108730000Y-102920000D03*
X111270000Y-102920000D03*
X108730000Y-105460000D03*
X111270000Y-105460000D03*
X108730000Y-108000000D03*
X111270000Y-108000000D03*
X108730000Y-110540000D03*
X111270000Y-110540000D03*
X108730000Y-113080000D03*
X111270000Y-113080000D03*
X108730000Y-115620000D03*
X111270000Y-115620000D03*
X108730000Y-118160000D03*
X111270000Y-118160000D03*
X108730000Y-120700000D03*
X111270000Y-120700000D03*
X108730000Y-123240000D03*
X111270000Y-123240000D03*
X108730000Y-125780000D03*
X111270000Y-125780000D03*
D16*
G36*
X122421493Y-97350035D02*
G01*
X122452435Y-97354625D01*
X122482778Y-97362225D01*
X122512230Y-97372763D01*
X122540508Y-97386138D01*
X122567338Y-97402219D01*
X122592463Y-97420853D01*
X122615640Y-97441860D01*
X122636647Y-97465037D01*
X122655281Y-97490162D01*
X122671362Y-97516992D01*
X122684737Y-97545270D01*
X122695275Y-97574722D01*
X122702875Y-97605065D01*
X122707465Y-97636007D01*
X122709000Y-97667250D01*
X122709000Y-98304750D01*
X122707465Y-98335993D01*
X122702875Y-98366935D01*
X122695275Y-98397278D01*
X122684737Y-98426730D01*
X122671362Y-98455008D01*
X122655281Y-98481838D01*
X122636647Y-98506963D01*
X122615640Y-98530140D01*
X122592463Y-98551147D01*
X122567338Y-98569781D01*
X122540508Y-98585862D01*
X122512230Y-98599237D01*
X122482778Y-98609775D01*
X122452435Y-98617375D01*
X122421493Y-98621965D01*
X122390250Y-98623500D01*
X121677750Y-98623500D01*
X121646507Y-98621965D01*
X121615565Y-98617375D01*
X121585222Y-98609775D01*
X121555770Y-98599237D01*
X121527492Y-98585862D01*
X121500662Y-98569781D01*
X121475537Y-98551147D01*
X121452360Y-98530140D01*
X121431353Y-98506963D01*
X121412719Y-98481838D01*
X121396638Y-98455008D01*
X121383263Y-98426730D01*
X121372725Y-98397278D01*
X121365125Y-98366935D01*
X121360535Y-98335993D01*
X121359000Y-98304750D01*
X121359000Y-97667250D01*
X121360535Y-97636007D01*
X121365125Y-97605065D01*
X121372725Y-97574722D01*
X121383263Y-97545270D01*
X121396638Y-97516992D01*
X121412719Y-97490162D01*
X121431353Y-97465037D01*
X121452360Y-97441860D01*
X121475537Y-97420853D01*
X121500662Y-97402219D01*
X121527492Y-97386138D01*
X121555770Y-97372763D01*
X121585222Y-97362225D01*
X121615565Y-97354625D01*
X121646507Y-97350035D01*
X121677750Y-97348500D01*
X122390250Y-97348500D01*
X122421493Y-97350035D01*
X122421493Y-97350035D01*
G37*
D17*
X122034000Y-97986000D03*
D16*
G36*
X122421493Y-98925035D02*
G01*
X122452435Y-98929625D01*
X122482778Y-98937225D01*
X122512230Y-98947763D01*
X122540508Y-98961138D01*
X122567338Y-98977219D01*
X122592463Y-98995853D01*
X122615640Y-99016860D01*
X122636647Y-99040037D01*
X122655281Y-99065162D01*
X122671362Y-99091992D01*
X122684737Y-99120270D01*
X122695275Y-99149722D01*
X122702875Y-99180065D01*
X122707465Y-99211007D01*
X122709000Y-99242250D01*
X122709000Y-99879750D01*
X122707465Y-99910993D01*
X122702875Y-99941935D01*
X122695275Y-99972278D01*
X122684737Y-100001730D01*
X122671362Y-100030008D01*
X122655281Y-100056838D01*
X122636647Y-100081963D01*
X122615640Y-100105140D01*
X122592463Y-100126147D01*
X122567338Y-100144781D01*
X122540508Y-100160862D01*
X122512230Y-100174237D01*
X122482778Y-100184775D01*
X122452435Y-100192375D01*
X122421493Y-100196965D01*
X122390250Y-100198500D01*
X121677750Y-100198500D01*
X121646507Y-100196965D01*
X121615565Y-100192375D01*
X121585222Y-100184775D01*
X121555770Y-100174237D01*
X121527492Y-100160862D01*
X121500662Y-100144781D01*
X121475537Y-100126147D01*
X121452360Y-100105140D01*
X121431353Y-100081963D01*
X121412719Y-100056838D01*
X121396638Y-100030008D01*
X121383263Y-100001730D01*
X121372725Y-99972278D01*
X121365125Y-99941935D01*
X121360535Y-99910993D01*
X121359000Y-99879750D01*
X121359000Y-99242250D01*
X121360535Y-99211007D01*
X121365125Y-99180065D01*
X121372725Y-99149722D01*
X121383263Y-99120270D01*
X121396638Y-99091992D01*
X121412719Y-99065162D01*
X121431353Y-99040037D01*
X121452360Y-99016860D01*
X121475537Y-98995853D01*
X121500662Y-98977219D01*
X121527492Y-98961138D01*
X121555770Y-98947763D01*
X121585222Y-98937225D01*
X121615565Y-98929625D01*
X121646507Y-98925035D01*
X121677750Y-98923500D01*
X122390250Y-98923500D01*
X122421493Y-98925035D01*
X122421493Y-98925035D01*
G37*
D17*
X122034000Y-99561000D03*
D16*
G36*
X118853493Y-115816535D02*
G01*
X118884435Y-115821125D01*
X118914778Y-115828725D01*
X118944230Y-115839263D01*
X118972508Y-115852638D01*
X118999338Y-115868719D01*
X119024463Y-115887353D01*
X119047640Y-115908360D01*
X119068647Y-115931537D01*
X119087281Y-115956662D01*
X119103362Y-115983492D01*
X119116737Y-116011770D01*
X119127275Y-116041222D01*
X119134875Y-116071565D01*
X119139465Y-116102507D01*
X119141000Y-116133750D01*
X119141000Y-116846250D01*
X119139465Y-116877493D01*
X119134875Y-116908435D01*
X119127275Y-116938778D01*
X119116737Y-116968230D01*
X119103362Y-116996508D01*
X119087281Y-117023338D01*
X119068647Y-117048463D01*
X119047640Y-117071640D01*
X119024463Y-117092647D01*
X118999338Y-117111281D01*
X118972508Y-117127362D01*
X118944230Y-117140737D01*
X118914778Y-117151275D01*
X118884435Y-117158875D01*
X118853493Y-117163465D01*
X118822250Y-117165000D01*
X118184750Y-117165000D01*
X118153507Y-117163465D01*
X118122565Y-117158875D01*
X118092222Y-117151275D01*
X118062770Y-117140737D01*
X118034492Y-117127362D01*
X118007662Y-117111281D01*
X117982537Y-117092647D01*
X117959360Y-117071640D01*
X117938353Y-117048463D01*
X117919719Y-117023338D01*
X117903638Y-116996508D01*
X117890263Y-116968230D01*
X117879725Y-116938778D01*
X117872125Y-116908435D01*
X117867535Y-116877493D01*
X117866000Y-116846250D01*
X117866000Y-116133750D01*
X117867535Y-116102507D01*
X117872125Y-116071565D01*
X117879725Y-116041222D01*
X117890263Y-116011770D01*
X117903638Y-115983492D01*
X117919719Y-115956662D01*
X117938353Y-115931537D01*
X117959360Y-115908360D01*
X117982537Y-115887353D01*
X118007662Y-115868719D01*
X118034492Y-115852638D01*
X118062770Y-115839263D01*
X118092222Y-115828725D01*
X118122565Y-115821125D01*
X118153507Y-115816535D01*
X118184750Y-115815000D01*
X118822250Y-115815000D01*
X118853493Y-115816535D01*
X118853493Y-115816535D01*
G37*
D17*
X118503500Y-116490000D03*
D16*
G36*
X117278493Y-115816535D02*
G01*
X117309435Y-115821125D01*
X117339778Y-115828725D01*
X117369230Y-115839263D01*
X117397508Y-115852638D01*
X117424338Y-115868719D01*
X117449463Y-115887353D01*
X117472640Y-115908360D01*
X117493647Y-115931537D01*
X117512281Y-115956662D01*
X117528362Y-115983492D01*
X117541737Y-116011770D01*
X117552275Y-116041222D01*
X117559875Y-116071565D01*
X117564465Y-116102507D01*
X117566000Y-116133750D01*
X117566000Y-116846250D01*
X117564465Y-116877493D01*
X117559875Y-116908435D01*
X117552275Y-116938778D01*
X117541737Y-116968230D01*
X117528362Y-116996508D01*
X117512281Y-117023338D01*
X117493647Y-117048463D01*
X117472640Y-117071640D01*
X117449463Y-117092647D01*
X117424338Y-117111281D01*
X117397508Y-117127362D01*
X117369230Y-117140737D01*
X117339778Y-117151275D01*
X117309435Y-117158875D01*
X117278493Y-117163465D01*
X117247250Y-117165000D01*
X116609750Y-117165000D01*
X116578507Y-117163465D01*
X116547565Y-117158875D01*
X116517222Y-117151275D01*
X116487770Y-117140737D01*
X116459492Y-117127362D01*
X116432662Y-117111281D01*
X116407537Y-117092647D01*
X116384360Y-117071640D01*
X116363353Y-117048463D01*
X116344719Y-117023338D01*
X116328638Y-116996508D01*
X116315263Y-116968230D01*
X116304725Y-116938778D01*
X116297125Y-116908435D01*
X116292535Y-116877493D01*
X116291000Y-116846250D01*
X116291000Y-116133750D01*
X116292535Y-116102507D01*
X116297125Y-116071565D01*
X116304725Y-116041222D01*
X116315263Y-116011770D01*
X116328638Y-115983492D01*
X116344719Y-115956662D01*
X116363353Y-115931537D01*
X116384360Y-115908360D01*
X116407537Y-115887353D01*
X116432662Y-115868719D01*
X116459492Y-115852638D01*
X116487770Y-115839263D01*
X116517222Y-115828725D01*
X116547565Y-115821125D01*
X116578507Y-115816535D01*
X116609750Y-115815000D01*
X117247250Y-115815000D01*
X117278493Y-115816535D01*
X117278493Y-115816535D01*
G37*
D17*
X116928500Y-116490000D03*
D18*
X126860000Y-112680000D03*
D19*
X126860000Y-110140000D03*
X126860000Y-107600000D03*
X126860000Y-105060000D03*
X126860000Y-102520000D03*
D18*
X142100000Y-112680000D03*
D19*
X142100000Y-110140000D03*
X142100000Y-107600000D03*
X142100000Y-105060000D03*
D16*
G36*
X118853493Y-100322535D02*
G01*
X118884435Y-100327125D01*
X118914778Y-100334725D01*
X118944230Y-100345263D01*
X118972508Y-100358638D01*
X118999338Y-100374719D01*
X119024463Y-100393353D01*
X119047640Y-100414360D01*
X119068647Y-100437537D01*
X119087281Y-100462662D01*
X119103362Y-100489492D01*
X119116737Y-100517770D01*
X119127275Y-100547222D01*
X119134875Y-100577565D01*
X119139465Y-100608507D01*
X119141000Y-100639750D01*
X119141000Y-101352250D01*
X119139465Y-101383493D01*
X119134875Y-101414435D01*
X119127275Y-101444778D01*
X119116737Y-101474230D01*
X119103362Y-101502508D01*
X119087281Y-101529338D01*
X119068647Y-101554463D01*
X119047640Y-101577640D01*
X119024463Y-101598647D01*
X118999338Y-101617281D01*
X118972508Y-101633362D01*
X118944230Y-101646737D01*
X118914778Y-101657275D01*
X118884435Y-101664875D01*
X118853493Y-101669465D01*
X118822250Y-101671000D01*
X118184750Y-101671000D01*
X118153507Y-101669465D01*
X118122565Y-101664875D01*
X118092222Y-101657275D01*
X118062770Y-101646737D01*
X118034492Y-101633362D01*
X118007662Y-101617281D01*
X117982537Y-101598647D01*
X117959360Y-101577640D01*
X117938353Y-101554463D01*
X117919719Y-101529338D01*
X117903638Y-101502508D01*
X117890263Y-101474230D01*
X117879725Y-101444778D01*
X117872125Y-101414435D01*
X117867535Y-101383493D01*
X117866000Y-101352250D01*
X117866000Y-100639750D01*
X117867535Y-100608507D01*
X117872125Y-100577565D01*
X117879725Y-100547222D01*
X117890263Y-100517770D01*
X117903638Y-100489492D01*
X117919719Y-100462662D01*
X117938353Y-100437537D01*
X117959360Y-100414360D01*
X117982537Y-100393353D01*
X118007662Y-100374719D01*
X118034492Y-100358638D01*
X118062770Y-100345263D01*
X118092222Y-100334725D01*
X118122565Y-100327125D01*
X118153507Y-100322535D01*
X118184750Y-100321000D01*
X118822250Y-100321000D01*
X118853493Y-100322535D01*
X118853493Y-100322535D01*
G37*
D17*
X118503500Y-100996000D03*
D16*
G36*
X117278493Y-100322535D02*
G01*
X117309435Y-100327125D01*
X117339778Y-100334725D01*
X117369230Y-100345263D01*
X117397508Y-100358638D01*
X117424338Y-100374719D01*
X117449463Y-100393353D01*
X117472640Y-100414360D01*
X117493647Y-100437537D01*
X117512281Y-100462662D01*
X117528362Y-100489492D01*
X117541737Y-100517770D01*
X117552275Y-100547222D01*
X117559875Y-100577565D01*
X117564465Y-100608507D01*
X117566000Y-100639750D01*
X117566000Y-101352250D01*
X117564465Y-101383493D01*
X117559875Y-101414435D01*
X117552275Y-101444778D01*
X117541737Y-101474230D01*
X117528362Y-101502508D01*
X117512281Y-101529338D01*
X117493647Y-101554463D01*
X117472640Y-101577640D01*
X117449463Y-101598647D01*
X117424338Y-101617281D01*
X117397508Y-101633362D01*
X117369230Y-101646737D01*
X117339778Y-101657275D01*
X117309435Y-101664875D01*
X117278493Y-101669465D01*
X117247250Y-101671000D01*
X116609750Y-101671000D01*
X116578507Y-101669465D01*
X116547565Y-101664875D01*
X116517222Y-101657275D01*
X116487770Y-101646737D01*
X116459492Y-101633362D01*
X116432662Y-101617281D01*
X116407537Y-101598647D01*
X116384360Y-101577640D01*
X116363353Y-101554463D01*
X116344719Y-101529338D01*
X116328638Y-101502508D01*
X116315263Y-101474230D01*
X116304725Y-101444778D01*
X116297125Y-101414435D01*
X116292535Y-101383493D01*
X116291000Y-101352250D01*
X116291000Y-100639750D01*
X116292535Y-100608507D01*
X116297125Y-100577565D01*
X116304725Y-100547222D01*
X116315263Y-100517770D01*
X116328638Y-100489492D01*
X116344719Y-100462662D01*
X116363353Y-100437537D01*
X116384360Y-100414360D01*
X116407537Y-100393353D01*
X116432662Y-100374719D01*
X116459492Y-100358638D01*
X116487770Y-100345263D01*
X116517222Y-100334725D01*
X116547565Y-100327125D01*
X116578507Y-100322535D01*
X116609750Y-100321000D01*
X117247250Y-100321000D01*
X117278493Y-100322535D01*
X117278493Y-100322535D01*
G37*
D17*
X116928500Y-100996000D03*
D16*
G36*
X117278493Y-110482535D02*
G01*
X117309435Y-110487125D01*
X117339778Y-110494725D01*
X117369230Y-110505263D01*
X117397508Y-110518638D01*
X117424338Y-110534719D01*
X117449463Y-110553353D01*
X117472640Y-110574360D01*
X117493647Y-110597537D01*
X117512281Y-110622662D01*
X117528362Y-110649492D01*
X117541737Y-110677770D01*
X117552275Y-110707222D01*
X117559875Y-110737565D01*
X117564465Y-110768507D01*
X117566000Y-110799750D01*
X117566000Y-111512250D01*
X117564465Y-111543493D01*
X117559875Y-111574435D01*
X117552275Y-111604778D01*
X117541737Y-111634230D01*
X117528362Y-111662508D01*
X117512281Y-111689338D01*
X117493647Y-111714463D01*
X117472640Y-111737640D01*
X117449463Y-111758647D01*
X117424338Y-111777281D01*
X117397508Y-111793362D01*
X117369230Y-111806737D01*
X117339778Y-111817275D01*
X117309435Y-111824875D01*
X117278493Y-111829465D01*
X117247250Y-111831000D01*
X116609750Y-111831000D01*
X116578507Y-111829465D01*
X116547565Y-111824875D01*
X116517222Y-111817275D01*
X116487770Y-111806737D01*
X116459492Y-111793362D01*
X116432662Y-111777281D01*
X116407537Y-111758647D01*
X116384360Y-111737640D01*
X116363353Y-111714463D01*
X116344719Y-111689338D01*
X116328638Y-111662508D01*
X116315263Y-111634230D01*
X116304725Y-111604778D01*
X116297125Y-111574435D01*
X116292535Y-111543493D01*
X116291000Y-111512250D01*
X116291000Y-110799750D01*
X116292535Y-110768507D01*
X116297125Y-110737565D01*
X116304725Y-110707222D01*
X116315263Y-110677770D01*
X116328638Y-110649492D01*
X116344719Y-110622662D01*
X116363353Y-110597537D01*
X116384360Y-110574360D01*
X116407537Y-110553353D01*
X116432662Y-110534719D01*
X116459492Y-110518638D01*
X116487770Y-110505263D01*
X116517222Y-110494725D01*
X116547565Y-110487125D01*
X116578507Y-110482535D01*
X116609750Y-110481000D01*
X117247250Y-110481000D01*
X117278493Y-110482535D01*
X117278493Y-110482535D01*
G37*
D17*
X116928500Y-111156000D03*
D16*
G36*
X118853493Y-110482535D02*
G01*
X118884435Y-110487125D01*
X118914778Y-110494725D01*
X118944230Y-110505263D01*
X118972508Y-110518638D01*
X118999338Y-110534719D01*
X119024463Y-110553353D01*
X119047640Y-110574360D01*
X119068647Y-110597537D01*
X119087281Y-110622662D01*
X119103362Y-110649492D01*
X119116737Y-110677770D01*
X119127275Y-110707222D01*
X119134875Y-110737565D01*
X119139465Y-110768507D01*
X119141000Y-110799750D01*
X119141000Y-111512250D01*
X119139465Y-111543493D01*
X119134875Y-111574435D01*
X119127275Y-111604778D01*
X119116737Y-111634230D01*
X119103362Y-111662508D01*
X119087281Y-111689338D01*
X119068647Y-111714463D01*
X119047640Y-111737640D01*
X119024463Y-111758647D01*
X118999338Y-111777281D01*
X118972508Y-111793362D01*
X118944230Y-111806737D01*
X118914778Y-111817275D01*
X118884435Y-111824875D01*
X118853493Y-111829465D01*
X118822250Y-111831000D01*
X118184750Y-111831000D01*
X118153507Y-111829465D01*
X118122565Y-111824875D01*
X118092222Y-111817275D01*
X118062770Y-111806737D01*
X118034492Y-111793362D01*
X118007662Y-111777281D01*
X117982537Y-111758647D01*
X117959360Y-111737640D01*
X117938353Y-111714463D01*
X117919719Y-111689338D01*
X117903638Y-111662508D01*
X117890263Y-111634230D01*
X117879725Y-111604778D01*
X117872125Y-111574435D01*
X117867535Y-111543493D01*
X117866000Y-111512250D01*
X117866000Y-110799750D01*
X117867535Y-110768507D01*
X117872125Y-110737565D01*
X117879725Y-110707222D01*
X117890263Y-110677770D01*
X117903638Y-110649492D01*
X117919719Y-110622662D01*
X117938353Y-110597537D01*
X117959360Y-110574360D01*
X117982537Y-110553353D01*
X118007662Y-110534719D01*
X118034492Y-110518638D01*
X118062770Y-110505263D01*
X118092222Y-110494725D01*
X118122565Y-110487125D01*
X118153507Y-110482535D01*
X118184750Y-110481000D01*
X118822250Y-110481000D01*
X118853493Y-110482535D01*
X118853493Y-110482535D01*
G37*
D17*
X118503500Y-111156000D03*
D16*
G36*
X118853493Y-114038535D02*
G01*
X118884435Y-114043125D01*
X118914778Y-114050725D01*
X118944230Y-114061263D01*
X118972508Y-114074638D01*
X118999338Y-114090719D01*
X119024463Y-114109353D01*
X119047640Y-114130360D01*
X119068647Y-114153537D01*
X119087281Y-114178662D01*
X119103362Y-114205492D01*
X119116737Y-114233770D01*
X119127275Y-114263222D01*
X119134875Y-114293565D01*
X119139465Y-114324507D01*
X119141000Y-114355750D01*
X119141000Y-115068250D01*
X119139465Y-115099493D01*
X119134875Y-115130435D01*
X119127275Y-115160778D01*
X119116737Y-115190230D01*
X119103362Y-115218508D01*
X119087281Y-115245338D01*
X119068647Y-115270463D01*
X119047640Y-115293640D01*
X119024463Y-115314647D01*
X118999338Y-115333281D01*
X118972508Y-115349362D01*
X118944230Y-115362737D01*
X118914778Y-115373275D01*
X118884435Y-115380875D01*
X118853493Y-115385465D01*
X118822250Y-115387000D01*
X118184750Y-115387000D01*
X118153507Y-115385465D01*
X118122565Y-115380875D01*
X118092222Y-115373275D01*
X118062770Y-115362737D01*
X118034492Y-115349362D01*
X118007662Y-115333281D01*
X117982537Y-115314647D01*
X117959360Y-115293640D01*
X117938353Y-115270463D01*
X117919719Y-115245338D01*
X117903638Y-115218508D01*
X117890263Y-115190230D01*
X117879725Y-115160778D01*
X117872125Y-115130435D01*
X117867535Y-115099493D01*
X117866000Y-115068250D01*
X117866000Y-114355750D01*
X117867535Y-114324507D01*
X117872125Y-114293565D01*
X117879725Y-114263222D01*
X117890263Y-114233770D01*
X117903638Y-114205492D01*
X117919719Y-114178662D01*
X117938353Y-114153537D01*
X117959360Y-114130360D01*
X117982537Y-114109353D01*
X118007662Y-114090719D01*
X118034492Y-114074638D01*
X118062770Y-114061263D01*
X118092222Y-114050725D01*
X118122565Y-114043125D01*
X118153507Y-114038535D01*
X118184750Y-114037000D01*
X118822250Y-114037000D01*
X118853493Y-114038535D01*
X118853493Y-114038535D01*
G37*
D17*
X118503500Y-114712000D03*
D16*
G36*
X117278493Y-114038535D02*
G01*
X117309435Y-114043125D01*
X117339778Y-114050725D01*
X117369230Y-114061263D01*
X117397508Y-114074638D01*
X117424338Y-114090719D01*
X117449463Y-114109353D01*
X117472640Y-114130360D01*
X117493647Y-114153537D01*
X117512281Y-114178662D01*
X117528362Y-114205492D01*
X117541737Y-114233770D01*
X117552275Y-114263222D01*
X117559875Y-114293565D01*
X117564465Y-114324507D01*
X117566000Y-114355750D01*
X117566000Y-115068250D01*
X117564465Y-115099493D01*
X117559875Y-115130435D01*
X117552275Y-115160778D01*
X117541737Y-115190230D01*
X117528362Y-115218508D01*
X117512281Y-115245338D01*
X117493647Y-115270463D01*
X117472640Y-115293640D01*
X117449463Y-115314647D01*
X117424338Y-115333281D01*
X117397508Y-115349362D01*
X117369230Y-115362737D01*
X117339778Y-115373275D01*
X117309435Y-115380875D01*
X117278493Y-115385465D01*
X117247250Y-115387000D01*
X116609750Y-115387000D01*
X116578507Y-115385465D01*
X116547565Y-115380875D01*
X116517222Y-115373275D01*
X116487770Y-115362737D01*
X116459492Y-115349362D01*
X116432662Y-115333281D01*
X116407537Y-115314647D01*
X116384360Y-115293640D01*
X116363353Y-115270463D01*
X116344719Y-115245338D01*
X116328638Y-115218508D01*
X116315263Y-115190230D01*
X116304725Y-115160778D01*
X116297125Y-115130435D01*
X116292535Y-115099493D01*
X116291000Y-115068250D01*
X116291000Y-114355750D01*
X116292535Y-114324507D01*
X116297125Y-114293565D01*
X116304725Y-114263222D01*
X116315263Y-114233770D01*
X116328638Y-114205492D01*
X116344719Y-114178662D01*
X116363353Y-114153537D01*
X116384360Y-114130360D01*
X116407537Y-114109353D01*
X116432662Y-114090719D01*
X116459492Y-114074638D01*
X116487770Y-114061263D01*
X116517222Y-114050725D01*
X116547565Y-114043125D01*
X116578507Y-114038535D01*
X116609750Y-114037000D01*
X117247250Y-114037000D01*
X117278493Y-114038535D01*
X117278493Y-114038535D01*
G37*
D17*
X116928500Y-114712000D03*
D16*
G36*
X117278493Y-119372535D02*
G01*
X117309435Y-119377125D01*
X117339778Y-119384725D01*
X117369230Y-119395263D01*
X117397508Y-119408638D01*
X117424338Y-119424719D01*
X117449463Y-119443353D01*
X117472640Y-119464360D01*
X117493647Y-119487537D01*
X117512281Y-119512662D01*
X117528362Y-119539492D01*
X117541737Y-119567770D01*
X117552275Y-119597222D01*
X117559875Y-119627565D01*
X117564465Y-119658507D01*
X117566000Y-119689750D01*
X117566000Y-120402250D01*
X117564465Y-120433493D01*
X117559875Y-120464435D01*
X117552275Y-120494778D01*
X117541737Y-120524230D01*
X117528362Y-120552508D01*
X117512281Y-120579338D01*
X117493647Y-120604463D01*
X117472640Y-120627640D01*
X117449463Y-120648647D01*
X117424338Y-120667281D01*
X117397508Y-120683362D01*
X117369230Y-120696737D01*
X117339778Y-120707275D01*
X117309435Y-120714875D01*
X117278493Y-120719465D01*
X117247250Y-120721000D01*
X116609750Y-120721000D01*
X116578507Y-120719465D01*
X116547565Y-120714875D01*
X116517222Y-120707275D01*
X116487770Y-120696737D01*
X116459492Y-120683362D01*
X116432662Y-120667281D01*
X116407537Y-120648647D01*
X116384360Y-120627640D01*
X116363353Y-120604463D01*
X116344719Y-120579338D01*
X116328638Y-120552508D01*
X116315263Y-120524230D01*
X116304725Y-120494778D01*
X116297125Y-120464435D01*
X116292535Y-120433493D01*
X116291000Y-120402250D01*
X116291000Y-119689750D01*
X116292535Y-119658507D01*
X116297125Y-119627565D01*
X116304725Y-119597222D01*
X116315263Y-119567770D01*
X116328638Y-119539492D01*
X116344719Y-119512662D01*
X116363353Y-119487537D01*
X116384360Y-119464360D01*
X116407537Y-119443353D01*
X116432662Y-119424719D01*
X116459492Y-119408638D01*
X116487770Y-119395263D01*
X116517222Y-119384725D01*
X116547565Y-119377125D01*
X116578507Y-119372535D01*
X116609750Y-119371000D01*
X117247250Y-119371000D01*
X117278493Y-119372535D01*
X117278493Y-119372535D01*
G37*
D17*
X116928500Y-120046000D03*
D16*
G36*
X118853493Y-119372535D02*
G01*
X118884435Y-119377125D01*
X118914778Y-119384725D01*
X118944230Y-119395263D01*
X118972508Y-119408638D01*
X118999338Y-119424719D01*
X119024463Y-119443353D01*
X119047640Y-119464360D01*
X119068647Y-119487537D01*
X119087281Y-119512662D01*
X119103362Y-119539492D01*
X119116737Y-119567770D01*
X119127275Y-119597222D01*
X119134875Y-119627565D01*
X119139465Y-119658507D01*
X119141000Y-119689750D01*
X119141000Y-120402250D01*
X119139465Y-120433493D01*
X119134875Y-120464435D01*
X119127275Y-120494778D01*
X119116737Y-120524230D01*
X119103362Y-120552508D01*
X119087281Y-120579338D01*
X119068647Y-120604463D01*
X119047640Y-120627640D01*
X119024463Y-120648647D01*
X118999338Y-120667281D01*
X118972508Y-120683362D01*
X118944230Y-120696737D01*
X118914778Y-120707275D01*
X118884435Y-120714875D01*
X118853493Y-120719465D01*
X118822250Y-120721000D01*
X118184750Y-120721000D01*
X118153507Y-120719465D01*
X118122565Y-120714875D01*
X118092222Y-120707275D01*
X118062770Y-120696737D01*
X118034492Y-120683362D01*
X118007662Y-120667281D01*
X117982537Y-120648647D01*
X117959360Y-120627640D01*
X117938353Y-120604463D01*
X117919719Y-120579338D01*
X117903638Y-120552508D01*
X117890263Y-120524230D01*
X117879725Y-120494778D01*
X117872125Y-120464435D01*
X117867535Y-120433493D01*
X117866000Y-120402250D01*
X117866000Y-119689750D01*
X117867535Y-119658507D01*
X117872125Y-119627565D01*
X117879725Y-119597222D01*
X117890263Y-119567770D01*
X117903638Y-119539492D01*
X117919719Y-119512662D01*
X117938353Y-119487537D01*
X117959360Y-119464360D01*
X117982537Y-119443353D01*
X118007662Y-119424719D01*
X118034492Y-119408638D01*
X118062770Y-119395263D01*
X118092222Y-119384725D01*
X118122565Y-119377125D01*
X118153507Y-119372535D01*
X118184750Y-119371000D01*
X118822250Y-119371000D01*
X118853493Y-119372535D01*
X118853493Y-119372535D01*
G37*
D17*
X118503500Y-120046000D03*
D16*
G36*
X117404993Y-97718535D02*
G01*
X117435935Y-97723125D01*
X117466278Y-97730725D01*
X117495730Y-97741263D01*
X117524008Y-97754638D01*
X117550838Y-97770719D01*
X117575963Y-97789353D01*
X117599140Y-97810360D01*
X117620147Y-97833537D01*
X117638781Y-97858662D01*
X117654862Y-97885492D01*
X117668237Y-97913770D01*
X117678775Y-97943222D01*
X117686375Y-97973565D01*
X117690965Y-98004507D01*
X117692500Y-98035750D01*
X117692500Y-98673250D01*
X117690965Y-98704493D01*
X117686375Y-98735435D01*
X117678775Y-98765778D01*
X117668237Y-98795230D01*
X117654862Y-98823508D01*
X117638781Y-98850338D01*
X117620147Y-98875463D01*
X117599140Y-98898640D01*
X117575963Y-98919647D01*
X117550838Y-98938281D01*
X117524008Y-98954362D01*
X117495730Y-98967737D01*
X117466278Y-98978275D01*
X117435935Y-98985875D01*
X117404993Y-98990465D01*
X117373750Y-98992000D01*
X116661250Y-98992000D01*
X116630007Y-98990465D01*
X116599065Y-98985875D01*
X116568722Y-98978275D01*
X116539270Y-98967737D01*
X116510992Y-98954362D01*
X116484162Y-98938281D01*
X116459037Y-98919647D01*
X116435860Y-98898640D01*
X116414853Y-98875463D01*
X116396219Y-98850338D01*
X116380138Y-98823508D01*
X116366763Y-98795230D01*
X116356225Y-98765778D01*
X116348625Y-98735435D01*
X116344035Y-98704493D01*
X116342500Y-98673250D01*
X116342500Y-98035750D01*
X116344035Y-98004507D01*
X116348625Y-97973565D01*
X116356225Y-97943222D01*
X116366763Y-97913770D01*
X116380138Y-97885492D01*
X116396219Y-97858662D01*
X116414853Y-97833537D01*
X116435860Y-97810360D01*
X116459037Y-97789353D01*
X116484162Y-97770719D01*
X116510992Y-97754638D01*
X116539270Y-97741263D01*
X116568722Y-97730725D01*
X116599065Y-97723125D01*
X116630007Y-97718535D01*
X116661250Y-97717000D01*
X117373750Y-97717000D01*
X117404993Y-97718535D01*
X117404993Y-97718535D01*
G37*
D17*
X117017500Y-98354500D03*
D16*
G36*
X117404993Y-96143535D02*
G01*
X117435935Y-96148125D01*
X117466278Y-96155725D01*
X117495730Y-96166263D01*
X117524008Y-96179638D01*
X117550838Y-96195719D01*
X117575963Y-96214353D01*
X117599140Y-96235360D01*
X117620147Y-96258537D01*
X117638781Y-96283662D01*
X117654862Y-96310492D01*
X117668237Y-96338770D01*
X117678775Y-96368222D01*
X117686375Y-96398565D01*
X117690965Y-96429507D01*
X117692500Y-96460750D01*
X117692500Y-97098250D01*
X117690965Y-97129493D01*
X117686375Y-97160435D01*
X117678775Y-97190778D01*
X117668237Y-97220230D01*
X117654862Y-97248508D01*
X117638781Y-97275338D01*
X117620147Y-97300463D01*
X117599140Y-97323640D01*
X117575963Y-97344647D01*
X117550838Y-97363281D01*
X117524008Y-97379362D01*
X117495730Y-97392737D01*
X117466278Y-97403275D01*
X117435935Y-97410875D01*
X117404993Y-97415465D01*
X117373750Y-97417000D01*
X116661250Y-97417000D01*
X116630007Y-97415465D01*
X116599065Y-97410875D01*
X116568722Y-97403275D01*
X116539270Y-97392737D01*
X116510992Y-97379362D01*
X116484162Y-97363281D01*
X116459037Y-97344647D01*
X116435860Y-97323640D01*
X116414853Y-97300463D01*
X116396219Y-97275338D01*
X116380138Y-97248508D01*
X116366763Y-97220230D01*
X116356225Y-97190778D01*
X116348625Y-97160435D01*
X116344035Y-97129493D01*
X116342500Y-97098250D01*
X116342500Y-96460750D01*
X116344035Y-96429507D01*
X116348625Y-96398565D01*
X116356225Y-96368222D01*
X116366763Y-96338770D01*
X116380138Y-96310492D01*
X116396219Y-96283662D01*
X116414853Y-96258537D01*
X116435860Y-96235360D01*
X116459037Y-96214353D01*
X116484162Y-96195719D01*
X116510992Y-96179638D01*
X116539270Y-96166263D01*
X116568722Y-96155725D01*
X116599065Y-96148125D01*
X116630007Y-96143535D01*
X116661250Y-96142000D01*
X117373750Y-96142000D01*
X117404993Y-96143535D01*
X117404993Y-96143535D01*
G37*
D17*
X117017500Y-96779500D03*
D16*
G36*
X118853493Y-117594535D02*
G01*
X118884435Y-117599125D01*
X118914778Y-117606725D01*
X118944230Y-117617263D01*
X118972508Y-117630638D01*
X118999338Y-117646719D01*
X119024463Y-117665353D01*
X119047640Y-117686360D01*
X119068647Y-117709537D01*
X119087281Y-117734662D01*
X119103362Y-117761492D01*
X119116737Y-117789770D01*
X119127275Y-117819222D01*
X119134875Y-117849565D01*
X119139465Y-117880507D01*
X119141000Y-117911750D01*
X119141000Y-118624250D01*
X119139465Y-118655493D01*
X119134875Y-118686435D01*
X119127275Y-118716778D01*
X119116737Y-118746230D01*
X119103362Y-118774508D01*
X119087281Y-118801338D01*
X119068647Y-118826463D01*
X119047640Y-118849640D01*
X119024463Y-118870647D01*
X118999338Y-118889281D01*
X118972508Y-118905362D01*
X118944230Y-118918737D01*
X118914778Y-118929275D01*
X118884435Y-118936875D01*
X118853493Y-118941465D01*
X118822250Y-118943000D01*
X118184750Y-118943000D01*
X118153507Y-118941465D01*
X118122565Y-118936875D01*
X118092222Y-118929275D01*
X118062770Y-118918737D01*
X118034492Y-118905362D01*
X118007662Y-118889281D01*
X117982537Y-118870647D01*
X117959360Y-118849640D01*
X117938353Y-118826463D01*
X117919719Y-118801338D01*
X117903638Y-118774508D01*
X117890263Y-118746230D01*
X117879725Y-118716778D01*
X117872125Y-118686435D01*
X117867535Y-118655493D01*
X117866000Y-118624250D01*
X117866000Y-117911750D01*
X117867535Y-117880507D01*
X117872125Y-117849565D01*
X117879725Y-117819222D01*
X117890263Y-117789770D01*
X117903638Y-117761492D01*
X117919719Y-117734662D01*
X117938353Y-117709537D01*
X117959360Y-117686360D01*
X117982537Y-117665353D01*
X118007662Y-117646719D01*
X118034492Y-117630638D01*
X118062770Y-117617263D01*
X118092222Y-117606725D01*
X118122565Y-117599125D01*
X118153507Y-117594535D01*
X118184750Y-117593000D01*
X118822250Y-117593000D01*
X118853493Y-117594535D01*
X118853493Y-117594535D01*
G37*
D17*
X118503500Y-118268000D03*
D16*
G36*
X117278493Y-117594535D02*
G01*
X117309435Y-117599125D01*
X117339778Y-117606725D01*
X117369230Y-117617263D01*
X117397508Y-117630638D01*
X117424338Y-117646719D01*
X117449463Y-117665353D01*
X117472640Y-117686360D01*
X117493647Y-117709537D01*
X117512281Y-117734662D01*
X117528362Y-117761492D01*
X117541737Y-117789770D01*
X117552275Y-117819222D01*
X117559875Y-117849565D01*
X117564465Y-117880507D01*
X117566000Y-117911750D01*
X117566000Y-118624250D01*
X117564465Y-118655493D01*
X117559875Y-118686435D01*
X117552275Y-118716778D01*
X117541737Y-118746230D01*
X117528362Y-118774508D01*
X117512281Y-118801338D01*
X117493647Y-118826463D01*
X117472640Y-118849640D01*
X117449463Y-118870647D01*
X117424338Y-118889281D01*
X117397508Y-118905362D01*
X117369230Y-118918737D01*
X117339778Y-118929275D01*
X117309435Y-118936875D01*
X117278493Y-118941465D01*
X117247250Y-118943000D01*
X116609750Y-118943000D01*
X116578507Y-118941465D01*
X116547565Y-118936875D01*
X116517222Y-118929275D01*
X116487770Y-118918737D01*
X116459492Y-118905362D01*
X116432662Y-118889281D01*
X116407537Y-118870647D01*
X116384360Y-118849640D01*
X116363353Y-118826463D01*
X116344719Y-118801338D01*
X116328638Y-118774508D01*
X116315263Y-118746230D01*
X116304725Y-118716778D01*
X116297125Y-118686435D01*
X116292535Y-118655493D01*
X116291000Y-118624250D01*
X116291000Y-117911750D01*
X116292535Y-117880507D01*
X116297125Y-117849565D01*
X116304725Y-117819222D01*
X116315263Y-117789770D01*
X116328638Y-117761492D01*
X116344719Y-117734662D01*
X116363353Y-117709537D01*
X116384360Y-117686360D01*
X116407537Y-117665353D01*
X116432662Y-117646719D01*
X116459492Y-117630638D01*
X116487770Y-117617263D01*
X116517222Y-117606725D01*
X116547565Y-117599125D01*
X116578507Y-117594535D01*
X116609750Y-117593000D01*
X117247250Y-117593000D01*
X117278493Y-117594535D01*
X117278493Y-117594535D01*
G37*
D17*
X116928500Y-118268000D03*
D16*
G36*
X125278993Y-97350035D02*
G01*
X125309935Y-97354625D01*
X125340278Y-97362225D01*
X125369730Y-97372763D01*
X125398008Y-97386138D01*
X125424838Y-97402219D01*
X125449963Y-97420853D01*
X125473140Y-97441860D01*
X125494147Y-97465037D01*
X125512781Y-97490162D01*
X125528862Y-97516992D01*
X125542237Y-97545270D01*
X125552775Y-97574722D01*
X125560375Y-97605065D01*
X125564965Y-97636007D01*
X125566500Y-97667250D01*
X125566500Y-98304750D01*
X125564965Y-98335993D01*
X125560375Y-98366935D01*
X125552775Y-98397278D01*
X125542237Y-98426730D01*
X125528862Y-98455008D01*
X125512781Y-98481838D01*
X125494147Y-98506963D01*
X125473140Y-98530140D01*
X125449963Y-98551147D01*
X125424838Y-98569781D01*
X125398008Y-98585862D01*
X125369730Y-98599237D01*
X125340278Y-98609775D01*
X125309935Y-98617375D01*
X125278993Y-98621965D01*
X125247750Y-98623500D01*
X124535250Y-98623500D01*
X124504007Y-98621965D01*
X124473065Y-98617375D01*
X124442722Y-98609775D01*
X124413270Y-98599237D01*
X124384992Y-98585862D01*
X124358162Y-98569781D01*
X124333037Y-98551147D01*
X124309860Y-98530140D01*
X124288853Y-98506963D01*
X124270219Y-98481838D01*
X124254138Y-98455008D01*
X124240763Y-98426730D01*
X124230225Y-98397278D01*
X124222625Y-98366935D01*
X124218035Y-98335993D01*
X124216500Y-98304750D01*
X124216500Y-97667250D01*
X124218035Y-97636007D01*
X124222625Y-97605065D01*
X124230225Y-97574722D01*
X124240763Y-97545270D01*
X124254138Y-97516992D01*
X124270219Y-97490162D01*
X124288853Y-97465037D01*
X124309860Y-97441860D01*
X124333037Y-97420853D01*
X124358162Y-97402219D01*
X124384992Y-97386138D01*
X124413270Y-97372763D01*
X124442722Y-97362225D01*
X124473065Y-97354625D01*
X124504007Y-97350035D01*
X124535250Y-97348500D01*
X125247750Y-97348500D01*
X125278993Y-97350035D01*
X125278993Y-97350035D01*
G37*
D17*
X124891500Y-97986000D03*
D16*
G36*
X125278993Y-98925035D02*
G01*
X125309935Y-98929625D01*
X125340278Y-98937225D01*
X125369730Y-98947763D01*
X125398008Y-98961138D01*
X125424838Y-98977219D01*
X125449963Y-98995853D01*
X125473140Y-99016860D01*
X125494147Y-99040037D01*
X125512781Y-99065162D01*
X125528862Y-99091992D01*
X125542237Y-99120270D01*
X125552775Y-99149722D01*
X125560375Y-99180065D01*
X125564965Y-99211007D01*
X125566500Y-99242250D01*
X125566500Y-99879750D01*
X125564965Y-99910993D01*
X125560375Y-99941935D01*
X125552775Y-99972278D01*
X125542237Y-100001730D01*
X125528862Y-100030008D01*
X125512781Y-100056838D01*
X125494147Y-100081963D01*
X125473140Y-100105140D01*
X125449963Y-100126147D01*
X125424838Y-100144781D01*
X125398008Y-100160862D01*
X125369730Y-100174237D01*
X125340278Y-100184775D01*
X125309935Y-100192375D01*
X125278993Y-100196965D01*
X125247750Y-100198500D01*
X124535250Y-100198500D01*
X124504007Y-100196965D01*
X124473065Y-100192375D01*
X124442722Y-100184775D01*
X124413270Y-100174237D01*
X124384992Y-100160862D01*
X124358162Y-100144781D01*
X124333037Y-100126147D01*
X124309860Y-100105140D01*
X124288853Y-100081963D01*
X124270219Y-100056838D01*
X124254138Y-100030008D01*
X124240763Y-100001730D01*
X124230225Y-99972278D01*
X124222625Y-99941935D01*
X124218035Y-99910993D01*
X124216500Y-99879750D01*
X124216500Y-99242250D01*
X124218035Y-99211007D01*
X124222625Y-99180065D01*
X124230225Y-99149722D01*
X124240763Y-99120270D01*
X124254138Y-99091992D01*
X124270219Y-99065162D01*
X124288853Y-99040037D01*
X124309860Y-99016860D01*
X124333037Y-98995853D01*
X124358162Y-98977219D01*
X124384992Y-98961138D01*
X124413270Y-98947763D01*
X124442722Y-98937225D01*
X124473065Y-98929625D01*
X124504007Y-98925035D01*
X124535250Y-98923500D01*
X125247750Y-98923500D01*
X125278993Y-98925035D01*
X125278993Y-98925035D01*
G37*
D17*
X124891500Y-99561000D03*
D20*
X147180000Y-124110000D03*
D21*
X147180000Y-122110000D03*
X147180000Y-120110000D03*
X147180000Y-118110000D03*
D16*
G36*
X145789493Y-106735535D02*
G01*
X145820435Y-106740125D01*
X145850778Y-106747725D01*
X145880230Y-106758263D01*
X145908508Y-106771638D01*
X145935338Y-106787719D01*
X145960463Y-106806353D01*
X145983640Y-106827360D01*
X146004647Y-106850537D01*
X146023281Y-106875662D01*
X146039362Y-106902492D01*
X146052737Y-106930770D01*
X146063275Y-106960222D01*
X146070875Y-106990565D01*
X146075465Y-107021507D01*
X146077000Y-107052750D01*
X146077000Y-107690250D01*
X146075465Y-107721493D01*
X146070875Y-107752435D01*
X146063275Y-107782778D01*
X146052737Y-107812230D01*
X146039362Y-107840508D01*
X146023281Y-107867338D01*
X146004647Y-107892463D01*
X145983640Y-107915640D01*
X145960463Y-107936647D01*
X145935338Y-107955281D01*
X145908508Y-107971362D01*
X145880230Y-107984737D01*
X145850778Y-107995275D01*
X145820435Y-108002875D01*
X145789493Y-108007465D01*
X145758250Y-108009000D01*
X145045750Y-108009000D01*
X145014507Y-108007465D01*
X144983565Y-108002875D01*
X144953222Y-107995275D01*
X144923770Y-107984737D01*
X144895492Y-107971362D01*
X144868662Y-107955281D01*
X144843537Y-107936647D01*
X144820360Y-107915640D01*
X144799353Y-107892463D01*
X144780719Y-107867338D01*
X144764638Y-107840508D01*
X144751263Y-107812230D01*
X144740725Y-107782778D01*
X144733125Y-107752435D01*
X144728535Y-107721493D01*
X144727000Y-107690250D01*
X144727000Y-107052750D01*
X144728535Y-107021507D01*
X144733125Y-106990565D01*
X144740725Y-106960222D01*
X144751263Y-106930770D01*
X144764638Y-106902492D01*
X144780719Y-106875662D01*
X144799353Y-106850537D01*
X144820360Y-106827360D01*
X144843537Y-106806353D01*
X144868662Y-106787719D01*
X144895492Y-106771638D01*
X144923770Y-106758263D01*
X144953222Y-106747725D01*
X144983565Y-106740125D01*
X145014507Y-106735535D01*
X145045750Y-106734000D01*
X145758250Y-106734000D01*
X145789493Y-106735535D01*
X145789493Y-106735535D01*
G37*
D17*
X145402000Y-107371500D03*
D16*
G36*
X145789493Y-105160535D02*
G01*
X145820435Y-105165125D01*
X145850778Y-105172725D01*
X145880230Y-105183263D01*
X145908508Y-105196638D01*
X145935338Y-105212719D01*
X145960463Y-105231353D01*
X145983640Y-105252360D01*
X146004647Y-105275537D01*
X146023281Y-105300662D01*
X146039362Y-105327492D01*
X146052737Y-105355770D01*
X146063275Y-105385222D01*
X146070875Y-105415565D01*
X146075465Y-105446507D01*
X146077000Y-105477750D01*
X146077000Y-106115250D01*
X146075465Y-106146493D01*
X146070875Y-106177435D01*
X146063275Y-106207778D01*
X146052737Y-106237230D01*
X146039362Y-106265508D01*
X146023281Y-106292338D01*
X146004647Y-106317463D01*
X145983640Y-106340640D01*
X145960463Y-106361647D01*
X145935338Y-106380281D01*
X145908508Y-106396362D01*
X145880230Y-106409737D01*
X145850778Y-106420275D01*
X145820435Y-106427875D01*
X145789493Y-106432465D01*
X145758250Y-106434000D01*
X145045750Y-106434000D01*
X145014507Y-106432465D01*
X144983565Y-106427875D01*
X144953222Y-106420275D01*
X144923770Y-106409737D01*
X144895492Y-106396362D01*
X144868662Y-106380281D01*
X144843537Y-106361647D01*
X144820360Y-106340640D01*
X144799353Y-106317463D01*
X144780719Y-106292338D01*
X144764638Y-106265508D01*
X144751263Y-106237230D01*
X144740725Y-106207778D01*
X144733125Y-106177435D01*
X144728535Y-106146493D01*
X144727000Y-106115250D01*
X144727000Y-105477750D01*
X144728535Y-105446507D01*
X144733125Y-105415565D01*
X144740725Y-105385222D01*
X144751263Y-105355770D01*
X144764638Y-105327492D01*
X144780719Y-105300662D01*
X144799353Y-105275537D01*
X144820360Y-105252360D01*
X144843537Y-105231353D01*
X144868662Y-105212719D01*
X144895492Y-105196638D01*
X144923770Y-105183263D01*
X144953222Y-105172725D01*
X144983565Y-105165125D01*
X145014507Y-105160535D01*
X145045750Y-105159000D01*
X145758250Y-105159000D01*
X145789493Y-105160535D01*
X145789493Y-105160535D01*
G37*
D17*
X145402000Y-105796500D03*
D18*
X148450000Y-112680000D03*
D19*
X148450000Y-110140000D03*
D22*
X147196000Y-105380000D03*
X147196000Y-107280000D03*
X149196000Y-106330000D03*
D16*
G36*
X146297493Y-111053535D02*
G01*
X146328435Y-111058125D01*
X146358778Y-111065725D01*
X146388230Y-111076263D01*
X146416508Y-111089638D01*
X146443338Y-111105719D01*
X146468463Y-111124353D01*
X146491640Y-111145360D01*
X146512647Y-111168537D01*
X146531281Y-111193662D01*
X146547362Y-111220492D01*
X146560737Y-111248770D01*
X146571275Y-111278222D01*
X146578875Y-111308565D01*
X146583465Y-111339507D01*
X146585000Y-111370750D01*
X146585000Y-112008250D01*
X146583465Y-112039493D01*
X146578875Y-112070435D01*
X146571275Y-112100778D01*
X146560737Y-112130230D01*
X146547362Y-112158508D01*
X146531281Y-112185338D01*
X146512647Y-112210463D01*
X146491640Y-112233640D01*
X146468463Y-112254647D01*
X146443338Y-112273281D01*
X146416508Y-112289362D01*
X146388230Y-112302737D01*
X146358778Y-112313275D01*
X146328435Y-112320875D01*
X146297493Y-112325465D01*
X146266250Y-112327000D01*
X145553750Y-112327000D01*
X145522507Y-112325465D01*
X145491565Y-112320875D01*
X145461222Y-112313275D01*
X145431770Y-112302737D01*
X145403492Y-112289362D01*
X145376662Y-112273281D01*
X145351537Y-112254647D01*
X145328360Y-112233640D01*
X145307353Y-112210463D01*
X145288719Y-112185338D01*
X145272638Y-112158508D01*
X145259263Y-112130230D01*
X145248725Y-112100778D01*
X145241125Y-112070435D01*
X145236535Y-112039493D01*
X145235000Y-112008250D01*
X145235000Y-111370750D01*
X145236535Y-111339507D01*
X145241125Y-111308565D01*
X145248725Y-111278222D01*
X145259263Y-111248770D01*
X145272638Y-111220492D01*
X145288719Y-111193662D01*
X145307353Y-111168537D01*
X145328360Y-111145360D01*
X145351537Y-111124353D01*
X145376662Y-111105719D01*
X145403492Y-111089638D01*
X145431770Y-111076263D01*
X145461222Y-111065725D01*
X145491565Y-111058125D01*
X145522507Y-111053535D01*
X145553750Y-111052000D01*
X146266250Y-111052000D01*
X146297493Y-111053535D01*
X146297493Y-111053535D01*
G37*
D17*
X145910000Y-111689500D03*
D16*
G36*
X146297493Y-109478535D02*
G01*
X146328435Y-109483125D01*
X146358778Y-109490725D01*
X146388230Y-109501263D01*
X146416508Y-109514638D01*
X146443338Y-109530719D01*
X146468463Y-109549353D01*
X146491640Y-109570360D01*
X146512647Y-109593537D01*
X146531281Y-109618662D01*
X146547362Y-109645492D01*
X146560737Y-109673770D01*
X146571275Y-109703222D01*
X146578875Y-109733565D01*
X146583465Y-109764507D01*
X146585000Y-109795750D01*
X146585000Y-110433250D01*
X146583465Y-110464493D01*
X146578875Y-110495435D01*
X146571275Y-110525778D01*
X146560737Y-110555230D01*
X146547362Y-110583508D01*
X146531281Y-110610338D01*
X146512647Y-110635463D01*
X146491640Y-110658640D01*
X146468463Y-110679647D01*
X146443338Y-110698281D01*
X146416508Y-110714362D01*
X146388230Y-110727737D01*
X146358778Y-110738275D01*
X146328435Y-110745875D01*
X146297493Y-110750465D01*
X146266250Y-110752000D01*
X145553750Y-110752000D01*
X145522507Y-110750465D01*
X145491565Y-110745875D01*
X145461222Y-110738275D01*
X145431770Y-110727737D01*
X145403492Y-110714362D01*
X145376662Y-110698281D01*
X145351537Y-110679647D01*
X145328360Y-110658640D01*
X145307353Y-110635463D01*
X145288719Y-110610338D01*
X145272638Y-110583508D01*
X145259263Y-110555230D01*
X145248725Y-110525778D01*
X145241125Y-110495435D01*
X145236535Y-110464493D01*
X145235000Y-110433250D01*
X145235000Y-109795750D01*
X145236535Y-109764507D01*
X145241125Y-109733565D01*
X145248725Y-109703222D01*
X145259263Y-109673770D01*
X145272638Y-109645492D01*
X145288719Y-109618662D01*
X145307353Y-109593537D01*
X145328360Y-109570360D01*
X145351537Y-109549353D01*
X145376662Y-109530719D01*
X145403492Y-109514638D01*
X145431770Y-109501263D01*
X145461222Y-109490725D01*
X145491565Y-109483125D01*
X145522507Y-109478535D01*
X145553750Y-109477000D01*
X146266250Y-109477000D01*
X146297493Y-109478535D01*
X146297493Y-109478535D01*
G37*
D17*
X145910000Y-110114500D03*
D23*
X107000000Y-130000000D03*
X151000000Y-130000000D03*
X151000000Y-86000000D03*
X107000000Y-86000000D03*
D24*
X111000000Y-130000000D03*
X147000000Y-130000000D03*
X147000000Y-86000000D03*
X111000000Y-86000000D03*
D16*
G36*
X140963493Y-89793535D02*
G01*
X140994435Y-89798125D01*
X141024778Y-89805725D01*
X141054230Y-89816263D01*
X141082508Y-89829638D01*
X141109338Y-89845719D01*
X141134463Y-89864353D01*
X141157640Y-89885360D01*
X141178647Y-89908537D01*
X141197281Y-89933662D01*
X141213362Y-89960492D01*
X141226737Y-89988770D01*
X141237275Y-90018222D01*
X141244875Y-90048565D01*
X141249465Y-90079507D01*
X141251000Y-90110750D01*
X141251000Y-90748250D01*
X141249465Y-90779493D01*
X141244875Y-90810435D01*
X141237275Y-90840778D01*
X141226737Y-90870230D01*
X141213362Y-90898508D01*
X141197281Y-90925338D01*
X141178647Y-90950463D01*
X141157640Y-90973640D01*
X141134463Y-90994647D01*
X141109338Y-91013281D01*
X141082508Y-91029362D01*
X141054230Y-91042737D01*
X141024778Y-91053275D01*
X140994435Y-91060875D01*
X140963493Y-91065465D01*
X140932250Y-91067000D01*
X140219750Y-91067000D01*
X140188507Y-91065465D01*
X140157565Y-91060875D01*
X140127222Y-91053275D01*
X140097770Y-91042737D01*
X140069492Y-91029362D01*
X140042662Y-91013281D01*
X140017537Y-90994647D01*
X139994360Y-90973640D01*
X139973353Y-90950463D01*
X139954719Y-90925338D01*
X139938638Y-90898508D01*
X139925263Y-90870230D01*
X139914725Y-90840778D01*
X139907125Y-90810435D01*
X139902535Y-90779493D01*
X139901000Y-90748250D01*
X139901000Y-90110750D01*
X139902535Y-90079507D01*
X139907125Y-90048565D01*
X139914725Y-90018222D01*
X139925263Y-89988770D01*
X139938638Y-89960492D01*
X139954719Y-89933662D01*
X139973353Y-89908537D01*
X139994360Y-89885360D01*
X140017537Y-89864353D01*
X140042662Y-89845719D01*
X140069492Y-89829638D01*
X140097770Y-89816263D01*
X140127222Y-89805725D01*
X140157565Y-89798125D01*
X140188507Y-89793535D01*
X140219750Y-89792000D01*
X140932250Y-89792000D01*
X140963493Y-89793535D01*
X140963493Y-89793535D01*
G37*
D17*
X140576000Y-90429500D03*
D16*
G36*
X140963493Y-91368535D02*
G01*
X140994435Y-91373125D01*
X141024778Y-91380725D01*
X141054230Y-91391263D01*
X141082508Y-91404638D01*
X141109338Y-91420719D01*
X141134463Y-91439353D01*
X141157640Y-91460360D01*
X141178647Y-91483537D01*
X141197281Y-91508662D01*
X141213362Y-91535492D01*
X141226737Y-91563770D01*
X141237275Y-91593222D01*
X141244875Y-91623565D01*
X141249465Y-91654507D01*
X141251000Y-91685750D01*
X141251000Y-92323250D01*
X141249465Y-92354493D01*
X141244875Y-92385435D01*
X141237275Y-92415778D01*
X141226737Y-92445230D01*
X141213362Y-92473508D01*
X141197281Y-92500338D01*
X141178647Y-92525463D01*
X141157640Y-92548640D01*
X141134463Y-92569647D01*
X141109338Y-92588281D01*
X141082508Y-92604362D01*
X141054230Y-92617737D01*
X141024778Y-92628275D01*
X140994435Y-92635875D01*
X140963493Y-92640465D01*
X140932250Y-92642000D01*
X140219750Y-92642000D01*
X140188507Y-92640465D01*
X140157565Y-92635875D01*
X140127222Y-92628275D01*
X140097770Y-92617737D01*
X140069492Y-92604362D01*
X140042662Y-92588281D01*
X140017537Y-92569647D01*
X139994360Y-92548640D01*
X139973353Y-92525463D01*
X139954719Y-92500338D01*
X139938638Y-92473508D01*
X139925263Y-92445230D01*
X139914725Y-92415778D01*
X139907125Y-92385435D01*
X139902535Y-92354493D01*
X139901000Y-92323250D01*
X139901000Y-91685750D01*
X139902535Y-91654507D01*
X139907125Y-91623565D01*
X139914725Y-91593222D01*
X139925263Y-91563770D01*
X139938638Y-91535492D01*
X139954719Y-91508662D01*
X139973353Y-91483537D01*
X139994360Y-91460360D01*
X140017537Y-91439353D01*
X140042662Y-91420719D01*
X140069492Y-91404638D01*
X140097770Y-91391263D01*
X140127222Y-91380725D01*
X140157565Y-91373125D01*
X140188507Y-91368535D01*
X140219750Y-91367000D01*
X140932250Y-91367000D01*
X140963493Y-91368535D01*
X140963493Y-91368535D01*
G37*
D17*
X140576000Y-92004500D03*
D16*
G36*
X129787493Y-93527535D02*
G01*
X129818435Y-93532125D01*
X129848778Y-93539725D01*
X129878230Y-93550263D01*
X129906508Y-93563638D01*
X129933338Y-93579719D01*
X129958463Y-93598353D01*
X129981640Y-93619360D01*
X130002647Y-93642537D01*
X130021281Y-93667662D01*
X130037362Y-93694492D01*
X130050737Y-93722770D01*
X130061275Y-93752222D01*
X130068875Y-93782565D01*
X130073465Y-93813507D01*
X130075000Y-93844750D01*
X130075000Y-94482250D01*
X130073465Y-94513493D01*
X130068875Y-94544435D01*
X130061275Y-94574778D01*
X130050737Y-94604230D01*
X130037362Y-94632508D01*
X130021281Y-94659338D01*
X130002647Y-94684463D01*
X129981640Y-94707640D01*
X129958463Y-94728647D01*
X129933338Y-94747281D01*
X129906508Y-94763362D01*
X129878230Y-94776737D01*
X129848778Y-94787275D01*
X129818435Y-94794875D01*
X129787493Y-94799465D01*
X129756250Y-94801000D01*
X129043750Y-94801000D01*
X129012507Y-94799465D01*
X128981565Y-94794875D01*
X128951222Y-94787275D01*
X128921770Y-94776737D01*
X128893492Y-94763362D01*
X128866662Y-94747281D01*
X128841537Y-94728647D01*
X128818360Y-94707640D01*
X128797353Y-94684463D01*
X128778719Y-94659338D01*
X128762638Y-94632508D01*
X128749263Y-94604230D01*
X128738725Y-94574778D01*
X128731125Y-94544435D01*
X128726535Y-94513493D01*
X128725000Y-94482250D01*
X128725000Y-93844750D01*
X128726535Y-93813507D01*
X128731125Y-93782565D01*
X128738725Y-93752222D01*
X128749263Y-93722770D01*
X128762638Y-93694492D01*
X128778719Y-93667662D01*
X128797353Y-93642537D01*
X128818360Y-93619360D01*
X128841537Y-93598353D01*
X128866662Y-93579719D01*
X128893492Y-93563638D01*
X128921770Y-93550263D01*
X128951222Y-93539725D01*
X128981565Y-93532125D01*
X129012507Y-93527535D01*
X129043750Y-93526000D01*
X129756250Y-93526000D01*
X129787493Y-93527535D01*
X129787493Y-93527535D01*
G37*
D17*
X129400000Y-94163500D03*
D16*
G36*
X129787493Y-91952535D02*
G01*
X129818435Y-91957125D01*
X129848778Y-91964725D01*
X129878230Y-91975263D01*
X129906508Y-91988638D01*
X129933338Y-92004719D01*
X129958463Y-92023353D01*
X129981640Y-92044360D01*
X130002647Y-92067537D01*
X130021281Y-92092662D01*
X130037362Y-92119492D01*
X130050737Y-92147770D01*
X130061275Y-92177222D01*
X130068875Y-92207565D01*
X130073465Y-92238507D01*
X130075000Y-92269750D01*
X130075000Y-92907250D01*
X130073465Y-92938493D01*
X130068875Y-92969435D01*
X130061275Y-92999778D01*
X130050737Y-93029230D01*
X130037362Y-93057508D01*
X130021281Y-93084338D01*
X130002647Y-93109463D01*
X129981640Y-93132640D01*
X129958463Y-93153647D01*
X129933338Y-93172281D01*
X129906508Y-93188362D01*
X129878230Y-93201737D01*
X129848778Y-93212275D01*
X129818435Y-93219875D01*
X129787493Y-93224465D01*
X129756250Y-93226000D01*
X129043750Y-93226000D01*
X129012507Y-93224465D01*
X128981565Y-93219875D01*
X128951222Y-93212275D01*
X128921770Y-93201737D01*
X128893492Y-93188362D01*
X128866662Y-93172281D01*
X128841537Y-93153647D01*
X128818360Y-93132640D01*
X128797353Y-93109463D01*
X128778719Y-93084338D01*
X128762638Y-93057508D01*
X128749263Y-93029230D01*
X128738725Y-92999778D01*
X128731125Y-92969435D01*
X128726535Y-92938493D01*
X128725000Y-92907250D01*
X128725000Y-92269750D01*
X128726535Y-92238507D01*
X128731125Y-92207565D01*
X128738725Y-92177222D01*
X128749263Y-92147770D01*
X128762638Y-92119492D01*
X128778719Y-92092662D01*
X128797353Y-92067537D01*
X128818360Y-92044360D01*
X128841537Y-92023353D01*
X128866662Y-92004719D01*
X128893492Y-91988638D01*
X128921770Y-91975263D01*
X128951222Y-91964725D01*
X128981565Y-91957125D01*
X129012507Y-91952535D01*
X129043750Y-91951000D01*
X129756250Y-91951000D01*
X129787493Y-91952535D01*
X129787493Y-91952535D01*
G37*
D17*
X129400000Y-92588500D03*
D25*
X145402000Y-97726000D03*
X145402000Y-101726000D03*
X145402000Y-94360000D03*
X145402000Y-90360000D03*
D11*
X148450000Y-91725000D03*
X148450000Y-93249000D03*
D16*
G36*
X125076493Y-101846535D02*
G01*
X125107435Y-101851125D01*
X125137778Y-101858725D01*
X125167230Y-101869263D01*
X125195508Y-101882638D01*
X125222338Y-101898719D01*
X125247463Y-101917353D01*
X125270640Y-101938360D01*
X125291647Y-101961537D01*
X125310281Y-101986662D01*
X125326362Y-102013492D01*
X125339737Y-102041770D01*
X125350275Y-102071222D01*
X125357875Y-102101565D01*
X125362465Y-102132507D01*
X125364000Y-102163750D01*
X125364000Y-102876250D01*
X125362465Y-102907493D01*
X125357875Y-102938435D01*
X125350275Y-102968778D01*
X125339737Y-102998230D01*
X125326362Y-103026508D01*
X125310281Y-103053338D01*
X125291647Y-103078463D01*
X125270640Y-103101640D01*
X125247463Y-103122647D01*
X125222338Y-103141281D01*
X125195508Y-103157362D01*
X125167230Y-103170737D01*
X125137778Y-103181275D01*
X125107435Y-103188875D01*
X125076493Y-103193465D01*
X125045250Y-103195000D01*
X124407750Y-103195000D01*
X124376507Y-103193465D01*
X124345565Y-103188875D01*
X124315222Y-103181275D01*
X124285770Y-103170737D01*
X124257492Y-103157362D01*
X124230662Y-103141281D01*
X124205537Y-103122647D01*
X124182360Y-103101640D01*
X124161353Y-103078463D01*
X124142719Y-103053338D01*
X124126638Y-103026508D01*
X124113263Y-102998230D01*
X124102725Y-102968778D01*
X124095125Y-102938435D01*
X124090535Y-102907493D01*
X124089000Y-102876250D01*
X124089000Y-102163750D01*
X124090535Y-102132507D01*
X124095125Y-102101565D01*
X124102725Y-102071222D01*
X124113263Y-102041770D01*
X124126638Y-102013492D01*
X124142719Y-101986662D01*
X124161353Y-101961537D01*
X124182360Y-101938360D01*
X124205537Y-101917353D01*
X124230662Y-101898719D01*
X124257492Y-101882638D01*
X124285770Y-101869263D01*
X124315222Y-101858725D01*
X124345565Y-101851125D01*
X124376507Y-101846535D01*
X124407750Y-101845000D01*
X125045250Y-101845000D01*
X125076493Y-101846535D01*
X125076493Y-101846535D01*
G37*
D17*
X124726500Y-102520000D03*
D16*
G36*
X123501493Y-101846535D02*
G01*
X123532435Y-101851125D01*
X123562778Y-101858725D01*
X123592230Y-101869263D01*
X123620508Y-101882638D01*
X123647338Y-101898719D01*
X123672463Y-101917353D01*
X123695640Y-101938360D01*
X123716647Y-101961537D01*
X123735281Y-101986662D01*
X123751362Y-102013492D01*
X123764737Y-102041770D01*
X123775275Y-102071222D01*
X123782875Y-102101565D01*
X123787465Y-102132507D01*
X123789000Y-102163750D01*
X123789000Y-102876250D01*
X123787465Y-102907493D01*
X123782875Y-102938435D01*
X123775275Y-102968778D01*
X123764737Y-102998230D01*
X123751362Y-103026508D01*
X123735281Y-103053338D01*
X123716647Y-103078463D01*
X123695640Y-103101640D01*
X123672463Y-103122647D01*
X123647338Y-103141281D01*
X123620508Y-103157362D01*
X123592230Y-103170737D01*
X123562778Y-103181275D01*
X123532435Y-103188875D01*
X123501493Y-103193465D01*
X123470250Y-103195000D01*
X122832750Y-103195000D01*
X122801507Y-103193465D01*
X122770565Y-103188875D01*
X122740222Y-103181275D01*
X122710770Y-103170737D01*
X122682492Y-103157362D01*
X122655662Y-103141281D01*
X122630537Y-103122647D01*
X122607360Y-103101640D01*
X122586353Y-103078463D01*
X122567719Y-103053338D01*
X122551638Y-103026508D01*
X122538263Y-102998230D01*
X122527725Y-102968778D01*
X122520125Y-102938435D01*
X122515535Y-102907493D01*
X122514000Y-102876250D01*
X122514000Y-102163750D01*
X122515535Y-102132507D01*
X122520125Y-102101565D01*
X122527725Y-102071222D01*
X122538263Y-102041770D01*
X122551638Y-102013492D01*
X122567719Y-101986662D01*
X122586353Y-101961537D01*
X122607360Y-101938360D01*
X122630537Y-101917353D01*
X122655662Y-101898719D01*
X122682492Y-101882638D01*
X122710770Y-101869263D01*
X122740222Y-101858725D01*
X122770565Y-101851125D01*
X122801507Y-101846535D01*
X122832750Y-101845000D01*
X123470250Y-101845000D01*
X123501493Y-101846535D01*
X123501493Y-101846535D01*
G37*
D17*
X123151500Y-102520000D03*
D16*
G36*
X126041493Y-91940535D02*
G01*
X126072435Y-91945125D01*
X126102778Y-91952725D01*
X126132230Y-91963263D01*
X126160508Y-91976638D01*
X126187338Y-91992719D01*
X126212463Y-92011353D01*
X126235640Y-92032360D01*
X126256647Y-92055537D01*
X126275281Y-92080662D01*
X126291362Y-92107492D01*
X126304737Y-92135770D01*
X126315275Y-92165222D01*
X126322875Y-92195565D01*
X126327465Y-92226507D01*
X126329000Y-92257750D01*
X126329000Y-92970250D01*
X126327465Y-93001493D01*
X126322875Y-93032435D01*
X126315275Y-93062778D01*
X126304737Y-93092230D01*
X126291362Y-93120508D01*
X126275281Y-93147338D01*
X126256647Y-93172463D01*
X126235640Y-93195640D01*
X126212463Y-93216647D01*
X126187338Y-93235281D01*
X126160508Y-93251362D01*
X126132230Y-93264737D01*
X126102778Y-93275275D01*
X126072435Y-93282875D01*
X126041493Y-93287465D01*
X126010250Y-93289000D01*
X125372750Y-93289000D01*
X125341507Y-93287465D01*
X125310565Y-93282875D01*
X125280222Y-93275275D01*
X125250770Y-93264737D01*
X125222492Y-93251362D01*
X125195662Y-93235281D01*
X125170537Y-93216647D01*
X125147360Y-93195640D01*
X125126353Y-93172463D01*
X125107719Y-93147338D01*
X125091638Y-93120508D01*
X125078263Y-93092230D01*
X125067725Y-93062778D01*
X125060125Y-93032435D01*
X125055535Y-93001493D01*
X125054000Y-92970250D01*
X125054000Y-92257750D01*
X125055535Y-92226507D01*
X125060125Y-92195565D01*
X125067725Y-92165222D01*
X125078263Y-92135770D01*
X125091638Y-92107492D01*
X125107719Y-92080662D01*
X125126353Y-92055537D01*
X125147360Y-92032360D01*
X125170537Y-92011353D01*
X125195662Y-91992719D01*
X125222492Y-91976638D01*
X125250770Y-91963263D01*
X125280222Y-91952725D01*
X125310565Y-91945125D01*
X125341507Y-91940535D01*
X125372750Y-91939000D01*
X126010250Y-91939000D01*
X126041493Y-91940535D01*
X126041493Y-91940535D01*
G37*
D17*
X125691500Y-92614000D03*
D16*
G36*
X127616493Y-91940535D02*
G01*
X127647435Y-91945125D01*
X127677778Y-91952725D01*
X127707230Y-91963263D01*
X127735508Y-91976638D01*
X127762338Y-91992719D01*
X127787463Y-92011353D01*
X127810640Y-92032360D01*
X127831647Y-92055537D01*
X127850281Y-92080662D01*
X127866362Y-92107492D01*
X127879737Y-92135770D01*
X127890275Y-92165222D01*
X127897875Y-92195565D01*
X127902465Y-92226507D01*
X127904000Y-92257750D01*
X127904000Y-92970250D01*
X127902465Y-93001493D01*
X127897875Y-93032435D01*
X127890275Y-93062778D01*
X127879737Y-93092230D01*
X127866362Y-93120508D01*
X127850281Y-93147338D01*
X127831647Y-93172463D01*
X127810640Y-93195640D01*
X127787463Y-93216647D01*
X127762338Y-93235281D01*
X127735508Y-93251362D01*
X127707230Y-93264737D01*
X127677778Y-93275275D01*
X127647435Y-93282875D01*
X127616493Y-93287465D01*
X127585250Y-93289000D01*
X126947750Y-93289000D01*
X126916507Y-93287465D01*
X126885565Y-93282875D01*
X126855222Y-93275275D01*
X126825770Y-93264737D01*
X126797492Y-93251362D01*
X126770662Y-93235281D01*
X126745537Y-93216647D01*
X126722360Y-93195640D01*
X126701353Y-93172463D01*
X126682719Y-93147338D01*
X126666638Y-93120508D01*
X126653263Y-93092230D01*
X126642725Y-93062778D01*
X126635125Y-93032435D01*
X126630535Y-93001493D01*
X126629000Y-92970250D01*
X126629000Y-92257750D01*
X126630535Y-92226507D01*
X126635125Y-92195565D01*
X126642725Y-92165222D01*
X126653263Y-92135770D01*
X126666638Y-92107492D01*
X126682719Y-92080662D01*
X126701353Y-92055537D01*
X126722360Y-92032360D01*
X126745537Y-92011353D01*
X126770662Y-91992719D01*
X126797492Y-91976638D01*
X126825770Y-91963263D01*
X126855222Y-91952725D01*
X126885565Y-91945125D01*
X126916507Y-91940535D01*
X126947750Y-91939000D01*
X127585250Y-91939000D01*
X127616493Y-91940535D01*
X127616493Y-91940535D01*
G37*
D17*
X127266500Y-92614000D03*
D26*
X131838000Y-92614000D03*
D27*
X138138000Y-92614000D03*
X138138000Y-90314000D03*
X138138000Y-94914000D03*
M02*
