G04 #@! TF.GenerationSoftware,KiCad,Pcbnew,(5.1.4)-1*
G04 #@! TF.CreationDate,2020-04-17T11:09:56+09:00*
G04 #@! TF.ProjectId,M5_Atom2Mbus,4d355f41-746f-46d3-924d-6275732e6b69,v0.1*
G04 #@! TF.SameCoordinates,Original*
G04 #@! TF.FileFunction,Soldermask,Bot*
G04 #@! TF.FilePolarity,Negative*
%FSLAX46Y46*%
G04 Gerber Fmt 4.6, Leading zero omitted, Abs format (unit mm)*
G04 Created by KiCad (PCBNEW (5.1.4)-1) date 2020-04-17 11:09:56*
%MOMM*%
%LPD*%
G04 APERTURE LIST*
%ADD10C,1.200000*%
%ADD11C,1.400000*%
%ADD12R,3.550000X1.400000*%
%ADD13C,2.100000*%
%ADD14R,2.100000X2.100000*%
%ADD15O,2.100000X2.100000*%
%ADD16R,1.750000X1.750000*%
%ADD17C,1.750000*%
%ADD18C,3.600000*%
%ADD19C,2.600000*%
G04 APERTURE END LIST*
D10*
X110000000Y-121970000D03*
D11*
X110000000Y-124510000D03*
D10*
X110000000Y-94030000D03*
D12*
X107475000Y-90220000D03*
D10*
X106825000Y-90220000D03*
D12*
X112555000Y-90220000D03*
X107475000Y-92760000D03*
X112555000Y-92760000D03*
X107475000Y-95300000D03*
X112555000Y-95300000D03*
X107475000Y-97840000D03*
X112555000Y-97840000D03*
X107475000Y-100380000D03*
X112555000Y-100380000D03*
X107475000Y-102920000D03*
X112555000Y-102920000D03*
X107475000Y-105460000D03*
X112555000Y-105460000D03*
X107475000Y-108000000D03*
X112555000Y-108000000D03*
X107475000Y-110540000D03*
X112555000Y-110540000D03*
X107475000Y-113080000D03*
X112555000Y-113080000D03*
X107475000Y-115620000D03*
X112555000Y-115620000D03*
X107475000Y-118160000D03*
X112555000Y-118160000D03*
X107475000Y-120700000D03*
X112555000Y-120700000D03*
X107475000Y-123240000D03*
X112555000Y-123240000D03*
X107475000Y-125780000D03*
X112555000Y-125780000D03*
D10*
X106825000Y-92760000D03*
X106825000Y-95300000D03*
X106825000Y-97840000D03*
X106825000Y-100380000D03*
X106825000Y-102920000D03*
X106825000Y-105460000D03*
X106825000Y-108000000D03*
X106825000Y-110540000D03*
X106825000Y-113080000D03*
X106825000Y-115620000D03*
X106825000Y-118160000D03*
X106825000Y-120700000D03*
X106825000Y-123240000D03*
X106825000Y-125780000D03*
X113175000Y-90220000D03*
X113175000Y-92760000D03*
X113175000Y-95300000D03*
X113175000Y-97840000D03*
X113175000Y-100380000D03*
X113175000Y-102920000D03*
X113175000Y-105460000D03*
X113175000Y-108000000D03*
X113175000Y-110540000D03*
X113175000Y-113080000D03*
X113175000Y-115620000D03*
X113175000Y-118160000D03*
X113175000Y-120700000D03*
X113175000Y-123240000D03*
X113175000Y-125780000D03*
D11*
X110000000Y-91490000D03*
D13*
X108730000Y-90220000D03*
X111270000Y-90220000D03*
X108730000Y-92760000D03*
X111270000Y-92760000D03*
X108730000Y-95300000D03*
X111270000Y-95300000D03*
X108730000Y-97840000D03*
X111270000Y-97840000D03*
X108730000Y-100380000D03*
X111270000Y-100380000D03*
X108730000Y-102920000D03*
X111270000Y-102920000D03*
X108730000Y-105460000D03*
X111270000Y-105460000D03*
X108730000Y-108000000D03*
X111270000Y-108000000D03*
X108730000Y-110540000D03*
X111270000Y-110540000D03*
X108730000Y-113080000D03*
X111270000Y-113080000D03*
X108730000Y-115620000D03*
X111270000Y-115620000D03*
X108730000Y-118160000D03*
X111270000Y-118160000D03*
X108730000Y-120700000D03*
X111270000Y-120700000D03*
X108730000Y-123240000D03*
X111270000Y-123240000D03*
X108730000Y-125780000D03*
X111270000Y-125780000D03*
D14*
X126860000Y-112680000D03*
D15*
X126860000Y-110140000D03*
X126860000Y-107600000D03*
X126860000Y-105060000D03*
X126860000Y-102520000D03*
D14*
X142100000Y-112680000D03*
D15*
X142100000Y-110140000D03*
X142100000Y-107600000D03*
X142100000Y-105060000D03*
D16*
X147180000Y-124110000D03*
D17*
X147180000Y-122110000D03*
X147180000Y-120110000D03*
X147180000Y-118110000D03*
D14*
X148450000Y-112680000D03*
D15*
X148450000Y-110140000D03*
D18*
X107000000Y-130000000D03*
X151000000Y-130000000D03*
X151000000Y-86000000D03*
X107000000Y-86000000D03*
D19*
X111000000Y-130000000D03*
X147000000Y-130000000D03*
X147000000Y-86000000D03*
X111000000Y-86000000D03*
M02*
